G75*
G70*
%OFA0B0*%
%FSLAX24Y24*%
%IPPOS*%
%LPD*%
%AMOC8*
5,1,8,0,0,1.08239X$1,22.5*
%
%ADD10OC8,0.0740*%
%ADD11C,0.0560*%
%ADD12OC8,0.0560*%
%ADD13R,0.0740X0.0740*%
%ADD14OC8,0.1181*%
%ADD15C,0.0640*%
%ADD16C,0.0710*%
%ADD17R,0.0634X0.0634*%
%ADD18R,0.1266X0.1266*%
%ADD19C,0.0780*%
%ADD20OC8,0.0780*%
%ADD21C,0.0780*%
%ADD22C,0.0740*%
%ADD23R,0.0640X0.0640*%
%ADD24C,0.0640*%
%ADD25C,0.0480*%
%ADD26C,0.0560*%
%ADD27C,0.0080*%
%ADD28C,0.0160*%
%ADD29C,0.0436*%
D10*
X025364Y018115D03*
X026364Y018115D03*
X027364Y018115D03*
X027364Y019115D03*
X026364Y019115D03*
X025364Y019115D03*
D11*
X025364Y023585D02*
X025364Y024145D01*
X024364Y024145D02*
X024364Y023585D01*
X023364Y023585D02*
X023364Y024145D01*
X026364Y024145D02*
X026364Y023585D01*
X027364Y023585D02*
X027364Y024145D01*
X028364Y024145D02*
X028364Y023585D01*
X029364Y023585D02*
X029364Y024145D01*
X030364Y024145D02*
X030364Y023585D01*
X031364Y023585D02*
X031364Y024145D01*
X032364Y024145D02*
X032364Y023585D01*
X033364Y023585D02*
X033364Y024145D01*
X034364Y024145D02*
X034364Y023585D01*
X035364Y023585D02*
X035364Y024145D01*
X036364Y024145D02*
X036364Y023585D01*
X037364Y023585D02*
X037364Y024145D01*
X038364Y024145D02*
X038364Y023585D01*
X039364Y023585D02*
X039364Y024145D01*
X040364Y024145D02*
X040364Y023585D01*
X041364Y023585D02*
X041364Y024145D01*
X042364Y024145D02*
X042364Y023585D01*
X042364Y029585D02*
X042364Y030145D01*
X041364Y030145D02*
X041364Y029585D01*
X040364Y029585D02*
X040364Y030145D01*
X039364Y030145D02*
X039364Y029585D01*
X038364Y029585D02*
X038364Y030145D01*
X037364Y030145D02*
X037364Y029585D01*
X036364Y029585D02*
X036364Y030145D01*
X035364Y030145D02*
X035364Y029585D01*
X034364Y029585D02*
X034364Y030145D01*
X033364Y030145D02*
X033364Y029585D01*
X032364Y029585D02*
X032364Y030145D01*
X031364Y030145D02*
X031364Y029585D01*
X030364Y029585D02*
X030364Y030145D01*
X029364Y030145D02*
X029364Y029585D01*
X028364Y029585D02*
X028364Y030145D01*
X027364Y030145D02*
X027364Y029585D01*
X026364Y029585D02*
X026364Y030145D01*
X025364Y030145D02*
X025364Y029585D01*
X024364Y029585D02*
X024364Y030145D01*
X023364Y030145D02*
X023364Y029585D01*
X015114Y027175D02*
X015114Y026615D01*
X014114Y026615D02*
X014114Y027175D01*
X013114Y027175D02*
X013114Y026615D01*
X012114Y026615D02*
X012114Y027175D01*
X012114Y023615D02*
X012114Y023055D01*
X013114Y023055D02*
X013114Y023615D01*
X014114Y023615D02*
X014114Y023055D01*
X015114Y023055D02*
X015114Y023615D01*
X014144Y017865D02*
X013584Y017865D01*
X013584Y016865D02*
X014144Y016865D01*
X014144Y015865D02*
X013584Y015865D01*
X013584Y014865D02*
X014144Y014865D01*
X014144Y013865D02*
X013584Y013865D01*
X013584Y012865D02*
X014144Y012865D01*
X014144Y011865D02*
X013584Y011865D01*
X013584Y010865D02*
X014144Y010865D01*
X016584Y010865D02*
X017144Y010865D01*
X017144Y011865D02*
X016584Y011865D01*
X016584Y012865D02*
X017144Y012865D01*
X017144Y013865D02*
X016584Y013865D01*
X016584Y014865D02*
X017144Y014865D01*
X017144Y015865D02*
X016584Y015865D01*
X016584Y016865D02*
X017144Y016865D01*
X017144Y017865D02*
X016584Y017865D01*
X010394Y009365D02*
X009834Y009365D01*
X009834Y008365D02*
X010394Y008365D01*
X010394Y007365D02*
X009834Y007365D01*
X009834Y006365D02*
X010394Y006365D01*
X010394Y005365D02*
X009834Y005365D01*
X009834Y004365D02*
X010394Y004365D01*
X010394Y003365D02*
X009834Y003365D01*
X009834Y002365D02*
X010394Y002365D01*
X007394Y002365D02*
X006834Y002365D01*
X006834Y003365D02*
X007394Y003365D01*
X007394Y004365D02*
X006834Y004365D01*
X006834Y005365D02*
X007394Y005365D01*
X007394Y006365D02*
X006834Y006365D01*
X006834Y007365D02*
X007394Y007365D01*
X007394Y008365D02*
X006834Y008365D01*
X006834Y009365D02*
X007394Y009365D01*
X035584Y010865D02*
X036144Y010865D01*
X036144Y011865D02*
X035584Y011865D01*
X035584Y012865D02*
X036144Y012865D01*
X036144Y013865D02*
X035584Y013865D01*
X035584Y014865D02*
X036144Y014865D01*
X036144Y015865D02*
X035584Y015865D01*
X035584Y016865D02*
X036144Y016865D01*
X036144Y017865D02*
X035584Y017865D01*
X038584Y017865D02*
X039144Y017865D01*
X039144Y016865D02*
X038584Y016865D01*
X038584Y015865D02*
X039144Y015865D01*
X039144Y014865D02*
X038584Y014865D01*
X038584Y013865D02*
X039144Y013865D01*
X039144Y012865D02*
X038584Y012865D01*
X038584Y011865D02*
X039144Y011865D01*
X039144Y010865D02*
X038584Y010865D01*
D12*
X037864Y009365D03*
X037864Y008365D03*
X039864Y008365D03*
X039864Y009365D03*
X041864Y009365D03*
X041864Y008365D03*
X034364Y010365D03*
X033364Y010365D03*
X032364Y010365D03*
X031364Y010365D03*
X030364Y009365D03*
X030364Y008365D03*
X028364Y008365D03*
X028364Y009365D03*
X027864Y010365D03*
X026864Y010365D03*
X025864Y010365D03*
X024864Y010365D03*
X024364Y009365D03*
X024364Y008365D03*
X026364Y008365D03*
X026364Y009365D03*
X021864Y009365D03*
X021864Y008365D03*
X019864Y008365D03*
X019864Y009365D03*
X020114Y010365D03*
X021114Y010365D03*
X019114Y010365D03*
X018114Y010365D03*
X017864Y009365D03*
X017864Y008365D03*
X013864Y008365D03*
X013864Y009365D03*
X018114Y013365D03*
X019114Y013365D03*
X020114Y013365D03*
X021114Y013365D03*
X024864Y013365D03*
X025864Y013365D03*
X026864Y013365D03*
X027864Y013365D03*
X031364Y013365D03*
X032364Y013365D03*
X033364Y013365D03*
X034364Y013365D03*
X033364Y009365D03*
X033364Y008365D03*
X031864Y021365D03*
X031864Y022365D03*
X030614Y021865D03*
X027614Y021865D03*
X019114Y028115D03*
X016114Y028115D03*
X010864Y028115D03*
X010864Y025115D03*
X023364Y031365D03*
X027364Y031365D03*
X032364Y031365D03*
X033364Y031365D03*
X037864Y022365D03*
X037864Y021365D03*
D13*
X041380Y015115D03*
X042364Y015115D03*
X043348Y015115D03*
X032848Y015115D03*
X031864Y015115D03*
X030880Y015115D03*
X021598Y015115D03*
X020614Y015115D03*
X019630Y015115D03*
X011348Y015115D03*
X010364Y015115D03*
X009380Y015115D03*
D14*
X008632Y017615D03*
X012096Y017615D03*
X018882Y017615D03*
X022346Y017615D03*
X030132Y017615D03*
X033596Y017615D03*
X040632Y017615D03*
X044096Y017615D03*
D15*
X043794Y020865D02*
X044434Y020865D01*
X044534Y021865D02*
X043894Y021865D01*
X043794Y022865D02*
X044434Y022865D01*
X044534Y023865D02*
X043894Y023865D01*
X043794Y024865D02*
X044434Y024865D01*
X044534Y025865D02*
X043894Y025865D01*
X043794Y026865D02*
X044434Y026865D01*
X044534Y027865D02*
X043894Y027865D01*
X043794Y028865D02*
X044434Y028865D01*
X044534Y029865D02*
X043894Y029865D01*
X027364Y015935D02*
X027364Y015295D01*
X026364Y015395D02*
X026364Y016035D01*
X025364Y015935D02*
X025364Y015295D01*
X044044Y005915D02*
X044684Y005915D01*
X044684Y004815D02*
X044044Y004815D01*
D16*
X040844Y006720D02*
X040844Y007430D01*
X038884Y007430D02*
X038884Y006720D01*
X034344Y006720D02*
X034344Y007430D01*
X032384Y007430D02*
X032384Y006720D01*
X027844Y006720D02*
X027844Y007430D01*
X025884Y007430D02*
X025884Y006720D01*
X021344Y006720D02*
X021344Y007430D01*
X019384Y007430D02*
X019384Y006720D01*
X014844Y006720D02*
X014844Y007430D01*
X012884Y007430D02*
X012884Y006720D01*
X012884Y002510D02*
X012884Y001800D01*
X014844Y001800D02*
X014844Y002510D01*
X019384Y002510D02*
X019384Y001800D01*
X021344Y001800D02*
X021344Y002510D01*
X025884Y002510D02*
X025884Y001800D01*
X027844Y001800D02*
X027844Y002510D01*
X032384Y002510D02*
X032384Y001800D01*
X034344Y001800D02*
X034344Y002510D01*
X038884Y002510D02*
X038884Y001800D01*
X040844Y001800D02*
X040844Y002510D01*
D17*
X007848Y022412D03*
X006864Y022412D03*
X005880Y022412D03*
X005880Y028120D03*
X007848Y028120D03*
D18*
X009266Y025365D03*
X004463Y025365D03*
D19*
X010114Y029975D02*
X010114Y030755D01*
X018114Y030755D02*
X018114Y029975D01*
D20*
X016114Y029365D03*
X015114Y030365D03*
X013114Y030365D03*
X012114Y029365D03*
X008114Y029365D03*
X007114Y030365D03*
X020114Y029365D03*
X021114Y030365D03*
D21*
X019114Y031865D03*
X017114Y031865D03*
X011114Y031865D03*
X009114Y031865D03*
D22*
X012114Y028115D03*
X015114Y028115D03*
D23*
X038963Y033467D03*
D24*
X037963Y033467D03*
X036963Y033467D03*
X035963Y033467D03*
X034963Y033467D03*
X033963Y033467D03*
X032963Y033467D03*
X031963Y033467D03*
X030963Y033467D03*
X029963Y033467D03*
X028963Y033467D03*
X027963Y033467D03*
X026963Y033467D03*
X025963Y033467D03*
X024963Y033467D03*
X023963Y033467D03*
D25*
X039364Y031865D03*
X040364Y031865D03*
X041364Y031865D03*
D26*
X035814Y021865D03*
X033914Y021865D03*
D27*
X035814Y021865D02*
X036314Y021365D01*
X037864Y021365D01*
X038364Y023865D02*
X038364Y025865D01*
X038864Y026365D02*
X038864Y018865D01*
X037864Y017865D01*
X037864Y014865D01*
X038864Y013865D01*
X037364Y012365D01*
X018364Y012365D01*
X016864Y013865D01*
X015864Y015365D02*
X015864Y011865D01*
X016364Y011365D01*
X037864Y011365D01*
X038364Y010865D01*
X038864Y010865D01*
X036864Y014365D02*
X035364Y014365D01*
X034364Y013365D01*
X033864Y013865D02*
X035864Y015865D01*
X033864Y013865D02*
X031864Y013865D01*
X031364Y013365D01*
X031864Y015115D02*
X031864Y018615D01*
X029864Y020615D01*
X029864Y025365D01*
X025864Y029365D01*
X025864Y030365D01*
X025614Y030615D01*
X024614Y030615D01*
X024364Y030365D01*
X024364Y029865D01*
X025364Y029865D02*
X025364Y029365D01*
X024864Y028865D01*
X024864Y019615D01*
X024364Y019115D01*
X024364Y016365D01*
X023864Y015865D01*
X021364Y015865D01*
X020614Y015115D01*
X016864Y015865D02*
X016364Y015865D01*
X015864Y015365D01*
X013864Y013865D02*
X013364Y013865D01*
X011864Y012365D01*
X011864Y004865D01*
X011364Y004365D01*
X010114Y004365D01*
X010114Y003365D02*
X011114Y003365D01*
X012114Y004365D01*
X012114Y011615D01*
X013364Y012865D01*
X013864Y012865D01*
X013864Y011865D02*
X013364Y011865D01*
X012364Y010865D01*
X012364Y004115D01*
X010614Y002365D01*
X010114Y002365D01*
X014844Y002155D02*
X014844Y007075D01*
X021344Y007075D02*
X021344Y002135D01*
X021364Y002115D01*
X021364Y002135D01*
X021344Y002155D01*
X027844Y002155D02*
X027844Y007075D01*
X034344Y007075D02*
X034344Y002135D01*
X034364Y002115D01*
X034364Y002135D01*
X034344Y002155D01*
X040844Y002155D02*
X040864Y002135D01*
X040864Y002115D01*
X042364Y015115D02*
X042364Y015365D01*
X041864Y015865D01*
X041864Y027365D01*
X040864Y028865D02*
X041364Y029365D01*
X041364Y029865D01*
X042364Y029865D02*
X042614Y029615D01*
X042614Y025365D01*
X043114Y024865D01*
X044214Y023865D01*
X039864Y026865D02*
X039864Y016365D01*
X040364Y015865D02*
X041614Y017115D01*
X041614Y018115D01*
X040864Y018865D01*
X040864Y028865D01*
X039864Y026865D02*
X037364Y029365D01*
X037364Y029865D01*
X037364Y032065D01*
X035963Y033467D01*
X036963Y033467D02*
X037815Y032615D01*
X039614Y032615D01*
X040364Y031865D01*
X036364Y031065D02*
X036364Y029865D01*
X035364Y029865D02*
X038864Y026365D01*
X039364Y025865D02*
X039364Y023865D01*
X034364Y027115D02*
X034364Y029865D01*
X036364Y031065D02*
X033963Y033467D01*
X026364Y030365D02*
X026364Y029865D01*
X026364Y030365D02*
X025864Y030865D01*
X023364Y030865D01*
X022864Y030365D01*
X022864Y022115D01*
X020614Y019865D01*
X012864Y019865D01*
X010364Y017365D01*
X010364Y015115D01*
X008614Y020615D02*
X015614Y020615D01*
X018114Y023115D01*
X025364Y019115D02*
X027614Y021365D01*
X027614Y021865D01*
X038864Y015865D02*
X040364Y015865D01*
X019114Y031865D02*
X017114Y031865D01*
X011114Y031865D01*
X009114Y031865D01*
D28*
X004268Y001537D02*
X004196Y001365D01*
X012573Y001365D01*
X012536Y001391D01*
X012476Y001451D01*
X012427Y001519D01*
X012388Y001594D01*
X012362Y001674D01*
X012349Y001757D01*
X012349Y002117D01*
X012846Y002117D01*
X012846Y002192D01*
X012349Y002192D01*
X012349Y002552D01*
X012362Y002635D01*
X012388Y002715D01*
X012427Y002790D01*
X012476Y002858D01*
X012536Y002918D01*
X012604Y002967D01*
X012679Y003005D01*
X012759Y003031D01*
X012842Y003045D01*
X012847Y003045D01*
X012847Y002192D01*
X012922Y002192D01*
X013419Y002192D01*
X013419Y002552D01*
X013406Y002635D01*
X013380Y002715D01*
X013342Y002790D01*
X013292Y002858D01*
X013233Y002918D01*
X013164Y002967D01*
X013089Y003005D01*
X013009Y003031D01*
X012926Y003045D01*
X012922Y003045D01*
X012922Y002192D01*
X012922Y002117D01*
X013419Y002117D01*
X013419Y001757D01*
X013406Y001674D01*
X013380Y001594D01*
X013342Y001519D01*
X013292Y001451D01*
X013233Y001391D01*
X013195Y001365D01*
X014452Y001365D01*
X014348Y001468D01*
X014259Y001683D01*
X014259Y002626D01*
X014348Y002841D01*
X014513Y003005D01*
X014574Y003031D01*
X014574Y006198D01*
X014513Y006224D01*
X014348Y006388D01*
X014259Y006603D01*
X014259Y007546D01*
X014348Y007761D01*
X014513Y007925D01*
X014728Y008015D01*
X014960Y008015D01*
X015175Y007925D01*
X015340Y007761D01*
X015429Y007546D01*
X015429Y006603D01*
X015340Y006388D01*
X015175Y006224D01*
X015114Y006198D01*
X015114Y003031D01*
X015175Y003005D01*
X015340Y002841D01*
X015429Y002626D01*
X015429Y001683D01*
X015340Y001468D01*
X015236Y001365D01*
X019073Y001365D01*
X019036Y001391D01*
X018976Y001451D01*
X018927Y001519D01*
X018888Y001594D01*
X018862Y001674D01*
X018849Y001757D01*
X018849Y002117D01*
X019346Y002117D01*
X019346Y002192D01*
X018849Y002192D01*
X018849Y002552D01*
X018862Y002635D01*
X018888Y002715D01*
X018927Y002790D01*
X018976Y002858D01*
X019036Y002918D01*
X019104Y002967D01*
X019179Y003005D01*
X019259Y003031D01*
X019342Y003045D01*
X019347Y003045D01*
X019347Y002192D01*
X019422Y002192D01*
X019919Y002192D01*
X019919Y002552D01*
X019906Y002635D01*
X019880Y002715D01*
X019842Y002790D01*
X019792Y002858D01*
X019733Y002918D01*
X019664Y002967D01*
X019589Y003005D01*
X019509Y003031D01*
X019426Y003045D01*
X019422Y003045D01*
X019422Y002192D01*
X019422Y002117D01*
X019919Y002117D01*
X019919Y001757D01*
X019906Y001674D01*
X019880Y001594D01*
X019842Y001519D01*
X019792Y001451D01*
X019733Y001391D01*
X019695Y001365D01*
X020952Y001365D01*
X020848Y001468D01*
X020759Y001683D01*
X020759Y002626D01*
X020848Y002841D01*
X021013Y003005D01*
X021074Y003031D01*
X021074Y006198D01*
X021013Y006224D01*
X020848Y006388D01*
X020759Y006603D01*
X020759Y007546D01*
X020848Y007761D01*
X021013Y007925D01*
X021228Y008015D01*
X021460Y008015D01*
X021637Y007942D01*
X021404Y008174D01*
X021404Y008364D01*
X021864Y008364D01*
X021864Y008364D01*
X021864Y007905D01*
X021696Y007905D01*
X021840Y007761D01*
X021929Y007546D01*
X021929Y006603D01*
X021840Y006388D01*
X021675Y006224D01*
X021614Y006198D01*
X021614Y003031D01*
X021675Y003005D01*
X021840Y002841D01*
X021929Y002626D01*
X021929Y001683D01*
X021840Y001468D01*
X021736Y001365D01*
X025573Y001365D01*
X025536Y001391D01*
X025476Y001451D01*
X025427Y001519D01*
X025388Y001594D01*
X025362Y001674D01*
X025349Y001757D01*
X025349Y002117D01*
X025846Y002117D01*
X025846Y002192D01*
X025349Y002192D01*
X025349Y002552D01*
X025362Y002635D01*
X025388Y002715D01*
X025427Y002790D01*
X025476Y002858D01*
X025536Y002918D01*
X025604Y002967D01*
X025679Y003005D01*
X025759Y003031D01*
X025842Y003045D01*
X025847Y003045D01*
X025847Y002192D01*
X025922Y002192D01*
X026419Y002192D01*
X026419Y002552D01*
X026406Y002635D01*
X026380Y002715D01*
X026342Y002790D01*
X026292Y002858D01*
X026233Y002918D01*
X026164Y002967D01*
X026089Y003005D01*
X026009Y003031D01*
X025926Y003045D01*
X025922Y003045D01*
X025922Y002192D01*
X025922Y002117D01*
X026419Y002117D01*
X026419Y001757D01*
X026406Y001674D01*
X026380Y001594D01*
X026342Y001519D01*
X026292Y001451D01*
X026233Y001391D01*
X026195Y001365D01*
X027452Y001365D01*
X027348Y001468D01*
X027259Y001683D01*
X027259Y002626D01*
X027348Y002841D01*
X027513Y003005D01*
X027574Y003031D01*
X027574Y006198D01*
X027513Y006224D01*
X027348Y006388D01*
X027259Y006603D01*
X027259Y007546D01*
X027348Y007761D01*
X027513Y007925D01*
X027728Y008015D01*
X027960Y008015D01*
X028137Y007942D01*
X027904Y008174D01*
X027904Y008364D01*
X028364Y008364D01*
X028364Y008364D01*
X028364Y007905D01*
X028196Y007905D01*
X028340Y007761D01*
X028429Y007546D01*
X028429Y006603D01*
X028340Y006388D01*
X028175Y006224D01*
X028114Y006198D01*
X028114Y003031D01*
X028175Y003005D01*
X028340Y002841D01*
X028429Y002626D01*
X028429Y001683D01*
X028340Y001468D01*
X028236Y001365D01*
X032073Y001365D01*
X032036Y001391D01*
X031976Y001451D01*
X031927Y001519D01*
X031888Y001594D01*
X031862Y001674D01*
X031849Y001757D01*
X031849Y002117D01*
X032346Y002117D01*
X032346Y002192D01*
X031849Y002192D01*
X031849Y002552D01*
X031862Y002635D01*
X031888Y002715D01*
X031927Y002790D01*
X031976Y002858D01*
X032036Y002918D01*
X032104Y002967D01*
X032179Y003005D01*
X032259Y003031D01*
X032342Y003045D01*
X032347Y003045D01*
X032347Y002192D01*
X032422Y002192D01*
X032919Y002192D01*
X032919Y002552D01*
X032906Y002635D01*
X032880Y002715D01*
X032842Y002790D01*
X032792Y002858D01*
X032733Y002918D01*
X032664Y002967D01*
X032589Y003005D01*
X032509Y003031D01*
X032426Y003045D01*
X032422Y003045D01*
X032422Y002192D01*
X032422Y002117D01*
X032919Y002117D01*
X032919Y001757D01*
X032906Y001674D01*
X032880Y001594D01*
X032842Y001519D01*
X032792Y001451D01*
X032733Y001391D01*
X032695Y001365D01*
X033952Y001365D01*
X033848Y001468D01*
X033759Y001683D01*
X033759Y002626D01*
X033848Y002841D01*
X034013Y003005D01*
X034074Y003031D01*
X034074Y006198D01*
X034013Y006224D01*
X033848Y006388D01*
X033759Y006603D01*
X033759Y007546D01*
X033848Y007761D01*
X034013Y007925D01*
X034228Y008015D01*
X034460Y008015D01*
X034675Y007925D01*
X034840Y007761D01*
X034929Y007546D01*
X034929Y006603D01*
X034840Y006388D01*
X034675Y006224D01*
X034614Y006198D01*
X034614Y003031D01*
X034675Y003005D01*
X034840Y002841D01*
X034929Y002626D01*
X034929Y001683D01*
X034840Y001468D01*
X034736Y001365D01*
X038573Y001365D01*
X038536Y001391D01*
X038476Y001451D01*
X038427Y001519D01*
X038388Y001594D01*
X038362Y001674D01*
X038349Y001757D01*
X038349Y002117D01*
X038846Y002117D01*
X038846Y002192D01*
X038349Y002192D01*
X038349Y002552D01*
X038362Y002635D01*
X038388Y002715D01*
X038427Y002790D01*
X038476Y002858D01*
X038536Y002918D01*
X038604Y002967D01*
X038679Y003005D01*
X038759Y003031D01*
X038842Y003045D01*
X038847Y003045D01*
X038847Y002192D01*
X038922Y002192D01*
X039419Y002192D01*
X039419Y002552D01*
X039406Y002635D01*
X039380Y002715D01*
X039342Y002790D01*
X039292Y002858D01*
X039233Y002918D01*
X039164Y002967D01*
X039089Y003005D01*
X039009Y003031D01*
X038926Y003045D01*
X038922Y003045D01*
X038922Y002192D01*
X038922Y002117D01*
X039419Y002117D01*
X039419Y001757D01*
X039406Y001674D01*
X039380Y001594D01*
X039342Y001519D01*
X039292Y001451D01*
X039233Y001391D01*
X039195Y001365D01*
X040452Y001365D01*
X040348Y001468D01*
X040259Y001683D01*
X040259Y002626D01*
X040348Y002841D01*
X040513Y003005D01*
X040728Y003095D01*
X040960Y003095D01*
X041175Y003005D01*
X041340Y002841D01*
X041429Y002626D01*
X041429Y001683D01*
X041340Y001468D01*
X041236Y001365D01*
X042532Y001365D01*
X042460Y001537D01*
X042460Y001537D01*
X042384Y002115D01*
X042384Y002115D01*
X042460Y002692D01*
X042460Y002692D01*
X042683Y003229D01*
X042683Y003230D01*
X043037Y003691D01*
X043037Y003691D01*
X043037Y003691D01*
X043499Y004046D01*
X043499Y004046D01*
X044027Y004265D01*
X043935Y004265D01*
X043733Y004348D01*
X043578Y004503D01*
X043494Y004705D01*
X043494Y004924D01*
X043578Y005126D01*
X043733Y005281D01*
X043935Y005365D01*
X044794Y005365D01*
X044996Y005281D01*
X045150Y005126D01*
X045234Y004924D01*
X045234Y004705D01*
X045150Y004503D01*
X044996Y004348D01*
X044897Y004307D01*
X045191Y004269D01*
X045191Y004269D01*
X045364Y004197D01*
X045364Y009782D01*
X045191Y009711D01*
X045191Y009711D01*
X044614Y009635D01*
X044614Y009635D01*
X044037Y009711D01*
X044037Y009711D01*
X043499Y009933D01*
X043499Y009933D01*
X043037Y010288D01*
X043037Y010288D01*
X042683Y010750D01*
X042683Y010750D01*
X042460Y011287D01*
X042460Y011287D01*
X042384Y011865D01*
X042384Y011865D01*
X042460Y012442D01*
X042460Y012442D01*
X042683Y012979D01*
X042683Y012980D01*
X043037Y013441D01*
X043037Y013441D01*
X043499Y013796D01*
X043499Y013796D01*
X044037Y014019D01*
X044614Y014095D01*
X045191Y014019D01*
X045191Y014019D01*
X045364Y013947D01*
X045364Y031532D01*
X045191Y031461D01*
X044614Y031385D01*
X044037Y031461D01*
X043499Y031683D01*
X043499Y031683D01*
X043037Y032038D01*
X043037Y032038D01*
X042683Y032500D01*
X042683Y032500D01*
X042460Y033037D01*
X042460Y033037D01*
X042384Y033615D01*
X042384Y033615D01*
X042460Y034192D01*
X042460Y034192D01*
X042532Y034365D01*
X019604Y034365D01*
X019604Y034267D01*
X019529Y034087D01*
X019392Y033949D01*
X019212Y033875D01*
X019017Y033875D01*
X018836Y033949D01*
X018699Y034087D01*
X018624Y034267D01*
X018624Y034365D01*
X017604Y034365D01*
X017604Y034267D01*
X017529Y034087D01*
X017392Y033949D01*
X017212Y033875D01*
X017017Y033875D01*
X016836Y033949D01*
X016699Y034087D01*
X016624Y034267D01*
X016624Y034365D01*
X011604Y034365D01*
X011604Y034267D01*
X011529Y034087D01*
X011392Y033949D01*
X011212Y033875D01*
X011017Y033875D01*
X010836Y033949D01*
X010699Y034087D01*
X010624Y034267D01*
X010624Y034365D01*
X009604Y034365D01*
X009604Y034267D01*
X009529Y034087D01*
X009392Y033949D01*
X009212Y033875D01*
X009017Y033875D01*
X008836Y033949D01*
X008699Y034087D01*
X008624Y034267D01*
X008624Y034365D01*
X004196Y034365D01*
X004268Y034192D01*
X004268Y034192D01*
X004344Y033615D01*
X004268Y033037D01*
X004268Y033037D01*
X004045Y032500D01*
X004045Y032500D01*
X003691Y032038D01*
X003691Y032038D01*
X003691Y032038D01*
X003229Y031683D01*
X003229Y031683D01*
X002691Y031461D01*
X002691Y031461D01*
X002114Y031385D01*
X002114Y031385D01*
X001537Y031461D01*
X001537Y031461D01*
X001364Y031532D01*
X001364Y013947D01*
X001537Y014019D01*
X001537Y014019D01*
X002114Y014095D01*
X002114Y014095D01*
X002691Y014019D01*
X002691Y014019D01*
X003229Y013796D01*
X003229Y013796D01*
X003691Y013441D01*
X003691Y013441D01*
X004045Y012980D01*
X004045Y012979D01*
X004268Y012442D01*
X004268Y012442D01*
X004344Y011865D01*
X004268Y011287D01*
X004268Y011287D01*
X004045Y010750D01*
X004045Y010750D01*
X003691Y010288D01*
X003691Y010288D01*
X003691Y010288D01*
X003229Y009933D01*
X003229Y009933D01*
X002691Y009711D01*
X002691Y009711D01*
X002114Y009635D01*
X002114Y009635D01*
X001537Y009711D01*
X001537Y009711D01*
X001364Y009782D01*
X001364Y004197D01*
X001537Y004269D01*
X001537Y004269D01*
X002114Y004345D01*
X002114Y004345D01*
X002691Y004269D01*
X002691Y004269D01*
X003229Y004046D01*
X003229Y004046D01*
X003691Y003691D01*
X003691Y003691D01*
X004045Y003230D01*
X004045Y003229D01*
X004268Y002692D01*
X004268Y002692D01*
X004344Y002115D01*
X004268Y001537D01*
X004268Y001537D01*
X004269Y001547D02*
X012412Y001547D01*
X012357Y001706D02*
X004290Y001706D01*
X004311Y001865D02*
X009708Y001865D01*
X009733Y001855D02*
X010496Y001855D01*
X010683Y001932D01*
X010826Y002076D01*
X010904Y002263D01*
X010904Y002273D01*
X012517Y003886D01*
X012593Y003962D01*
X012634Y004061D01*
X012634Y006247D01*
X012679Y006224D01*
X012759Y006198D01*
X012842Y006185D01*
X012847Y006185D01*
X012847Y007037D01*
X012922Y007037D01*
X012922Y007112D01*
X013419Y007112D01*
X013419Y007472D01*
X013406Y007555D01*
X013380Y007635D01*
X013342Y007710D01*
X013292Y007778D01*
X013233Y007838D01*
X013164Y007887D01*
X013089Y007925D01*
X013009Y007951D01*
X012926Y007965D01*
X012922Y007965D01*
X012922Y007112D01*
X012847Y007112D01*
X012847Y007965D01*
X012842Y007965D01*
X012759Y007951D01*
X012679Y007925D01*
X012634Y007903D01*
X012634Y010753D01*
X013308Y011427D01*
X013483Y011355D01*
X014246Y011355D01*
X014433Y011432D01*
X014576Y011576D01*
X014654Y011763D01*
X014654Y011966D01*
X014576Y012153D01*
X014433Y012297D01*
X014270Y012365D01*
X014433Y012432D01*
X014576Y012576D01*
X014654Y012763D01*
X014654Y012966D01*
X014576Y013153D01*
X014433Y013297D01*
X014270Y013365D01*
X014433Y013432D01*
X014576Y013576D01*
X014654Y013763D01*
X014654Y013966D01*
X014576Y014153D01*
X014433Y014297D01*
X014270Y014365D01*
X014433Y014432D01*
X014576Y014576D01*
X014654Y014763D01*
X014654Y014966D01*
X014576Y015153D01*
X014433Y015297D01*
X014270Y015365D01*
X014433Y015432D01*
X014576Y015576D01*
X014654Y015763D01*
X014654Y015966D01*
X014576Y016153D01*
X014433Y016297D01*
X014270Y016365D01*
X014433Y016432D01*
X014576Y016576D01*
X014654Y016763D01*
X014654Y016966D01*
X014576Y017153D01*
X014433Y017297D01*
X014270Y017365D01*
X014433Y017432D01*
X014576Y017576D01*
X014654Y017763D01*
X014654Y017966D01*
X014576Y018153D01*
X014433Y018297D01*
X014246Y018375D01*
X013483Y018375D01*
X013295Y018297D01*
X013152Y018153D01*
X013074Y017966D01*
X013074Y017763D01*
X013152Y017576D01*
X013295Y017432D01*
X013459Y017365D01*
X013295Y017297D01*
X013152Y017153D01*
X013074Y016966D01*
X013074Y016763D01*
X013152Y016576D01*
X013295Y016432D01*
X013459Y016365D01*
X013295Y016297D01*
X013152Y016153D01*
X013074Y015966D01*
X013074Y015763D01*
X013152Y015576D01*
X013295Y015432D01*
X013459Y015365D01*
X013295Y015297D01*
X013152Y015153D01*
X013074Y014966D01*
X013074Y014763D01*
X013152Y014576D01*
X013295Y014432D01*
X013459Y014365D01*
X013295Y014297D01*
X013152Y014153D01*
X013074Y013966D01*
X013074Y013956D01*
X011635Y012517D01*
X011594Y012418D01*
X011594Y012311D01*
X011594Y004976D01*
X011252Y004635D01*
X010834Y004635D01*
X010826Y004653D01*
X010683Y004797D01*
X010520Y004865D01*
X010683Y004932D01*
X010826Y005076D01*
X010904Y005263D01*
X010904Y005466D01*
X010826Y005653D01*
X010683Y005797D01*
X010520Y005865D01*
X010683Y005932D01*
X010826Y006076D01*
X010904Y006263D01*
X010904Y006466D01*
X010826Y006653D01*
X010683Y006797D01*
X010520Y006865D01*
X010683Y006932D01*
X010826Y007076D01*
X010904Y007263D01*
X010904Y007466D01*
X010826Y007653D01*
X010683Y007797D01*
X010520Y007865D01*
X010683Y007932D01*
X010826Y008076D01*
X010904Y008263D01*
X010904Y008466D01*
X010826Y008653D01*
X010683Y008797D01*
X010520Y008865D01*
X010683Y008932D01*
X010826Y009076D01*
X010904Y009263D01*
X010904Y009466D01*
X010826Y009653D01*
X010683Y009797D01*
X010496Y009875D01*
X009733Y009875D01*
X009545Y009797D01*
X009402Y009653D01*
X009324Y009466D01*
X009324Y009263D01*
X009402Y009076D01*
X009545Y008932D01*
X009709Y008865D01*
X009545Y008797D01*
X009402Y008653D01*
X009324Y008466D01*
X009324Y008263D01*
X009402Y008076D01*
X009545Y007932D01*
X009709Y007865D01*
X009545Y007797D01*
X009402Y007653D01*
X009324Y007466D01*
X009324Y007263D01*
X009402Y007076D01*
X009545Y006932D01*
X009709Y006865D01*
X009545Y006797D01*
X009402Y006653D01*
X009324Y006466D01*
X009324Y006263D01*
X009402Y006076D01*
X009545Y005932D01*
X009709Y005865D01*
X009545Y005797D01*
X009402Y005653D01*
X009324Y005466D01*
X009324Y005263D01*
X009402Y005076D01*
X009545Y004932D01*
X009709Y004865D01*
X009545Y004797D01*
X009402Y004653D01*
X009324Y004466D01*
X009324Y004263D01*
X009402Y004076D01*
X009545Y003932D01*
X009709Y003865D01*
X009545Y003797D01*
X009402Y003653D01*
X009324Y003466D01*
X009324Y003263D01*
X009402Y003076D01*
X009545Y002932D01*
X009709Y002865D01*
X009545Y002797D01*
X009402Y002653D01*
X009324Y002466D01*
X009324Y002263D01*
X009402Y002076D01*
X009545Y001932D01*
X009733Y001855D01*
X009454Y002023D02*
X007703Y002023D01*
X007694Y002014D02*
X007745Y002065D01*
X007787Y002123D01*
X007820Y002188D01*
X007843Y002257D01*
X007854Y002328D01*
X007854Y002364D01*
X007114Y002364D01*
X007114Y002364D01*
X007114Y001905D01*
X006798Y001905D01*
X006726Y001916D01*
X006657Y001938D01*
X006593Y001971D01*
X006534Y002014D01*
X006483Y002065D01*
X006441Y002123D01*
X006408Y002188D01*
X006385Y002257D01*
X006374Y002328D01*
X006374Y002364D01*
X007114Y002364D01*
X007114Y001905D01*
X007430Y001905D01*
X007502Y001916D01*
X007571Y001938D01*
X007635Y001971D01*
X007694Y002014D01*
X007817Y002182D02*
X009358Y002182D01*
X009324Y002340D02*
X007854Y002340D01*
X007854Y002365D02*
X007854Y002401D01*
X007843Y002472D01*
X007820Y002541D01*
X007787Y002606D01*
X007745Y002664D01*
X007694Y002715D01*
X007635Y002758D01*
X007571Y002791D01*
X007502Y002813D01*
X007430Y002825D01*
X007114Y002825D01*
X006798Y002825D01*
X006726Y002813D01*
X006657Y002791D01*
X006593Y002758D01*
X006534Y002715D01*
X006483Y002664D01*
X006441Y002606D01*
X006408Y002541D01*
X006385Y002472D01*
X006374Y002401D01*
X006374Y002365D01*
X007114Y002365D01*
X007114Y002825D01*
X007114Y002365D01*
X007114Y002365D01*
X007114Y002364D01*
X007114Y002365D01*
X007854Y002365D01*
X007834Y002499D02*
X009338Y002499D01*
X009406Y002657D02*
X007750Y002657D01*
X007485Y002816D02*
X009591Y002816D01*
X009503Y002974D02*
X007640Y002974D01*
X007635Y002971D02*
X007694Y003014D01*
X007745Y003065D01*
X007787Y003123D01*
X007820Y003188D01*
X007843Y003257D01*
X007854Y003328D01*
X007854Y003364D01*
X007114Y003364D01*
X007114Y003364D01*
X007114Y002905D01*
X006798Y002905D01*
X006726Y002916D01*
X006657Y002938D01*
X006593Y002971D01*
X006534Y003014D01*
X006483Y003065D01*
X006441Y003123D01*
X006408Y003188D01*
X006385Y003257D01*
X006374Y003328D01*
X006374Y003364D01*
X007114Y003364D01*
X007114Y002905D01*
X007430Y002905D01*
X007502Y002916D01*
X007571Y002938D01*
X007635Y002971D01*
X007792Y003133D02*
X009378Y003133D01*
X009324Y003291D02*
X007848Y003291D01*
X007854Y003365D02*
X007854Y003401D01*
X007843Y003472D01*
X007820Y003541D01*
X007787Y003606D01*
X007745Y003664D01*
X007694Y003715D01*
X007635Y003758D01*
X007571Y003791D01*
X007502Y003813D01*
X007430Y003825D01*
X007114Y003825D01*
X006798Y003825D01*
X006726Y003813D01*
X006657Y003791D01*
X006593Y003758D01*
X006534Y003715D01*
X006483Y003664D01*
X006441Y003606D01*
X006408Y003541D01*
X006385Y003472D01*
X006374Y003401D01*
X006374Y003365D01*
X007114Y003365D01*
X007114Y003825D01*
X007114Y003365D01*
X007114Y003365D01*
X007114Y003364D01*
X007114Y003365D01*
X007854Y003365D01*
X007846Y003450D02*
X009324Y003450D01*
X009383Y003609D02*
X007785Y003609D01*
X007617Y003767D02*
X009515Y003767D01*
X009561Y003926D02*
X007532Y003926D01*
X007502Y003916D02*
X007571Y003938D01*
X007635Y003971D01*
X007694Y004014D01*
X007745Y004065D01*
X007787Y004123D01*
X007820Y004188D01*
X007843Y004257D01*
X007854Y004328D01*
X007854Y004364D01*
X007114Y004364D01*
X007114Y004364D01*
X007114Y003905D01*
X006798Y003905D01*
X006726Y003916D01*
X006657Y003938D01*
X006593Y003971D01*
X006534Y004014D01*
X006483Y004065D01*
X006441Y004123D01*
X006408Y004188D01*
X006385Y004257D01*
X006374Y004328D01*
X006374Y004364D01*
X007114Y004364D01*
X007114Y003905D01*
X007430Y003905D01*
X007502Y003916D01*
X007759Y004084D02*
X009398Y004084D01*
X009333Y004243D02*
X007838Y004243D01*
X007854Y004365D02*
X007114Y004365D01*
X007114Y004825D01*
X006798Y004825D01*
X006726Y004813D01*
X006657Y004791D01*
X006593Y004758D01*
X006534Y004715D01*
X006483Y004664D01*
X006441Y004606D01*
X006408Y004541D01*
X006385Y004472D01*
X006374Y004401D01*
X006374Y004365D01*
X007114Y004365D01*
X007114Y004365D01*
X007114Y004825D01*
X007430Y004825D01*
X007502Y004813D01*
X007571Y004791D01*
X007635Y004758D01*
X007694Y004715D01*
X007745Y004664D01*
X007787Y004606D01*
X007820Y004541D01*
X007843Y004472D01*
X007854Y004401D01*
X007854Y004365D01*
X007854Y004401D02*
X009324Y004401D01*
X009363Y004560D02*
X007811Y004560D01*
X007690Y004718D02*
X009467Y004718D01*
X009679Y004877D02*
X001364Y004877D01*
X001364Y005035D02*
X006513Y005035D01*
X006534Y005014D02*
X006593Y004971D01*
X006657Y004938D01*
X006726Y004916D01*
X006798Y004905D01*
X007114Y004905D01*
X007114Y005364D01*
X007114Y005364D01*
X007114Y004905D01*
X007430Y004905D01*
X007502Y004916D01*
X007571Y004938D01*
X007635Y004971D01*
X007694Y005014D01*
X007745Y005065D01*
X007787Y005123D01*
X007820Y005188D01*
X007843Y005257D01*
X007854Y005328D01*
X007854Y005364D01*
X007114Y005364D01*
X006374Y005364D01*
X006374Y005328D01*
X006385Y005257D01*
X006408Y005188D01*
X006441Y005123D01*
X006483Y005065D01*
X006534Y005014D01*
X006406Y005194D02*
X001364Y005194D01*
X001364Y005353D02*
X006374Y005353D01*
X006374Y005365D02*
X007114Y005365D01*
X007114Y005825D01*
X006798Y005825D01*
X006726Y005813D01*
X006657Y005791D01*
X006593Y005758D01*
X006534Y005715D01*
X006483Y005664D01*
X006441Y005606D01*
X006408Y005541D01*
X006385Y005472D01*
X006374Y005401D01*
X006374Y005365D01*
X006398Y005511D02*
X001364Y005511D01*
X001364Y005670D02*
X006489Y005670D01*
X006657Y005938D02*
X006726Y005916D01*
X006798Y005905D01*
X007114Y005905D01*
X007114Y006364D01*
X007114Y006364D01*
X007114Y005905D01*
X007430Y005905D01*
X007502Y005916D01*
X007571Y005938D01*
X007635Y005971D01*
X007694Y006014D01*
X007745Y006065D01*
X007787Y006123D01*
X007820Y006188D01*
X007843Y006257D01*
X007854Y006328D01*
X007854Y006364D01*
X007114Y006364D01*
X006374Y006364D01*
X006374Y006328D01*
X006385Y006257D01*
X006408Y006188D01*
X006441Y006123D01*
X006483Y006065D01*
X006534Y006014D01*
X006593Y005971D01*
X006657Y005938D01*
X006572Y005987D02*
X001364Y005987D01*
X001364Y006145D02*
X006430Y006145D01*
X006378Y006304D02*
X001364Y006304D01*
X001364Y006462D02*
X006384Y006462D01*
X006385Y006472D02*
X006374Y006401D01*
X006374Y006365D01*
X007114Y006365D01*
X007114Y006825D01*
X006798Y006825D01*
X006726Y006813D01*
X006657Y006791D01*
X006593Y006758D01*
X006534Y006715D01*
X006483Y006664D01*
X006441Y006606D01*
X006408Y006541D01*
X006385Y006472D01*
X006452Y006621D02*
X001364Y006621D01*
X001364Y006779D02*
X006635Y006779D01*
X006733Y006855D02*
X007496Y006855D01*
X007683Y006932D01*
X007826Y007076D01*
X007904Y007263D01*
X007904Y007466D01*
X007826Y007653D01*
X007683Y007797D01*
X007496Y007875D01*
X006733Y007875D01*
X006545Y007797D01*
X006402Y007653D01*
X006324Y007466D01*
X006324Y007263D01*
X006402Y007076D01*
X006545Y006932D01*
X006733Y006855D01*
X006539Y006938D02*
X001364Y006938D01*
X001364Y007096D02*
X006393Y007096D01*
X006327Y007255D02*
X001364Y007255D01*
X001364Y007414D02*
X006324Y007414D01*
X006368Y007572D02*
X001364Y007572D01*
X001364Y007731D02*
X006479Y007731D01*
X006593Y007971D02*
X006534Y008014D01*
X006483Y008065D01*
X006441Y008123D01*
X006408Y008188D01*
X006385Y008257D01*
X006374Y008328D01*
X006374Y008364D01*
X007114Y008364D01*
X007114Y008364D01*
X007114Y007905D01*
X006798Y007905D01*
X006726Y007916D01*
X006657Y007938D01*
X006593Y007971D01*
X006500Y008048D02*
X001364Y008048D01*
X001364Y008206D02*
X006402Y008206D01*
X006374Y008365D02*
X007114Y008365D01*
X007114Y008825D01*
X006798Y008825D01*
X006726Y008813D01*
X006657Y008791D01*
X006593Y008758D01*
X006534Y008715D01*
X006483Y008664D01*
X006441Y008606D01*
X006408Y008541D01*
X006385Y008472D01*
X006374Y008401D01*
X006374Y008365D01*
X001364Y008365D01*
X001364Y008523D02*
X006402Y008523D01*
X006501Y008682D02*
X001364Y008682D01*
X001364Y008840D02*
X009651Y008840D01*
X009478Y008999D02*
X007750Y008999D01*
X007683Y008932D02*
X007826Y009076D01*
X007904Y009263D01*
X007904Y009466D01*
X007826Y009653D01*
X007683Y009797D01*
X007496Y009875D01*
X006733Y009875D01*
X006545Y009797D01*
X006402Y009653D01*
X006324Y009466D01*
X006324Y009263D01*
X006402Y009076D01*
X006545Y008932D01*
X006733Y008855D01*
X007496Y008855D01*
X007683Y008932D01*
X007571Y008791D02*
X007502Y008813D01*
X007430Y008825D01*
X007114Y008825D01*
X007114Y008365D01*
X007114Y008365D01*
X007114Y008364D01*
X007114Y007905D01*
X007430Y007905D01*
X007502Y007916D01*
X007571Y007938D01*
X007635Y007971D01*
X007694Y008014D01*
X007745Y008065D01*
X007787Y008123D01*
X007820Y008188D01*
X007843Y008257D01*
X007854Y008328D01*
X007854Y008364D01*
X007114Y008364D01*
X007114Y008365D01*
X007854Y008365D01*
X009324Y008365D01*
X009348Y008523D02*
X007826Y008523D01*
X007820Y008541D02*
X007787Y008606D01*
X007745Y008664D01*
X007694Y008715D01*
X007635Y008758D01*
X007571Y008791D01*
X007727Y008682D02*
X009430Y008682D01*
X009368Y009158D02*
X007860Y009158D01*
X007904Y009316D02*
X009324Y009316D01*
X009328Y009475D02*
X007901Y009475D01*
X007835Y009633D02*
X009393Y009633D01*
X009540Y009792D02*
X007688Y009792D01*
X006540Y009792D02*
X002887Y009792D01*
X003251Y009950D02*
X011594Y009950D01*
X011594Y009792D02*
X010688Y009792D01*
X010835Y009633D02*
X011594Y009633D01*
X011594Y009475D02*
X010901Y009475D01*
X010904Y009316D02*
X011594Y009316D01*
X011594Y009158D02*
X010860Y009158D01*
X010750Y008999D02*
X011594Y008999D01*
X011594Y008840D02*
X010578Y008840D01*
X010798Y008682D02*
X011594Y008682D01*
X011594Y008523D02*
X010880Y008523D01*
X010904Y008365D02*
X011594Y008365D01*
X011594Y008206D02*
X010881Y008206D01*
X010799Y008048D02*
X011594Y008048D01*
X011594Y007889D02*
X010579Y007889D01*
X010749Y007731D02*
X011594Y007731D01*
X011594Y007572D02*
X010860Y007572D01*
X010904Y007414D02*
X011594Y007414D01*
X011594Y007255D02*
X010901Y007255D01*
X010835Y007096D02*
X011594Y007096D01*
X011594Y006938D02*
X010689Y006938D01*
X010700Y006779D02*
X011594Y006779D01*
X011594Y006621D02*
X010840Y006621D01*
X010904Y006462D02*
X011594Y006462D01*
X011594Y006304D02*
X010904Y006304D01*
X010855Y006145D02*
X011594Y006145D01*
X011594Y005987D02*
X010737Y005987D01*
X010607Y005828D02*
X011594Y005828D01*
X011594Y005670D02*
X010810Y005670D01*
X010885Y005511D02*
X011594Y005511D01*
X011594Y005353D02*
X010904Y005353D01*
X010875Y005194D02*
X011594Y005194D01*
X011594Y005035D02*
X010786Y005035D01*
X010549Y004877D02*
X011495Y004877D01*
X011336Y004718D02*
X010761Y004718D01*
X009442Y005035D02*
X007715Y005035D01*
X007822Y005194D02*
X009353Y005194D01*
X009324Y005353D02*
X007854Y005353D01*
X007854Y005365D02*
X007114Y005365D01*
X007114Y005365D01*
X007114Y005825D01*
X007430Y005825D01*
X007502Y005813D01*
X007571Y005791D01*
X007635Y005758D01*
X007694Y005715D01*
X007745Y005664D01*
X007787Y005606D01*
X007820Y005541D01*
X007843Y005472D01*
X007854Y005401D01*
X007854Y005365D01*
X007830Y005511D02*
X009343Y005511D01*
X009418Y005670D02*
X007740Y005670D01*
X007657Y005987D02*
X009491Y005987D01*
X009373Y006145D02*
X007799Y006145D01*
X007850Y006304D02*
X009324Y006304D01*
X009324Y006462D02*
X007844Y006462D01*
X007843Y006472D02*
X007820Y006541D01*
X007787Y006606D01*
X007745Y006664D01*
X007694Y006715D01*
X007635Y006758D01*
X007571Y006791D01*
X007502Y006813D01*
X007430Y006825D01*
X007114Y006825D01*
X007114Y006365D01*
X007114Y006365D01*
X007114Y006364D01*
X007114Y006365D01*
X007854Y006365D01*
X007854Y006401D01*
X007843Y006472D01*
X007776Y006621D02*
X009388Y006621D01*
X009528Y006779D02*
X007593Y006779D01*
X007689Y006938D02*
X009539Y006938D01*
X009393Y007096D02*
X007835Y007096D01*
X007901Y007255D02*
X009327Y007255D01*
X009324Y007414D02*
X007904Y007414D01*
X007860Y007572D02*
X009368Y007572D01*
X009479Y007731D02*
X007749Y007731D01*
X007728Y008048D02*
X009430Y008048D01*
X009348Y008206D02*
X007826Y008206D01*
X007854Y008365D02*
X007854Y008401D01*
X007843Y008472D01*
X007820Y008541D01*
X007114Y008523D02*
X007114Y008523D01*
X007114Y008682D02*
X007114Y008682D01*
X007114Y008206D02*
X007114Y008206D01*
X007114Y008048D02*
X007114Y008048D01*
X006478Y008999D02*
X001364Y008999D01*
X001364Y009158D02*
X006368Y009158D01*
X006324Y009316D02*
X001364Y009316D01*
X001364Y009475D02*
X006328Y009475D01*
X006393Y009633D02*
X001364Y009633D01*
X001364Y007889D02*
X009649Y007889D01*
X007114Y006779D02*
X007114Y006779D01*
X007114Y006621D02*
X007114Y006621D01*
X007114Y006462D02*
X007114Y006462D01*
X007114Y006304D02*
X007114Y006304D01*
X007114Y006145D02*
X007114Y006145D01*
X007114Y005987D02*
X007114Y005987D01*
X007114Y005670D02*
X007114Y005670D01*
X007114Y005511D02*
X007114Y005511D01*
X007114Y005365D02*
X007114Y005364D01*
X007114Y005365D01*
X007114Y005353D02*
X007114Y005353D01*
X007114Y005194D02*
X007114Y005194D01*
X007114Y005035D02*
X007114Y005035D01*
X007114Y004718D02*
X007114Y004718D01*
X007114Y004560D02*
X007114Y004560D01*
X007114Y004401D02*
X007114Y004401D01*
X007114Y004365D02*
X007114Y004364D01*
X007114Y004365D01*
X007114Y004243D02*
X007114Y004243D01*
X007114Y004084D02*
X007114Y004084D01*
X007114Y003926D02*
X007114Y003926D01*
X007114Y003767D02*
X007114Y003767D01*
X007114Y003609D02*
X007114Y003609D01*
X007114Y003450D02*
X007114Y003450D01*
X007114Y003291D02*
X007114Y003291D01*
X007114Y003133D02*
X007114Y003133D01*
X007114Y002974D02*
X007114Y002974D01*
X007114Y002816D02*
X007114Y002816D01*
X007114Y002657D02*
X007114Y002657D01*
X007114Y002499D02*
X007114Y002499D01*
X007114Y002340D02*
X007114Y002340D01*
X007114Y002182D02*
X007114Y002182D01*
X007114Y002023D02*
X007114Y002023D01*
X006525Y002023D02*
X004332Y002023D01*
X004335Y002182D02*
X006411Y002182D01*
X006374Y002340D02*
X004314Y002340D01*
X004294Y002499D02*
X006394Y002499D01*
X006478Y002657D02*
X004273Y002657D01*
X004217Y002816D02*
X006743Y002816D01*
X006589Y002974D02*
X004151Y002974D01*
X004085Y003133D02*
X006436Y003133D01*
X006380Y003291D02*
X003998Y003291D01*
X003876Y003450D02*
X006382Y003450D01*
X006443Y003609D02*
X003754Y003609D01*
X003691Y003691D02*
X003691Y003691D01*
X003592Y003767D02*
X006611Y003767D01*
X006696Y003926D02*
X003386Y003926D01*
X003136Y004084D02*
X006469Y004084D01*
X006390Y004243D02*
X002754Y004243D01*
X001475Y004243D02*
X001364Y004243D01*
X001364Y004401D02*
X006374Y004401D01*
X006417Y004560D02*
X001364Y004560D01*
X001364Y004718D02*
X006539Y004718D01*
X009621Y005828D02*
X001364Y005828D01*
X003458Y010109D02*
X011594Y010109D01*
X011594Y010267D02*
X003664Y010267D01*
X003797Y010426D02*
X011594Y010426D01*
X011594Y010584D02*
X003919Y010584D01*
X004040Y010743D02*
X011594Y010743D01*
X011594Y010902D02*
X004108Y010902D01*
X004174Y011060D02*
X011594Y011060D01*
X011594Y011219D02*
X004240Y011219D01*
X004280Y011377D02*
X011594Y011377D01*
X011594Y011536D02*
X004301Y011536D01*
X004322Y011694D02*
X011594Y011694D01*
X011594Y011853D02*
X004342Y011853D01*
X004325Y012011D02*
X011594Y012011D01*
X011594Y012170D02*
X004304Y012170D01*
X004283Y012328D02*
X011594Y012328D01*
X011623Y012487D02*
X004249Y012487D01*
X004184Y012646D02*
X011763Y012646D01*
X011922Y012804D02*
X004118Y012804D01*
X004052Y012963D02*
X012080Y012963D01*
X012239Y013121D02*
X003937Y013121D01*
X003815Y013280D02*
X012397Y013280D01*
X012556Y013438D02*
X003693Y013438D01*
X003691Y013441D02*
X003691Y013441D01*
X003488Y013597D02*
X012714Y013597D01*
X012873Y013755D02*
X003282Y013755D01*
X002944Y013914D02*
X013032Y013914D01*
X013118Y014072D02*
X002282Y014072D01*
X001946Y014072D02*
X001364Y014072D01*
X001364Y014231D02*
X013229Y014231D01*
X013398Y014389D02*
X001364Y014389D01*
X001364Y014548D02*
X008881Y014548D01*
X008915Y014515D02*
X009845Y014515D01*
X009872Y014541D01*
X009899Y014515D01*
X010829Y014515D01*
X010898Y014583D01*
X010909Y014577D01*
X010955Y014565D01*
X011330Y014565D01*
X011330Y015096D01*
X011367Y015096D01*
X011367Y015133D01*
X011898Y015133D01*
X011898Y015508D01*
X011886Y015554D01*
X011862Y015595D01*
X011829Y015629D01*
X011788Y015652D01*
X011742Y015665D01*
X011367Y015665D01*
X011367Y015133D01*
X011330Y015133D01*
X011330Y015665D01*
X010955Y015665D01*
X010909Y015652D01*
X010898Y015646D01*
X010829Y015715D01*
X010634Y015715D01*
X010634Y017253D01*
X011276Y017895D01*
X011276Y017275D01*
X011756Y016794D01*
X012436Y016794D01*
X012917Y017275D01*
X012917Y017954D01*
X012436Y018435D01*
X011816Y018435D01*
X012976Y019595D01*
X020560Y019595D01*
X020668Y019595D01*
X020767Y019636D01*
X023017Y021886D01*
X023093Y021962D01*
X023134Y022061D01*
X023134Y023128D01*
X023263Y023075D01*
X023466Y023075D01*
X023653Y023152D01*
X023796Y023296D01*
X023864Y023459D01*
X023932Y023296D01*
X024075Y023152D01*
X024263Y023075D01*
X024466Y023075D01*
X024594Y023128D01*
X024594Y019726D01*
X024211Y019343D01*
X024135Y019267D01*
X024094Y019168D01*
X024094Y016476D01*
X023752Y016135D01*
X021418Y016135D01*
X021310Y016135D01*
X021211Y016093D01*
X020832Y015715D01*
X020149Y015715D01*
X020122Y015688D01*
X020095Y015715D01*
X019165Y015715D01*
X019030Y015580D01*
X019030Y014649D01*
X019165Y014515D01*
X020095Y014515D01*
X020122Y014541D01*
X020149Y014515D01*
X021079Y014515D01*
X021148Y014583D01*
X021159Y014577D01*
X021205Y014565D01*
X021580Y014565D01*
X021580Y015096D01*
X021617Y015096D01*
X021617Y015133D01*
X022148Y015133D01*
X022148Y015508D01*
X022136Y015554D01*
X022113Y015595D01*
X023918Y015595D01*
X024017Y015636D01*
X024093Y015712D01*
X024593Y016212D01*
X024634Y016311D01*
X024634Y016418D01*
X024634Y019003D01*
X024764Y019133D01*
X024764Y018866D01*
X025051Y018579D01*
X024814Y018342D01*
X024814Y018135D01*
X025344Y018135D01*
X025344Y018094D01*
X025384Y018094D01*
X025384Y017565D01*
X025592Y017565D01*
X025829Y017801D01*
X026116Y017515D01*
X026613Y017515D01*
X026864Y017766D01*
X027116Y017515D01*
X027613Y017515D01*
X027964Y017866D01*
X027964Y018363D01*
X027713Y018615D01*
X027964Y018866D01*
X027964Y019363D01*
X027613Y019715D01*
X027116Y019715D01*
X026864Y019463D01*
X026613Y019715D01*
X026346Y019715D01*
X027767Y021136D01*
X027843Y021212D01*
X027884Y021311D01*
X027884Y021413D01*
X028124Y021653D01*
X028124Y022076D01*
X027825Y022375D01*
X027403Y022375D01*
X027104Y022076D01*
X027104Y021653D01*
X027313Y021445D01*
X025582Y019715D01*
X025134Y019715D01*
X025134Y023128D01*
X025263Y023075D01*
X025466Y023075D01*
X025653Y023152D01*
X025796Y023296D01*
X025864Y023459D01*
X025932Y023296D01*
X026075Y023152D01*
X026263Y023075D01*
X026466Y023075D01*
X026653Y023152D01*
X026796Y023296D01*
X026864Y023459D01*
X026932Y023296D01*
X027075Y023152D01*
X027263Y023075D01*
X027466Y023075D01*
X027653Y023152D01*
X027796Y023296D01*
X027864Y023459D01*
X027932Y023296D01*
X028075Y023152D01*
X028263Y023075D01*
X028466Y023075D01*
X028653Y023152D01*
X028796Y023296D01*
X028864Y023459D01*
X028932Y023296D01*
X029075Y023152D01*
X029263Y023075D01*
X029466Y023075D01*
X029594Y023128D01*
X029594Y020668D01*
X029594Y020561D01*
X029635Y020462D01*
X031594Y018503D01*
X031594Y015715D01*
X031399Y015715D01*
X031372Y015688D01*
X031345Y015715D01*
X030415Y015715D01*
X030280Y015580D01*
X030280Y014649D01*
X030415Y014515D01*
X031345Y014515D01*
X031372Y014541D01*
X031399Y014515D01*
X032329Y014515D01*
X032398Y014583D01*
X032409Y014577D01*
X032455Y014565D01*
X032830Y014565D01*
X032830Y015096D01*
X032867Y015096D01*
X032867Y015133D01*
X033398Y015133D01*
X033398Y015508D01*
X033386Y015554D01*
X033362Y015595D01*
X033329Y015629D01*
X033288Y015652D01*
X033242Y015665D01*
X032867Y015665D01*
X032867Y015133D01*
X032830Y015133D01*
X032830Y015665D01*
X032455Y015665D01*
X032409Y015652D01*
X032398Y015646D01*
X032329Y015715D01*
X032134Y015715D01*
X032134Y018668D01*
X032093Y018767D01*
X032017Y018843D01*
X030134Y020726D01*
X030134Y021623D01*
X030403Y021355D01*
X030825Y021355D01*
X031124Y021653D01*
X031124Y022076D01*
X030825Y022375D01*
X030403Y022375D01*
X030134Y022106D01*
X030134Y023128D01*
X030263Y023075D01*
X030466Y023075D01*
X030653Y023152D01*
X030796Y023296D01*
X030864Y023459D01*
X030932Y023296D01*
X031075Y023152D01*
X031263Y023075D01*
X031466Y023075D01*
X031653Y023152D01*
X031796Y023296D01*
X031864Y023459D01*
X031932Y023296D01*
X032075Y023152D01*
X032263Y023075D01*
X032466Y023075D01*
X032653Y023152D01*
X032796Y023296D01*
X032874Y023483D01*
X032874Y024246D01*
X032796Y024433D01*
X032674Y024556D01*
X032674Y028236D01*
X033546Y029108D01*
X033653Y029152D01*
X033796Y029296D01*
X033864Y029459D01*
X033932Y029296D01*
X034075Y029152D01*
X034094Y029144D01*
X034094Y027478D01*
X033984Y027368D01*
X033916Y027204D01*
X033916Y027025D01*
X033984Y026861D01*
X034110Y026735D01*
X034275Y026666D01*
X034453Y026666D01*
X034618Y026735D01*
X034744Y026861D01*
X034812Y027025D01*
X034812Y027204D01*
X034744Y027368D01*
X034634Y027478D01*
X034634Y029144D01*
X034653Y029152D01*
X034796Y029296D01*
X034864Y029459D01*
X034932Y029296D01*
X035075Y029152D01*
X035263Y029075D01*
X035466Y029075D01*
X035653Y029152D01*
X035674Y029173D01*
X038591Y026255D01*
X038453Y026313D01*
X038275Y026313D01*
X038110Y026244D01*
X037984Y026118D01*
X037916Y025954D01*
X037916Y025775D01*
X037984Y025611D01*
X038094Y025501D01*
X038094Y024585D01*
X038075Y024577D01*
X037932Y024433D01*
X037864Y024270D01*
X037796Y024433D01*
X037653Y024577D01*
X037466Y024655D01*
X037263Y024655D01*
X037075Y024577D01*
X036932Y024433D01*
X036864Y024270D01*
X036796Y024433D01*
X036653Y024577D01*
X036466Y024655D01*
X036263Y024655D01*
X036075Y024577D01*
X035932Y024433D01*
X035864Y024270D01*
X035796Y024433D01*
X035653Y024577D01*
X035466Y024655D01*
X035263Y024655D01*
X035075Y024577D01*
X034932Y024433D01*
X034864Y024270D01*
X034796Y024433D01*
X034653Y024577D01*
X034466Y024655D01*
X034263Y024655D01*
X034075Y024577D01*
X033932Y024433D01*
X033854Y024246D01*
X033854Y023483D01*
X033932Y023296D01*
X034075Y023152D01*
X034263Y023075D01*
X034466Y023075D01*
X034653Y023152D01*
X034796Y023296D01*
X034864Y023459D01*
X034932Y023296D01*
X035075Y023152D01*
X035263Y023075D01*
X035466Y023075D01*
X035653Y023152D01*
X035796Y023296D01*
X035864Y023459D01*
X035932Y023296D01*
X036075Y023152D01*
X036263Y023075D01*
X036466Y023075D01*
X036653Y023152D01*
X036796Y023296D01*
X036864Y023459D01*
X036932Y023296D01*
X037075Y023152D01*
X037263Y023075D01*
X037466Y023075D01*
X037653Y023152D01*
X037796Y023296D01*
X037864Y023459D01*
X037932Y023296D01*
X038075Y023152D01*
X038263Y023075D01*
X038466Y023075D01*
X038594Y023128D01*
X038594Y018976D01*
X037711Y018093D01*
X037635Y018017D01*
X037594Y017918D01*
X037594Y014918D01*
X037594Y014811D01*
X037635Y014712D01*
X038173Y014174D01*
X038152Y014153D01*
X038074Y013966D01*
X038074Y013763D01*
X038152Y013576D01*
X038173Y013555D01*
X037252Y012635D01*
X036601Y012635D01*
X036654Y012763D01*
X036654Y012966D01*
X036576Y013153D01*
X036433Y013297D01*
X036270Y013365D01*
X036433Y013432D01*
X036576Y013576D01*
X036654Y013763D01*
X036654Y013966D01*
X036654Y013967D01*
X036775Y013916D01*
X036953Y013916D01*
X037118Y013985D01*
X037244Y014111D01*
X037312Y014275D01*
X037312Y014454D01*
X037244Y014618D01*
X037118Y014744D01*
X036953Y014813D01*
X036775Y014813D01*
X036654Y014762D01*
X036654Y014763D01*
X036654Y014966D01*
X036576Y015153D01*
X036433Y015297D01*
X036270Y015365D01*
X036433Y015432D01*
X036576Y015576D01*
X036654Y015763D01*
X036654Y015966D01*
X036576Y016153D01*
X036433Y016297D01*
X036270Y016365D01*
X036433Y016432D01*
X036576Y016576D01*
X036654Y016763D01*
X036654Y016966D01*
X036576Y017153D01*
X036433Y017297D01*
X036270Y017365D01*
X036433Y017432D01*
X036576Y017576D01*
X036654Y017763D01*
X036654Y017966D01*
X036576Y018153D01*
X036433Y018297D01*
X036246Y018375D01*
X035483Y018375D01*
X035295Y018297D01*
X035152Y018153D01*
X035074Y017966D01*
X035074Y017763D01*
X035152Y017576D01*
X035295Y017432D01*
X035459Y017365D01*
X035295Y017297D01*
X035152Y017153D01*
X035074Y016966D01*
X035074Y016763D01*
X035152Y016576D01*
X035295Y016432D01*
X035459Y016365D01*
X035295Y016297D01*
X035152Y016153D01*
X035074Y015966D01*
X035074Y015763D01*
X035152Y015576D01*
X035173Y015555D01*
X033752Y014135D01*
X031810Y014135D01*
X031711Y014093D01*
X031635Y014017D01*
X031492Y013875D01*
X031153Y013875D01*
X030854Y013576D01*
X030854Y013153D01*
X031153Y012855D01*
X031575Y012855D01*
X031864Y013143D01*
X032153Y012855D01*
X032575Y012855D01*
X032864Y013143D01*
X033153Y012855D01*
X033575Y012855D01*
X033864Y013143D01*
X034153Y012855D01*
X034575Y012855D01*
X034874Y013153D01*
X034874Y013493D01*
X035095Y013713D01*
X035152Y013576D01*
X035295Y013432D01*
X035459Y013365D01*
X035295Y013297D01*
X035152Y013153D01*
X035074Y012966D01*
X035074Y012763D01*
X035127Y012635D01*
X018476Y012635D01*
X018256Y012855D01*
X018325Y012855D01*
X018614Y013143D01*
X018903Y012855D01*
X019325Y012855D01*
X019614Y013143D01*
X019903Y012855D01*
X020325Y012855D01*
X020614Y013143D01*
X020903Y012855D01*
X021325Y012855D01*
X021624Y013153D01*
X021624Y013576D01*
X021325Y013875D01*
X020903Y013875D01*
X020614Y013586D01*
X020325Y013875D01*
X019903Y013875D01*
X019614Y013586D01*
X019325Y013875D01*
X018903Y013875D01*
X018614Y013586D01*
X018325Y013875D01*
X017903Y013875D01*
X017604Y013576D01*
X017604Y013506D01*
X017556Y013555D01*
X017576Y013576D01*
X017654Y013763D01*
X017654Y013966D01*
X017576Y014153D01*
X017433Y014297D01*
X017246Y014375D01*
X016483Y014375D01*
X016295Y014297D01*
X016152Y014153D01*
X016134Y014111D01*
X016134Y014766D01*
X016135Y014757D01*
X016158Y014688D01*
X016191Y014623D01*
X016233Y014565D01*
X016284Y014514D01*
X016343Y014471D01*
X016407Y014438D01*
X016476Y014416D01*
X016548Y014405D01*
X016864Y014405D01*
X016864Y014864D01*
X016864Y014864D01*
X016864Y014405D01*
X017180Y014405D01*
X017252Y014416D01*
X017321Y014438D01*
X017385Y014471D01*
X017444Y014514D01*
X017495Y014565D01*
X017537Y014623D01*
X017570Y014688D01*
X017593Y014757D01*
X017604Y014828D01*
X017604Y014864D01*
X016864Y014864D01*
X016864Y014865D01*
X016864Y015325D01*
X016548Y015325D01*
X016476Y015313D01*
X016407Y015291D01*
X016343Y015258D01*
X016284Y015215D01*
X016233Y015164D01*
X016191Y015106D01*
X016158Y015041D01*
X016135Y014972D01*
X016134Y014963D01*
X016134Y015253D01*
X016308Y015427D01*
X016483Y015355D01*
X017246Y015355D01*
X017433Y015432D01*
X017576Y015576D01*
X017654Y015763D01*
X017654Y015966D01*
X017576Y016153D01*
X017433Y016297D01*
X017270Y016365D01*
X017433Y016432D01*
X017576Y016576D01*
X017654Y016763D01*
X017654Y016966D01*
X017576Y017153D01*
X017433Y017297D01*
X017270Y017365D01*
X017433Y017432D01*
X017576Y017576D01*
X017654Y017763D01*
X017654Y017966D01*
X017576Y018153D01*
X017433Y018297D01*
X017246Y018375D01*
X016483Y018375D01*
X016295Y018297D01*
X016152Y018153D01*
X016074Y017966D01*
X016074Y017763D01*
X016152Y017576D01*
X016295Y017432D01*
X016459Y017365D01*
X016295Y017297D01*
X016152Y017153D01*
X016074Y016966D01*
X016074Y016763D01*
X016152Y016576D01*
X016295Y016432D01*
X016459Y016365D01*
X016295Y016297D01*
X016152Y016153D01*
X016074Y015966D01*
X016074Y015956D01*
X015635Y015517D01*
X015594Y015418D01*
X015594Y015311D01*
X015594Y011811D01*
X015635Y011712D01*
X015711Y011636D01*
X016173Y011174D01*
X016152Y011153D01*
X016074Y010966D01*
X016074Y010763D01*
X016152Y010576D01*
X016295Y010432D01*
X016483Y010355D01*
X017246Y010355D01*
X017433Y010432D01*
X017576Y010576D01*
X017654Y010763D01*
X017654Y010966D01*
X017601Y011095D01*
X035185Y011095D01*
X035158Y011041D01*
X035135Y010972D01*
X035124Y010901D01*
X035124Y010865D01*
X035864Y010865D01*
X035864Y010864D01*
X035864Y010864D01*
X035864Y010405D01*
X035548Y010405D01*
X035476Y010416D01*
X035407Y010438D01*
X035343Y010471D01*
X035284Y010514D01*
X035233Y010565D01*
X035191Y010623D01*
X035158Y010688D01*
X035135Y010757D01*
X035124Y010828D01*
X035124Y010864D01*
X035864Y010864D01*
X035864Y010405D01*
X036180Y010405D01*
X036252Y010416D01*
X036321Y010438D01*
X036385Y010471D01*
X036444Y010514D01*
X036495Y010565D01*
X036537Y010623D01*
X036570Y010688D01*
X036593Y010757D01*
X036604Y010828D01*
X036604Y010864D01*
X035864Y010864D01*
X035864Y010865D01*
X036604Y010865D01*
X036604Y010901D01*
X036593Y010972D01*
X036570Y011041D01*
X036543Y011095D01*
X037752Y011095D01*
X038074Y010773D01*
X038074Y010763D01*
X038152Y010576D01*
X038295Y010432D01*
X038483Y010355D01*
X039246Y010355D01*
X039433Y010432D01*
X039576Y010576D01*
X039654Y010763D01*
X039654Y010966D01*
X039576Y011153D01*
X039433Y011297D01*
X039270Y011365D01*
X039433Y011432D01*
X039576Y011576D01*
X039654Y011763D01*
X039654Y011966D01*
X039576Y012153D01*
X039433Y012297D01*
X039270Y012365D01*
X039433Y012432D01*
X039576Y012576D01*
X039654Y012763D01*
X039654Y012966D01*
X039576Y013153D01*
X039433Y013297D01*
X039270Y013365D01*
X039433Y013432D01*
X039576Y013576D01*
X039654Y013763D01*
X039654Y013966D01*
X039576Y014153D01*
X039433Y014297D01*
X039246Y014375D01*
X038736Y014375D01*
X038706Y014405D01*
X038864Y014405D01*
X038864Y014864D01*
X038864Y014864D01*
X038864Y014405D01*
X039180Y014405D01*
X039252Y014416D01*
X039321Y014438D01*
X039385Y014471D01*
X039444Y014514D01*
X039495Y014565D01*
X039537Y014623D01*
X039570Y014688D01*
X039593Y014757D01*
X039604Y014828D01*
X039604Y014864D01*
X038864Y014864D01*
X038864Y014865D01*
X038864Y015325D01*
X038548Y015325D01*
X038476Y015313D01*
X038407Y015291D01*
X038343Y015258D01*
X038284Y015215D01*
X038233Y015164D01*
X038191Y015106D01*
X038158Y015041D01*
X038136Y014974D01*
X038134Y014976D01*
X038134Y015618D01*
X038152Y015576D01*
X038295Y015432D01*
X038483Y015355D01*
X039246Y015355D01*
X039433Y015432D01*
X039576Y015576D01*
X039584Y015595D01*
X040310Y015595D01*
X040418Y015595D01*
X040517Y015636D01*
X041594Y016713D01*
X041594Y015918D01*
X041594Y015811D01*
X041634Y015715D01*
X040915Y015715D01*
X040780Y015580D01*
X040780Y014649D01*
X040915Y014515D01*
X041845Y014515D01*
X041872Y014541D01*
X041899Y014515D01*
X042829Y014515D01*
X042898Y014583D01*
X042909Y014577D01*
X042955Y014565D01*
X043330Y014565D01*
X043330Y015096D01*
X043367Y015096D01*
X043367Y015133D01*
X043898Y015133D01*
X043898Y015508D01*
X043886Y015554D01*
X043862Y015595D01*
X043829Y015629D01*
X043788Y015652D01*
X043742Y015665D01*
X043367Y015665D01*
X043367Y015133D01*
X043330Y015133D01*
X043330Y015665D01*
X042955Y015665D01*
X042909Y015652D01*
X042898Y015646D01*
X042829Y015715D01*
X042396Y015715D01*
X042134Y015976D01*
X042134Y023128D01*
X042263Y023075D01*
X042466Y023075D01*
X042653Y023152D01*
X042796Y023296D01*
X042874Y023483D01*
X042874Y024246D01*
X042796Y024433D01*
X042653Y024577D01*
X042466Y024655D01*
X042263Y024655D01*
X042134Y024601D01*
X042134Y027001D01*
X042244Y027111D01*
X042312Y027275D01*
X042312Y027454D01*
X042244Y027618D01*
X042118Y027744D01*
X041953Y027813D01*
X041775Y027813D01*
X041610Y027744D01*
X041484Y027618D01*
X041416Y027454D01*
X041416Y027275D01*
X041484Y027111D01*
X041594Y027001D01*
X041594Y024601D01*
X041466Y024655D01*
X041263Y024655D01*
X041134Y024601D01*
X041134Y028753D01*
X041456Y029075D01*
X041466Y029075D01*
X041653Y029152D01*
X041796Y029296D01*
X041864Y029459D01*
X041932Y029296D01*
X042075Y029152D01*
X042263Y029075D01*
X042344Y029075D01*
X042344Y025418D01*
X042344Y025311D01*
X042385Y025212D01*
X042890Y024707D01*
X042893Y024701D01*
X042928Y024669D01*
X042961Y024636D01*
X042967Y024633D01*
X043448Y024196D01*
X043428Y024176D01*
X043344Y023974D01*
X043344Y023755D01*
X043428Y023553D01*
X043583Y023398D01*
X043614Y023385D01*
X043483Y023331D01*
X043328Y023176D01*
X043244Y022974D01*
X043244Y022755D01*
X043328Y022553D01*
X043483Y022398D01*
X043614Y022344D01*
X043583Y022331D01*
X043428Y022176D01*
X043344Y021974D01*
X043344Y021755D01*
X043428Y021553D01*
X043583Y021398D01*
X043614Y021385D01*
X043483Y021331D01*
X043328Y021176D01*
X043244Y020974D01*
X043244Y020755D01*
X043328Y020553D01*
X043483Y020398D01*
X043685Y020315D01*
X044544Y020315D01*
X044746Y020398D01*
X044900Y020553D01*
X044984Y020755D01*
X044984Y020974D01*
X044900Y021176D01*
X044746Y021331D01*
X044714Y021344D01*
X044846Y021398D01*
X045000Y021553D01*
X045084Y021755D01*
X045084Y021974D01*
X045000Y022176D01*
X044846Y022331D01*
X044714Y022385D01*
X044746Y022398D01*
X044900Y022553D01*
X044984Y022755D01*
X044984Y022974D01*
X044900Y023176D01*
X044746Y023331D01*
X044714Y023344D01*
X044846Y023398D01*
X045000Y023553D01*
X045084Y023755D01*
X045084Y023974D01*
X045000Y024176D01*
X044846Y024331D01*
X044714Y024385D01*
X044746Y024398D01*
X044900Y024553D01*
X044984Y024755D01*
X044984Y024974D01*
X044900Y025176D01*
X044746Y025331D01*
X044714Y025344D01*
X044846Y025398D01*
X045000Y025553D01*
X045084Y025755D01*
X045084Y025974D01*
X045000Y026176D01*
X044846Y026331D01*
X044714Y026385D01*
X044746Y026398D01*
X044900Y026553D01*
X044984Y026755D01*
X044984Y026974D01*
X044900Y027176D01*
X044746Y027331D01*
X044714Y027344D01*
X044846Y027398D01*
X045000Y027553D01*
X045084Y027755D01*
X045084Y027974D01*
X045000Y028176D01*
X044846Y028331D01*
X044714Y028385D01*
X044746Y028398D01*
X044900Y028553D01*
X044984Y028755D01*
X044984Y028974D01*
X044900Y029176D01*
X044746Y029331D01*
X044714Y029344D01*
X044846Y029398D01*
X045000Y029553D01*
X045084Y029755D01*
X045084Y029974D01*
X045000Y030176D01*
X044846Y030331D01*
X044644Y030415D01*
X043785Y030415D01*
X043583Y030331D01*
X043428Y030176D01*
X043344Y029974D01*
X043344Y029755D01*
X043428Y029553D01*
X043583Y029398D01*
X043614Y029385D01*
X043483Y029331D01*
X043328Y029176D01*
X043244Y028974D01*
X043244Y028755D01*
X043328Y028553D01*
X043483Y028398D01*
X043614Y028344D01*
X043583Y028331D01*
X043428Y028176D01*
X043344Y027974D01*
X043344Y027755D01*
X043428Y027553D01*
X043583Y027398D01*
X043614Y027385D01*
X043483Y027331D01*
X043328Y027176D01*
X043244Y026974D01*
X043244Y026755D01*
X043328Y026553D01*
X043483Y026398D01*
X043614Y026344D01*
X043583Y026331D01*
X043428Y026176D01*
X043344Y025974D01*
X043344Y025755D01*
X043428Y025553D01*
X043583Y025398D01*
X043614Y025385D01*
X043483Y025331D01*
X043328Y025176D01*
X043286Y025075D01*
X042884Y025476D01*
X042884Y029668D01*
X042874Y029692D01*
X042874Y030246D01*
X042796Y030433D01*
X042653Y030577D01*
X042466Y030655D01*
X042263Y030655D01*
X042075Y030577D01*
X041932Y030433D01*
X041864Y030270D01*
X041796Y030433D01*
X041653Y030577D01*
X041466Y030655D01*
X041263Y030655D01*
X041075Y030577D01*
X040932Y030433D01*
X040864Y030270D01*
X040796Y030433D01*
X040653Y030577D01*
X040466Y030655D01*
X040263Y030655D01*
X040075Y030577D01*
X039932Y030433D01*
X039864Y030270D01*
X039796Y030433D01*
X039653Y030577D01*
X039466Y030655D01*
X039263Y030655D01*
X039075Y030577D01*
X038932Y030433D01*
X038864Y030270D01*
X038796Y030433D01*
X038653Y030577D01*
X038466Y030655D01*
X038263Y030655D01*
X038075Y030577D01*
X037932Y030433D01*
X037864Y030270D01*
X037796Y030433D01*
X037653Y030577D01*
X037634Y030585D01*
X037634Y032119D01*
X037593Y032218D01*
X037517Y032294D01*
X036894Y032917D01*
X037072Y032917D01*
X037113Y032934D01*
X037586Y032462D01*
X037662Y032386D01*
X037761Y032345D01*
X039502Y032345D01*
X039894Y031953D01*
X039894Y031771D01*
X039966Y031598D01*
X040098Y031466D01*
X040271Y031395D01*
X040458Y031395D01*
X040630Y031466D01*
X040763Y031598D01*
X040834Y031771D01*
X040834Y031958D01*
X040763Y032131D01*
X040630Y032263D01*
X040458Y032335D01*
X040276Y032335D01*
X039767Y032843D01*
X039668Y032885D01*
X039560Y032885D01*
X037927Y032885D01*
X037894Y032917D01*
X038072Y032917D01*
X038274Y033001D01*
X038429Y033155D01*
X038463Y033237D01*
X038463Y033123D01*
X038475Y033077D01*
X038498Y033036D01*
X038532Y033003D01*
X038573Y032979D01*
X038619Y032967D01*
X038942Y032967D01*
X038942Y033447D01*
X038983Y033447D01*
X038983Y033487D01*
X039462Y033487D01*
X039462Y033811D01*
X039450Y033856D01*
X039427Y033897D01*
X039393Y033931D01*
X039352Y033955D01*
X039306Y033967D01*
X038983Y033967D01*
X038983Y033487D01*
X038942Y033487D01*
X038942Y033967D01*
X038619Y033967D01*
X038573Y033955D01*
X038532Y033931D01*
X038498Y033897D01*
X038475Y033856D01*
X038463Y033811D01*
X038463Y033697D01*
X038429Y033778D01*
X038274Y033933D01*
X038072Y034017D01*
X037853Y034017D01*
X037651Y033933D01*
X037496Y033778D01*
X037463Y033697D01*
X037429Y033778D01*
X037274Y033933D01*
X037072Y034017D01*
X036853Y034017D01*
X036651Y033933D01*
X036496Y033778D01*
X036463Y033697D01*
X036429Y033778D01*
X036274Y033933D01*
X036072Y034017D01*
X035853Y034017D01*
X035651Y033933D01*
X035496Y033778D01*
X035435Y033631D01*
X035426Y033659D01*
X035390Y033729D01*
X035344Y033793D01*
X035288Y033848D01*
X035225Y033895D01*
X035154Y033930D01*
X035080Y033955D01*
X035002Y033967D01*
X034983Y033967D01*
X034983Y033487D01*
X034942Y033487D01*
X034942Y033967D01*
X034923Y033967D01*
X034845Y033955D01*
X034771Y033930D01*
X034700Y033895D01*
X034637Y033848D01*
X034581Y033793D01*
X034535Y033729D01*
X034499Y033659D01*
X034490Y033631D01*
X034429Y033778D01*
X034274Y033933D01*
X034072Y034017D01*
X033853Y034017D01*
X033651Y033933D01*
X033496Y033778D01*
X033463Y033697D01*
X033429Y033778D01*
X033274Y033933D01*
X033072Y034017D01*
X032853Y034017D01*
X032651Y033933D01*
X032496Y033778D01*
X032463Y033697D01*
X032429Y033778D01*
X032274Y033933D01*
X032072Y034017D01*
X031853Y034017D01*
X031651Y033933D01*
X031496Y033778D01*
X031463Y033697D01*
X031429Y033778D01*
X031274Y033933D01*
X031072Y034017D01*
X030853Y034017D01*
X030651Y033933D01*
X030496Y033778D01*
X030463Y033697D01*
X030429Y033778D01*
X030274Y033933D01*
X030072Y034017D01*
X029853Y034017D01*
X029651Y033933D01*
X029496Y033778D01*
X029463Y033697D01*
X029429Y033778D01*
X029274Y033933D01*
X029072Y034017D01*
X028853Y034017D01*
X028651Y033933D01*
X028496Y033778D01*
X028463Y033697D01*
X028429Y033778D01*
X028274Y033933D01*
X028072Y034017D01*
X027853Y034017D01*
X027651Y033933D01*
X027496Y033778D01*
X027463Y033697D01*
X027429Y033778D01*
X027274Y033933D01*
X027072Y034017D01*
X026853Y034017D01*
X026651Y033933D01*
X026496Y033778D01*
X026462Y033697D01*
X026429Y033778D01*
X026274Y033933D01*
X026072Y034017D01*
X025853Y034017D01*
X025651Y033933D01*
X025496Y033778D01*
X025463Y033697D01*
X025429Y033778D01*
X025274Y033933D01*
X025072Y034017D01*
X024853Y034017D01*
X024651Y033933D01*
X024496Y033778D01*
X024435Y033631D01*
X024426Y033659D01*
X024390Y033729D01*
X024344Y033793D01*
X024288Y033848D01*
X024225Y033895D01*
X024154Y033930D01*
X024080Y033955D01*
X024002Y033967D01*
X023983Y033967D01*
X023983Y033487D01*
X023942Y033487D01*
X023942Y033447D01*
X023463Y033447D01*
X023463Y033428D01*
X023475Y033350D01*
X023499Y033275D01*
X023535Y033205D01*
X023581Y033141D01*
X023637Y033086D01*
X023700Y033039D01*
X023771Y033004D01*
X023845Y032979D01*
X023923Y032967D01*
X023942Y032967D01*
X023942Y033447D01*
X023983Y033447D01*
X023983Y032967D01*
X024002Y032967D01*
X024080Y032979D01*
X024154Y033004D01*
X024225Y033039D01*
X024288Y033086D01*
X024344Y033141D01*
X024390Y033205D01*
X024426Y033275D01*
X024435Y033303D01*
X024496Y033155D01*
X024651Y033001D01*
X024853Y032917D01*
X025072Y032917D01*
X025274Y033001D01*
X025429Y033155D01*
X025463Y033237D01*
X025496Y033155D01*
X025651Y033001D01*
X025853Y032917D01*
X026072Y032917D01*
X026274Y033001D01*
X026429Y033155D01*
X026462Y033237D01*
X026496Y033155D01*
X026651Y033001D01*
X026853Y032917D01*
X027072Y032917D01*
X027274Y033001D01*
X027429Y033155D01*
X027463Y033237D01*
X027496Y033155D01*
X027651Y033001D01*
X027853Y032917D01*
X028072Y032917D01*
X028274Y033001D01*
X028429Y033155D01*
X028463Y033237D01*
X028496Y033155D01*
X028651Y033001D01*
X028853Y032917D01*
X029072Y032917D01*
X029274Y033001D01*
X029429Y033155D01*
X029463Y033237D01*
X029496Y033155D01*
X029651Y033001D01*
X029853Y032917D01*
X030072Y032917D01*
X030274Y033001D01*
X030429Y033155D01*
X030463Y033237D01*
X030496Y033155D01*
X030651Y033001D01*
X030853Y032917D01*
X031072Y032917D01*
X031274Y033001D01*
X031429Y033155D01*
X031463Y033237D01*
X031496Y033155D01*
X031651Y033001D01*
X031853Y032917D01*
X032072Y032917D01*
X032274Y033001D01*
X032429Y033155D01*
X032463Y033237D01*
X032496Y033155D01*
X032651Y033001D01*
X032853Y032917D01*
X033072Y032917D01*
X033274Y033001D01*
X033429Y033155D01*
X033463Y033237D01*
X033496Y033155D01*
X033651Y033001D01*
X033853Y032917D01*
X034072Y032917D01*
X034113Y032934D01*
X036094Y030954D01*
X036094Y030585D01*
X036075Y030577D01*
X035932Y030433D01*
X035864Y030270D01*
X035796Y030433D01*
X035653Y030577D01*
X035466Y030655D01*
X035263Y030655D01*
X035075Y030577D01*
X034932Y030433D01*
X034864Y030270D01*
X034796Y030433D01*
X034653Y030577D01*
X034466Y030655D01*
X034263Y030655D01*
X034075Y030577D01*
X033932Y030433D01*
X033864Y030270D01*
X033796Y030433D01*
X033653Y030577D01*
X033466Y030655D01*
X033263Y030655D01*
X033075Y030577D01*
X032932Y030433D01*
X032854Y030246D01*
X032854Y029483D01*
X032910Y029349D01*
X032188Y028627D01*
X032101Y028540D01*
X032054Y028426D01*
X032054Y024556D01*
X031932Y024433D01*
X031864Y024270D01*
X031796Y024433D01*
X031653Y024577D01*
X031466Y024655D01*
X031263Y024655D01*
X031075Y024577D01*
X030932Y024433D01*
X030864Y024270D01*
X030796Y024433D01*
X030653Y024577D01*
X030466Y024655D01*
X030263Y024655D01*
X030134Y024601D01*
X030134Y025418D01*
X030093Y025517D01*
X030017Y025593D01*
X026515Y029095D01*
X026653Y029152D01*
X026796Y029296D01*
X026864Y029459D01*
X026932Y029296D01*
X027075Y029152D01*
X027263Y029075D01*
X027466Y029075D01*
X027653Y029152D01*
X027796Y029296D01*
X027864Y029459D01*
X027932Y029296D01*
X028075Y029152D01*
X028263Y029075D01*
X028466Y029075D01*
X028653Y029152D01*
X028796Y029296D01*
X028864Y029459D01*
X028932Y029296D01*
X029075Y029152D01*
X029263Y029075D01*
X029466Y029075D01*
X029653Y029152D01*
X029796Y029296D01*
X029864Y029459D01*
X029932Y029296D01*
X030075Y029152D01*
X030263Y029075D01*
X030466Y029075D01*
X030653Y029152D01*
X030796Y029296D01*
X030864Y029459D01*
X030932Y029296D01*
X031075Y029152D01*
X031263Y029075D01*
X031466Y029075D01*
X031653Y029152D01*
X031796Y029296D01*
X031874Y029483D01*
X031874Y030246D01*
X031796Y030433D01*
X031653Y030577D01*
X031466Y030655D01*
X031263Y030655D01*
X031075Y030577D01*
X030932Y030433D01*
X030864Y030270D01*
X030796Y030433D01*
X030653Y030577D01*
X030466Y030655D01*
X030263Y030655D01*
X030075Y030577D01*
X029932Y030433D01*
X029864Y030270D01*
X029796Y030433D01*
X029653Y030577D01*
X029466Y030655D01*
X029263Y030655D01*
X029075Y030577D01*
X028932Y030433D01*
X028864Y030270D01*
X028796Y030433D01*
X028653Y030577D01*
X028466Y030655D01*
X028263Y030655D01*
X028075Y030577D01*
X027932Y030433D01*
X027864Y030270D01*
X027796Y030433D01*
X027653Y030577D01*
X027466Y030655D01*
X027263Y030655D01*
X027075Y030577D01*
X026932Y030433D01*
X026864Y030270D01*
X026796Y030433D01*
X026653Y030577D01*
X026466Y030655D01*
X026456Y030655D01*
X026017Y031093D01*
X025918Y031135D01*
X025810Y031135D01*
X023855Y031135D01*
X023874Y031153D01*
X023874Y031576D01*
X023575Y031875D01*
X023153Y031875D01*
X022854Y031576D01*
X022854Y031153D01*
X023063Y030945D01*
X022635Y030517D01*
X022594Y030418D01*
X022594Y030311D01*
X022594Y022226D01*
X020502Y020135D01*
X012810Y020135D01*
X012711Y020093D01*
X012635Y020017D01*
X010135Y017517D01*
X010094Y017418D01*
X010094Y017311D01*
X010094Y015715D01*
X009899Y015715D01*
X009872Y015688D01*
X009845Y015715D01*
X008915Y015715D01*
X008780Y015580D01*
X008780Y014649D01*
X008915Y014515D01*
X008780Y014707D02*
X001364Y014707D01*
X001364Y014865D02*
X008780Y014865D01*
X008780Y015024D02*
X001364Y015024D01*
X001364Y015182D02*
X008780Y015182D01*
X008780Y015341D02*
X001364Y015341D01*
X001364Y015499D02*
X008780Y015499D01*
X008858Y015658D02*
X001364Y015658D01*
X001364Y015816D02*
X010094Y015816D01*
X010094Y015975D02*
X001364Y015975D01*
X001364Y016133D02*
X010094Y016133D01*
X010094Y016292D02*
X001364Y016292D01*
X001364Y016451D02*
X010094Y016451D01*
X010094Y016609D02*
X001364Y016609D01*
X001364Y016768D02*
X010094Y016768D01*
X010094Y016926D02*
X009104Y016926D01*
X008972Y016794D02*
X009452Y017275D01*
X009452Y017954D01*
X008972Y018435D01*
X008292Y018435D01*
X007811Y017954D01*
X007811Y017275D01*
X008292Y016794D01*
X008972Y016794D01*
X009262Y017085D02*
X010094Y017085D01*
X010094Y017243D02*
X009421Y017243D01*
X009452Y017402D02*
X010094Y017402D01*
X010178Y017560D02*
X009452Y017560D01*
X009452Y017719D02*
X010337Y017719D01*
X010495Y017877D02*
X009452Y017877D01*
X009371Y018036D02*
X010654Y018036D01*
X010812Y018195D02*
X009212Y018195D01*
X009054Y018353D02*
X010971Y018353D01*
X011129Y018512D02*
X001364Y018512D01*
X001364Y018670D02*
X011288Y018670D01*
X011446Y018829D02*
X001364Y018829D01*
X001364Y018987D02*
X011605Y018987D01*
X011764Y019146D02*
X001364Y019146D01*
X001364Y019304D02*
X011922Y019304D01*
X012081Y019463D02*
X001364Y019463D01*
X001364Y019621D02*
X012239Y019621D01*
X012398Y019780D02*
X001364Y019780D01*
X001364Y019939D02*
X012556Y019939D01*
X012720Y020097D02*
X001364Y020097D01*
X001364Y020256D02*
X008339Y020256D01*
X008360Y020235D02*
X008525Y020166D01*
X008703Y020166D01*
X008868Y020235D01*
X008978Y020345D01*
X015668Y020345D01*
X015767Y020386D01*
X015843Y020462D01*
X018048Y022666D01*
X018203Y022666D01*
X018368Y022735D01*
X018494Y022861D01*
X018562Y023025D01*
X018562Y023204D01*
X018494Y023368D01*
X018368Y023494D01*
X018203Y023563D01*
X018025Y023563D01*
X017860Y023494D01*
X017734Y023368D01*
X017666Y023204D01*
X017666Y023048D01*
X015502Y020885D01*
X008978Y020885D01*
X008868Y020994D01*
X008703Y021063D01*
X008525Y021063D01*
X008360Y020994D01*
X008234Y020868D01*
X008166Y020704D01*
X008166Y020525D01*
X008234Y020361D01*
X008360Y020235D01*
X008212Y020414D02*
X001364Y020414D01*
X001364Y020573D02*
X008166Y020573D01*
X008177Y020731D02*
X001364Y020731D01*
X001364Y020890D02*
X008256Y020890D01*
X008490Y021048D02*
X001364Y021048D01*
X001364Y021207D02*
X015825Y021207D01*
X015983Y021365D02*
X001364Y021365D01*
X001364Y021524D02*
X016142Y021524D01*
X016300Y021682D02*
X001364Y021682D01*
X001364Y021841D02*
X016459Y021841D01*
X016617Y022000D02*
X008395Y022000D01*
X008395Y022824D01*
X008260Y022959D01*
X007436Y022959D01*
X007321Y022843D01*
X007291Y022873D01*
X007250Y022896D01*
X007205Y022909D01*
X006883Y022909D01*
X006883Y022430D01*
X006846Y022430D01*
X006846Y022909D01*
X006524Y022909D01*
X006478Y022896D01*
X006437Y022873D01*
X006407Y022843D01*
X006292Y022959D01*
X005468Y022959D01*
X005333Y022824D01*
X005333Y022000D01*
X005468Y021865D01*
X006292Y021865D01*
X006407Y021980D01*
X006437Y021951D01*
X006478Y021927D01*
X006524Y021915D01*
X006846Y021915D01*
X006846Y022393D01*
X006883Y022393D01*
X006883Y021915D01*
X007205Y021915D01*
X007250Y021927D01*
X007291Y021951D01*
X007321Y021980D01*
X007436Y021865D01*
X008260Y021865D01*
X008395Y022000D01*
X008395Y022158D02*
X016776Y022158D01*
X016934Y022317D02*
X008395Y022317D01*
X008395Y022475D02*
X017093Y022475D01*
X017251Y022634D02*
X015414Y022634D01*
X015403Y022622D02*
X015546Y022766D01*
X015624Y022953D01*
X015624Y023716D01*
X015546Y023903D01*
X015403Y024047D01*
X015216Y024125D01*
X015013Y024125D01*
X014825Y024047D01*
X014682Y023903D01*
X014614Y023740D01*
X014546Y023903D01*
X014403Y024047D01*
X014216Y024125D01*
X014013Y024125D01*
X013825Y024047D01*
X013682Y023903D01*
X013614Y023740D01*
X013546Y023903D01*
X013403Y024047D01*
X013216Y024125D01*
X013013Y024125D01*
X012825Y024047D01*
X012682Y023903D01*
X012604Y023716D01*
X012604Y022953D01*
X012682Y022766D01*
X012825Y022622D01*
X013013Y022545D01*
X013216Y022545D01*
X013403Y022622D01*
X013546Y022766D01*
X013614Y022929D01*
X013682Y022766D01*
X013825Y022622D01*
X014013Y022545D01*
X014216Y022545D01*
X014403Y022622D01*
X014546Y022766D01*
X014614Y022929D01*
X014682Y022766D01*
X014825Y022622D01*
X015013Y022545D01*
X015216Y022545D01*
X015403Y022622D01*
X015557Y022792D02*
X017410Y022792D01*
X017569Y022951D02*
X015623Y022951D01*
X015624Y023109D02*
X017666Y023109D01*
X017693Y023268D02*
X015624Y023268D01*
X015624Y023426D02*
X017792Y023426D01*
X018436Y023426D02*
X022594Y023426D01*
X022594Y023268D02*
X018536Y023268D01*
X018562Y023109D02*
X022594Y023109D01*
X022594Y022951D02*
X018531Y022951D01*
X018426Y022792D02*
X022594Y022792D01*
X022594Y022634D02*
X018015Y022634D01*
X017857Y022475D02*
X022594Y022475D01*
X022594Y022317D02*
X017698Y022317D01*
X017539Y022158D02*
X022526Y022158D01*
X022367Y022000D02*
X017381Y022000D01*
X017222Y021841D02*
X022209Y021841D01*
X022050Y021682D02*
X017064Y021682D01*
X016905Y021524D02*
X021892Y021524D01*
X021733Y021365D02*
X016747Y021365D01*
X016588Y021207D02*
X021575Y021207D01*
X021416Y021048D02*
X016430Y021048D01*
X016271Y020890D02*
X021257Y020890D01*
X021099Y020731D02*
X016113Y020731D01*
X015954Y020573D02*
X020940Y020573D01*
X020782Y020414D02*
X015795Y020414D01*
X015507Y020890D02*
X008973Y020890D01*
X008738Y021048D02*
X015666Y021048D01*
X014814Y022634D02*
X014414Y022634D01*
X014557Y022792D02*
X014671Y022792D01*
X013814Y022634D02*
X013414Y022634D01*
X013557Y022792D02*
X013671Y022792D01*
X012814Y022634D02*
X012301Y022634D01*
X012291Y022628D02*
X012355Y022661D01*
X012414Y022704D01*
X012465Y022755D01*
X012507Y022813D01*
X012540Y022878D01*
X012563Y022947D01*
X012574Y023018D01*
X012574Y023614D01*
X012114Y023614D01*
X012114Y023614D01*
X012114Y022595D01*
X012078Y022595D01*
X012006Y022606D01*
X011937Y022628D01*
X011873Y022661D01*
X011814Y022704D01*
X011763Y022755D01*
X011721Y022813D01*
X011688Y022878D01*
X011665Y022947D01*
X011654Y023018D01*
X011654Y023614D01*
X012114Y023614D01*
X012114Y022595D01*
X012150Y022595D01*
X012222Y022606D01*
X012291Y022628D01*
X012114Y022634D02*
X012114Y022634D01*
X012114Y022792D02*
X012114Y022792D01*
X012114Y022951D02*
X012114Y022951D01*
X012114Y023109D02*
X012114Y023109D01*
X012114Y023268D02*
X012114Y023268D01*
X012114Y023426D02*
X012114Y023426D01*
X012114Y023585D02*
X012114Y023585D01*
X012114Y023614D02*
X012114Y023615D01*
X012114Y024075D01*
X012078Y024075D01*
X012006Y024063D01*
X011937Y024041D01*
X011873Y024008D01*
X011814Y023965D01*
X011763Y023914D01*
X011721Y023856D01*
X011688Y023791D01*
X011665Y023722D01*
X011654Y023651D01*
X011654Y023615D01*
X012114Y023615D01*
X012114Y023615D01*
X012114Y024075D01*
X012150Y024075D01*
X012222Y024063D01*
X012291Y024041D01*
X012355Y024008D01*
X012414Y023965D01*
X012465Y023914D01*
X012507Y023856D01*
X012540Y023791D01*
X012563Y023722D01*
X012574Y023651D01*
X012574Y023615D01*
X012114Y023615D01*
X012114Y023614D01*
X012114Y023744D02*
X012114Y023744D01*
X012114Y023902D02*
X012114Y023902D01*
X012114Y024061D02*
X012114Y024061D01*
X011998Y024061D02*
X001364Y024061D01*
X001364Y024219D02*
X022594Y024219D01*
X022594Y024061D02*
X015370Y024061D01*
X015547Y023902D02*
X022594Y023902D01*
X022594Y023744D02*
X015613Y023744D01*
X015624Y023585D02*
X022594Y023585D01*
X023134Y023109D02*
X023179Y023109D01*
X023134Y022951D02*
X024594Y022951D01*
X024594Y023109D02*
X024550Y023109D01*
X024594Y022792D02*
X023134Y022792D01*
X023134Y022634D02*
X024594Y022634D01*
X024594Y022475D02*
X023134Y022475D01*
X023134Y022317D02*
X024594Y022317D01*
X024594Y022158D02*
X023134Y022158D01*
X023109Y022000D02*
X024594Y022000D01*
X024594Y021841D02*
X022972Y021841D01*
X022814Y021682D02*
X024594Y021682D01*
X024594Y021524D02*
X022655Y021524D01*
X022497Y021365D02*
X024594Y021365D01*
X024594Y021207D02*
X022338Y021207D01*
X022180Y021048D02*
X024594Y021048D01*
X024594Y020890D02*
X022021Y020890D01*
X021863Y020731D02*
X024594Y020731D01*
X024594Y020573D02*
X021704Y020573D01*
X021545Y020414D02*
X024594Y020414D01*
X024594Y020256D02*
X021387Y020256D01*
X021228Y020097D02*
X024594Y020097D01*
X024594Y019939D02*
X021070Y019939D01*
X020911Y019780D02*
X024594Y019780D01*
X024489Y019621D02*
X020733Y019621D01*
X020623Y020256D02*
X008889Y020256D01*
X008210Y018353D02*
X001364Y018353D01*
X001364Y018195D02*
X008051Y018195D01*
X007893Y018036D02*
X001364Y018036D01*
X001364Y017877D02*
X007811Y017877D01*
X007811Y017719D02*
X001364Y017719D01*
X001364Y017560D02*
X007811Y017560D01*
X007811Y017402D02*
X001364Y017402D01*
X001364Y017243D02*
X007843Y017243D01*
X008001Y017085D02*
X001364Y017085D01*
X001364Y016926D02*
X008160Y016926D01*
X010634Y016926D02*
X011624Y016926D01*
X011466Y017085D02*
X010634Y017085D01*
X010634Y017243D02*
X011307Y017243D01*
X011276Y017402D02*
X010783Y017402D01*
X010942Y017560D02*
X011276Y017560D01*
X011276Y017719D02*
X011100Y017719D01*
X011259Y017877D02*
X011276Y017877D01*
X011893Y018512D02*
X024094Y018512D01*
X024094Y018670D02*
X012051Y018670D01*
X012210Y018829D02*
X024094Y018829D01*
X024094Y018987D02*
X012369Y018987D01*
X012527Y019146D02*
X024094Y019146D01*
X024172Y019304D02*
X012686Y019304D01*
X012844Y019463D02*
X024331Y019463D01*
X024211Y019343D02*
X024211Y019343D01*
X024634Y018987D02*
X024764Y018987D01*
X024801Y018829D02*
X024634Y018829D01*
X024634Y018670D02*
X024960Y018670D01*
X024983Y018512D02*
X024634Y018512D01*
X024634Y018353D02*
X024825Y018353D01*
X024814Y018195D02*
X024634Y018195D01*
X024634Y018036D02*
X024814Y018036D01*
X024814Y018094D02*
X024814Y017887D01*
X025136Y017565D01*
X025344Y017565D01*
X025344Y018094D01*
X024814Y018094D01*
X024823Y017877D02*
X024634Y017877D01*
X024634Y017719D02*
X024982Y017719D01*
X025344Y017719D02*
X025384Y017719D01*
X025384Y017877D02*
X025344Y017877D01*
X025344Y018036D02*
X025384Y018036D01*
X025746Y017719D02*
X025911Y017719D01*
X026070Y017560D02*
X024634Y017560D01*
X024634Y017402D02*
X029311Y017402D01*
X029311Y017275D02*
X029792Y016794D01*
X030472Y016794D01*
X030952Y017275D01*
X030952Y017954D01*
X030472Y018435D01*
X029792Y018435D01*
X029311Y017954D01*
X029311Y017275D01*
X029343Y017243D02*
X024634Y017243D01*
X024634Y017085D02*
X029501Y017085D01*
X029660Y016926D02*
X024634Y016926D01*
X024634Y016768D02*
X031594Y016768D01*
X031594Y016926D02*
X030604Y016926D01*
X030762Y017085D02*
X031594Y017085D01*
X031594Y017243D02*
X030921Y017243D01*
X030952Y017402D02*
X031594Y017402D01*
X031594Y017560D02*
X030952Y017560D01*
X030952Y017719D02*
X031594Y017719D01*
X031594Y017877D02*
X030952Y017877D01*
X030871Y018036D02*
X031594Y018036D01*
X031594Y018195D02*
X030712Y018195D01*
X030554Y018353D02*
X031594Y018353D01*
X031585Y018512D02*
X027816Y018512D01*
X027768Y018670D02*
X031427Y018670D01*
X031268Y018829D02*
X027927Y018829D01*
X027964Y018987D02*
X031110Y018987D01*
X030951Y019146D02*
X027964Y019146D01*
X027964Y019304D02*
X030792Y019304D01*
X030634Y019463D02*
X027864Y019463D01*
X027706Y019621D02*
X030475Y019621D01*
X030317Y019780D02*
X026411Y019780D01*
X026570Y019939D02*
X030158Y019939D01*
X030000Y020097D02*
X026728Y020097D01*
X026887Y020256D02*
X029841Y020256D01*
X029683Y020414D02*
X027045Y020414D01*
X027204Y020573D02*
X029594Y020573D01*
X029594Y020731D02*
X027363Y020731D01*
X027521Y020890D02*
X029594Y020890D01*
X029594Y021048D02*
X027680Y021048D01*
X027838Y021207D02*
X029594Y021207D01*
X029594Y021365D02*
X027884Y021365D01*
X027995Y021524D02*
X029594Y021524D01*
X029594Y021682D02*
X028124Y021682D01*
X028124Y021841D02*
X029594Y021841D01*
X029594Y022000D02*
X028124Y022000D01*
X028042Y022158D02*
X029594Y022158D01*
X029594Y022317D02*
X027883Y022317D01*
X027345Y022317D02*
X025134Y022317D01*
X025134Y022475D02*
X029594Y022475D01*
X029594Y022634D02*
X025134Y022634D01*
X025134Y022792D02*
X029594Y022792D01*
X029594Y022951D02*
X025134Y022951D01*
X025134Y023109D02*
X025179Y023109D01*
X025550Y023109D02*
X026179Y023109D01*
X025959Y023268D02*
X025769Y023268D01*
X025851Y023426D02*
X025878Y023426D01*
X026550Y023109D02*
X027179Y023109D01*
X026959Y023268D02*
X026769Y023268D01*
X026851Y023426D02*
X026878Y023426D01*
X027550Y023109D02*
X028179Y023109D01*
X027959Y023268D02*
X027769Y023268D01*
X027851Y023426D02*
X027878Y023426D01*
X028550Y023109D02*
X029179Y023109D01*
X028959Y023268D02*
X028769Y023268D01*
X028851Y023426D02*
X028878Y023426D01*
X029550Y023109D02*
X029594Y023109D01*
X030134Y023109D02*
X030179Y023109D01*
X030134Y022951D02*
X038594Y022951D01*
X038594Y023109D02*
X038550Y023109D01*
X038594Y022792D02*
X038087Y022792D01*
X038055Y022825D02*
X037864Y022825D01*
X037674Y022825D01*
X037404Y022555D01*
X037404Y022365D01*
X037864Y022365D01*
X037864Y022825D01*
X037864Y022365D01*
X037864Y022365D01*
X037864Y022364D01*
X037864Y022364D01*
X037864Y021905D01*
X037674Y021905D01*
X037404Y022174D01*
X037404Y022364D01*
X037864Y022364D01*
X037864Y021905D01*
X038055Y021905D01*
X038324Y022174D01*
X038324Y022364D01*
X037864Y022364D01*
X037864Y022365D01*
X038324Y022365D01*
X038324Y022555D01*
X038055Y022825D01*
X037864Y022792D02*
X037864Y022792D01*
X037864Y022634D02*
X037864Y022634D01*
X037864Y022475D02*
X037864Y022475D01*
X037864Y022317D02*
X037864Y022317D01*
X037864Y022158D02*
X037864Y022158D01*
X037864Y022000D02*
X037864Y022000D01*
X038075Y021875D02*
X037653Y021875D01*
X037413Y021635D01*
X036426Y021635D01*
X036316Y021744D01*
X036324Y021763D01*
X036324Y021966D01*
X036246Y022153D01*
X036103Y022297D01*
X035916Y022375D01*
X035713Y022375D01*
X035525Y022297D01*
X035382Y022153D01*
X035304Y021966D01*
X035304Y021763D01*
X035382Y021576D01*
X035525Y021432D01*
X035713Y021355D01*
X035916Y021355D01*
X035934Y021362D01*
X036085Y021212D01*
X036161Y021136D01*
X036260Y021095D01*
X037413Y021095D01*
X037653Y020855D01*
X038075Y020855D01*
X038374Y021153D01*
X038374Y021576D01*
X038075Y021875D01*
X038109Y021841D02*
X038594Y021841D01*
X038594Y021682D02*
X038267Y021682D01*
X038374Y021524D02*
X038594Y021524D01*
X038594Y021365D02*
X038374Y021365D01*
X038374Y021207D02*
X038594Y021207D01*
X038594Y021048D02*
X038269Y021048D01*
X038111Y020890D02*
X038594Y020890D01*
X038594Y020731D02*
X030134Y020731D01*
X030134Y020890D02*
X031618Y020890D01*
X031653Y020855D02*
X032075Y020855D01*
X032374Y021153D01*
X032374Y021576D01*
X032075Y021875D01*
X031653Y021875D01*
X031354Y021576D01*
X031354Y021153D01*
X031653Y020855D01*
X031459Y021048D02*
X030134Y021048D01*
X030134Y021207D02*
X031354Y021207D01*
X031354Y021365D02*
X030836Y021365D01*
X030995Y021524D02*
X031354Y021524D01*
X031461Y021682D02*
X031124Y021682D01*
X031124Y021841D02*
X031619Y021841D01*
X031674Y021905D02*
X031404Y022174D01*
X031404Y022364D01*
X031864Y022364D01*
X031864Y022364D01*
X031864Y021905D01*
X031674Y021905D01*
X031579Y022000D02*
X031124Y022000D01*
X031042Y022158D02*
X031420Y022158D01*
X031404Y022317D02*
X030883Y022317D01*
X031404Y022365D02*
X031404Y022555D01*
X031674Y022825D01*
X031864Y022825D01*
X031864Y022365D01*
X031864Y022365D01*
X031864Y022825D01*
X032055Y022825D01*
X032324Y022555D01*
X032324Y022365D01*
X031864Y022365D01*
X031864Y022364D01*
X031864Y021905D01*
X032055Y021905D01*
X032324Y022174D01*
X032324Y022364D01*
X031864Y022364D01*
X031864Y022365D01*
X031404Y022365D01*
X031404Y022475D02*
X030134Y022475D01*
X030134Y022317D02*
X030345Y022317D01*
X030186Y022158D02*
X030134Y022158D01*
X030134Y022634D02*
X031483Y022634D01*
X031641Y022792D02*
X030134Y022792D01*
X030550Y023109D02*
X031179Y023109D01*
X030959Y023268D02*
X030769Y023268D01*
X030851Y023426D02*
X030878Y023426D01*
X031550Y023109D02*
X032179Y023109D01*
X031959Y023268D02*
X031769Y023268D01*
X031851Y023426D02*
X031878Y023426D01*
X032364Y023865D02*
X032364Y028365D01*
X033364Y029365D01*
X033364Y029865D01*
X032854Y029927D02*
X032824Y029927D01*
X032824Y029865D02*
X032824Y030181D01*
X032813Y030252D01*
X032790Y030321D01*
X032757Y030386D01*
X032715Y030444D01*
X032664Y030495D01*
X032605Y030538D01*
X032541Y030571D01*
X032472Y030593D01*
X032400Y030605D01*
X032364Y030605D01*
X032328Y030605D01*
X032256Y030593D01*
X032187Y030571D01*
X032123Y030538D01*
X032064Y030495D01*
X032013Y030444D01*
X031971Y030386D01*
X031938Y030321D01*
X031915Y030252D01*
X031904Y030181D01*
X031904Y029865D01*
X032364Y029865D01*
X032364Y030605D01*
X032364Y029865D01*
X032364Y029865D01*
X032364Y029864D01*
X032364Y029864D01*
X032364Y029125D01*
X032328Y029125D01*
X032256Y029136D01*
X032187Y029158D01*
X032123Y029191D01*
X032064Y029234D01*
X032013Y029285D01*
X031971Y029343D01*
X031938Y029408D01*
X031915Y029477D01*
X031904Y029548D01*
X031904Y029864D01*
X032364Y029864D01*
X032364Y029125D01*
X032400Y029125D01*
X032472Y029136D01*
X032541Y029158D01*
X032605Y029191D01*
X032664Y029234D01*
X032715Y029285D01*
X032757Y029343D01*
X032790Y029408D01*
X032813Y029477D01*
X032824Y029548D01*
X032824Y029864D01*
X032364Y029864D01*
X032364Y029865D01*
X032824Y029865D01*
X032824Y029768D02*
X032854Y029768D01*
X032854Y029610D02*
X032824Y029610D01*
X032804Y029451D02*
X032867Y029451D01*
X032854Y029293D02*
X032720Y029293D01*
X032695Y029134D02*
X032460Y029134D01*
X032364Y029134D02*
X032364Y029134D01*
X032268Y029134D02*
X031609Y029134D01*
X031793Y029293D02*
X032008Y029293D01*
X031924Y029451D02*
X031861Y029451D01*
X031874Y029610D02*
X031904Y029610D01*
X031904Y029768D02*
X031874Y029768D01*
X031874Y029927D02*
X031904Y029927D01*
X031904Y030085D02*
X031874Y030085D01*
X031874Y030244D02*
X031914Y030244D01*
X031983Y030402D02*
X031809Y030402D01*
X031669Y030561D02*
X032168Y030561D01*
X032364Y030561D02*
X032364Y030561D01*
X032364Y030402D02*
X032364Y030402D01*
X032364Y030244D02*
X032364Y030244D01*
X032364Y030085D02*
X032364Y030085D01*
X032364Y029927D02*
X032364Y029927D01*
X032364Y029768D02*
X032364Y029768D01*
X032364Y029610D02*
X032364Y029610D01*
X032364Y029451D02*
X032364Y029451D01*
X032364Y029293D02*
X032364Y029293D01*
X032537Y028975D02*
X026635Y028975D01*
X026609Y029134D02*
X027119Y029134D01*
X026935Y029293D02*
X026793Y029293D01*
X026861Y029451D02*
X026867Y029451D01*
X026794Y028817D02*
X032378Y028817D01*
X032220Y028658D02*
X026952Y028658D01*
X027111Y028500D02*
X032085Y028500D01*
X032054Y028341D02*
X027269Y028341D01*
X027428Y028183D02*
X032054Y028183D01*
X032054Y028024D02*
X027586Y028024D01*
X027745Y027866D02*
X032054Y027866D01*
X032054Y027707D02*
X027903Y027707D01*
X028062Y027549D02*
X032054Y027549D01*
X032054Y027390D02*
X028220Y027390D01*
X028379Y027231D02*
X032054Y027231D01*
X032054Y027073D02*
X028537Y027073D01*
X028696Y026914D02*
X032054Y026914D01*
X032054Y026756D02*
X028855Y026756D01*
X029013Y026597D02*
X032054Y026597D01*
X032054Y026439D02*
X029172Y026439D01*
X029330Y026280D02*
X032054Y026280D01*
X032054Y026122D02*
X029489Y026122D01*
X029647Y025963D02*
X032054Y025963D01*
X032054Y025805D02*
X029806Y025805D01*
X029964Y025646D02*
X032054Y025646D01*
X032054Y025488D02*
X030105Y025488D01*
X030134Y025329D02*
X032054Y025329D01*
X032054Y025170D02*
X030134Y025170D01*
X030134Y025012D02*
X032054Y025012D01*
X032054Y024853D02*
X030134Y024853D01*
X030134Y024695D02*
X032054Y024695D01*
X032035Y024536D02*
X031694Y024536D01*
X031819Y024378D02*
X031909Y024378D01*
X032694Y024536D02*
X033121Y024536D01*
X033123Y024538D02*
X033064Y024495D01*
X033013Y024444D01*
X032971Y024386D01*
X032938Y024321D01*
X032915Y024252D01*
X032904Y024181D01*
X032904Y023865D01*
X033364Y023865D01*
X033364Y024605D01*
X033328Y024605D01*
X033256Y024593D01*
X033187Y024571D01*
X033123Y024538D01*
X032967Y024378D02*
X032820Y024378D01*
X032874Y024219D02*
X032910Y024219D01*
X032904Y024061D02*
X032874Y024061D01*
X032874Y023902D02*
X032904Y023902D01*
X032904Y023864D02*
X032904Y023548D01*
X032915Y023477D01*
X032938Y023408D01*
X032971Y023343D01*
X033013Y023285D01*
X033064Y023234D01*
X033123Y023191D01*
X033187Y023158D01*
X033256Y023136D01*
X033328Y023125D01*
X033364Y023125D01*
X033364Y023864D01*
X033364Y023864D01*
X033364Y023125D01*
X033400Y023125D01*
X033472Y023136D01*
X033541Y023158D01*
X033605Y023191D01*
X033664Y023234D01*
X033715Y023285D01*
X033757Y023343D01*
X033790Y023408D01*
X033813Y023477D01*
X033824Y023548D01*
X033824Y023864D01*
X033364Y023864D01*
X032904Y023864D01*
X032904Y023744D02*
X032874Y023744D01*
X032874Y023585D02*
X032904Y023585D01*
X032932Y023426D02*
X032851Y023426D01*
X032769Y023268D02*
X033030Y023268D01*
X033364Y023268D02*
X033364Y023268D01*
X033364Y023426D02*
X033364Y023426D01*
X033364Y023585D02*
X033364Y023585D01*
X033364Y023744D02*
X033364Y023744D01*
X033364Y023864D02*
X033364Y023865D01*
X033364Y023865D01*
X033364Y024605D01*
X033400Y024605D01*
X033472Y024593D01*
X033541Y024571D01*
X033605Y024538D01*
X033664Y024495D01*
X033715Y024444D01*
X033757Y024386D01*
X033790Y024321D01*
X033813Y024252D01*
X033824Y024181D01*
X033824Y023865D01*
X033364Y023865D01*
X033364Y023864D01*
X033364Y023902D02*
X033364Y023902D01*
X033364Y024061D02*
X033364Y024061D01*
X033364Y024219D02*
X033364Y024219D01*
X033364Y024378D02*
X033364Y024378D01*
X033364Y024536D02*
X033364Y024536D01*
X033608Y024536D02*
X034035Y024536D01*
X033909Y024378D02*
X033762Y024378D01*
X033818Y024219D02*
X033854Y024219D01*
X033854Y024061D02*
X033824Y024061D01*
X033824Y023902D02*
X033854Y023902D01*
X033854Y023744D02*
X033824Y023744D01*
X033824Y023585D02*
X033854Y023585D01*
X033878Y023426D02*
X033796Y023426D01*
X033698Y023268D02*
X033959Y023268D01*
X034179Y023109D02*
X032550Y023109D01*
X032087Y022792D02*
X037641Y022792D01*
X037483Y022634D02*
X032245Y022634D01*
X032324Y022475D02*
X037404Y022475D01*
X037404Y022317D02*
X036055Y022317D01*
X036242Y022158D02*
X037420Y022158D01*
X037579Y022000D02*
X036310Y022000D01*
X036324Y021841D02*
X037619Y021841D01*
X037461Y021682D02*
X036378Y021682D01*
X036090Y021207D02*
X032374Y021207D01*
X032374Y021365D02*
X033786Y021365D01*
X033813Y021355D02*
X034016Y021355D01*
X034203Y021432D01*
X034346Y021576D01*
X034424Y021763D01*
X034424Y021966D01*
X034346Y022153D01*
X034203Y022297D01*
X034016Y022375D01*
X033813Y022375D01*
X033625Y022297D01*
X033482Y022153D01*
X033404Y021966D01*
X033404Y021763D01*
X033482Y021576D01*
X033625Y021432D01*
X033813Y021355D01*
X034042Y021365D02*
X035686Y021365D01*
X035433Y021524D02*
X034295Y021524D01*
X034391Y021682D02*
X035337Y021682D01*
X035304Y021841D02*
X034424Y021841D01*
X034410Y022000D02*
X035318Y022000D01*
X035386Y022158D02*
X034342Y022158D01*
X034155Y022317D02*
X035573Y022317D01*
X035550Y023109D02*
X036179Y023109D01*
X035959Y023268D02*
X035769Y023268D01*
X035851Y023426D02*
X035878Y023426D01*
X035179Y023109D02*
X034550Y023109D01*
X034769Y023268D02*
X034959Y023268D01*
X034878Y023426D02*
X034851Y023426D01*
X034819Y024378D02*
X034909Y024378D01*
X035035Y024536D02*
X034694Y024536D01*
X035694Y024536D02*
X036035Y024536D01*
X035909Y024378D02*
X035819Y024378D01*
X036694Y024536D02*
X037035Y024536D01*
X036909Y024378D02*
X036819Y024378D01*
X037694Y024536D02*
X038035Y024536D01*
X038094Y024695D02*
X032674Y024695D01*
X032674Y024853D02*
X038094Y024853D01*
X038094Y025012D02*
X032674Y025012D01*
X032674Y025170D02*
X038094Y025170D01*
X038094Y025329D02*
X032674Y025329D01*
X032674Y025488D02*
X038094Y025488D01*
X037970Y025646D02*
X032674Y025646D01*
X032674Y025805D02*
X037916Y025805D01*
X037920Y025963D02*
X032674Y025963D01*
X032674Y026122D02*
X037988Y026122D01*
X038197Y026280D02*
X032674Y026280D01*
X032674Y026439D02*
X038408Y026439D01*
X038531Y026280D02*
X038567Y026280D01*
X038249Y026597D02*
X032674Y026597D01*
X032674Y026756D02*
X034089Y026756D01*
X033962Y026914D02*
X032674Y026914D01*
X032674Y027073D02*
X033916Y027073D01*
X033928Y027231D02*
X032674Y027231D01*
X032674Y027390D02*
X034006Y027390D01*
X034094Y027549D02*
X032674Y027549D01*
X032674Y027707D02*
X034094Y027707D01*
X034094Y027866D02*
X032674Y027866D01*
X032674Y028024D02*
X034094Y028024D01*
X034094Y028183D02*
X032674Y028183D01*
X032779Y028341D02*
X034094Y028341D01*
X034094Y028500D02*
X032938Y028500D01*
X033096Y028658D02*
X034094Y028658D01*
X034094Y028817D02*
X033255Y028817D01*
X033413Y028975D02*
X034094Y028975D01*
X034094Y029134D02*
X033609Y029134D01*
X033793Y029293D02*
X033935Y029293D01*
X033867Y029451D02*
X033861Y029451D01*
X034634Y029134D02*
X035119Y029134D01*
X034935Y029293D02*
X034793Y029293D01*
X034861Y029451D02*
X034867Y029451D01*
X034634Y028975D02*
X035871Y028975D01*
X036030Y028817D02*
X034634Y028817D01*
X034634Y028658D02*
X036188Y028658D01*
X036347Y028500D02*
X034634Y028500D01*
X034634Y028341D02*
X036506Y028341D01*
X036664Y028183D02*
X034634Y028183D01*
X034634Y028024D02*
X036823Y028024D01*
X036981Y027866D02*
X034634Y027866D01*
X034634Y027707D02*
X037140Y027707D01*
X037298Y027549D02*
X034634Y027549D01*
X034722Y027390D02*
X037457Y027390D01*
X037615Y027231D02*
X034801Y027231D01*
X034812Y027073D02*
X037774Y027073D01*
X037932Y026914D02*
X034766Y026914D01*
X034639Y026756D02*
X038091Y026756D01*
X037909Y024378D02*
X037819Y024378D01*
X037851Y023426D02*
X037878Y023426D01*
X037959Y023268D02*
X037769Y023268D01*
X037550Y023109D02*
X038179Y023109D01*
X038245Y022634D02*
X038594Y022634D01*
X038594Y022475D02*
X038324Y022475D01*
X038324Y022317D02*
X038594Y022317D01*
X038594Y022158D02*
X038308Y022158D01*
X038150Y022000D02*
X038594Y022000D01*
X037618Y020890D02*
X032111Y020890D01*
X032269Y021048D02*
X037459Y021048D01*
X038594Y020573D02*
X030288Y020573D01*
X030446Y020414D02*
X038594Y020414D01*
X038594Y020256D02*
X030605Y020256D01*
X030763Y020097D02*
X038594Y020097D01*
X038594Y019939D02*
X030922Y019939D01*
X031080Y019780D02*
X038594Y019780D01*
X038594Y019621D02*
X031239Y019621D01*
X031398Y019463D02*
X038594Y019463D01*
X038594Y019304D02*
X031556Y019304D01*
X031715Y019146D02*
X038594Y019146D01*
X038594Y018987D02*
X031873Y018987D01*
X032032Y018829D02*
X038446Y018829D01*
X038288Y018670D02*
X032133Y018670D01*
X032134Y018512D02*
X038129Y018512D01*
X037971Y018353D02*
X036297Y018353D01*
X036535Y018195D02*
X037812Y018195D01*
X037711Y018093D02*
X037711Y018093D01*
X037654Y018036D02*
X036625Y018036D01*
X036654Y017877D02*
X037594Y017877D01*
X037594Y017719D02*
X036636Y017719D01*
X036561Y017560D02*
X037594Y017560D01*
X037594Y017402D02*
X036360Y017402D01*
X036487Y017243D02*
X037594Y017243D01*
X037594Y017085D02*
X036605Y017085D01*
X036654Y016926D02*
X037594Y016926D01*
X037594Y016768D02*
X036654Y016768D01*
X036590Y016609D02*
X037594Y016609D01*
X037594Y016451D02*
X036451Y016451D01*
X036438Y016292D02*
X037594Y016292D01*
X037594Y016133D02*
X036585Y016133D01*
X036650Y015975D02*
X037594Y015975D01*
X037594Y015816D02*
X036654Y015816D01*
X036610Y015658D02*
X037594Y015658D01*
X037594Y015499D02*
X036500Y015499D01*
X036327Y015341D02*
X037594Y015341D01*
X037594Y015182D02*
X036548Y015182D01*
X036630Y015024D02*
X037594Y015024D01*
X037594Y014865D02*
X036654Y014865D01*
X037156Y014707D02*
X037640Y014707D01*
X037799Y014548D02*
X037273Y014548D01*
X037312Y014389D02*
X037957Y014389D01*
X038116Y014231D02*
X037294Y014231D01*
X037206Y014072D02*
X038118Y014072D01*
X038074Y013914D02*
X036654Y013914D01*
X036651Y013755D02*
X038077Y013755D01*
X038143Y013597D02*
X036585Y013597D01*
X036439Y013438D02*
X038056Y013438D01*
X037897Y013280D02*
X036450Y013280D01*
X036590Y013121D02*
X037739Y013121D01*
X037580Y012963D02*
X036654Y012963D01*
X036654Y012804D02*
X037422Y012804D01*
X037263Y012646D02*
X036605Y012646D01*
X035278Y013280D02*
X034874Y013280D01*
X034874Y013438D02*
X035289Y013438D01*
X035143Y013597D02*
X034978Y013597D01*
X034842Y013121D02*
X035138Y013121D01*
X035074Y012963D02*
X034683Y012963D01*
X035074Y012804D02*
X018306Y012804D01*
X018433Y012963D02*
X018795Y012963D01*
X018636Y013121D02*
X018592Y013121D01*
X018465Y012646D02*
X035123Y012646D01*
X034045Y012963D02*
X033683Y012963D01*
X033842Y013121D02*
X033886Y013121D01*
X033045Y012963D02*
X032683Y012963D01*
X032842Y013121D02*
X032886Y013121D01*
X032045Y012963D02*
X031683Y012963D01*
X031842Y013121D02*
X031886Y013121D01*
X031045Y012963D02*
X028183Y012963D01*
X028075Y012855D02*
X028374Y013153D01*
X028374Y013576D01*
X028075Y013875D01*
X027653Y013875D01*
X027364Y013586D01*
X027075Y013875D01*
X026653Y013875D01*
X026364Y013586D01*
X026075Y013875D01*
X025653Y013875D01*
X025364Y013586D01*
X025075Y013875D01*
X024653Y013875D01*
X024354Y013576D01*
X024354Y013153D01*
X024653Y012855D01*
X025075Y012855D01*
X025364Y013143D01*
X025653Y012855D01*
X026075Y012855D01*
X026364Y013143D01*
X026653Y012855D01*
X027075Y012855D01*
X027364Y013143D01*
X027653Y012855D01*
X028075Y012855D01*
X028342Y013121D02*
X030886Y013121D01*
X030854Y013280D02*
X028374Y013280D01*
X028374Y013438D02*
X030854Y013438D01*
X030875Y013597D02*
X028353Y013597D01*
X028195Y013755D02*
X031034Y013755D01*
X031532Y013914D02*
X017654Y013914D01*
X017651Y013755D02*
X017784Y013755D01*
X017625Y013597D02*
X017585Y013597D01*
X017610Y014072D02*
X031690Y014072D01*
X032363Y014548D02*
X034166Y014548D01*
X034324Y014707D02*
X033394Y014707D01*
X033398Y014721D02*
X033398Y015096D01*
X032867Y015096D01*
X032867Y014565D01*
X033242Y014565D01*
X033288Y014577D01*
X033329Y014601D01*
X033362Y014634D01*
X033386Y014675D01*
X033398Y014721D01*
X033398Y014865D02*
X034483Y014865D01*
X034641Y015024D02*
X033398Y015024D01*
X033398Y015182D02*
X034800Y015182D01*
X034959Y015341D02*
X033398Y015341D01*
X033398Y015499D02*
X035117Y015499D01*
X035118Y015658D02*
X033267Y015658D01*
X032867Y015658D02*
X032830Y015658D01*
X032830Y015499D02*
X032867Y015499D01*
X032867Y015341D02*
X032830Y015341D01*
X032830Y015182D02*
X032867Y015182D01*
X032867Y015024D02*
X032830Y015024D01*
X032830Y014865D02*
X032867Y014865D01*
X032867Y014707D02*
X032830Y014707D01*
X032430Y015658D02*
X032386Y015658D01*
X032134Y015816D02*
X035074Y015816D01*
X035078Y015975D02*
X032134Y015975D01*
X032134Y016133D02*
X035143Y016133D01*
X035290Y016292D02*
X032134Y016292D01*
X032134Y016451D02*
X035277Y016451D01*
X035138Y016609D02*
X032134Y016609D01*
X032134Y016768D02*
X035074Y016768D01*
X035074Y016926D02*
X034068Y016926D01*
X033936Y016794D02*
X034417Y017275D01*
X034417Y017954D01*
X033936Y018435D01*
X033256Y018435D01*
X032776Y017954D01*
X032776Y017275D01*
X033256Y016794D01*
X033936Y016794D01*
X034227Y017085D02*
X035123Y017085D01*
X035242Y017243D02*
X034385Y017243D01*
X034417Y017402D02*
X035369Y017402D01*
X035167Y017560D02*
X034417Y017560D01*
X034417Y017719D02*
X035092Y017719D01*
X035074Y017877D02*
X034417Y017877D01*
X034335Y018036D02*
X035103Y018036D01*
X035193Y018195D02*
X034177Y018195D01*
X034018Y018353D02*
X035431Y018353D01*
X033174Y018353D02*
X032134Y018353D01*
X032134Y018195D02*
X033016Y018195D01*
X032857Y018036D02*
X032134Y018036D01*
X032134Y017877D02*
X032776Y017877D01*
X032776Y017719D02*
X032134Y017719D01*
X032134Y017560D02*
X032776Y017560D01*
X032776Y017402D02*
X032134Y017402D01*
X032134Y017243D02*
X032807Y017243D01*
X032966Y017085D02*
X032134Y017085D01*
X032134Y016926D02*
X033124Y016926D01*
X031594Y016609D02*
X024634Y016609D01*
X024634Y016451D02*
X025173Y016451D01*
X025255Y016485D02*
X025053Y016401D01*
X024898Y016246D01*
X024814Y016044D01*
X024814Y015185D01*
X024898Y014983D01*
X025053Y014828D01*
X025255Y014745D01*
X025474Y014745D01*
X025676Y014828D01*
X025830Y014983D01*
X025885Y015115D01*
X025898Y015083D01*
X026053Y014928D01*
X026255Y014845D01*
X026474Y014845D01*
X026676Y014928D01*
X026830Y015083D01*
X026843Y015115D01*
X026898Y014983D01*
X027053Y014828D01*
X027255Y014745D01*
X027474Y014745D01*
X027676Y014828D01*
X027830Y014983D01*
X027914Y015185D01*
X027914Y016044D01*
X027830Y016246D01*
X027676Y016401D01*
X027474Y016485D01*
X027255Y016485D01*
X027053Y016401D01*
X026898Y016246D01*
X026885Y016215D01*
X026830Y016346D01*
X026676Y016501D01*
X026474Y016585D01*
X026255Y016585D01*
X026053Y016501D01*
X025898Y016346D01*
X025843Y016215D01*
X025830Y016246D01*
X025676Y016401D01*
X025474Y016485D01*
X025255Y016485D01*
X025556Y016451D02*
X026002Y016451D01*
X025875Y016292D02*
X025784Y016292D01*
X024944Y016292D02*
X024626Y016292D01*
X024515Y016133D02*
X024851Y016133D01*
X024814Y015975D02*
X024356Y015975D01*
X024198Y015816D02*
X024814Y015816D01*
X024814Y015658D02*
X024039Y015658D01*
X024093Y015712D02*
X024093Y015712D01*
X023910Y016292D02*
X017438Y016292D01*
X017451Y016451D02*
X024068Y016451D01*
X024094Y016609D02*
X017590Y016609D01*
X017654Y016768D02*
X024094Y016768D01*
X024094Y016926D02*
X022818Y016926D01*
X022686Y016794D02*
X023167Y017275D01*
X023167Y017954D01*
X022686Y018435D01*
X022006Y018435D01*
X021526Y017954D01*
X021526Y017275D01*
X022006Y016794D01*
X022686Y016794D01*
X022977Y017085D02*
X024094Y017085D01*
X024094Y017243D02*
X023135Y017243D01*
X023167Y017402D02*
X024094Y017402D01*
X024094Y017560D02*
X023167Y017560D01*
X023167Y017719D02*
X024094Y017719D01*
X024094Y017877D02*
X023167Y017877D01*
X023085Y018036D02*
X024094Y018036D01*
X024094Y018195D02*
X022927Y018195D01*
X022768Y018353D02*
X024094Y018353D01*
X025134Y019780D02*
X025648Y019780D01*
X025806Y019939D02*
X025134Y019939D01*
X025134Y020097D02*
X025965Y020097D01*
X026123Y020256D02*
X025134Y020256D01*
X025134Y020414D02*
X026282Y020414D01*
X026440Y020573D02*
X025134Y020573D01*
X025134Y020731D02*
X026599Y020731D01*
X026758Y020890D02*
X025134Y020890D01*
X025134Y021048D02*
X026916Y021048D01*
X027075Y021207D02*
X025134Y021207D01*
X025134Y021365D02*
X027233Y021365D01*
X027233Y021524D02*
X025134Y021524D01*
X025134Y021682D02*
X027104Y021682D01*
X027104Y021841D02*
X025134Y021841D01*
X025134Y022000D02*
X027104Y022000D01*
X027186Y022158D02*
X025134Y022158D01*
X024179Y023109D02*
X023550Y023109D01*
X023769Y023268D02*
X023959Y023268D01*
X023878Y023426D02*
X023851Y023426D01*
X022594Y024378D02*
X001364Y024378D01*
X001364Y024536D02*
X003699Y024536D01*
X003734Y024501D02*
X005191Y024501D01*
X005326Y024636D01*
X005326Y026093D01*
X005191Y026228D01*
X003734Y026228D01*
X003599Y026093D01*
X003599Y024636D01*
X003734Y024501D01*
X003599Y024695D02*
X001364Y024695D01*
X001364Y024853D02*
X003599Y024853D01*
X003599Y025012D02*
X001364Y025012D01*
X001364Y025170D02*
X003599Y025170D01*
X003599Y025329D02*
X001364Y025329D01*
X001364Y025488D02*
X003599Y025488D01*
X003599Y025646D02*
X001364Y025646D01*
X001364Y025805D02*
X003599Y025805D01*
X003599Y025963D02*
X001364Y025963D01*
X001364Y026122D02*
X003628Y026122D01*
X005297Y026122D02*
X008431Y026122D01*
X008403Y026093D02*
X008537Y026228D01*
X009994Y026228D01*
X010129Y026093D01*
X010129Y024636D01*
X009994Y024501D01*
X008537Y024501D01*
X008403Y024636D01*
X008403Y026093D01*
X008403Y025963D02*
X005326Y025963D01*
X005326Y025805D02*
X008403Y025805D01*
X008403Y025646D02*
X005326Y025646D01*
X005326Y025488D02*
X008403Y025488D01*
X008403Y025329D02*
X005326Y025329D01*
X005326Y025170D02*
X008403Y025170D01*
X008403Y025012D02*
X005326Y025012D01*
X005326Y024853D02*
X008403Y024853D01*
X008403Y024695D02*
X005326Y024695D01*
X005226Y024536D02*
X008503Y024536D01*
X010029Y024536D02*
X022594Y024536D01*
X022594Y024695D02*
X011166Y024695D01*
X011075Y024605D02*
X010653Y024605D01*
X010354Y024903D01*
X010354Y025326D01*
X010653Y025625D01*
X011075Y025625D01*
X011374Y025326D01*
X011374Y024903D01*
X011075Y024605D01*
X011324Y024853D02*
X022594Y024853D01*
X022594Y025012D02*
X011374Y025012D01*
X011374Y025170D02*
X022594Y025170D01*
X022594Y025329D02*
X011371Y025329D01*
X011212Y025488D02*
X022594Y025488D01*
X022594Y025646D02*
X010129Y025646D01*
X010129Y025488D02*
X010516Y025488D01*
X010357Y025329D02*
X010129Y025329D01*
X010129Y025170D02*
X010354Y025170D01*
X010354Y025012D02*
X010129Y025012D01*
X010129Y024853D02*
X010404Y024853D01*
X010563Y024695D02*
X010129Y024695D01*
X010129Y025805D02*
X022594Y025805D01*
X022594Y025963D02*
X010129Y025963D01*
X010100Y026122D02*
X011971Y026122D01*
X012013Y026105D02*
X012216Y026105D01*
X012403Y026182D01*
X012546Y026326D01*
X012614Y026489D01*
X012682Y026326D01*
X012825Y026182D01*
X013013Y026105D01*
X013216Y026105D01*
X013403Y026182D01*
X013546Y026326D01*
X013614Y026489D01*
X013682Y026326D01*
X013825Y026182D01*
X014013Y026105D01*
X014216Y026105D01*
X014403Y026182D01*
X014546Y026326D01*
X014614Y026489D01*
X014682Y026326D01*
X014825Y026182D01*
X015013Y026105D01*
X015216Y026105D01*
X015403Y026182D01*
X015546Y026326D01*
X015624Y026513D01*
X015624Y027276D01*
X015546Y027463D01*
X015419Y027591D01*
X015454Y027606D01*
X015623Y027775D01*
X015655Y027853D01*
X015903Y027605D01*
X016325Y027605D01*
X016624Y027903D01*
X016624Y028326D01*
X016325Y028625D01*
X015903Y028625D01*
X015655Y028377D01*
X015623Y028454D01*
X015454Y028623D01*
X015233Y028715D01*
X014995Y028715D01*
X014774Y028623D01*
X014605Y028454D01*
X014514Y028234D01*
X014514Y027995D01*
X014605Y027775D01*
X014774Y027606D01*
X014810Y027591D01*
X014682Y027463D01*
X014614Y027300D01*
X014546Y027463D01*
X014403Y027607D01*
X014216Y027685D01*
X014013Y027685D01*
X013825Y027607D01*
X013682Y027463D01*
X013614Y027300D01*
X013546Y027463D01*
X013403Y027607D01*
X013216Y027685D01*
X013013Y027685D01*
X012825Y027607D01*
X012682Y027463D01*
X012614Y027300D01*
X012546Y027463D01*
X012419Y027591D01*
X012454Y027606D01*
X012623Y027775D01*
X012714Y027995D01*
X012714Y028234D01*
X012623Y028454D01*
X012454Y028623D01*
X012233Y028715D01*
X011995Y028715D01*
X011774Y028623D01*
X011605Y028454D01*
X011514Y028234D01*
X011514Y027995D01*
X011605Y027775D01*
X011774Y027606D01*
X011810Y027591D01*
X011682Y027463D01*
X011604Y027276D01*
X011604Y026513D01*
X011682Y026326D01*
X011825Y026182D01*
X012013Y026105D01*
X012257Y026122D02*
X012971Y026122D01*
X013257Y026122D02*
X013971Y026122D01*
X014257Y026122D02*
X014971Y026122D01*
X015257Y026122D02*
X022594Y026122D01*
X022594Y026280D02*
X015501Y026280D01*
X015593Y026439D02*
X022594Y026439D01*
X022594Y026597D02*
X015624Y026597D01*
X015624Y026756D02*
X022594Y026756D01*
X022594Y026914D02*
X015624Y026914D01*
X015624Y027073D02*
X022594Y027073D01*
X022594Y027231D02*
X015624Y027231D01*
X015577Y027390D02*
X022594Y027390D01*
X022594Y027549D02*
X015461Y027549D01*
X015555Y027707D02*
X015800Y027707D01*
X016428Y027707D02*
X018800Y027707D01*
X018903Y027605D02*
X019325Y027605D01*
X019624Y027903D01*
X019624Y028326D01*
X019325Y028625D01*
X018903Y028625D01*
X018604Y028326D01*
X018604Y027903D01*
X018903Y027605D01*
X018642Y027866D02*
X016586Y027866D01*
X016624Y028024D02*
X018604Y028024D01*
X018604Y028183D02*
X016624Y028183D01*
X016609Y028341D02*
X018620Y028341D01*
X018778Y028500D02*
X016450Y028500D01*
X016371Y028745D02*
X016734Y029108D01*
X016734Y029621D01*
X016371Y029985D01*
X015857Y029985D01*
X015494Y029621D01*
X015494Y029108D01*
X015857Y028745D01*
X016371Y028745D01*
X016443Y028817D02*
X019785Y028817D01*
X019857Y028745D02*
X020371Y028745D01*
X020734Y029108D01*
X020734Y029621D01*
X020371Y029985D01*
X019857Y029985D01*
X019494Y029621D01*
X019494Y029108D01*
X019857Y028745D01*
X019626Y028975D02*
X016602Y028975D01*
X016734Y029134D02*
X019494Y029134D01*
X019494Y029293D02*
X016734Y029293D01*
X016734Y029451D02*
X017886Y029451D01*
X017895Y029446D02*
X017981Y029419D01*
X018064Y029405D01*
X018064Y030314D01*
X018164Y030314D01*
X018164Y029405D01*
X018248Y029419D01*
X018333Y029446D01*
X018413Y029487D01*
X018485Y029540D01*
X018549Y029603D01*
X018602Y029676D01*
X018642Y029756D01*
X018670Y029841D01*
X018684Y029930D01*
X018684Y030314D01*
X018164Y030314D01*
X018164Y030415D01*
X018064Y030415D01*
X018064Y031324D01*
X017981Y031311D01*
X017895Y031283D01*
X017815Y031242D01*
X017743Y031189D01*
X017679Y031126D01*
X017627Y031053D01*
X017586Y030973D01*
X017558Y030888D01*
X017544Y030799D01*
X017544Y030415D01*
X018064Y030415D01*
X018064Y030314D01*
X017544Y030314D01*
X017544Y029930D01*
X017558Y029841D01*
X017586Y029756D01*
X017627Y029676D01*
X017679Y029603D01*
X017743Y029540D01*
X017815Y029487D01*
X017895Y029446D01*
X018064Y029451D02*
X018164Y029451D01*
X018164Y029610D02*
X018064Y029610D01*
X018064Y029768D02*
X018164Y029768D01*
X018164Y029927D02*
X018064Y029927D01*
X018064Y030085D02*
X018164Y030085D01*
X018164Y030244D02*
X018064Y030244D01*
X018064Y030402D02*
X015734Y030402D01*
X015734Y030244D02*
X017544Y030244D01*
X017544Y030085D02*
X015712Y030085D01*
X015734Y030108D02*
X015371Y029745D01*
X014857Y029745D01*
X014494Y030108D01*
X014494Y030621D01*
X014857Y030985D01*
X015371Y030985D01*
X015734Y030621D01*
X015734Y030108D01*
X015799Y029927D02*
X015553Y029927D01*
X015641Y029768D02*
X015394Y029768D01*
X015494Y029610D02*
X012734Y029610D01*
X012734Y029621D02*
X012371Y029985D01*
X011857Y029985D01*
X011494Y029621D01*
X011494Y029108D01*
X011857Y028745D01*
X012371Y028745D01*
X012734Y029108D01*
X012734Y029621D01*
X012734Y029451D02*
X015494Y029451D01*
X015494Y029293D02*
X012734Y029293D01*
X012734Y029134D02*
X015494Y029134D01*
X015626Y028975D02*
X012602Y028975D01*
X012443Y028817D02*
X015785Y028817D01*
X015778Y028500D02*
X015577Y028500D01*
X015369Y028658D02*
X022594Y028658D01*
X022594Y028500D02*
X019450Y028500D01*
X019609Y028341D02*
X022594Y028341D01*
X022594Y028183D02*
X019624Y028183D01*
X019624Y028024D02*
X022594Y028024D01*
X022594Y027866D02*
X019586Y027866D01*
X019428Y027707D02*
X022594Y027707D01*
X022594Y028817D02*
X020443Y028817D01*
X020602Y028975D02*
X022594Y028975D01*
X022594Y029134D02*
X020734Y029134D01*
X020734Y029293D02*
X022594Y029293D01*
X022594Y029451D02*
X020734Y029451D01*
X020734Y029610D02*
X022594Y029610D01*
X022594Y029768D02*
X021394Y029768D01*
X021371Y029745D02*
X021734Y030108D01*
X021734Y030621D01*
X021371Y030985D01*
X020857Y030985D01*
X020494Y030621D01*
X020494Y030108D01*
X020857Y029745D01*
X021371Y029745D01*
X021553Y029927D02*
X022594Y029927D01*
X022594Y030085D02*
X021712Y030085D01*
X021734Y030244D02*
X022594Y030244D01*
X022594Y030402D02*
X021734Y030402D01*
X021734Y030561D02*
X022679Y030561D01*
X022837Y030719D02*
X021636Y030719D01*
X021477Y030878D02*
X022996Y030878D01*
X022971Y031037D02*
X018610Y031037D01*
X018602Y031053D02*
X018549Y031126D01*
X018485Y031189D01*
X018413Y031242D01*
X018333Y031283D01*
X018248Y031311D01*
X018164Y031324D01*
X018164Y030415D01*
X018684Y030415D01*
X018684Y030799D01*
X018670Y030888D01*
X018642Y030973D01*
X018602Y031053D01*
X018672Y030878D02*
X020751Y030878D01*
X020592Y030719D02*
X018684Y030719D01*
X018684Y030561D02*
X020494Y030561D01*
X020494Y030402D02*
X018164Y030402D01*
X018164Y030561D02*
X018064Y030561D01*
X018064Y030719D02*
X018164Y030719D01*
X018164Y030878D02*
X018064Y030878D01*
X018064Y031037D02*
X018164Y031037D01*
X018164Y031195D02*
X018064Y031195D01*
X017751Y031195D02*
X010550Y031195D01*
X010465Y031280D02*
X010237Y031375D01*
X009991Y031375D01*
X009763Y031280D01*
X009588Y031106D01*
X009494Y030878D01*
X009494Y029851D01*
X009588Y029623D01*
X009763Y029449D01*
X009991Y029355D01*
X010237Y029355D01*
X010465Y029449D01*
X010640Y029623D01*
X010734Y029851D01*
X010734Y030878D01*
X012751Y030878D01*
X012857Y030985D02*
X012494Y030621D01*
X012494Y030108D01*
X012857Y029745D01*
X013371Y029745D01*
X013734Y030108D01*
X013734Y030621D01*
X013371Y030985D01*
X012857Y030985D01*
X012592Y030719D02*
X010734Y030719D01*
X010734Y030561D02*
X012494Y030561D01*
X012494Y030402D02*
X010734Y030402D01*
X010734Y030244D02*
X012494Y030244D01*
X012517Y030085D02*
X010734Y030085D01*
X010734Y029927D02*
X011799Y029927D01*
X011641Y029768D02*
X010700Y029768D01*
X010626Y029610D02*
X011494Y029610D01*
X011494Y029451D02*
X010467Y029451D01*
X009761Y029451D02*
X008734Y029451D01*
X008734Y029293D02*
X011494Y029293D01*
X011494Y029134D02*
X008734Y029134D01*
X008734Y029108D02*
X008371Y028745D01*
X007857Y028745D01*
X007494Y029108D01*
X007494Y029621D01*
X007857Y029985D01*
X008371Y029985D01*
X008734Y029621D01*
X008734Y029108D01*
X008602Y028975D02*
X011626Y028975D01*
X011785Y028817D02*
X008443Y028817D01*
X008276Y028581D02*
X008235Y028605D01*
X008189Y028617D01*
X007867Y028617D01*
X007867Y028139D01*
X008345Y028139D01*
X008345Y028461D01*
X008333Y028507D01*
X008309Y028548D01*
X008276Y028581D01*
X008335Y028500D02*
X010528Y028500D01*
X010653Y028625D02*
X010354Y028326D01*
X010354Y027903D01*
X010653Y027605D01*
X011075Y027605D01*
X011374Y027903D01*
X011374Y028326D01*
X011075Y028625D01*
X010653Y028625D01*
X010370Y028341D02*
X008345Y028341D01*
X008345Y028183D02*
X010354Y028183D01*
X010354Y028024D02*
X008345Y028024D01*
X008345Y028102D02*
X007867Y028102D01*
X007867Y028139D01*
X007830Y028139D01*
X007830Y028617D01*
X007508Y028617D01*
X007462Y028605D01*
X007421Y028581D01*
X007387Y028548D01*
X007364Y028507D01*
X007351Y028461D01*
X007351Y028139D01*
X007830Y028139D01*
X007830Y028102D01*
X007867Y028102D01*
X007867Y027624D01*
X008189Y027624D01*
X008235Y027636D01*
X008276Y027660D01*
X008309Y027693D01*
X008333Y027734D01*
X008345Y027780D01*
X008345Y028102D01*
X008345Y027866D02*
X010392Y027866D01*
X010550Y027707D02*
X008317Y027707D01*
X007867Y027707D02*
X007830Y027707D01*
X007830Y027624D02*
X007508Y027624D01*
X007462Y027636D01*
X007421Y027660D01*
X007387Y027693D01*
X007364Y027734D01*
X007351Y027780D01*
X007351Y028102D01*
X007830Y028102D01*
X007830Y027624D01*
X007830Y027866D02*
X007867Y027866D01*
X007867Y028024D02*
X007830Y028024D01*
X007830Y028183D02*
X007867Y028183D01*
X007867Y028341D02*
X007830Y028341D01*
X007830Y028500D02*
X007867Y028500D01*
X007785Y028817D02*
X001364Y028817D01*
X001364Y028975D02*
X007626Y028975D01*
X007494Y029134D02*
X001364Y029134D01*
X001364Y029293D02*
X007494Y029293D01*
X007494Y029451D02*
X001364Y029451D01*
X001364Y029610D02*
X007494Y029610D01*
X007371Y029745D02*
X007734Y030108D01*
X007734Y030621D01*
X007371Y030985D01*
X006857Y030985D01*
X006494Y030621D01*
X006494Y030108D01*
X006857Y029745D01*
X007371Y029745D01*
X007394Y029768D02*
X007641Y029768D01*
X007553Y029927D02*
X007799Y029927D01*
X007712Y030085D02*
X009494Y030085D01*
X009494Y029927D02*
X008429Y029927D01*
X008587Y029768D02*
X009528Y029768D01*
X009602Y029610D02*
X008734Y029610D01*
X009494Y030244D02*
X007734Y030244D01*
X007734Y030402D02*
X009494Y030402D01*
X009494Y030561D02*
X007734Y030561D01*
X007636Y030719D02*
X009494Y030719D01*
X009494Y030878D02*
X007477Y030878D01*
X006751Y030878D02*
X001364Y030878D01*
X001364Y031037D02*
X009560Y031037D01*
X009678Y031195D02*
X001364Y031195D01*
X001364Y031354D02*
X008748Y031354D01*
X008763Y031339D02*
X008991Y031245D01*
X009237Y031245D01*
X009465Y031339D01*
X009640Y031513D01*
X009673Y031595D01*
X010555Y031595D01*
X010588Y031513D01*
X010763Y031339D01*
X010991Y031245D01*
X011237Y031245D01*
X011465Y031339D01*
X011640Y031513D01*
X011673Y031595D01*
X016555Y031595D01*
X016588Y031513D01*
X016763Y031339D01*
X016991Y031245D01*
X017237Y031245D01*
X017465Y031339D01*
X017640Y031513D01*
X017673Y031595D01*
X018555Y031595D01*
X018588Y031513D01*
X018763Y031339D01*
X018991Y031245D01*
X019237Y031245D01*
X019465Y031339D01*
X019640Y031513D01*
X019734Y031741D01*
X019734Y031988D01*
X019640Y032216D01*
X019465Y032390D01*
X019237Y032485D01*
X018991Y032485D01*
X018763Y032390D01*
X018588Y032216D01*
X018555Y032135D01*
X017673Y032135D01*
X017640Y032216D01*
X017465Y032390D01*
X017237Y032485D01*
X016991Y032485D01*
X016763Y032390D01*
X016588Y032216D01*
X016555Y032135D01*
X011673Y032135D01*
X011640Y032216D01*
X011465Y032390D01*
X011237Y032485D01*
X010991Y032485D01*
X010763Y032390D01*
X010588Y032216D01*
X010555Y032135D01*
X009673Y032135D01*
X009640Y032216D01*
X009465Y032390D01*
X009237Y032485D01*
X008991Y032485D01*
X008763Y032390D01*
X008588Y032216D01*
X008494Y031988D01*
X008494Y031741D01*
X008588Y031513D01*
X008763Y031339D01*
X008590Y031512D02*
X002816Y031512D01*
X003199Y031671D02*
X008523Y031671D01*
X008494Y031829D02*
X003419Y031829D01*
X003626Y031988D02*
X008494Y031988D01*
X008560Y032146D02*
X003774Y032146D01*
X003896Y032305D02*
X008678Y032305D01*
X008940Y032463D02*
X004018Y032463D01*
X004096Y032622D02*
X034426Y032622D01*
X034584Y032463D02*
X019288Y032463D01*
X019551Y032305D02*
X034743Y032305D01*
X034901Y032146D02*
X019668Y032146D01*
X019734Y031988D02*
X035060Y031988D01*
X035218Y031829D02*
X032621Y031829D01*
X032575Y031875D02*
X032153Y031875D01*
X031854Y031576D01*
X031854Y031153D01*
X032153Y030855D01*
X032575Y030855D01*
X032874Y031153D01*
X032874Y031576D01*
X032575Y031875D01*
X032779Y031671D02*
X033020Y031671D01*
X032904Y031555D02*
X032904Y031365D01*
X033364Y031365D01*
X033364Y031825D01*
X033174Y031825D01*
X032904Y031555D01*
X032904Y031512D02*
X032874Y031512D01*
X032904Y031364D02*
X032904Y031174D01*
X033174Y030905D01*
X033364Y030905D01*
X033364Y031364D01*
X033364Y031364D01*
X033364Y030905D01*
X033555Y030905D01*
X033824Y031174D01*
X033824Y031364D01*
X033364Y031364D01*
X032904Y031364D01*
X032904Y031354D02*
X032874Y031354D01*
X032874Y031195D02*
X032904Y031195D01*
X033042Y031037D02*
X032757Y031037D01*
X032599Y030878D02*
X036094Y030878D01*
X036094Y030719D02*
X026391Y030719D01*
X026232Y030878D02*
X027129Y030878D01*
X027153Y030855D02*
X027575Y030855D01*
X027874Y031153D01*
X027874Y031576D01*
X027575Y031875D01*
X027153Y031875D01*
X026854Y031576D01*
X026854Y031153D01*
X027153Y030855D01*
X026971Y031037D02*
X026074Y031037D01*
X026669Y030561D02*
X027059Y030561D01*
X026919Y030402D02*
X026809Y030402D01*
X026854Y031195D02*
X023874Y031195D01*
X023874Y031354D02*
X026854Y031354D01*
X026854Y031512D02*
X023874Y031512D01*
X023779Y031671D02*
X026949Y031671D01*
X027108Y031829D02*
X023621Y031829D01*
X023108Y031829D02*
X019734Y031829D01*
X019705Y031671D02*
X022949Y031671D01*
X022854Y031512D02*
X019639Y031512D01*
X019480Y031354D02*
X022854Y031354D01*
X022854Y031195D02*
X018477Y031195D01*
X018748Y031354D02*
X017480Y031354D01*
X017639Y031512D02*
X018590Y031512D01*
X018560Y032146D02*
X017668Y032146D01*
X017551Y032305D02*
X018678Y032305D01*
X018940Y032463D02*
X017288Y032463D01*
X016940Y032463D02*
X011288Y032463D01*
X011551Y032305D02*
X016678Y032305D01*
X016560Y032146D02*
X011668Y032146D01*
X011639Y031512D02*
X016590Y031512D01*
X016748Y031354D02*
X011480Y031354D01*
X010748Y031354D02*
X010288Y031354D01*
X010465Y031280D02*
X010640Y031106D01*
X010734Y030878D01*
X010668Y031037D02*
X017618Y031037D01*
X017557Y030878D02*
X015477Y030878D01*
X015636Y030719D02*
X017544Y030719D01*
X017544Y030561D02*
X015734Y030561D01*
X016429Y029927D02*
X017545Y029927D01*
X017582Y029768D02*
X016587Y029768D01*
X016734Y029610D02*
X017675Y029610D01*
X018342Y029451D02*
X019494Y029451D01*
X019494Y029610D02*
X018553Y029610D01*
X018646Y029768D02*
X019641Y029768D01*
X019799Y029927D02*
X018684Y029927D01*
X018684Y030085D02*
X020517Y030085D01*
X020494Y030244D02*
X018684Y030244D01*
X020429Y029927D02*
X020675Y029927D01*
X020587Y029768D02*
X020834Y029768D01*
X023625Y033098D02*
X004276Y033098D01*
X004297Y033256D02*
X023509Y033256D01*
X023465Y033415D02*
X004318Y033415D01*
X004339Y033573D02*
X023473Y033573D01*
X023475Y033584D02*
X023463Y033506D01*
X023463Y033487D01*
X023942Y033487D01*
X023942Y033967D01*
X023923Y033967D01*
X023845Y033955D01*
X023771Y033930D01*
X023700Y033895D01*
X023637Y033848D01*
X023581Y033793D01*
X023535Y033729D01*
X023499Y033659D01*
X023475Y033584D01*
X023537Y033732D02*
X004329Y033732D01*
X004308Y033890D02*
X008979Y033890D01*
X009250Y033890D02*
X010979Y033890D01*
X011250Y033890D02*
X016979Y033890D01*
X017250Y033890D02*
X018979Y033890D01*
X019250Y033890D02*
X023695Y033890D01*
X023942Y033890D02*
X023983Y033890D01*
X023983Y033732D02*
X023942Y033732D01*
X023942Y033573D02*
X023983Y033573D01*
X023983Y033415D02*
X023942Y033415D01*
X023942Y033256D02*
X023983Y033256D01*
X023983Y033098D02*
X023942Y033098D01*
X024300Y033098D02*
X024554Y033098D01*
X024455Y033256D02*
X024416Y033256D01*
X024388Y033732D02*
X024477Y033732D01*
X024608Y033890D02*
X024230Y033890D01*
X024800Y032939D02*
X004227Y032939D01*
X004162Y032781D02*
X034267Y032781D01*
X033800Y032939D02*
X033125Y032939D01*
X033371Y033098D02*
X033554Y033098D01*
X032800Y032939D02*
X032125Y032939D01*
X032371Y033098D02*
X032554Y033098D01*
X031800Y032939D02*
X031125Y032939D01*
X031371Y033098D02*
X031554Y033098D01*
X031477Y033732D02*
X031448Y033732D01*
X031317Y033890D02*
X031608Y033890D01*
X032317Y033890D02*
X032608Y033890D01*
X032477Y033732D02*
X032448Y033732D01*
X033317Y033890D02*
X033608Y033890D01*
X033477Y033732D02*
X033448Y033732D01*
X034317Y033890D02*
X034695Y033890D01*
X034537Y033732D02*
X034448Y033732D01*
X034942Y033732D02*
X034983Y033732D01*
X034983Y033890D02*
X034942Y033890D01*
X035230Y033890D02*
X035608Y033890D01*
X035477Y033732D02*
X035388Y033732D01*
X035435Y033303D02*
X035496Y033155D01*
X035651Y033001D01*
X035853Y032917D01*
X036072Y032917D01*
X036113Y032934D01*
X037094Y031954D01*
X037094Y030585D01*
X037075Y030577D01*
X036932Y030433D01*
X036864Y030270D01*
X036796Y030433D01*
X036653Y030577D01*
X036634Y030585D01*
X036634Y031119D01*
X036593Y031218D01*
X036517Y031294D01*
X034825Y032986D01*
X034845Y032979D01*
X034923Y032967D01*
X034942Y032967D01*
X034942Y033447D01*
X034983Y033447D01*
X034983Y032967D01*
X035002Y032967D01*
X035080Y032979D01*
X035154Y033004D01*
X035225Y033039D01*
X035288Y033086D01*
X035344Y033141D01*
X035390Y033205D01*
X035426Y033275D01*
X035435Y033303D01*
X035416Y033256D02*
X035455Y033256D01*
X035554Y033098D02*
X035300Y033098D01*
X034983Y033098D02*
X034942Y033098D01*
X034942Y033256D02*
X034983Y033256D01*
X034983Y033415D02*
X034942Y033415D01*
X034942Y033573D02*
X034983Y033573D01*
X034872Y032939D02*
X035800Y032939D01*
X036267Y032781D02*
X035031Y032781D01*
X035189Y032622D02*
X036426Y032622D01*
X036584Y032463D02*
X035348Y032463D01*
X035506Y032305D02*
X036743Y032305D01*
X036901Y032146D02*
X035665Y032146D01*
X035823Y031988D02*
X037060Y031988D01*
X037094Y031829D02*
X035982Y031829D01*
X036141Y031671D02*
X037094Y031671D01*
X037094Y031512D02*
X036299Y031512D01*
X036458Y031354D02*
X037094Y031354D01*
X037094Y031195D02*
X036603Y031195D01*
X036634Y031037D02*
X037094Y031037D01*
X037094Y030878D02*
X036634Y030878D01*
X036634Y030719D02*
X037094Y030719D01*
X037059Y030561D02*
X036669Y030561D01*
X036809Y030402D02*
X036919Y030402D01*
X037669Y030561D02*
X038059Y030561D01*
X037919Y030402D02*
X037809Y030402D01*
X037634Y030719D02*
X045364Y030719D01*
X045364Y030561D02*
X042669Y030561D01*
X042809Y030402D02*
X043755Y030402D01*
X043496Y030244D02*
X042874Y030244D01*
X042874Y030085D02*
X043390Y030085D01*
X043344Y029927D02*
X042874Y029927D01*
X042874Y029768D02*
X043344Y029768D01*
X043404Y029610D02*
X042884Y029610D01*
X042884Y029451D02*
X043530Y029451D01*
X043444Y029293D02*
X042884Y029293D01*
X042884Y029134D02*
X043310Y029134D01*
X043245Y028975D02*
X042884Y028975D01*
X042884Y028817D02*
X043244Y028817D01*
X043284Y028658D02*
X042884Y028658D01*
X042884Y028500D02*
X043381Y028500D01*
X043608Y028341D02*
X042884Y028341D01*
X042884Y028183D02*
X043434Y028183D01*
X043365Y028024D02*
X042884Y028024D01*
X042884Y027866D02*
X043344Y027866D01*
X043364Y027707D02*
X042884Y027707D01*
X042884Y027549D02*
X043432Y027549D01*
X043603Y027390D02*
X042884Y027390D01*
X042884Y027231D02*
X043383Y027231D01*
X043285Y027073D02*
X042884Y027073D01*
X042884Y026914D02*
X043244Y026914D01*
X043244Y026756D02*
X042884Y026756D01*
X042884Y026597D02*
X043309Y026597D01*
X043442Y026439D02*
X042884Y026439D01*
X042884Y026280D02*
X043532Y026280D01*
X043405Y026122D02*
X042884Y026122D01*
X042884Y025963D02*
X043344Y025963D01*
X043344Y025805D02*
X042884Y025805D01*
X042884Y025646D02*
X043389Y025646D01*
X043493Y025488D02*
X042884Y025488D01*
X043031Y025329D02*
X043481Y025329D01*
X043326Y025170D02*
X043190Y025170D01*
X042743Y024853D02*
X042134Y024853D01*
X042134Y024695D02*
X042899Y024695D01*
X043074Y024536D02*
X042694Y024536D01*
X042820Y024378D02*
X043248Y024378D01*
X043423Y024219D02*
X042874Y024219D01*
X042874Y024061D02*
X043380Y024061D01*
X043344Y023902D02*
X042874Y023902D01*
X042874Y023744D02*
X043349Y023744D01*
X043415Y023585D02*
X042874Y023585D01*
X042851Y023426D02*
X043554Y023426D01*
X043420Y023268D02*
X042769Y023268D01*
X042550Y023109D02*
X043300Y023109D01*
X043244Y022951D02*
X042134Y022951D01*
X042134Y023109D02*
X042179Y023109D01*
X042134Y022792D02*
X043244Y022792D01*
X043294Y022634D02*
X042134Y022634D01*
X042134Y022475D02*
X043406Y022475D01*
X043568Y022317D02*
X042134Y022317D01*
X042134Y022158D02*
X043420Y022158D01*
X043355Y022000D02*
X042134Y022000D01*
X042134Y021841D02*
X043344Y021841D01*
X043374Y021682D02*
X042134Y021682D01*
X042134Y021524D02*
X043457Y021524D01*
X043566Y021365D02*
X042134Y021365D01*
X042134Y021207D02*
X043359Y021207D01*
X043275Y021048D02*
X042134Y021048D01*
X042134Y020890D02*
X043244Y020890D01*
X043254Y020731D02*
X042134Y020731D01*
X042134Y020573D02*
X043320Y020573D01*
X043467Y020414D02*
X042134Y020414D01*
X042134Y020256D02*
X045364Y020256D01*
X045364Y020414D02*
X044761Y020414D01*
X044908Y020573D02*
X045364Y020573D01*
X045364Y020731D02*
X044974Y020731D01*
X044984Y020890D02*
X045364Y020890D01*
X045364Y021048D02*
X044953Y021048D01*
X044870Y021207D02*
X045364Y021207D01*
X045364Y021365D02*
X044766Y021365D01*
X044971Y021524D02*
X045364Y021524D01*
X045364Y021682D02*
X045054Y021682D01*
X045084Y021841D02*
X045364Y021841D01*
X045364Y022000D02*
X045073Y022000D01*
X045008Y022158D02*
X045364Y022158D01*
X045364Y022317D02*
X044860Y022317D01*
X044823Y022475D02*
X045364Y022475D01*
X045364Y022634D02*
X044934Y022634D01*
X044984Y022792D02*
X045364Y022792D01*
X045364Y022951D02*
X044984Y022951D01*
X044928Y023109D02*
X045364Y023109D01*
X045364Y023268D02*
X044809Y023268D01*
X044874Y023426D02*
X045364Y023426D01*
X045364Y023585D02*
X045014Y023585D01*
X045079Y023744D02*
X045364Y023744D01*
X045364Y023902D02*
X045084Y023902D01*
X045048Y024061D02*
X045364Y024061D01*
X045364Y024219D02*
X044957Y024219D01*
X044732Y024378D02*
X045364Y024378D01*
X045364Y024536D02*
X044884Y024536D01*
X044959Y024695D02*
X045364Y024695D01*
X045364Y024853D02*
X044984Y024853D01*
X044968Y025012D02*
X045364Y025012D01*
X045364Y025170D02*
X044903Y025170D01*
X044747Y025329D02*
X045364Y025329D01*
X045364Y025488D02*
X044935Y025488D01*
X045039Y025646D02*
X045364Y025646D01*
X045364Y025805D02*
X045084Y025805D01*
X045084Y025963D02*
X045364Y025963D01*
X045364Y026122D02*
X045023Y026122D01*
X044896Y026280D02*
X045364Y026280D01*
X045364Y026439D02*
X044786Y026439D01*
X044919Y026597D02*
X045364Y026597D01*
X045364Y026756D02*
X044984Y026756D01*
X044984Y026914D02*
X045364Y026914D01*
X045364Y027073D02*
X044943Y027073D01*
X044845Y027231D02*
X045364Y027231D01*
X045364Y027390D02*
X044826Y027390D01*
X044996Y027549D02*
X045364Y027549D01*
X045364Y027707D02*
X045064Y027707D01*
X045084Y027866D02*
X045364Y027866D01*
X045364Y028024D02*
X045063Y028024D01*
X044994Y028183D02*
X045364Y028183D01*
X045364Y028341D02*
X044820Y028341D01*
X044847Y028500D02*
X045364Y028500D01*
X045364Y028658D02*
X044944Y028658D01*
X044984Y028817D02*
X045364Y028817D01*
X045364Y028975D02*
X044983Y028975D01*
X044918Y029134D02*
X045364Y029134D01*
X045364Y029293D02*
X044784Y029293D01*
X044898Y029451D02*
X045364Y029451D01*
X045364Y029610D02*
X045024Y029610D01*
X045084Y029768D02*
X045364Y029768D01*
X045364Y029927D02*
X045084Y029927D01*
X045038Y030085D02*
X045364Y030085D01*
X045364Y030244D02*
X044933Y030244D01*
X044673Y030402D02*
X045364Y030402D01*
X045364Y030878D02*
X037634Y030878D01*
X037634Y031037D02*
X045364Y031037D01*
X045364Y031195D02*
X037634Y031195D01*
X037634Y031354D02*
X045364Y031354D01*
X045364Y031512D02*
X045316Y031512D01*
X043912Y031512D02*
X041676Y031512D01*
X041630Y031466D02*
X041763Y031598D01*
X041834Y031771D01*
X041834Y031958D01*
X041763Y032131D01*
X041630Y032263D01*
X041458Y032335D01*
X041271Y032335D01*
X041098Y032263D01*
X040966Y032131D01*
X040894Y031958D01*
X040894Y031771D01*
X040966Y031598D01*
X041098Y031466D01*
X041271Y031395D01*
X041458Y031395D01*
X041630Y031466D01*
X041792Y031671D02*
X043530Y031671D01*
X043309Y031829D02*
X041834Y031829D01*
X041822Y031988D02*
X043102Y031988D01*
X042954Y032146D02*
X041747Y032146D01*
X041529Y032305D02*
X042832Y032305D01*
X042711Y032463D02*
X040147Y032463D01*
X039988Y032622D02*
X042632Y032622D01*
X042566Y032781D02*
X039830Y032781D01*
X039427Y033036D02*
X039450Y033077D01*
X039462Y033123D01*
X039462Y033447D01*
X038983Y033447D01*
X038983Y032967D01*
X039306Y032967D01*
X039352Y032979D01*
X039393Y033003D01*
X039427Y033036D01*
X039456Y033098D02*
X042452Y033098D01*
X042431Y033256D02*
X039462Y033256D01*
X039462Y033415D02*
X042410Y033415D01*
X042390Y033573D02*
X039462Y033573D01*
X039462Y033732D02*
X042400Y033732D01*
X042420Y033890D02*
X039431Y033890D01*
X038983Y033890D02*
X038942Y033890D01*
X038942Y033732D02*
X038983Y033732D01*
X038983Y033573D02*
X038942Y033573D01*
X038942Y033415D02*
X038983Y033415D01*
X038983Y033256D02*
X038942Y033256D01*
X038942Y033098D02*
X038983Y033098D01*
X038469Y033098D02*
X038371Y033098D01*
X038125Y032939D02*
X042501Y032939D01*
X041199Y032305D02*
X040529Y032305D01*
X040747Y032146D02*
X040981Y032146D01*
X040906Y031988D02*
X040822Y031988D01*
X040834Y031829D02*
X040894Y031829D01*
X040936Y031671D02*
X040792Y031671D01*
X040676Y031512D02*
X041052Y031512D01*
X040052Y031512D02*
X039594Y031512D01*
X039584Y031505D02*
X039638Y031544D01*
X039684Y031591D01*
X039723Y031644D01*
X039753Y031703D01*
X039774Y031766D01*
X039784Y031831D01*
X039784Y031864D01*
X039364Y031864D01*
X039364Y031864D01*
X039364Y031445D01*
X039331Y031445D01*
X039266Y031455D01*
X039203Y031475D01*
X039144Y031505D01*
X039090Y031544D01*
X039044Y031591D01*
X039005Y031644D01*
X038975Y031703D01*
X038954Y031766D01*
X038944Y031831D01*
X038944Y031864D01*
X039364Y031864D01*
X039364Y031445D01*
X039397Y031445D01*
X039462Y031455D01*
X039525Y031475D01*
X039584Y031505D01*
X039364Y031512D02*
X039364Y031512D01*
X039364Y031671D02*
X039364Y031671D01*
X039364Y031829D02*
X039364Y031829D01*
X039364Y031864D02*
X039364Y031865D01*
X039364Y032285D01*
X039331Y032285D01*
X039266Y032274D01*
X039203Y032254D01*
X039144Y032224D01*
X039090Y032185D01*
X039044Y032138D01*
X039005Y032085D01*
X038975Y032026D01*
X038954Y031963D01*
X038944Y031898D01*
X038944Y031865D01*
X039364Y031865D01*
X039364Y031865D01*
X039364Y032285D01*
X039397Y032285D01*
X039462Y032274D01*
X039525Y032254D01*
X039584Y032224D01*
X039638Y032185D01*
X039684Y032138D01*
X039723Y032085D01*
X039753Y032026D01*
X039774Y031963D01*
X039784Y031898D01*
X039784Y031865D01*
X039364Y031865D01*
X039364Y031864D01*
X039364Y031988D02*
X039364Y031988D01*
X039364Y032146D02*
X039364Y032146D01*
X039542Y032305D02*
X037506Y032305D01*
X037584Y032463D02*
X037348Y032463D01*
X037426Y032622D02*
X037189Y032622D01*
X037267Y032781D02*
X037031Y032781D01*
X037623Y032146D02*
X039052Y032146D01*
X038963Y031988D02*
X037634Y031988D01*
X037634Y031829D02*
X038944Y031829D01*
X038991Y031671D02*
X037634Y031671D01*
X037634Y031512D02*
X039135Y031512D01*
X039676Y032146D02*
X039700Y032146D01*
X039766Y031988D02*
X039859Y031988D01*
X039894Y031829D02*
X039784Y031829D01*
X039737Y031671D02*
X039936Y031671D01*
X040059Y030561D02*
X039669Y030561D01*
X039809Y030402D02*
X039919Y030402D01*
X040669Y030561D02*
X041059Y030561D01*
X040919Y030402D02*
X040809Y030402D01*
X041669Y030561D02*
X042059Y030561D01*
X041919Y030402D02*
X041809Y030402D01*
X041861Y029451D02*
X041867Y029451D01*
X041935Y029293D02*
X041793Y029293D01*
X041609Y029134D02*
X042119Y029134D01*
X042344Y028975D02*
X041357Y028975D01*
X041198Y028817D02*
X042344Y028817D01*
X042344Y028658D02*
X041134Y028658D01*
X041134Y028500D02*
X042344Y028500D01*
X042344Y028341D02*
X041134Y028341D01*
X041134Y028183D02*
X042344Y028183D01*
X042344Y028024D02*
X041134Y028024D01*
X041134Y027866D02*
X042344Y027866D01*
X042344Y027707D02*
X042155Y027707D01*
X042273Y027549D02*
X042344Y027549D01*
X042344Y027390D02*
X042312Y027390D01*
X042294Y027231D02*
X042344Y027231D01*
X042344Y027073D02*
X042206Y027073D01*
X042134Y026914D02*
X042344Y026914D01*
X042344Y026756D02*
X042134Y026756D01*
X042134Y026597D02*
X042344Y026597D01*
X042344Y026439D02*
X042134Y026439D01*
X042134Y026280D02*
X042344Y026280D01*
X042344Y026122D02*
X042134Y026122D01*
X042134Y025963D02*
X042344Y025963D01*
X042344Y025805D02*
X042134Y025805D01*
X042134Y025646D02*
X042344Y025646D01*
X042344Y025488D02*
X042134Y025488D01*
X042134Y025329D02*
X042344Y025329D01*
X042426Y025170D02*
X042134Y025170D01*
X042134Y025012D02*
X042585Y025012D01*
X041594Y025012D02*
X041134Y025012D01*
X041134Y025170D02*
X041594Y025170D01*
X041594Y025329D02*
X041134Y025329D01*
X041134Y025488D02*
X041594Y025488D01*
X041594Y025646D02*
X041134Y025646D01*
X041134Y025805D02*
X041594Y025805D01*
X041594Y025963D02*
X041134Y025963D01*
X041134Y026122D02*
X041594Y026122D01*
X041594Y026280D02*
X041134Y026280D01*
X041134Y026439D02*
X041594Y026439D01*
X041594Y026597D02*
X041134Y026597D01*
X041134Y026756D02*
X041594Y026756D01*
X041594Y026914D02*
X041134Y026914D01*
X041134Y027073D02*
X041522Y027073D01*
X041434Y027231D02*
X041134Y027231D01*
X041134Y027390D02*
X041416Y027390D01*
X041455Y027549D02*
X041134Y027549D01*
X041134Y027707D02*
X041573Y027707D01*
X041594Y024853D02*
X041134Y024853D01*
X041134Y024695D02*
X041594Y024695D01*
X037179Y023109D02*
X036550Y023109D01*
X036769Y023268D02*
X036959Y023268D01*
X036878Y023426D02*
X036851Y023426D01*
X033673Y022317D02*
X032324Y022317D01*
X032308Y022158D02*
X033486Y022158D01*
X033418Y022000D02*
X032150Y022000D01*
X032109Y021841D02*
X033404Y021841D01*
X033437Y021682D02*
X032267Y021682D01*
X032374Y021524D02*
X033533Y021524D01*
X031864Y022000D02*
X031864Y022000D01*
X031864Y022158D02*
X031864Y022158D01*
X031864Y022317D02*
X031864Y022317D01*
X031864Y022475D02*
X031864Y022475D01*
X031864Y022634D02*
X031864Y022634D01*
X031864Y022792D02*
X031864Y022792D01*
X030392Y021365D02*
X030134Y021365D01*
X030134Y021524D02*
X030233Y021524D01*
X027022Y019621D02*
X026706Y019621D01*
X027964Y018353D02*
X029710Y018353D01*
X029551Y018195D02*
X027964Y018195D01*
X027964Y018036D02*
X029393Y018036D01*
X029311Y017877D02*
X027964Y017877D01*
X027817Y017719D02*
X029311Y017719D01*
X029311Y017560D02*
X027658Y017560D01*
X027070Y017560D02*
X026658Y017560D01*
X026817Y017719D02*
X026911Y017719D01*
X026726Y016451D02*
X027173Y016451D01*
X026944Y016292D02*
X026853Y016292D01*
X027556Y016451D02*
X031594Y016451D01*
X031594Y016292D02*
X027784Y016292D01*
X027877Y016133D02*
X031594Y016133D01*
X031594Y015975D02*
X027914Y015975D01*
X027914Y015816D02*
X031594Y015816D01*
X030358Y015658D02*
X027914Y015658D01*
X027914Y015499D02*
X030280Y015499D01*
X030280Y015341D02*
X027914Y015341D01*
X027913Y015182D02*
X030280Y015182D01*
X030280Y015024D02*
X027847Y015024D01*
X027712Y014865D02*
X030280Y014865D01*
X030280Y014707D02*
X022144Y014707D01*
X022148Y014721D02*
X022148Y015096D01*
X021617Y015096D01*
X021617Y014565D01*
X021992Y014565D01*
X022038Y014577D01*
X022079Y014601D01*
X022112Y014634D01*
X022136Y014675D01*
X022148Y014721D01*
X022148Y014865D02*
X025016Y014865D01*
X024881Y015024D02*
X022148Y015024D01*
X022148Y015182D02*
X024815Y015182D01*
X024814Y015341D02*
X022148Y015341D01*
X022148Y015499D02*
X024814Y015499D01*
X025712Y014865D02*
X026205Y014865D01*
X025957Y015024D02*
X025847Y015024D01*
X026523Y014865D02*
X027016Y014865D01*
X026881Y015024D02*
X026771Y015024D01*
X026534Y013755D02*
X026195Y013755D01*
X026353Y013597D02*
X026375Y013597D01*
X026386Y013121D02*
X026342Y013121D01*
X026183Y012963D02*
X026545Y012963D01*
X027183Y012963D02*
X027545Y012963D01*
X027386Y013121D02*
X027342Y013121D01*
X027353Y013597D02*
X027375Y013597D01*
X027534Y013755D02*
X027195Y013755D01*
X025534Y013755D02*
X025195Y013755D01*
X025353Y013597D02*
X025375Y013597D01*
X025386Y013121D02*
X025342Y013121D01*
X025183Y012963D02*
X025545Y012963D01*
X024545Y012963D02*
X021433Y012963D01*
X021592Y013121D02*
X024386Y013121D01*
X024354Y013280D02*
X021624Y013280D01*
X021624Y013438D02*
X024354Y013438D01*
X024375Y013597D02*
X021603Y013597D01*
X021445Y013755D02*
X024534Y013755D01*
X021617Y014707D02*
X021580Y014707D01*
X021580Y014865D02*
X021617Y014865D01*
X021617Y015024D02*
X021580Y015024D01*
X021113Y014548D02*
X030381Y014548D01*
X033849Y014231D02*
X017499Y014231D01*
X017478Y014548D02*
X019131Y014548D01*
X019030Y014707D02*
X017576Y014707D01*
X017604Y014865D02*
X017604Y014901D01*
X017593Y014972D01*
X017570Y015041D01*
X017537Y015106D01*
X017495Y015164D01*
X017444Y015215D01*
X017385Y015258D01*
X017321Y015291D01*
X017252Y015313D01*
X017180Y015325D01*
X016864Y015325D01*
X016864Y014865D01*
X016864Y014865D01*
X016864Y014865D01*
X017604Y014865D01*
X019030Y014865D01*
X019030Y015024D02*
X017576Y015024D01*
X017477Y015182D02*
X019030Y015182D01*
X019030Y015341D02*
X016222Y015341D01*
X016251Y015182D02*
X016134Y015182D01*
X016134Y015024D02*
X016152Y015024D01*
X016134Y014707D02*
X016152Y014707D01*
X016134Y014548D02*
X016250Y014548D01*
X016134Y014389D02*
X034007Y014389D01*
X038134Y015024D02*
X038152Y015024D01*
X038134Y015182D02*
X038251Y015182D01*
X038134Y015341D02*
X040780Y015341D01*
X040780Y015499D02*
X039500Y015499D01*
X039385Y015258D02*
X039321Y015291D01*
X039252Y015313D01*
X039180Y015325D01*
X038864Y015325D01*
X038864Y014865D01*
X038864Y014865D01*
X038864Y014865D01*
X039604Y014865D01*
X040780Y014865D01*
X040780Y014707D02*
X039576Y014707D01*
X039604Y014865D02*
X039604Y014901D01*
X039593Y014972D01*
X039570Y015041D01*
X039537Y015106D01*
X039495Y015164D01*
X039444Y015215D01*
X039385Y015258D01*
X039477Y015182D02*
X040780Y015182D01*
X040780Y015024D02*
X039576Y015024D01*
X038864Y015024D02*
X038864Y015024D01*
X038864Y015182D02*
X038864Y015182D01*
X038864Y014707D02*
X038864Y014707D01*
X038864Y014548D02*
X038864Y014548D01*
X038721Y014389D02*
X045364Y014389D01*
X045364Y014231D02*
X039499Y014231D01*
X039610Y014072D02*
X044446Y014072D01*
X044782Y014072D02*
X045364Y014072D01*
X045364Y014548D02*
X042863Y014548D01*
X043330Y014707D02*
X043367Y014707D01*
X043367Y014565D02*
X043742Y014565D01*
X043788Y014577D01*
X043829Y014601D01*
X043862Y014634D01*
X043886Y014675D01*
X043898Y014721D01*
X043898Y015096D01*
X043367Y015096D01*
X043367Y014565D01*
X043367Y014865D02*
X043330Y014865D01*
X043330Y015024D02*
X043367Y015024D01*
X043367Y015182D02*
X043330Y015182D01*
X043330Y015341D02*
X043367Y015341D01*
X043367Y015499D02*
X043330Y015499D01*
X043330Y015658D02*
X043367Y015658D01*
X043767Y015658D02*
X045364Y015658D01*
X045364Y015816D02*
X042294Y015816D01*
X042136Y015975D02*
X045364Y015975D01*
X045364Y016133D02*
X042134Y016133D01*
X042134Y016292D02*
X045364Y016292D01*
X045364Y016451D02*
X042134Y016451D01*
X042134Y016609D02*
X045364Y016609D01*
X045364Y016768D02*
X042134Y016768D01*
X042134Y016926D02*
X043624Y016926D01*
X043756Y016794D02*
X044436Y016794D01*
X044917Y017275D01*
X044917Y017954D01*
X044436Y018435D01*
X043756Y018435D01*
X043276Y017954D01*
X043276Y017275D01*
X043756Y016794D01*
X043466Y017085D02*
X042134Y017085D01*
X042134Y017243D02*
X043307Y017243D01*
X043276Y017402D02*
X042134Y017402D01*
X042134Y017560D02*
X043276Y017560D01*
X043276Y017719D02*
X042134Y017719D01*
X042134Y017877D02*
X043276Y017877D01*
X043357Y018036D02*
X042134Y018036D01*
X042134Y018195D02*
X043516Y018195D01*
X043674Y018353D02*
X042134Y018353D01*
X042134Y018512D02*
X045364Y018512D01*
X045364Y018670D02*
X042134Y018670D01*
X042134Y018829D02*
X045364Y018829D01*
X045364Y018987D02*
X042134Y018987D01*
X042134Y019146D02*
X045364Y019146D01*
X045364Y019304D02*
X042134Y019304D01*
X042134Y019463D02*
X045364Y019463D01*
X045364Y019621D02*
X042134Y019621D01*
X042134Y019780D02*
X045364Y019780D01*
X045364Y019939D02*
X042134Y019939D01*
X042134Y020097D02*
X045364Y020097D01*
X045364Y018353D02*
X044518Y018353D01*
X044677Y018195D02*
X045364Y018195D01*
X045364Y018036D02*
X044835Y018036D01*
X044917Y017877D02*
X045364Y017877D01*
X045364Y017719D02*
X044917Y017719D01*
X044917Y017560D02*
X045364Y017560D01*
X045364Y017402D02*
X044917Y017402D01*
X044885Y017243D02*
X045364Y017243D01*
X045364Y017085D02*
X044727Y017085D01*
X044568Y016926D02*
X045364Y016926D01*
X045364Y015499D02*
X043898Y015499D01*
X043898Y015341D02*
X045364Y015341D01*
X045364Y015182D02*
X043898Y015182D01*
X043898Y015024D02*
X045364Y015024D01*
X045364Y014865D02*
X043898Y014865D01*
X043894Y014707D02*
X045364Y014707D01*
X043784Y013914D02*
X039654Y013914D01*
X039651Y013755D02*
X043446Y013755D01*
X043240Y013597D02*
X039585Y013597D01*
X039439Y013438D02*
X043035Y013438D01*
X042913Y013280D02*
X039450Y013280D01*
X039590Y013121D02*
X042792Y013121D01*
X042676Y012963D02*
X039654Y012963D01*
X039654Y012804D02*
X042610Y012804D01*
X042545Y012646D02*
X039605Y012646D01*
X039488Y012487D02*
X042479Y012487D01*
X042445Y012328D02*
X039357Y012328D01*
X039560Y012170D02*
X042424Y012170D01*
X042403Y012011D02*
X039635Y012011D01*
X039654Y011853D02*
X042386Y011853D01*
X042406Y011694D02*
X039626Y011694D01*
X039536Y011536D02*
X042427Y011536D01*
X042448Y011377D02*
X039300Y011377D01*
X039511Y011219D02*
X042489Y011219D01*
X042554Y011060D02*
X039615Y011060D01*
X039654Y010902D02*
X042620Y010902D01*
X042688Y010743D02*
X039646Y010743D01*
X039580Y010584D02*
X042810Y010584D01*
X042931Y010426D02*
X039418Y010426D01*
X039653Y009875D02*
X039354Y009576D01*
X039354Y009153D01*
X039653Y008855D01*
X040075Y008855D01*
X040374Y009153D01*
X040374Y009576D01*
X040075Y009875D01*
X039653Y009875D01*
X039570Y009792D02*
X038158Y009792D01*
X038075Y009875D02*
X037653Y009875D01*
X037354Y009576D01*
X037354Y009153D01*
X037653Y008855D01*
X038075Y008855D01*
X038374Y009153D01*
X038374Y009576D01*
X038075Y009875D01*
X038317Y009633D02*
X039411Y009633D01*
X039354Y009475D02*
X038374Y009475D01*
X038374Y009316D02*
X039354Y009316D01*
X039354Y009158D02*
X038374Y009158D01*
X038220Y008999D02*
X039508Y008999D01*
X039674Y008825D02*
X039404Y008555D01*
X039404Y008365D01*
X038324Y008365D01*
X038324Y008555D01*
X038055Y008825D01*
X037864Y008825D01*
X037674Y008825D01*
X037404Y008555D01*
X037404Y008365D01*
X033824Y008365D01*
X033824Y008555D01*
X033555Y008825D01*
X033364Y008825D01*
X033174Y008825D01*
X032904Y008555D01*
X032904Y008365D01*
X030824Y008365D01*
X030824Y008555D01*
X030555Y008825D01*
X030364Y008825D01*
X030174Y008825D01*
X029904Y008555D01*
X029904Y008365D01*
X028824Y008365D01*
X028824Y008555D01*
X028555Y008825D01*
X028364Y008825D01*
X028174Y008825D01*
X027904Y008555D01*
X027904Y008365D01*
X026824Y008365D01*
X026824Y008555D01*
X026555Y008825D01*
X026364Y008825D01*
X026174Y008825D01*
X025904Y008555D01*
X025904Y008365D01*
X024824Y008365D01*
X024824Y008555D01*
X024555Y008825D01*
X024364Y008825D01*
X024174Y008825D01*
X023904Y008555D01*
X023904Y008365D01*
X022324Y008365D01*
X022324Y008555D01*
X022055Y008825D01*
X021864Y008825D01*
X021674Y008825D01*
X021404Y008555D01*
X021404Y008365D01*
X020324Y008365D01*
X020324Y008555D01*
X020055Y008825D01*
X019864Y008825D01*
X019674Y008825D01*
X019404Y008555D01*
X019404Y008365D01*
X018324Y008365D01*
X018324Y008555D01*
X018055Y008825D01*
X017864Y008825D01*
X017674Y008825D01*
X017404Y008555D01*
X017404Y008365D01*
X014324Y008365D01*
X014324Y008555D01*
X014055Y008825D01*
X013864Y008825D01*
X013674Y008825D01*
X013404Y008555D01*
X013404Y008365D01*
X012634Y008365D01*
X012634Y008523D02*
X013404Y008523D01*
X013404Y008365D02*
X013864Y008365D01*
X013864Y008825D01*
X013864Y008365D01*
X013864Y008365D01*
X013864Y008364D01*
X013864Y008364D01*
X013864Y007905D01*
X013674Y007905D01*
X013404Y008174D01*
X013404Y008364D01*
X013864Y008364D01*
X013864Y007905D01*
X014055Y007905D01*
X014324Y008174D01*
X014324Y008364D01*
X013864Y008364D01*
X013864Y008365D01*
X014324Y008365D01*
X014324Y008523D02*
X017404Y008523D01*
X017404Y008365D02*
X017864Y008365D01*
X017864Y008825D01*
X017864Y008365D01*
X017864Y008365D01*
X017864Y008364D01*
X017864Y008364D01*
X017864Y007905D01*
X017674Y007905D01*
X017404Y008174D01*
X017404Y008364D01*
X017864Y008364D01*
X017864Y007905D01*
X018055Y007905D01*
X018324Y008174D01*
X018324Y008364D01*
X017864Y008364D01*
X017864Y008365D01*
X018324Y008365D01*
X018324Y008523D02*
X019404Y008523D01*
X019404Y008365D02*
X019864Y008365D01*
X019864Y008825D01*
X019864Y008365D01*
X019864Y008365D01*
X019864Y008364D01*
X019864Y008364D01*
X019864Y007905D01*
X019674Y007905D01*
X019404Y008174D01*
X019404Y008364D01*
X019864Y008364D01*
X019864Y007905D01*
X020055Y007905D01*
X020324Y008174D01*
X020324Y008364D01*
X019864Y008364D01*
X019864Y008365D01*
X020324Y008365D01*
X020324Y008523D02*
X021404Y008523D01*
X021404Y008365D02*
X021864Y008365D01*
X021864Y008825D01*
X021864Y008365D01*
X021864Y008365D01*
X021864Y008364D01*
X021864Y007905D01*
X022055Y007905D01*
X022324Y008174D01*
X022324Y008364D01*
X021864Y008364D01*
X021864Y008365D01*
X022324Y008365D01*
X022324Y008523D02*
X023904Y008523D01*
X023904Y008365D02*
X024364Y008365D01*
X024364Y008825D01*
X024364Y008365D01*
X024364Y008365D01*
X024364Y008364D01*
X024364Y008364D01*
X024364Y007905D01*
X024174Y007905D01*
X023904Y008174D01*
X023904Y008364D01*
X024364Y008364D01*
X024364Y007905D01*
X024555Y007905D01*
X024824Y008174D01*
X024824Y008364D01*
X024364Y008364D01*
X024364Y008365D01*
X024824Y008365D01*
X024824Y008523D02*
X025904Y008523D01*
X025904Y008365D02*
X026364Y008365D01*
X026364Y008825D01*
X026364Y008365D01*
X026364Y008365D01*
X026364Y008364D01*
X026364Y008364D01*
X026364Y007905D01*
X026174Y007905D01*
X025904Y008174D01*
X025904Y008364D01*
X026364Y008364D01*
X026364Y007905D01*
X026555Y007905D01*
X026824Y008174D01*
X026824Y008364D01*
X026364Y008364D01*
X026364Y008365D01*
X026824Y008365D01*
X026824Y008523D02*
X027904Y008523D01*
X027904Y008365D02*
X028364Y008365D01*
X028364Y008825D01*
X028364Y008365D01*
X028364Y008365D01*
X028364Y008364D01*
X028364Y007905D01*
X028555Y007905D01*
X028824Y008174D01*
X028824Y008364D01*
X028364Y008364D01*
X028364Y008365D01*
X028824Y008365D01*
X028824Y008523D02*
X029904Y008523D01*
X029904Y008365D02*
X030364Y008365D01*
X030364Y008825D01*
X030364Y008365D01*
X030364Y008365D01*
X030364Y008364D01*
X030364Y008364D01*
X030364Y007905D01*
X030174Y007905D01*
X029904Y008174D01*
X029904Y008364D01*
X030364Y008364D01*
X030364Y007905D01*
X030555Y007905D01*
X030824Y008174D01*
X030824Y008364D01*
X030364Y008364D01*
X030364Y008365D01*
X030824Y008365D01*
X030824Y008523D02*
X032904Y008523D01*
X032904Y008365D02*
X033364Y008365D01*
X033364Y008825D01*
X033364Y008365D01*
X033364Y008365D01*
X033364Y008364D01*
X033364Y008364D01*
X033364Y007905D01*
X033174Y007905D01*
X032904Y008174D01*
X032904Y008364D01*
X033364Y008364D01*
X033364Y007905D01*
X033555Y007905D01*
X033824Y008174D01*
X033824Y008364D01*
X033364Y008364D01*
X033364Y008365D01*
X033824Y008365D01*
X033824Y008523D02*
X037404Y008523D01*
X037404Y008365D02*
X037864Y008365D01*
X037864Y008825D01*
X037864Y008365D01*
X037864Y008365D01*
X037864Y008364D01*
X037864Y008364D01*
X037864Y007905D01*
X037674Y007905D01*
X037404Y008174D01*
X037404Y008364D01*
X037864Y008364D01*
X037864Y007905D01*
X038055Y007905D01*
X038324Y008174D01*
X038324Y008364D01*
X037864Y008364D01*
X037864Y008365D01*
X038324Y008365D01*
X038324Y008523D02*
X039404Y008523D01*
X039404Y008365D02*
X039864Y008365D01*
X039864Y008825D01*
X039674Y008825D01*
X039864Y008825D02*
X039864Y008365D01*
X039864Y008365D01*
X039864Y008364D01*
X039864Y008364D01*
X039864Y007905D01*
X039674Y007905D01*
X039404Y008174D01*
X039404Y008364D01*
X039864Y008364D01*
X039864Y007905D01*
X040055Y007905D01*
X040324Y008174D01*
X040324Y008364D01*
X039864Y008364D01*
X039864Y008365D01*
X040324Y008365D01*
X041404Y008365D01*
X041864Y008365D01*
X041864Y008825D01*
X041674Y008825D01*
X041404Y008555D01*
X041404Y008365D01*
X041404Y008364D02*
X041404Y008174D01*
X041674Y007905D01*
X041864Y007905D01*
X041864Y008364D01*
X041864Y008364D01*
X041864Y007905D01*
X042055Y007905D01*
X042324Y008174D01*
X042324Y008364D01*
X041864Y008364D01*
X041404Y008364D01*
X041404Y008206D02*
X040324Y008206D01*
X040324Y008365D02*
X040324Y008555D01*
X040055Y008825D01*
X039864Y008825D01*
X039864Y008682D02*
X039864Y008682D01*
X039864Y008523D02*
X039864Y008523D01*
X039864Y008206D02*
X039864Y008206D01*
X039864Y008048D02*
X039864Y008048D01*
X039530Y008048D02*
X038198Y008048D01*
X038324Y008206D02*
X039404Y008206D01*
X039164Y007887D02*
X039233Y007838D01*
X039292Y007778D01*
X039342Y007710D01*
X039380Y007635D01*
X039406Y007555D01*
X039419Y007472D01*
X039419Y007112D01*
X038922Y007112D01*
X038922Y007037D01*
X039419Y007037D01*
X039419Y006677D01*
X039406Y006594D01*
X039380Y006514D01*
X039342Y006439D01*
X039292Y006371D01*
X039233Y006311D01*
X039164Y006262D01*
X039089Y006224D01*
X039009Y006198D01*
X038926Y006185D01*
X038922Y006185D01*
X038922Y007037D01*
X038847Y007037D01*
X038847Y006185D01*
X038842Y006185D01*
X038759Y006198D01*
X038679Y006224D01*
X038604Y006262D01*
X038536Y006311D01*
X038476Y006371D01*
X038427Y006439D01*
X038388Y006514D01*
X038362Y006594D01*
X038349Y006677D01*
X038349Y007037D01*
X038846Y007037D01*
X038846Y007112D01*
X038349Y007112D01*
X038349Y007472D01*
X038362Y007555D01*
X038388Y007635D01*
X038427Y007710D01*
X038476Y007778D01*
X038536Y007838D01*
X038604Y007887D01*
X038679Y007925D01*
X038759Y007951D01*
X038842Y007965D01*
X038847Y007965D01*
X038847Y007112D01*
X038922Y007112D01*
X038922Y007965D01*
X038926Y007965D01*
X039009Y007951D01*
X039089Y007925D01*
X039164Y007887D01*
X039160Y007889D02*
X040476Y007889D01*
X040513Y007925D02*
X040348Y007761D01*
X040259Y007546D01*
X040259Y006603D01*
X040348Y006388D01*
X040513Y006224D01*
X040728Y006135D01*
X040960Y006135D01*
X041175Y006224D01*
X041340Y006388D01*
X041429Y006603D01*
X041429Y007546D01*
X041340Y007761D01*
X041175Y007925D01*
X040960Y008015D01*
X040728Y008015D01*
X040513Y007925D01*
X040336Y007731D02*
X039327Y007731D01*
X039400Y007572D02*
X040270Y007572D01*
X040259Y007414D02*
X039419Y007414D01*
X039419Y007255D02*
X040259Y007255D01*
X040259Y007096D02*
X038922Y007096D01*
X038846Y007096D02*
X034929Y007096D01*
X034929Y006938D02*
X038349Y006938D01*
X038349Y006779D02*
X034929Y006779D01*
X034929Y006621D02*
X038358Y006621D01*
X038415Y006462D02*
X034871Y006462D01*
X034756Y006304D02*
X038546Y006304D01*
X038847Y006304D02*
X038922Y006304D01*
X038922Y006462D02*
X038847Y006462D01*
X038847Y006621D02*
X038922Y006621D01*
X038922Y006779D02*
X038847Y006779D01*
X038847Y006938D02*
X038922Y006938D01*
X038922Y007255D02*
X038847Y007255D01*
X038847Y007414D02*
X038922Y007414D01*
X038922Y007572D02*
X038847Y007572D01*
X038847Y007731D02*
X038922Y007731D01*
X038922Y007889D02*
X038847Y007889D01*
X038608Y007889D02*
X034712Y007889D01*
X034853Y007731D02*
X038442Y007731D01*
X038368Y007572D02*
X034918Y007572D01*
X034929Y007414D02*
X038349Y007414D01*
X038349Y007255D02*
X034929Y007255D01*
X033976Y007889D02*
X032660Y007889D01*
X032664Y007887D02*
X032589Y007925D01*
X032509Y007951D01*
X032426Y007965D01*
X032422Y007965D01*
X032422Y007112D01*
X032919Y007112D01*
X032919Y007472D01*
X032906Y007555D01*
X032880Y007635D01*
X032842Y007710D01*
X032792Y007778D01*
X032733Y007838D01*
X032664Y007887D01*
X032827Y007731D02*
X033836Y007731D01*
X033770Y007572D02*
X032900Y007572D01*
X032919Y007414D02*
X033759Y007414D01*
X033759Y007255D02*
X032919Y007255D01*
X032919Y007037D02*
X032422Y007037D01*
X032422Y007112D01*
X032347Y007112D01*
X032347Y007965D01*
X032342Y007965D01*
X032259Y007951D01*
X032179Y007925D01*
X032104Y007887D01*
X032036Y007838D01*
X031976Y007778D01*
X031927Y007710D01*
X031888Y007635D01*
X031862Y007555D01*
X031849Y007472D01*
X031849Y007112D01*
X032346Y007112D01*
X032346Y007037D01*
X031849Y007037D01*
X031849Y006677D01*
X031862Y006594D01*
X031888Y006514D01*
X031927Y006439D01*
X031976Y006371D01*
X032036Y006311D01*
X032104Y006262D01*
X032179Y006224D01*
X032259Y006198D01*
X032342Y006185D01*
X032347Y006185D01*
X032347Y007037D01*
X032422Y007037D01*
X032422Y006185D01*
X032426Y006185D01*
X032509Y006198D01*
X032589Y006224D01*
X032664Y006262D01*
X032733Y006311D01*
X032792Y006371D01*
X032842Y006439D01*
X032880Y006514D01*
X032906Y006594D01*
X032919Y006677D01*
X032919Y007037D01*
X032919Y006938D02*
X033759Y006938D01*
X033759Y007096D02*
X032422Y007096D01*
X032346Y007096D02*
X028429Y007096D01*
X028429Y006938D02*
X031849Y006938D01*
X031849Y006779D02*
X028429Y006779D01*
X028429Y006621D02*
X031858Y006621D01*
X031915Y006462D02*
X028371Y006462D01*
X028256Y006304D02*
X032046Y006304D01*
X032347Y006304D02*
X032422Y006304D01*
X032422Y006462D02*
X032347Y006462D01*
X032347Y006621D02*
X032422Y006621D01*
X032422Y006779D02*
X032347Y006779D01*
X032347Y006938D02*
X032422Y006938D01*
X032422Y007255D02*
X032347Y007255D01*
X032347Y007414D02*
X032422Y007414D01*
X032422Y007572D02*
X032347Y007572D01*
X032347Y007731D02*
X032422Y007731D01*
X032422Y007889D02*
X032347Y007889D01*
X032108Y007889D02*
X028212Y007889D01*
X028353Y007731D02*
X031942Y007731D01*
X031868Y007572D02*
X028418Y007572D01*
X028429Y007414D02*
X031849Y007414D01*
X031849Y007255D02*
X028429Y007255D01*
X028364Y008048D02*
X028364Y008048D01*
X028364Y008206D02*
X028364Y008206D01*
X028364Y008523D02*
X028364Y008523D01*
X028364Y008682D02*
X028364Y008682D01*
X028153Y008855D02*
X028575Y008855D01*
X028874Y009153D01*
X028874Y009576D01*
X028575Y009875D01*
X028153Y009875D01*
X027854Y009576D01*
X027854Y009153D01*
X028153Y008855D01*
X028008Y008999D02*
X026720Y008999D01*
X026575Y008855D02*
X026874Y009153D01*
X026874Y009576D01*
X026575Y009875D01*
X026153Y009875D01*
X025854Y009576D01*
X025854Y009153D01*
X026153Y008855D01*
X026575Y008855D01*
X026697Y008682D02*
X028031Y008682D01*
X027854Y009158D02*
X026874Y009158D01*
X026874Y009316D02*
X027854Y009316D01*
X027854Y009475D02*
X026874Y009475D01*
X026817Y009633D02*
X027911Y009633D01*
X028070Y009792D02*
X026658Y009792D01*
X026653Y009855D02*
X027075Y009855D01*
X027364Y010143D01*
X027653Y009855D01*
X028075Y009855D01*
X028374Y010153D01*
X028374Y010576D01*
X028075Y010875D01*
X027653Y010875D01*
X027364Y010586D01*
X027075Y010875D01*
X026653Y010875D01*
X026364Y010586D01*
X026075Y010875D01*
X025653Y010875D01*
X025364Y010586D01*
X025075Y010875D01*
X024653Y010875D01*
X024354Y010576D01*
X024354Y010153D01*
X024653Y009855D01*
X025075Y009855D01*
X025364Y010143D01*
X025653Y009855D01*
X026075Y009855D01*
X026364Y010143D01*
X026653Y009855D01*
X026557Y009950D02*
X026171Y009950D01*
X026070Y009792D02*
X024658Y009792D01*
X024575Y009875D02*
X024153Y009875D01*
X023854Y009576D01*
X023854Y009153D01*
X024153Y008855D01*
X024575Y008855D01*
X024874Y009153D01*
X024874Y009576D01*
X024575Y009875D01*
X024557Y009950D02*
X021421Y009950D01*
X021325Y009855D02*
X021624Y010153D01*
X021624Y010576D01*
X021325Y010875D01*
X020903Y010875D01*
X020614Y010586D01*
X020325Y010875D01*
X019903Y010875D01*
X019614Y010586D01*
X019325Y010875D01*
X018903Y010875D01*
X018614Y010586D01*
X018325Y010875D01*
X017903Y010875D01*
X017604Y010576D01*
X017604Y010153D01*
X017883Y009875D01*
X017653Y009875D01*
X017354Y009576D01*
X017354Y009153D01*
X017653Y008855D01*
X018075Y008855D01*
X018374Y009153D01*
X018374Y009576D01*
X018095Y009855D01*
X018325Y009855D01*
X018614Y010143D01*
X018903Y009855D01*
X019325Y009855D01*
X019614Y010143D01*
X019883Y009875D01*
X019653Y009875D01*
X019354Y009576D01*
X019354Y009153D01*
X019653Y008855D01*
X020075Y008855D01*
X020374Y009153D01*
X020374Y009576D01*
X020095Y009855D01*
X020325Y009855D01*
X020614Y010143D01*
X020903Y009855D01*
X021325Y009855D01*
X021411Y009633D02*
X020317Y009633D01*
X020374Y009475D02*
X021354Y009475D01*
X021354Y009576D02*
X021354Y009153D01*
X021653Y008855D01*
X022075Y008855D01*
X022374Y009153D01*
X022374Y009576D01*
X022075Y009875D01*
X021653Y009875D01*
X021354Y009576D01*
X021354Y009316D02*
X020374Y009316D01*
X020374Y009158D02*
X021354Y009158D01*
X021508Y008999D02*
X020220Y008999D01*
X020197Y008682D02*
X021531Y008682D01*
X021864Y008682D02*
X021864Y008682D01*
X021864Y008523D02*
X021864Y008523D01*
X021864Y008206D02*
X021864Y008206D01*
X021864Y008048D02*
X021864Y008048D01*
X021712Y007889D02*
X025608Y007889D01*
X025604Y007887D02*
X025536Y007838D01*
X025476Y007778D01*
X025427Y007710D01*
X025388Y007635D01*
X025362Y007555D01*
X025349Y007472D01*
X025349Y007112D01*
X025846Y007112D01*
X025846Y007037D01*
X025349Y007037D01*
X025349Y006677D01*
X025362Y006594D01*
X025388Y006514D01*
X025427Y006439D01*
X025476Y006371D01*
X025536Y006311D01*
X025604Y006262D01*
X025679Y006224D01*
X025759Y006198D01*
X025842Y006185D01*
X025847Y006185D01*
X025847Y007037D01*
X025922Y007037D01*
X025922Y007112D01*
X026419Y007112D01*
X026419Y007472D01*
X026406Y007555D01*
X026380Y007635D01*
X026342Y007710D01*
X026292Y007778D01*
X026233Y007838D01*
X026164Y007887D01*
X026089Y007925D01*
X026009Y007951D01*
X025926Y007965D01*
X025922Y007965D01*
X025922Y007112D01*
X025847Y007112D01*
X025847Y007965D01*
X025842Y007965D01*
X025759Y007951D01*
X025679Y007925D01*
X025604Y007887D01*
X025442Y007731D02*
X021853Y007731D01*
X021918Y007572D02*
X025368Y007572D01*
X025349Y007414D02*
X021929Y007414D01*
X021929Y007255D02*
X025349Y007255D01*
X025349Y006938D02*
X021929Y006938D01*
X021929Y007096D02*
X025846Y007096D01*
X025922Y007096D02*
X027259Y007096D01*
X027259Y006938D02*
X026419Y006938D01*
X026419Y007037D02*
X025922Y007037D01*
X025922Y006185D01*
X025926Y006185D01*
X026009Y006198D01*
X026089Y006224D01*
X026164Y006262D01*
X026233Y006311D01*
X026292Y006371D01*
X026342Y006439D01*
X026380Y006514D01*
X026406Y006594D01*
X026419Y006677D01*
X026419Y007037D01*
X026419Y007255D02*
X027259Y007255D01*
X027259Y007414D02*
X026419Y007414D01*
X026400Y007572D02*
X027270Y007572D01*
X027336Y007731D02*
X026327Y007731D01*
X026160Y007889D02*
X027476Y007889D01*
X027904Y008206D02*
X026824Y008206D01*
X026698Y008048D02*
X028030Y008048D01*
X028698Y008048D02*
X030030Y008048D01*
X029904Y008206D02*
X028824Y008206D01*
X028697Y008682D02*
X030031Y008682D01*
X030153Y008855D02*
X030575Y008855D01*
X030874Y009153D01*
X030874Y009576D01*
X030575Y009875D01*
X030153Y009875D01*
X029854Y009576D01*
X029854Y009153D01*
X030153Y008855D01*
X030008Y008999D02*
X028720Y008999D01*
X028874Y009158D02*
X029854Y009158D01*
X029854Y009316D02*
X028874Y009316D01*
X028874Y009475D02*
X029854Y009475D01*
X029911Y009633D02*
X028817Y009633D01*
X028658Y009792D02*
X030070Y009792D01*
X030658Y009792D02*
X033070Y009792D01*
X033143Y009865D02*
X032854Y009576D01*
X032854Y009153D01*
X033153Y008855D01*
X033575Y008855D01*
X033874Y009153D01*
X033874Y009576D01*
X033585Y009865D01*
X033864Y010143D01*
X034153Y009855D01*
X034575Y009855D01*
X034874Y010153D01*
X034874Y010576D01*
X034575Y010875D01*
X034153Y010875D01*
X033864Y010586D01*
X033575Y010875D01*
X033153Y010875D01*
X032864Y010586D01*
X032575Y010875D01*
X032153Y010875D01*
X031864Y010586D01*
X031575Y010875D01*
X031153Y010875D01*
X030854Y010576D01*
X030854Y010153D01*
X031153Y009855D01*
X031575Y009855D01*
X031864Y010143D01*
X032153Y009855D01*
X032575Y009855D01*
X032864Y010143D01*
X033143Y009865D01*
X033057Y009950D02*
X032671Y009950D01*
X032830Y010109D02*
X032899Y010109D01*
X032911Y009633D02*
X030817Y009633D01*
X030874Y009475D02*
X032854Y009475D01*
X032854Y009316D02*
X030874Y009316D01*
X030874Y009158D02*
X032854Y009158D01*
X033008Y008999D02*
X030720Y008999D01*
X030697Y008682D02*
X033031Y008682D01*
X033364Y008682D02*
X033364Y008682D01*
X033364Y008523D02*
X033364Y008523D01*
X033364Y008206D02*
X033364Y008206D01*
X033364Y008048D02*
X033364Y008048D01*
X033030Y008048D02*
X030698Y008048D01*
X030824Y008206D02*
X032904Y008206D01*
X033698Y008048D02*
X037530Y008048D01*
X037404Y008206D02*
X033824Y008206D01*
X033697Y008682D02*
X037531Y008682D01*
X037508Y008999D02*
X033720Y008999D01*
X033874Y009158D02*
X037354Y009158D01*
X037354Y009316D02*
X033874Y009316D01*
X033874Y009475D02*
X037354Y009475D01*
X037411Y009633D02*
X033817Y009633D01*
X033658Y009792D02*
X037570Y009792D01*
X038310Y010426D02*
X036283Y010426D01*
X036509Y010584D02*
X038148Y010584D01*
X038082Y010743D02*
X036588Y010743D01*
X036604Y010902D02*
X037945Y010902D01*
X037787Y011060D02*
X036561Y011060D01*
X035864Y010743D02*
X035864Y010743D01*
X035864Y010584D02*
X035864Y010584D01*
X035864Y010426D02*
X035864Y010426D01*
X035446Y010426D02*
X034874Y010426D01*
X034874Y010267D02*
X043064Y010267D01*
X043037Y010288D02*
X043037Y010288D01*
X043270Y010109D02*
X034830Y010109D01*
X034671Y009950D02*
X043477Y009950D01*
X043841Y009792D02*
X042158Y009792D01*
X042075Y009875D02*
X041653Y009875D01*
X041354Y009576D01*
X041354Y009153D01*
X041653Y008855D01*
X042075Y008855D01*
X042374Y009153D01*
X042374Y009576D01*
X042075Y009875D01*
X042317Y009633D02*
X045364Y009633D01*
X045364Y009475D02*
X042374Y009475D01*
X042374Y009316D02*
X045364Y009316D01*
X045364Y009158D02*
X042374Y009158D01*
X042220Y008999D02*
X045364Y008999D01*
X045364Y008840D02*
X012634Y008840D01*
X012634Y008682D02*
X013531Y008682D01*
X013653Y008855D02*
X013354Y009153D01*
X013354Y009576D01*
X013653Y009875D01*
X014075Y009875D01*
X014374Y009576D01*
X014374Y009153D01*
X014075Y008855D01*
X013653Y008855D01*
X013508Y008999D02*
X012634Y008999D01*
X012634Y009158D02*
X013354Y009158D01*
X013354Y009316D02*
X012634Y009316D01*
X012634Y009475D02*
X013354Y009475D01*
X013411Y009633D02*
X012634Y009633D01*
X012634Y009792D02*
X013570Y009792D01*
X014158Y009792D02*
X017570Y009792D01*
X017411Y009633D02*
X014317Y009633D01*
X014374Y009475D02*
X017354Y009475D01*
X017354Y009316D02*
X014374Y009316D01*
X014374Y009158D02*
X017354Y009158D01*
X017508Y008999D02*
X014220Y008999D01*
X014197Y008682D02*
X017531Y008682D01*
X017864Y008682D02*
X017864Y008682D01*
X017864Y008523D02*
X017864Y008523D01*
X017864Y008206D02*
X017864Y008206D01*
X017864Y008048D02*
X017864Y008048D01*
X017530Y008048D02*
X014198Y008048D01*
X014324Y008206D02*
X017404Y008206D01*
X018198Y008048D02*
X019530Y008048D01*
X019509Y007951D02*
X019426Y007965D01*
X019422Y007965D01*
X019422Y007112D01*
X019919Y007112D01*
X019919Y007472D01*
X019906Y007555D01*
X019880Y007635D01*
X019842Y007710D01*
X019792Y007778D01*
X019733Y007838D01*
X019664Y007887D01*
X019589Y007925D01*
X019509Y007951D01*
X019422Y007889D02*
X019347Y007889D01*
X019347Y007965D02*
X019342Y007965D01*
X019259Y007951D01*
X019179Y007925D01*
X019104Y007887D01*
X019036Y007838D01*
X018976Y007778D01*
X018927Y007710D01*
X018888Y007635D01*
X018862Y007555D01*
X018849Y007472D01*
X018849Y007112D01*
X019346Y007112D01*
X019346Y007037D01*
X018849Y007037D01*
X018849Y006677D01*
X018862Y006594D01*
X018888Y006514D01*
X018927Y006439D01*
X018976Y006371D01*
X019036Y006311D01*
X019104Y006262D01*
X019179Y006224D01*
X019259Y006198D01*
X019342Y006185D01*
X019347Y006185D01*
X019347Y007037D01*
X019422Y007037D01*
X019422Y007112D01*
X019347Y007112D01*
X019347Y007965D01*
X019347Y007731D02*
X019422Y007731D01*
X019422Y007572D02*
X019347Y007572D01*
X019347Y007414D02*
X019422Y007414D01*
X019422Y007255D02*
X019347Y007255D01*
X019346Y007096D02*
X015429Y007096D01*
X015429Y006938D02*
X018849Y006938D01*
X018849Y006779D02*
X015429Y006779D01*
X015429Y006621D02*
X018858Y006621D01*
X018915Y006462D02*
X015371Y006462D01*
X015256Y006304D02*
X019046Y006304D01*
X019347Y006304D02*
X019422Y006304D01*
X019422Y006185D02*
X019426Y006185D01*
X019509Y006198D01*
X019589Y006224D01*
X019664Y006262D01*
X019733Y006311D01*
X019792Y006371D01*
X019842Y006439D01*
X019880Y006514D01*
X019906Y006594D01*
X019919Y006677D01*
X019919Y007037D01*
X019422Y007037D01*
X019422Y006185D01*
X019422Y006462D02*
X019347Y006462D01*
X019347Y006621D02*
X019422Y006621D01*
X019422Y006779D02*
X019347Y006779D01*
X019347Y006938D02*
X019422Y006938D01*
X019422Y007096D02*
X020759Y007096D01*
X020759Y006938D02*
X019919Y006938D01*
X019919Y006779D02*
X020759Y006779D01*
X020759Y006621D02*
X019910Y006621D01*
X019853Y006462D02*
X020817Y006462D01*
X020933Y006304D02*
X019722Y006304D01*
X019919Y007255D02*
X020759Y007255D01*
X020759Y007414D02*
X019919Y007414D01*
X019900Y007572D02*
X020770Y007572D01*
X020836Y007731D02*
X019827Y007731D01*
X019660Y007889D02*
X020976Y007889D01*
X021404Y008206D02*
X020324Y008206D01*
X020198Y008048D02*
X021530Y008048D01*
X022198Y008048D02*
X024030Y008048D01*
X023904Y008206D02*
X022324Y008206D01*
X022197Y008682D02*
X024031Y008682D01*
X024008Y008999D02*
X022220Y008999D01*
X022374Y009158D02*
X023854Y009158D01*
X023854Y009316D02*
X022374Y009316D01*
X022374Y009475D02*
X023854Y009475D01*
X023911Y009633D02*
X022317Y009633D01*
X022158Y009792D02*
X024070Y009792D01*
X024399Y010109D02*
X021580Y010109D01*
X021624Y010267D02*
X024354Y010267D01*
X024354Y010426D02*
X021624Y010426D01*
X021615Y010584D02*
X024363Y010584D01*
X024521Y010743D02*
X021457Y010743D01*
X020771Y010743D02*
X020457Y010743D01*
X019771Y010743D02*
X019457Y010743D01*
X018771Y010743D02*
X018457Y010743D01*
X017771Y010743D02*
X017646Y010743D01*
X017654Y010902D02*
X035124Y010902D01*
X035140Y010743D02*
X034707Y010743D01*
X034865Y010584D02*
X035219Y010584D01*
X035167Y011060D02*
X017615Y011060D01*
X017613Y010584D02*
X017580Y010584D01*
X017604Y010426D02*
X017418Y010426D01*
X017604Y010267D02*
X012634Y010267D01*
X012634Y010109D02*
X017649Y010109D01*
X017807Y009950D02*
X012634Y009950D01*
X012634Y010426D02*
X013446Y010426D01*
X013476Y010416D02*
X013548Y010405D01*
X013864Y010405D01*
X013864Y010864D01*
X013864Y010864D01*
X013864Y010405D01*
X014180Y010405D01*
X014252Y010416D01*
X014321Y010438D01*
X014385Y010471D01*
X014444Y010514D01*
X014495Y010565D01*
X014537Y010623D01*
X014570Y010688D01*
X014593Y010757D01*
X014604Y010828D01*
X014604Y010864D01*
X013864Y010864D01*
X013124Y010864D01*
X013124Y010828D01*
X013135Y010757D01*
X013158Y010688D01*
X013191Y010623D01*
X013233Y010565D01*
X013284Y010514D01*
X013343Y010471D01*
X013407Y010438D01*
X013476Y010416D01*
X013219Y010584D02*
X012634Y010584D01*
X012634Y010743D02*
X013140Y010743D01*
X013124Y010865D02*
X013864Y010865D01*
X013864Y011325D01*
X013548Y011325D01*
X013476Y011313D01*
X013407Y011291D01*
X013343Y011258D01*
X013284Y011215D01*
X013233Y011164D01*
X013191Y011106D01*
X013158Y011041D01*
X013135Y010972D01*
X013124Y010901D01*
X013124Y010865D01*
X013124Y010902D02*
X012783Y010902D01*
X012941Y011060D02*
X013167Y011060D01*
X013100Y011219D02*
X013289Y011219D01*
X013258Y011377D02*
X013428Y011377D01*
X013864Y011325D02*
X013864Y010865D01*
X013864Y010865D01*
X013864Y010864D01*
X013864Y010865D01*
X014604Y010865D01*
X014604Y010901D01*
X014593Y010972D01*
X014570Y011041D01*
X014537Y011106D01*
X014495Y011164D01*
X014444Y011215D01*
X014385Y011258D01*
X014321Y011291D01*
X014252Y011313D01*
X014180Y011325D01*
X013864Y011325D01*
X013864Y011219D02*
X013864Y011219D01*
X013864Y011060D02*
X013864Y011060D01*
X013864Y010902D02*
X013864Y010902D01*
X013864Y010743D02*
X013864Y010743D01*
X013864Y010584D02*
X013864Y010584D01*
X013864Y010426D02*
X013864Y010426D01*
X014283Y010426D02*
X016310Y010426D01*
X016148Y010584D02*
X014509Y010584D01*
X014588Y010743D02*
X016082Y010743D01*
X016074Y010902D02*
X014604Y010902D01*
X014561Y011060D02*
X016113Y011060D01*
X016128Y011219D02*
X014439Y011219D01*
X014300Y011377D02*
X015970Y011377D01*
X015811Y011536D02*
X014536Y011536D01*
X014626Y011694D02*
X015653Y011694D01*
X015594Y011853D02*
X014654Y011853D01*
X014635Y012011D02*
X015594Y012011D01*
X015594Y012170D02*
X014560Y012170D01*
X014357Y012328D02*
X015594Y012328D01*
X015594Y012487D02*
X014488Y012487D01*
X014605Y012646D02*
X015594Y012646D01*
X015594Y012804D02*
X014654Y012804D01*
X014654Y012963D02*
X015594Y012963D01*
X015594Y013121D02*
X014590Y013121D01*
X014450Y013280D02*
X015594Y013280D01*
X015594Y013438D02*
X014439Y013438D01*
X014585Y013597D02*
X015594Y013597D01*
X015594Y013755D02*
X014651Y013755D01*
X014654Y013914D02*
X015594Y013914D01*
X015594Y014072D02*
X014610Y014072D01*
X014499Y014231D02*
X015594Y014231D01*
X015594Y014389D02*
X014330Y014389D01*
X014549Y014548D02*
X015594Y014548D01*
X015594Y014707D02*
X014631Y014707D01*
X014654Y014865D02*
X015594Y014865D01*
X015594Y015024D02*
X014630Y015024D01*
X014548Y015182D02*
X015594Y015182D01*
X015594Y015341D02*
X014327Y015341D01*
X014500Y015499D02*
X015628Y015499D01*
X015776Y015658D02*
X014610Y015658D01*
X014654Y015816D02*
X015934Y015816D01*
X016078Y015975D02*
X014650Y015975D01*
X014585Y016133D02*
X016143Y016133D01*
X016290Y016292D02*
X014438Y016292D01*
X014451Y016451D02*
X016277Y016451D01*
X016138Y016609D02*
X014590Y016609D01*
X014654Y016768D02*
X016074Y016768D01*
X016074Y016926D02*
X014654Y016926D01*
X014605Y017085D02*
X016123Y017085D01*
X016242Y017243D02*
X014487Y017243D01*
X014360Y017402D02*
X016369Y017402D01*
X016167Y017560D02*
X014561Y017560D01*
X014636Y017719D02*
X016092Y017719D01*
X016074Y017877D02*
X014654Y017877D01*
X014625Y018036D02*
X016103Y018036D01*
X016193Y018195D02*
X014535Y018195D01*
X014297Y018353D02*
X016431Y018353D01*
X017297Y018353D02*
X018460Y018353D01*
X018542Y018435D02*
X018061Y017954D01*
X018061Y017275D01*
X018542Y016794D01*
X019222Y016794D01*
X019702Y017275D01*
X019702Y017954D01*
X019222Y018435D01*
X018542Y018435D01*
X018301Y018195D02*
X017535Y018195D01*
X017625Y018036D02*
X018143Y018036D01*
X018061Y017877D02*
X017654Y017877D01*
X017636Y017719D02*
X018061Y017719D01*
X018061Y017560D02*
X017561Y017560D01*
X017360Y017402D02*
X018061Y017402D01*
X018093Y017243D02*
X017487Y017243D01*
X017605Y017085D02*
X018251Y017085D01*
X018410Y016926D02*
X017654Y016926D01*
X017585Y016133D02*
X021308Y016133D01*
X021093Y015975D02*
X017650Y015975D01*
X017654Y015816D02*
X020934Y015816D01*
X021874Y016926D02*
X019354Y016926D01*
X019512Y017085D02*
X021716Y017085D01*
X021557Y017243D02*
X019671Y017243D01*
X019702Y017402D02*
X021526Y017402D01*
X021526Y017560D02*
X019702Y017560D01*
X019702Y017719D02*
X021526Y017719D01*
X021526Y017877D02*
X019702Y017877D01*
X019621Y018036D02*
X021607Y018036D01*
X021766Y018195D02*
X019462Y018195D01*
X019304Y018353D02*
X021924Y018353D01*
X019108Y015658D02*
X017610Y015658D01*
X017500Y015499D02*
X019030Y015499D01*
X016864Y015182D02*
X016864Y015182D01*
X016864Y015024D02*
X016864Y015024D01*
X016864Y014707D02*
X016864Y014707D01*
X016864Y014548D02*
X016864Y014548D01*
X016229Y014231D02*
X016134Y014231D01*
X018445Y013755D02*
X018784Y013755D01*
X018625Y013597D02*
X018603Y013597D01*
X019445Y013755D02*
X019784Y013755D01*
X019625Y013597D02*
X019603Y013597D01*
X019592Y013121D02*
X019636Y013121D01*
X019795Y012963D02*
X019433Y012963D01*
X020433Y012963D02*
X020795Y012963D01*
X020636Y013121D02*
X020592Y013121D01*
X020603Y013597D02*
X020625Y013597D01*
X020784Y013755D02*
X020445Y013755D01*
X020580Y010109D02*
X020649Y010109D01*
X020807Y009950D02*
X020421Y009950D01*
X020158Y009792D02*
X021570Y009792D01*
X019807Y009950D02*
X019421Y009950D01*
X019570Y009792D02*
X018158Y009792D01*
X018317Y009633D02*
X019411Y009633D01*
X019354Y009475D02*
X018374Y009475D01*
X018374Y009316D02*
X019354Y009316D01*
X019354Y009158D02*
X018374Y009158D01*
X018220Y008999D02*
X019508Y008999D01*
X019531Y008682D02*
X018197Y008682D01*
X018324Y008206D02*
X019404Y008206D01*
X019108Y007889D02*
X015212Y007889D01*
X015353Y007731D02*
X018942Y007731D01*
X018868Y007572D02*
X015418Y007572D01*
X015429Y007414D02*
X018849Y007414D01*
X018849Y007255D02*
X015429Y007255D01*
X014476Y007889D02*
X013160Y007889D01*
X013327Y007731D02*
X014336Y007731D01*
X014270Y007572D02*
X013400Y007572D01*
X013419Y007414D02*
X014259Y007414D01*
X014259Y007255D02*
X013419Y007255D01*
X013419Y007037D02*
X012922Y007037D01*
X012922Y006185D01*
X012926Y006185D01*
X013009Y006198D01*
X013089Y006224D01*
X013164Y006262D01*
X013233Y006311D01*
X013292Y006371D01*
X013342Y006439D01*
X013380Y006514D01*
X013406Y006594D01*
X013419Y006677D01*
X013419Y007037D01*
X013419Y006938D02*
X014259Y006938D01*
X014259Y007096D02*
X012922Y007096D01*
X012922Y006938D02*
X012847Y006938D01*
X012847Y006779D02*
X012922Y006779D01*
X012922Y006621D02*
X012847Y006621D01*
X012847Y006462D02*
X012922Y006462D01*
X012922Y006304D02*
X012847Y006304D01*
X012634Y006145D02*
X014574Y006145D01*
X014574Y005987D02*
X012634Y005987D01*
X012634Y005828D02*
X014574Y005828D01*
X014574Y005670D02*
X012634Y005670D01*
X012634Y005511D02*
X014574Y005511D01*
X014574Y005353D02*
X012634Y005353D01*
X012634Y005194D02*
X014574Y005194D01*
X014574Y005035D02*
X012634Y005035D01*
X012634Y004877D02*
X014574Y004877D01*
X014574Y004718D02*
X012634Y004718D01*
X012634Y004560D02*
X014574Y004560D01*
X014574Y004401D02*
X012634Y004401D01*
X012634Y004243D02*
X014574Y004243D01*
X014574Y004084D02*
X012634Y004084D01*
X012557Y003926D02*
X014574Y003926D01*
X014574Y003767D02*
X012398Y003767D01*
X012240Y003609D02*
X014574Y003609D01*
X014574Y003450D02*
X012081Y003450D01*
X011923Y003291D02*
X014574Y003291D01*
X014574Y003133D02*
X011764Y003133D01*
X011606Y002974D02*
X012618Y002974D01*
X012847Y002974D02*
X012922Y002974D01*
X012922Y002816D02*
X012847Y002816D01*
X012847Y002657D02*
X012922Y002657D01*
X012922Y002499D02*
X012847Y002499D01*
X012847Y002340D02*
X012922Y002340D01*
X012922Y002182D02*
X014259Y002182D01*
X014259Y002340D02*
X013419Y002340D01*
X013419Y002499D02*
X014259Y002499D01*
X014272Y002657D02*
X013399Y002657D01*
X013323Y002816D02*
X014338Y002816D01*
X014482Y002974D02*
X013150Y002974D01*
X012445Y002816D02*
X011447Y002816D01*
X011289Y002657D02*
X012370Y002657D01*
X012349Y002499D02*
X011130Y002499D01*
X010972Y002340D02*
X012349Y002340D01*
X012349Y002023D02*
X010774Y002023D01*
X010870Y002182D02*
X012846Y002182D01*
X012349Y001865D02*
X010520Y001865D01*
X012539Y001389D02*
X004207Y001389D01*
X012847Y007255D02*
X012922Y007255D01*
X012922Y007414D02*
X012847Y007414D01*
X012847Y007572D02*
X012922Y007572D01*
X012922Y007731D02*
X012847Y007731D01*
X012847Y007889D02*
X012922Y007889D01*
X012634Y008048D02*
X013530Y008048D01*
X013404Y008206D02*
X012634Y008206D01*
X013864Y008206D02*
X013864Y008206D01*
X013864Y008048D02*
X013864Y008048D01*
X013864Y008523D02*
X013864Y008523D01*
X013864Y008682D02*
X013864Y008682D01*
X014259Y006779D02*
X013419Y006779D01*
X013410Y006621D02*
X014259Y006621D01*
X014317Y006462D02*
X013353Y006462D01*
X013222Y006304D02*
X014433Y006304D01*
X015114Y006145D02*
X021074Y006145D01*
X021074Y005987D02*
X015114Y005987D01*
X015114Y005828D02*
X021074Y005828D01*
X021074Y005670D02*
X015114Y005670D01*
X015114Y005511D02*
X021074Y005511D01*
X021074Y005353D02*
X015114Y005353D01*
X015114Y005194D02*
X021074Y005194D01*
X021074Y005035D02*
X015114Y005035D01*
X015114Y004877D02*
X021074Y004877D01*
X021074Y004718D02*
X015114Y004718D01*
X015114Y004560D02*
X021074Y004560D01*
X021074Y004401D02*
X015114Y004401D01*
X015114Y004243D02*
X021074Y004243D01*
X021074Y004084D02*
X015114Y004084D01*
X015114Y003926D02*
X021074Y003926D01*
X021074Y003767D02*
X015114Y003767D01*
X015114Y003609D02*
X021074Y003609D01*
X021074Y003450D02*
X015114Y003450D01*
X015114Y003291D02*
X021074Y003291D01*
X021074Y003133D02*
X015114Y003133D01*
X015207Y002974D02*
X019118Y002974D01*
X019347Y002974D02*
X019422Y002974D01*
X019422Y002816D02*
X019347Y002816D01*
X019347Y002657D02*
X019422Y002657D01*
X019422Y002499D02*
X019347Y002499D01*
X019347Y002340D02*
X019422Y002340D01*
X019422Y002182D02*
X020759Y002182D01*
X020759Y002340D02*
X019919Y002340D01*
X019919Y002499D02*
X020759Y002499D01*
X020772Y002657D02*
X019899Y002657D01*
X019823Y002816D02*
X020838Y002816D01*
X020982Y002974D02*
X019650Y002974D01*
X018945Y002816D02*
X015350Y002816D01*
X015416Y002657D02*
X018870Y002657D01*
X018849Y002499D02*
X015429Y002499D01*
X015429Y002340D02*
X018849Y002340D01*
X018849Y002023D02*
X015429Y002023D01*
X015429Y001865D02*
X018849Y001865D01*
X018857Y001706D02*
X015429Y001706D01*
X015373Y001547D02*
X018912Y001547D01*
X019039Y001389D02*
X015261Y001389D01*
X014427Y001389D02*
X013229Y001389D01*
X013356Y001547D02*
X014315Y001547D01*
X014259Y001706D02*
X013411Y001706D01*
X013419Y001865D02*
X014259Y001865D01*
X014259Y002023D02*
X013419Y002023D01*
X015429Y002182D02*
X019346Y002182D01*
X019919Y002023D02*
X020759Y002023D01*
X020759Y001865D02*
X019919Y001865D01*
X019911Y001706D02*
X020759Y001706D01*
X020815Y001547D02*
X019856Y001547D01*
X019729Y001389D02*
X020927Y001389D01*
X021761Y001389D02*
X025539Y001389D01*
X025412Y001547D02*
X021873Y001547D01*
X021929Y001706D02*
X025357Y001706D01*
X025349Y001865D02*
X021929Y001865D01*
X021929Y002023D02*
X025349Y002023D01*
X025349Y002340D02*
X021929Y002340D01*
X021929Y002182D02*
X025846Y002182D01*
X025922Y002182D02*
X027259Y002182D01*
X027259Y002340D02*
X026419Y002340D01*
X026419Y002499D02*
X027259Y002499D01*
X027272Y002657D02*
X026399Y002657D01*
X026323Y002816D02*
X027338Y002816D01*
X027482Y002974D02*
X026150Y002974D01*
X025922Y002974D02*
X025847Y002974D01*
X025847Y002816D02*
X025922Y002816D01*
X025922Y002657D02*
X025847Y002657D01*
X025847Y002499D02*
X025922Y002499D01*
X025922Y002340D02*
X025847Y002340D01*
X025349Y002499D02*
X021929Y002499D01*
X021916Y002657D02*
X025370Y002657D01*
X025445Y002816D02*
X021850Y002816D01*
X021707Y002974D02*
X025618Y002974D01*
X026419Y002023D02*
X027259Y002023D01*
X027259Y001865D02*
X026419Y001865D01*
X026411Y001706D02*
X027259Y001706D01*
X027315Y001547D02*
X026356Y001547D01*
X026229Y001389D02*
X027427Y001389D01*
X028261Y001389D02*
X032039Y001389D01*
X031912Y001547D02*
X028373Y001547D01*
X028429Y001706D02*
X031857Y001706D01*
X031849Y001865D02*
X028429Y001865D01*
X028429Y002023D02*
X031849Y002023D01*
X031849Y002340D02*
X028429Y002340D01*
X028429Y002182D02*
X032346Y002182D01*
X032422Y002182D02*
X033759Y002182D01*
X033759Y002340D02*
X032919Y002340D01*
X032919Y002499D02*
X033759Y002499D01*
X033772Y002657D02*
X032899Y002657D01*
X032823Y002816D02*
X033838Y002816D01*
X033982Y002974D02*
X032650Y002974D01*
X032422Y002974D02*
X032347Y002974D01*
X032347Y002816D02*
X032422Y002816D01*
X032422Y002657D02*
X032347Y002657D01*
X032347Y002499D02*
X032422Y002499D01*
X032422Y002340D02*
X032347Y002340D01*
X031849Y002499D02*
X028429Y002499D01*
X028416Y002657D02*
X031870Y002657D01*
X031945Y002816D02*
X028350Y002816D01*
X028207Y002974D02*
X032118Y002974D01*
X032919Y002023D02*
X033759Y002023D01*
X033759Y001865D02*
X032919Y001865D01*
X032911Y001706D02*
X033759Y001706D01*
X033815Y001547D02*
X032856Y001547D01*
X032729Y001389D02*
X033927Y001389D01*
X034761Y001389D02*
X038539Y001389D01*
X038412Y001547D02*
X034873Y001547D01*
X034929Y001706D02*
X038357Y001706D01*
X038349Y001865D02*
X034929Y001865D01*
X034929Y002023D02*
X038349Y002023D01*
X038349Y002340D02*
X034929Y002340D01*
X034929Y002182D02*
X038846Y002182D01*
X038922Y002182D02*
X040259Y002182D01*
X040259Y002340D02*
X039419Y002340D01*
X039419Y002499D02*
X040259Y002499D01*
X040272Y002657D02*
X039399Y002657D01*
X039323Y002816D02*
X040338Y002816D01*
X040482Y002974D02*
X039150Y002974D01*
X038922Y002974D02*
X038847Y002974D01*
X038847Y002816D02*
X038922Y002816D01*
X038922Y002657D02*
X038847Y002657D01*
X038847Y002499D02*
X038922Y002499D01*
X038922Y002340D02*
X038847Y002340D01*
X038349Y002499D02*
X034929Y002499D01*
X034916Y002657D02*
X038370Y002657D01*
X038445Y002816D02*
X034850Y002816D01*
X034707Y002974D02*
X038618Y002974D01*
X039419Y002023D02*
X040259Y002023D01*
X040259Y001865D02*
X039419Y001865D01*
X039411Y001706D02*
X040259Y001706D01*
X040315Y001547D02*
X039356Y001547D01*
X039229Y001389D02*
X040427Y001389D01*
X041261Y001389D02*
X042522Y001389D01*
X042459Y001547D02*
X041373Y001547D01*
X041429Y001706D02*
X042438Y001706D01*
X042417Y001865D02*
X041429Y001865D01*
X041429Y002023D02*
X042396Y002023D01*
X042393Y002182D02*
X041429Y002182D01*
X041429Y002340D02*
X042414Y002340D01*
X042435Y002499D02*
X041429Y002499D01*
X041416Y002657D02*
X042456Y002657D01*
X042511Y002816D02*
X041350Y002816D01*
X041207Y002974D02*
X042577Y002974D01*
X042643Y003133D02*
X034614Y003133D01*
X034614Y003291D02*
X042730Y003291D01*
X042852Y003450D02*
X034614Y003450D01*
X034614Y003609D02*
X042974Y003609D01*
X043136Y003767D02*
X034614Y003767D01*
X034614Y003926D02*
X043343Y003926D01*
X043592Y004084D02*
X034614Y004084D01*
X034614Y004243D02*
X043975Y004243D01*
X043680Y004401D02*
X034614Y004401D01*
X034614Y004560D02*
X043554Y004560D01*
X043494Y004718D02*
X034614Y004718D01*
X034614Y004877D02*
X043494Y004877D01*
X043540Y005035D02*
X034614Y005035D01*
X034614Y005194D02*
X043646Y005194D01*
X043906Y005353D02*
X034614Y005353D01*
X034614Y005511D02*
X043749Y005511D01*
X043718Y005533D02*
X043782Y005487D01*
X043852Y005451D01*
X043927Y005427D01*
X044005Y005415D01*
X044344Y005415D01*
X044344Y005894D01*
X044384Y005894D01*
X044384Y005415D01*
X044723Y005415D01*
X044801Y005427D01*
X044876Y005451D01*
X044946Y005487D01*
X045010Y005533D01*
X045065Y005589D01*
X045112Y005652D01*
X045147Y005723D01*
X045172Y005797D01*
X045184Y005875D01*
X045184Y005894D01*
X044384Y005894D01*
X044384Y005935D01*
X044344Y005935D01*
X044344Y006415D01*
X044005Y006415D01*
X043927Y006402D01*
X043852Y006378D01*
X043782Y006342D01*
X043718Y006296D01*
X043663Y006240D01*
X043616Y006177D01*
X043581Y006106D01*
X043556Y006032D01*
X043544Y005954D01*
X043544Y005935D01*
X044344Y005935D01*
X044344Y005894D01*
X043544Y005894D01*
X043544Y005875D01*
X043556Y005797D01*
X043581Y005723D01*
X043616Y005652D01*
X043663Y005589D01*
X043718Y005533D01*
X043608Y005670D02*
X034614Y005670D01*
X034614Y005828D02*
X043552Y005828D01*
X043549Y005987D02*
X034614Y005987D01*
X034614Y006145D02*
X040702Y006145D01*
X040986Y006145D02*
X043600Y006145D01*
X043729Y006304D02*
X041256Y006304D01*
X041371Y006462D02*
X045364Y006462D01*
X045364Y006304D02*
X044999Y006304D01*
X045010Y006296D02*
X044946Y006342D01*
X044876Y006378D01*
X044801Y006402D01*
X044723Y006415D01*
X044384Y006415D01*
X044384Y005935D01*
X045184Y005935D01*
X045184Y005954D01*
X045172Y006032D01*
X045147Y006106D01*
X045112Y006177D01*
X045065Y006240D01*
X045010Y006296D01*
X045128Y006145D02*
X045364Y006145D01*
X045364Y005987D02*
X045179Y005987D01*
X045177Y005828D02*
X045364Y005828D01*
X045364Y005670D02*
X045120Y005670D01*
X044979Y005511D02*
X045364Y005511D01*
X045364Y005353D02*
X044823Y005353D01*
X045082Y005194D02*
X045364Y005194D01*
X045364Y005035D02*
X045188Y005035D01*
X045234Y004877D02*
X045364Y004877D01*
X045364Y004718D02*
X045234Y004718D01*
X045174Y004560D02*
X045364Y004560D01*
X045364Y004401D02*
X045049Y004401D01*
X045254Y004243D02*
X045364Y004243D01*
X044384Y005511D02*
X044344Y005511D01*
X044344Y005670D02*
X044384Y005670D01*
X044384Y005828D02*
X044344Y005828D01*
X044344Y005987D02*
X044384Y005987D01*
X044384Y006145D02*
X044344Y006145D01*
X044344Y006304D02*
X044384Y006304D01*
X045364Y006621D02*
X041429Y006621D01*
X041429Y006779D02*
X045364Y006779D01*
X045364Y006938D02*
X041429Y006938D01*
X041429Y007096D02*
X045364Y007096D01*
X045364Y007255D02*
X041429Y007255D01*
X041429Y007414D02*
X045364Y007414D01*
X045364Y007572D02*
X041418Y007572D01*
X041353Y007731D02*
X045364Y007731D01*
X045364Y007889D02*
X041212Y007889D01*
X041530Y008048D02*
X040198Y008048D01*
X040324Y008523D02*
X041404Y008523D01*
X041531Y008682D02*
X040197Y008682D01*
X040220Y008999D02*
X041508Y008999D01*
X041354Y009158D02*
X040374Y009158D01*
X040374Y009316D02*
X041354Y009316D01*
X041354Y009475D02*
X040374Y009475D01*
X040317Y009633D02*
X041411Y009633D01*
X041570Y009792D02*
X040158Y009792D01*
X039531Y008682D02*
X038197Y008682D01*
X037864Y008682D02*
X037864Y008682D01*
X037864Y008523D02*
X037864Y008523D01*
X037864Y008206D02*
X037864Y008206D01*
X037864Y008048D02*
X037864Y008048D01*
X039419Y006938D02*
X040259Y006938D01*
X040259Y006779D02*
X039419Y006779D01*
X039410Y006621D02*
X040259Y006621D01*
X040317Y006462D02*
X039353Y006462D01*
X039222Y006304D02*
X040433Y006304D01*
X041864Y008048D02*
X041864Y008048D01*
X041864Y008206D02*
X041864Y008206D01*
X041864Y008364D02*
X041864Y008365D01*
X041864Y008365D01*
X041864Y008825D01*
X042055Y008825D01*
X042324Y008555D01*
X042324Y008365D01*
X045364Y008365D01*
X045364Y008523D02*
X042324Y008523D01*
X042324Y008365D02*
X041864Y008365D01*
X041864Y008364D01*
X041864Y008523D02*
X041864Y008523D01*
X041864Y008682D02*
X041864Y008682D01*
X042197Y008682D02*
X045364Y008682D01*
X045364Y008206D02*
X042324Y008206D01*
X042198Y008048D02*
X045364Y008048D01*
X040881Y014548D02*
X039478Y014548D01*
X040539Y015658D02*
X040858Y015658D01*
X040698Y015816D02*
X041594Y015816D01*
X041594Y015975D02*
X040856Y015975D01*
X041015Y016133D02*
X041594Y016133D01*
X041594Y016292D02*
X041173Y016292D01*
X041332Y016451D02*
X041594Y016451D01*
X041594Y016609D02*
X041490Y016609D01*
X042886Y015658D02*
X042930Y015658D01*
X038228Y015499D02*
X038134Y015499D01*
X034021Y010743D02*
X033707Y010743D01*
X033830Y010109D02*
X033899Y010109D01*
X034057Y009950D02*
X033671Y009950D01*
X033021Y010743D02*
X032707Y010743D01*
X032021Y010743D02*
X031707Y010743D01*
X031021Y010743D02*
X028207Y010743D01*
X028365Y010584D02*
X030863Y010584D01*
X030854Y010426D02*
X028374Y010426D01*
X028374Y010267D02*
X030854Y010267D01*
X030899Y010109D02*
X028330Y010109D01*
X028171Y009950D02*
X031057Y009950D01*
X031671Y009950D02*
X032057Y009950D01*
X031899Y010109D02*
X031830Y010109D01*
X030364Y008682D02*
X030364Y008682D01*
X030364Y008523D02*
X030364Y008523D01*
X030364Y008206D02*
X030364Y008206D01*
X030364Y008048D02*
X030364Y008048D01*
X028114Y006145D02*
X034074Y006145D01*
X034074Y005987D02*
X028114Y005987D01*
X028114Y005828D02*
X034074Y005828D01*
X034074Y005670D02*
X028114Y005670D01*
X028114Y005511D02*
X034074Y005511D01*
X034074Y005353D02*
X028114Y005353D01*
X028114Y005194D02*
X034074Y005194D01*
X034074Y005035D02*
X028114Y005035D01*
X028114Y004877D02*
X034074Y004877D01*
X034074Y004718D02*
X028114Y004718D01*
X028114Y004560D02*
X034074Y004560D01*
X034074Y004401D02*
X028114Y004401D01*
X028114Y004243D02*
X034074Y004243D01*
X034074Y004084D02*
X028114Y004084D01*
X028114Y003926D02*
X034074Y003926D01*
X034074Y003767D02*
X028114Y003767D01*
X028114Y003609D02*
X034074Y003609D01*
X034074Y003450D02*
X028114Y003450D01*
X028114Y003291D02*
X034074Y003291D01*
X034074Y003133D02*
X028114Y003133D01*
X027574Y003133D02*
X021614Y003133D01*
X021614Y003291D02*
X027574Y003291D01*
X027574Y003450D02*
X021614Y003450D01*
X021614Y003609D02*
X027574Y003609D01*
X027574Y003767D02*
X021614Y003767D01*
X021614Y003926D02*
X027574Y003926D01*
X027574Y004084D02*
X021614Y004084D01*
X021614Y004243D02*
X027574Y004243D01*
X027574Y004401D02*
X021614Y004401D01*
X021614Y004560D02*
X027574Y004560D01*
X027574Y004718D02*
X021614Y004718D01*
X021614Y004877D02*
X027574Y004877D01*
X027574Y005035D02*
X021614Y005035D01*
X021614Y005194D02*
X027574Y005194D01*
X027574Y005353D02*
X021614Y005353D01*
X021614Y005511D02*
X027574Y005511D01*
X027574Y005670D02*
X021614Y005670D01*
X021614Y005828D02*
X027574Y005828D01*
X027574Y005987D02*
X021614Y005987D01*
X021614Y006145D02*
X027574Y006145D01*
X027433Y006304D02*
X026222Y006304D01*
X026353Y006462D02*
X027317Y006462D01*
X027259Y006621D02*
X026410Y006621D01*
X026419Y006779D02*
X027259Y006779D01*
X025922Y006779D02*
X025847Y006779D01*
X025847Y006621D02*
X025922Y006621D01*
X025922Y006462D02*
X025847Y006462D01*
X025847Y006304D02*
X025922Y006304D01*
X025546Y006304D02*
X021756Y006304D01*
X021871Y006462D02*
X025415Y006462D01*
X025358Y006621D02*
X021929Y006621D01*
X021929Y006779D02*
X025349Y006779D01*
X025847Y006938D02*
X025922Y006938D01*
X025922Y007255D02*
X025847Y007255D01*
X025847Y007414D02*
X025922Y007414D01*
X025922Y007572D02*
X025847Y007572D01*
X025847Y007731D02*
X025922Y007731D01*
X025922Y007889D02*
X025847Y007889D01*
X026030Y008048D02*
X024698Y008048D01*
X024824Y008206D02*
X025904Y008206D01*
X026364Y008206D02*
X026364Y008206D01*
X026364Y008048D02*
X026364Y008048D01*
X026364Y008523D02*
X026364Y008523D01*
X026364Y008682D02*
X026364Y008682D01*
X026031Y008682D02*
X024697Y008682D01*
X024720Y008999D02*
X026008Y008999D01*
X025854Y009158D02*
X024874Y009158D01*
X024874Y009316D02*
X025854Y009316D01*
X025854Y009475D02*
X024874Y009475D01*
X024817Y009633D02*
X025911Y009633D01*
X025557Y009950D02*
X025171Y009950D01*
X025330Y010109D02*
X025399Y010109D01*
X025521Y010743D02*
X025207Y010743D01*
X026207Y010743D02*
X026521Y010743D01*
X026399Y010109D02*
X026330Y010109D01*
X027171Y009950D02*
X027557Y009950D01*
X027399Y010109D02*
X027330Y010109D01*
X027207Y010743D02*
X027521Y010743D01*
X024364Y008682D02*
X024364Y008682D01*
X024364Y008523D02*
X024364Y008523D01*
X024364Y008206D02*
X024364Y008206D01*
X024364Y008048D02*
X024364Y008048D01*
X019864Y008048D02*
X019864Y008048D01*
X019864Y008206D02*
X019864Y008206D01*
X019864Y008523D02*
X019864Y008523D01*
X019864Y008682D02*
X019864Y008682D01*
X018807Y009950D02*
X018421Y009950D01*
X018580Y010109D02*
X018649Y010109D01*
X019580Y010109D02*
X019649Y010109D01*
X013179Y014548D02*
X010863Y014548D01*
X011330Y014707D02*
X011367Y014707D01*
X011367Y014565D02*
X011742Y014565D01*
X011788Y014577D01*
X011829Y014601D01*
X011862Y014634D01*
X011886Y014675D01*
X011898Y014721D01*
X011898Y015096D01*
X011367Y015096D01*
X011367Y014565D01*
X011367Y014865D02*
X011330Y014865D01*
X011330Y015024D02*
X011367Y015024D01*
X011367Y015182D02*
X011330Y015182D01*
X011330Y015341D02*
X011367Y015341D01*
X011367Y015499D02*
X011330Y015499D01*
X011330Y015658D02*
X011367Y015658D01*
X011767Y015658D02*
X013118Y015658D01*
X013074Y015816D02*
X010634Y015816D01*
X010634Y015975D02*
X013078Y015975D01*
X013143Y016133D02*
X010634Y016133D01*
X010634Y016292D02*
X013290Y016292D01*
X013277Y016451D02*
X010634Y016451D01*
X010634Y016609D02*
X013138Y016609D01*
X013074Y016768D02*
X010634Y016768D01*
X010886Y015658D02*
X010930Y015658D01*
X011898Y015499D02*
X013228Y015499D01*
X013401Y015341D02*
X011898Y015341D01*
X011898Y015182D02*
X013181Y015182D01*
X013098Y015024D02*
X011898Y015024D01*
X011898Y014865D02*
X013074Y014865D01*
X013097Y014707D02*
X011894Y014707D01*
X012568Y016926D02*
X013074Y016926D01*
X013123Y017085D02*
X012727Y017085D01*
X012885Y017243D02*
X013242Y017243D01*
X013369Y017402D02*
X012917Y017402D01*
X012917Y017560D02*
X013167Y017560D01*
X013092Y017719D02*
X012917Y017719D01*
X012917Y017877D02*
X013074Y017877D01*
X013103Y018036D02*
X012835Y018036D01*
X012677Y018195D02*
X013193Y018195D01*
X013431Y018353D02*
X012518Y018353D01*
X011927Y022634D02*
X008395Y022634D01*
X008395Y022792D02*
X011736Y022792D01*
X011665Y022951D02*
X008268Y022951D01*
X007428Y022951D02*
X006300Y022951D01*
X006846Y022792D02*
X006883Y022792D01*
X006883Y022634D02*
X006846Y022634D01*
X006846Y022475D02*
X006883Y022475D01*
X006883Y022317D02*
X006846Y022317D01*
X006846Y022158D02*
X006883Y022158D01*
X006883Y022000D02*
X006846Y022000D01*
X005333Y022000D02*
X001364Y022000D01*
X001364Y022158D02*
X005333Y022158D01*
X005333Y022317D02*
X001364Y022317D01*
X001364Y022475D02*
X005333Y022475D01*
X005333Y022634D02*
X001364Y022634D01*
X001364Y022792D02*
X005333Y022792D01*
X005460Y022951D02*
X001364Y022951D01*
X001364Y023109D02*
X011654Y023109D01*
X011654Y023268D02*
X001364Y023268D01*
X001364Y023426D02*
X011654Y023426D01*
X011654Y023585D02*
X001364Y023585D01*
X001364Y023744D02*
X011672Y023744D01*
X011754Y023902D02*
X001364Y023902D01*
X001364Y026280D02*
X011727Y026280D01*
X011635Y026439D02*
X001364Y026439D01*
X001364Y026597D02*
X011604Y026597D01*
X011604Y026756D02*
X001364Y026756D01*
X001364Y026914D02*
X011604Y026914D01*
X011604Y027073D02*
X001364Y027073D01*
X001364Y027231D02*
X011604Y027231D01*
X011651Y027390D02*
X001364Y027390D01*
X001364Y027549D02*
X011767Y027549D01*
X011673Y027707D02*
X011178Y027707D01*
X011336Y027866D02*
X011568Y027866D01*
X011514Y028024D02*
X011374Y028024D01*
X011374Y028183D02*
X011514Y028183D01*
X011559Y028341D02*
X011359Y028341D01*
X011200Y028500D02*
X011651Y028500D01*
X011859Y028658D02*
X006301Y028658D01*
X006292Y028667D02*
X005468Y028667D01*
X005333Y028533D01*
X005333Y027708D01*
X005468Y027574D01*
X006292Y027574D01*
X006427Y027708D01*
X006427Y028533D01*
X006292Y028667D01*
X006427Y028500D02*
X007362Y028500D01*
X007351Y028341D02*
X006427Y028341D01*
X006427Y028183D02*
X007351Y028183D01*
X007351Y028024D02*
X006427Y028024D01*
X006427Y027866D02*
X007351Y027866D01*
X007379Y027707D02*
X006425Y027707D01*
X005334Y027707D02*
X001364Y027707D01*
X001364Y027866D02*
X005333Y027866D01*
X005333Y028024D02*
X001364Y028024D01*
X001364Y028183D02*
X005333Y028183D01*
X005333Y028341D02*
X001364Y028341D01*
X001364Y028500D02*
X005333Y028500D01*
X005459Y028658D02*
X001364Y028658D01*
X001364Y029768D02*
X006834Y029768D01*
X006675Y029927D02*
X001364Y029927D01*
X001364Y030085D02*
X006517Y030085D01*
X006494Y030244D02*
X001364Y030244D01*
X001364Y030402D02*
X006494Y030402D01*
X006494Y030561D02*
X001364Y030561D01*
X001364Y030719D02*
X006592Y030719D01*
X009288Y032463D02*
X010940Y032463D01*
X010678Y032305D02*
X009551Y032305D01*
X009668Y032146D02*
X010560Y032146D01*
X010590Y031512D02*
X009639Y031512D01*
X009480Y031354D02*
X009940Y031354D01*
X012429Y029927D02*
X012675Y029927D01*
X012587Y029768D02*
X012834Y029768D01*
X013394Y029768D02*
X014834Y029768D01*
X014675Y029927D02*
X013553Y029927D01*
X013712Y030085D02*
X014517Y030085D01*
X014494Y030244D02*
X013734Y030244D01*
X013734Y030402D02*
X014494Y030402D01*
X014494Y030561D02*
X013734Y030561D01*
X013636Y030719D02*
X014592Y030719D01*
X014751Y030878D02*
X013477Y030878D01*
X012369Y028658D02*
X014859Y028658D01*
X014651Y028500D02*
X012577Y028500D01*
X012670Y028341D02*
X014559Y028341D01*
X014514Y028183D02*
X012714Y028183D01*
X012714Y028024D02*
X014514Y028024D01*
X014568Y027866D02*
X012660Y027866D01*
X012555Y027707D02*
X014673Y027707D01*
X014767Y027549D02*
X014461Y027549D01*
X014577Y027390D02*
X014651Y027390D01*
X013767Y027549D02*
X013461Y027549D01*
X013577Y027390D02*
X013651Y027390D01*
X012767Y027549D02*
X012461Y027549D01*
X012577Y027390D02*
X012651Y027390D01*
X012635Y026439D02*
X012593Y026439D01*
X012501Y026280D02*
X012727Y026280D01*
X013501Y026280D02*
X013727Y026280D01*
X013635Y026439D02*
X013593Y026439D01*
X014501Y026280D02*
X014727Y026280D01*
X014635Y026439D02*
X014593Y026439D01*
X014370Y024061D02*
X014858Y024061D01*
X014681Y023902D02*
X014547Y023902D01*
X014613Y023744D02*
X014616Y023744D01*
X013858Y024061D02*
X013370Y024061D01*
X013547Y023902D02*
X013681Y023902D01*
X013616Y023744D02*
X013613Y023744D01*
X012858Y024061D02*
X012230Y024061D01*
X012474Y023902D02*
X012681Y023902D01*
X012616Y023744D02*
X012556Y023744D01*
X012574Y023585D02*
X012604Y023585D01*
X012604Y023426D02*
X012574Y023426D01*
X012574Y023268D02*
X012604Y023268D01*
X012604Y023109D02*
X012574Y023109D01*
X012563Y022951D02*
X012605Y022951D01*
X012671Y022792D02*
X012492Y022792D01*
X001412Y031512D02*
X001364Y031512D01*
X004287Y034049D02*
X008737Y034049D01*
X008649Y034207D02*
X004262Y034207D01*
X009491Y034049D02*
X010737Y034049D01*
X010649Y034207D02*
X009579Y034207D01*
X011491Y034049D02*
X016737Y034049D01*
X016649Y034207D02*
X011579Y034207D01*
X017491Y034049D02*
X018737Y034049D01*
X018649Y034207D02*
X017579Y034207D01*
X019491Y034049D02*
X042441Y034049D01*
X042467Y034207D02*
X019579Y034207D01*
X025125Y032939D02*
X025800Y032939D01*
X025554Y033098D02*
X025371Y033098D01*
X026125Y032939D02*
X026800Y032939D01*
X026554Y033098D02*
X026371Y033098D01*
X026448Y033732D02*
X026477Y033732D01*
X026608Y033890D02*
X026317Y033890D01*
X025608Y033890D02*
X025317Y033890D01*
X025448Y033732D02*
X025477Y033732D01*
X027125Y032939D02*
X027800Y032939D01*
X027554Y033098D02*
X027371Y033098D01*
X027448Y033732D02*
X027477Y033732D01*
X027608Y033890D02*
X027317Y033890D01*
X028317Y033890D02*
X028608Y033890D01*
X028477Y033732D02*
X028448Y033732D01*
X028371Y033098D02*
X028554Y033098D01*
X028800Y032939D02*
X028125Y032939D01*
X029125Y032939D02*
X029800Y032939D01*
X029554Y033098D02*
X029371Y033098D01*
X029448Y033732D02*
X029477Y033732D01*
X029608Y033890D02*
X029317Y033890D01*
X030317Y033890D02*
X030608Y033890D01*
X030477Y033732D02*
X030448Y033732D01*
X030371Y033098D02*
X030554Y033098D01*
X030800Y032939D02*
X030125Y032939D01*
X031949Y031671D02*
X027779Y031671D01*
X027874Y031512D02*
X031854Y031512D01*
X031854Y031354D02*
X027874Y031354D01*
X027874Y031195D02*
X031854Y031195D01*
X031971Y031037D02*
X027757Y031037D01*
X027599Y030878D02*
X032129Y030878D01*
X032560Y030561D02*
X033059Y030561D01*
X032919Y030402D02*
X032745Y030402D01*
X032814Y030244D02*
X032854Y030244D01*
X032854Y030085D02*
X032824Y030085D01*
X033669Y030561D02*
X034059Y030561D01*
X033919Y030402D02*
X033809Y030402D01*
X033687Y031037D02*
X036011Y031037D01*
X035853Y031195D02*
X033824Y031195D01*
X033824Y031354D02*
X035694Y031354D01*
X035535Y031512D02*
X033824Y031512D01*
X033824Y031555D02*
X033555Y031825D01*
X033364Y031825D01*
X033364Y031365D01*
X033364Y031365D01*
X033364Y031364D01*
X033364Y031365D01*
X033824Y031365D01*
X033824Y031555D01*
X033708Y031671D02*
X035377Y031671D01*
X035669Y030561D02*
X036059Y030561D01*
X035919Y030402D02*
X035809Y030402D01*
X035059Y030561D02*
X034669Y030561D01*
X034809Y030402D02*
X034919Y030402D01*
X033364Y031037D02*
X033364Y031037D01*
X033364Y031195D02*
X033364Y031195D01*
X033364Y031354D02*
X033364Y031354D01*
X033364Y031512D02*
X033364Y031512D01*
X033364Y031671D02*
X033364Y031671D01*
X032108Y031829D02*
X027621Y031829D01*
X027669Y030561D02*
X028059Y030561D01*
X027919Y030402D02*
X027809Y030402D01*
X028669Y030561D02*
X029059Y030561D01*
X028919Y030402D02*
X028809Y030402D01*
X029669Y030561D02*
X030059Y030561D01*
X029919Y030402D02*
X029809Y030402D01*
X030669Y030561D02*
X031059Y030561D01*
X030919Y030402D02*
X030809Y030402D01*
X030861Y029451D02*
X030867Y029451D01*
X030935Y029293D02*
X030793Y029293D01*
X030609Y029134D02*
X031119Y029134D01*
X030119Y029134D02*
X029609Y029134D01*
X029793Y029293D02*
X029935Y029293D01*
X029867Y029451D02*
X029861Y029451D01*
X029119Y029134D02*
X028609Y029134D01*
X028793Y029293D02*
X028935Y029293D01*
X028867Y029451D02*
X028861Y029451D01*
X028119Y029134D02*
X027609Y029134D01*
X027793Y029293D02*
X027935Y029293D01*
X027867Y029451D02*
X027861Y029451D01*
X030694Y024536D02*
X031035Y024536D01*
X030909Y024378D02*
X030819Y024378D01*
X035609Y029134D02*
X035713Y029134D01*
X038669Y030561D02*
X039059Y030561D01*
X038919Y030402D02*
X038809Y030402D01*
X038463Y033732D02*
X038448Y033732D01*
X038494Y033890D02*
X038317Y033890D01*
X037608Y033890D02*
X037317Y033890D01*
X037448Y033732D02*
X037477Y033732D01*
X036608Y033890D02*
X036317Y033890D01*
X036448Y033732D02*
X036477Y033732D01*
X033759Y006779D02*
X032919Y006779D01*
X032910Y006621D02*
X033759Y006621D01*
X033817Y006462D02*
X032853Y006462D01*
X032722Y006304D02*
X033933Y006304D01*
D29*
X036864Y014365D03*
X039864Y016365D03*
X039364Y025865D03*
X038364Y025865D03*
X041864Y027365D03*
X034364Y027115D03*
X018114Y023115D03*
X008614Y020615D03*
M02*
