%
M48
M72
T01C0.0236
T02C0.0240
T03C0.0320
T04C0.0354
T05C0.0394
T06C0.0400
T07C0.0470
T08C0.0520
T09C0.0787
T10C0.0866
T11C0.1614
%
T01
X8614Y20615
X18114Y23115
X34364Y27115
X38364Y25865
X39364Y25865
X41864Y27365
X39864Y16365
X36864Y14365
T02
X39364Y31865
X40364Y31865
X41364Y31865
T03
X41364Y29865
X40364Y29865
X39364Y29865
X38364Y29865
X37364Y29865
X36364Y29865
X35364Y29865
X34364Y29865
X33364Y29865
X32364Y29865
X31364Y29865
X30364Y29865
X29364Y29865
X28364Y29865
X27364Y29865
X26364Y29865
X25364Y29865
X24364Y29865
X23364Y29865
X23364Y31365
X27364Y31365
X32364Y31365
X33364Y31365
X42364Y29865
X42364Y23865
X41364Y23865
X40364Y23865
X39364Y23865
X38364Y23865
X37364Y23865
X36364Y23865
X35364Y23865
X34364Y23865
X33364Y23865
X32364Y23865
X31364Y23865
X30364Y23865
X29364Y23865
X28364Y23865
X27364Y23865
X26364Y23865
X25364Y23865
X24364Y23865
X23364Y23865
X27614Y21865
X30614Y21865
X31864Y22365
X31864Y21365
X33914Y21865
X35814Y21865
X37864Y22365
X37864Y21365
X38864Y17865
X38864Y16865
X38864Y15865
X38864Y14865
X38864Y13865
X38864Y12865
X38864Y11865
X38864Y10865
X37864Y9365
X37864Y8365
X39864Y8365
X39864Y9365
X41864Y9365
X41864Y8365
X35864Y10865
X35864Y11865
X35864Y12865
X35864Y13865
X35864Y14865
X35864Y15865
X35864Y16865
X35864Y17865
X34364Y13365
X33364Y13365
X32364Y13365
X31364Y13365
X31364Y10365
X32364Y10365
X33364Y10365
X34364Y10365
X33364Y9365
X33364Y8365
X30364Y8365
X30364Y9365
X28364Y9365
X28364Y8365
X26364Y8365
X26364Y9365
X25864Y10365
X24864Y10365
X24364Y9365
X24364Y8365
X21864Y8365
X21864Y9365
X21114Y10365
X20114Y10365
X19114Y10365
X18114Y10365
X16864Y10865
X16864Y11865
X16864Y12865
X16864Y13865
X18114Y13365
X19114Y13365
X20114Y13365
X21114Y13365
X24864Y13365
X25864Y13365
X26864Y13365
X27864Y13365
X27864Y10365
X26864Y10365
X19864Y9365
X19864Y8365
X17864Y8365
X17864Y9365
X13864Y9365
X13864Y8365
X13864Y10865
X13864Y11865
X13864Y12865
X13864Y13865
X13864Y14865
X13864Y15865
X13864Y16865
X13864Y17865
X16864Y17865
X16864Y16865
X16864Y15865
X16864Y14865
X10114Y9365
X10114Y8365
X10114Y7365
X10114Y6365
X10114Y5365
X10114Y4365
X10114Y3365
X10114Y2365
X7114Y2365
X7114Y3365
X7114Y4365
X7114Y5365
X7114Y6365
X7114Y7365
X7114Y8365
X7114Y9365
X12114Y23615
X13114Y23615
X14114Y23615
X15114Y23615
X15114Y26615
X14114Y26615
X13114Y26615
X12114Y26615
X10864Y28115
X10864Y25115
X16114Y28115
X19114Y28115
T04
X15114Y28115
X12114Y28115
T05
X7848Y28120
X5880Y28120
X5880Y22412
X6864Y22412
X7848Y22412
X9380Y15115
X10364Y15115
X11348Y15115
X19630Y15115
X20614Y15115
X21598Y15115
X30880Y15115
X31864Y15115
X32848Y15115
X41380Y15115
X42364Y15115
X43348Y15115
T06
X44114Y20865
X44214Y21865
X44114Y22865
X44214Y23865
X44114Y24865
X44214Y25865
X44114Y26865
X44214Y27865
X44114Y28865
X44214Y29865
X38963Y33467
X37963Y33467
X36963Y33467
X35963Y33467
X34963Y33467
X33963Y33467
X32963Y33467
X31963Y33467
X30963Y33467
X29963Y33467
X28963Y33467
X27963Y33467
X26963Y33467
X25963Y33467
X24963Y33467
X23963Y33467
X25364Y19115
X26364Y19115
X27364Y19115
X27364Y18115
X26364Y18115
X25364Y18115
X25364Y15615
X26364Y15715
X27364Y15615
X44364Y5915
X44364Y4815
T07
X40844Y7075
X38884Y7075
X34344Y7075
X32384Y7075
X27844Y7075
X25884Y7075
X21344Y7075
X19384Y7075
X14844Y7075
X12884Y7075
X12884Y2155
X14844Y2155
X19384Y2155
X21344Y2155
X25884Y2155
X27844Y2155
X32384Y2155
X34344Y2155
X38884Y2155
X40844Y2155
T08
X20114Y29365
X21114Y30365
X19114Y31865
X17114Y31865
X18114Y30365
X16114Y29365
X15114Y30365
X13114Y30365
X12114Y29365
X10114Y30365
X8114Y29365
X7114Y30365
X9114Y31865
X11114Y31865
X11114Y34365
X9114Y34365
X17114Y34365
X19114Y34365
T09
X18882Y17615
X22346Y17615
X30132Y17615
X33596Y17615
X40632Y17615
X44096Y17615
X12096Y17615
X8632Y17615
T10
X9266Y25365
X4463Y25365
T11
X2114Y2115
X2114Y11865
X2114Y33615
X44614Y33615
X44614Y11865
X44614Y2115
M30
