G75*
G70*
%OFA0B0*%
%FSLAX24Y24*%
%IPPOS*%
%LPD*%
%AMOC8*
5,1,8,0,0,1.08239X$1,22.5*
%
%ADD10C,0.0000*%
%ADD11OC8,0.0740*%
%ADD12C,0.0560*%
%ADD13OC8,0.0560*%
%ADD14R,0.0740X0.0740*%
%ADD15OC8,0.1181*%
%ADD16C,0.0640*%
%ADD17C,0.0710*%
%ADD18R,0.0634X0.0634*%
%ADD19R,0.1266X0.1266*%
%ADD20C,0.0780*%
%ADD21OC8,0.0780*%
%ADD22C,0.0780*%
%ADD23C,0.0740*%
%ADD24R,0.0640X0.0640*%
%ADD25C,0.0640*%
%ADD26C,0.0480*%
%ADD27C,0.0560*%
%ADD28C,0.0160*%
%ADD29C,0.0080*%
%ADD30C,0.0436*%
D10*
X000864Y000865D02*
X000864Y034861D01*
X045864Y034865D01*
X045864Y000865D01*
X000864Y000865D01*
X001307Y002115D02*
X001309Y002171D01*
X001315Y002227D01*
X001325Y002283D01*
X001338Y002337D01*
X001356Y002391D01*
X001377Y002443D01*
X001401Y002494D01*
X001430Y002543D01*
X001461Y002589D01*
X001496Y002634D01*
X001533Y002676D01*
X001574Y002715D01*
X001617Y002751D01*
X001663Y002784D01*
X001710Y002814D01*
X001760Y002840D01*
X001812Y002863D01*
X001865Y002883D01*
X001919Y002898D01*
X001974Y002910D01*
X002030Y002918D01*
X002086Y002922D01*
X002142Y002922D01*
X002198Y002918D01*
X002254Y002910D01*
X002309Y002898D01*
X002363Y002883D01*
X002416Y002863D01*
X002468Y002840D01*
X002517Y002814D01*
X002565Y002784D01*
X002611Y002751D01*
X002654Y002715D01*
X002695Y002676D01*
X002732Y002634D01*
X002767Y002589D01*
X002798Y002543D01*
X002827Y002494D01*
X002851Y002443D01*
X002872Y002391D01*
X002890Y002337D01*
X002903Y002283D01*
X002913Y002227D01*
X002919Y002171D01*
X002921Y002115D01*
X002919Y002059D01*
X002913Y002003D01*
X002903Y001947D01*
X002890Y001893D01*
X002872Y001839D01*
X002851Y001787D01*
X002827Y001736D01*
X002798Y001687D01*
X002767Y001641D01*
X002732Y001596D01*
X002695Y001554D01*
X002654Y001515D01*
X002611Y001479D01*
X002565Y001446D01*
X002518Y001416D01*
X002468Y001390D01*
X002416Y001367D01*
X002363Y001347D01*
X002309Y001332D01*
X002254Y001320D01*
X002198Y001312D01*
X002142Y001308D01*
X002086Y001308D01*
X002030Y001312D01*
X001974Y001320D01*
X001919Y001332D01*
X001865Y001347D01*
X001812Y001367D01*
X001760Y001390D01*
X001710Y001416D01*
X001663Y001446D01*
X001617Y001479D01*
X001574Y001515D01*
X001533Y001554D01*
X001496Y001596D01*
X001461Y001641D01*
X001430Y001687D01*
X001401Y001736D01*
X001377Y001787D01*
X001356Y001839D01*
X001338Y001893D01*
X001325Y001947D01*
X001315Y002003D01*
X001309Y002059D01*
X001307Y002115D01*
X001307Y011865D02*
X001309Y011921D01*
X001315Y011977D01*
X001325Y012033D01*
X001338Y012087D01*
X001356Y012141D01*
X001377Y012193D01*
X001401Y012244D01*
X001430Y012293D01*
X001461Y012339D01*
X001496Y012384D01*
X001533Y012426D01*
X001574Y012465D01*
X001617Y012501D01*
X001663Y012534D01*
X001710Y012564D01*
X001760Y012590D01*
X001812Y012613D01*
X001865Y012633D01*
X001919Y012648D01*
X001974Y012660D01*
X002030Y012668D01*
X002086Y012672D01*
X002142Y012672D01*
X002198Y012668D01*
X002254Y012660D01*
X002309Y012648D01*
X002363Y012633D01*
X002416Y012613D01*
X002468Y012590D01*
X002517Y012564D01*
X002565Y012534D01*
X002611Y012501D01*
X002654Y012465D01*
X002695Y012426D01*
X002732Y012384D01*
X002767Y012339D01*
X002798Y012293D01*
X002827Y012244D01*
X002851Y012193D01*
X002872Y012141D01*
X002890Y012087D01*
X002903Y012033D01*
X002913Y011977D01*
X002919Y011921D01*
X002921Y011865D01*
X002919Y011809D01*
X002913Y011753D01*
X002903Y011697D01*
X002890Y011643D01*
X002872Y011589D01*
X002851Y011537D01*
X002827Y011486D01*
X002798Y011437D01*
X002767Y011391D01*
X002732Y011346D01*
X002695Y011304D01*
X002654Y011265D01*
X002611Y011229D01*
X002565Y011196D01*
X002518Y011166D01*
X002468Y011140D01*
X002416Y011117D01*
X002363Y011097D01*
X002309Y011082D01*
X002254Y011070D01*
X002198Y011062D01*
X002142Y011058D01*
X002086Y011058D01*
X002030Y011062D01*
X001974Y011070D01*
X001919Y011082D01*
X001865Y011097D01*
X001812Y011117D01*
X001760Y011140D01*
X001710Y011166D01*
X001663Y011196D01*
X001617Y011229D01*
X001574Y011265D01*
X001533Y011304D01*
X001496Y011346D01*
X001461Y011391D01*
X001430Y011437D01*
X001401Y011486D01*
X001377Y011537D01*
X001356Y011589D01*
X001338Y011643D01*
X001325Y011697D01*
X001315Y011753D01*
X001309Y011809D01*
X001307Y011865D01*
X001307Y033615D02*
X001309Y033671D01*
X001315Y033727D01*
X001325Y033783D01*
X001338Y033837D01*
X001356Y033891D01*
X001377Y033943D01*
X001401Y033994D01*
X001430Y034043D01*
X001461Y034089D01*
X001496Y034134D01*
X001533Y034176D01*
X001574Y034215D01*
X001617Y034251D01*
X001663Y034284D01*
X001710Y034314D01*
X001760Y034340D01*
X001812Y034363D01*
X001865Y034383D01*
X001919Y034398D01*
X001974Y034410D01*
X002030Y034418D01*
X002086Y034422D01*
X002142Y034422D01*
X002198Y034418D01*
X002254Y034410D01*
X002309Y034398D01*
X002363Y034383D01*
X002416Y034363D01*
X002468Y034340D01*
X002517Y034314D01*
X002565Y034284D01*
X002611Y034251D01*
X002654Y034215D01*
X002695Y034176D01*
X002732Y034134D01*
X002767Y034089D01*
X002798Y034043D01*
X002827Y033994D01*
X002851Y033943D01*
X002872Y033891D01*
X002890Y033837D01*
X002903Y033783D01*
X002913Y033727D01*
X002919Y033671D01*
X002921Y033615D01*
X002919Y033559D01*
X002913Y033503D01*
X002903Y033447D01*
X002890Y033393D01*
X002872Y033339D01*
X002851Y033287D01*
X002827Y033236D01*
X002798Y033187D01*
X002767Y033141D01*
X002732Y033096D01*
X002695Y033054D01*
X002654Y033015D01*
X002611Y032979D01*
X002565Y032946D01*
X002518Y032916D01*
X002468Y032890D01*
X002416Y032867D01*
X002363Y032847D01*
X002309Y032832D01*
X002254Y032820D01*
X002198Y032812D01*
X002142Y032808D01*
X002086Y032808D01*
X002030Y032812D01*
X001974Y032820D01*
X001919Y032832D01*
X001865Y032847D01*
X001812Y032867D01*
X001760Y032890D01*
X001710Y032916D01*
X001663Y032946D01*
X001617Y032979D01*
X001574Y033015D01*
X001533Y033054D01*
X001496Y033096D01*
X001461Y033141D01*
X001430Y033187D01*
X001401Y033236D01*
X001377Y033287D01*
X001356Y033339D01*
X001338Y033393D01*
X001325Y033447D01*
X001315Y033503D01*
X001309Y033559D01*
X001307Y033615D01*
X008854Y034365D02*
X008856Y034397D01*
X008862Y034428D01*
X008872Y034459D01*
X008885Y034488D01*
X008902Y034515D01*
X008922Y034540D01*
X008945Y034562D01*
X008970Y034582D01*
X008998Y034598D01*
X009028Y034610D01*
X009058Y034619D01*
X009090Y034624D01*
X009122Y034625D01*
X009154Y034622D01*
X009185Y034615D01*
X009215Y034604D01*
X009244Y034590D01*
X009271Y034572D01*
X009295Y034552D01*
X009317Y034528D01*
X009335Y034502D01*
X009350Y034474D01*
X009362Y034444D01*
X009370Y034413D01*
X009374Y034381D01*
X009374Y034349D01*
X009370Y034317D01*
X009362Y034286D01*
X009350Y034256D01*
X009335Y034228D01*
X009317Y034202D01*
X009295Y034178D01*
X009271Y034158D01*
X009244Y034140D01*
X009215Y034126D01*
X009185Y034115D01*
X009154Y034108D01*
X009122Y034105D01*
X009090Y034106D01*
X009058Y034111D01*
X009028Y034120D01*
X008998Y034132D01*
X008970Y034148D01*
X008945Y034168D01*
X008922Y034190D01*
X008902Y034215D01*
X008885Y034242D01*
X008872Y034271D01*
X008862Y034302D01*
X008856Y034333D01*
X008854Y034365D01*
X010854Y034365D02*
X010856Y034397D01*
X010862Y034428D01*
X010872Y034459D01*
X010885Y034488D01*
X010902Y034515D01*
X010922Y034540D01*
X010945Y034562D01*
X010970Y034582D01*
X010998Y034598D01*
X011028Y034610D01*
X011058Y034619D01*
X011090Y034624D01*
X011122Y034625D01*
X011154Y034622D01*
X011185Y034615D01*
X011215Y034604D01*
X011244Y034590D01*
X011271Y034572D01*
X011295Y034552D01*
X011317Y034528D01*
X011335Y034502D01*
X011350Y034474D01*
X011362Y034444D01*
X011370Y034413D01*
X011374Y034381D01*
X011374Y034349D01*
X011370Y034317D01*
X011362Y034286D01*
X011350Y034256D01*
X011335Y034228D01*
X011317Y034202D01*
X011295Y034178D01*
X011271Y034158D01*
X011244Y034140D01*
X011215Y034126D01*
X011185Y034115D01*
X011154Y034108D01*
X011122Y034105D01*
X011090Y034106D01*
X011058Y034111D01*
X011028Y034120D01*
X010998Y034132D01*
X010970Y034148D01*
X010945Y034168D01*
X010922Y034190D01*
X010902Y034215D01*
X010885Y034242D01*
X010872Y034271D01*
X010862Y034302D01*
X010856Y034333D01*
X010854Y034365D01*
X016854Y034365D02*
X016856Y034397D01*
X016862Y034428D01*
X016872Y034459D01*
X016885Y034488D01*
X016902Y034515D01*
X016922Y034540D01*
X016945Y034562D01*
X016970Y034582D01*
X016998Y034598D01*
X017028Y034610D01*
X017058Y034619D01*
X017090Y034624D01*
X017122Y034625D01*
X017154Y034622D01*
X017185Y034615D01*
X017215Y034604D01*
X017244Y034590D01*
X017271Y034572D01*
X017295Y034552D01*
X017317Y034528D01*
X017335Y034502D01*
X017350Y034474D01*
X017362Y034444D01*
X017370Y034413D01*
X017374Y034381D01*
X017374Y034349D01*
X017370Y034317D01*
X017362Y034286D01*
X017350Y034256D01*
X017335Y034228D01*
X017317Y034202D01*
X017295Y034178D01*
X017271Y034158D01*
X017244Y034140D01*
X017215Y034126D01*
X017185Y034115D01*
X017154Y034108D01*
X017122Y034105D01*
X017090Y034106D01*
X017058Y034111D01*
X017028Y034120D01*
X016998Y034132D01*
X016970Y034148D01*
X016945Y034168D01*
X016922Y034190D01*
X016902Y034215D01*
X016885Y034242D01*
X016872Y034271D01*
X016862Y034302D01*
X016856Y034333D01*
X016854Y034365D01*
X018854Y034365D02*
X018856Y034397D01*
X018862Y034428D01*
X018872Y034459D01*
X018885Y034488D01*
X018902Y034515D01*
X018922Y034540D01*
X018945Y034562D01*
X018970Y034582D01*
X018998Y034598D01*
X019028Y034610D01*
X019058Y034619D01*
X019090Y034624D01*
X019122Y034625D01*
X019154Y034622D01*
X019185Y034615D01*
X019215Y034604D01*
X019244Y034590D01*
X019271Y034572D01*
X019295Y034552D01*
X019317Y034528D01*
X019335Y034502D01*
X019350Y034474D01*
X019362Y034444D01*
X019370Y034413D01*
X019374Y034381D01*
X019374Y034349D01*
X019370Y034317D01*
X019362Y034286D01*
X019350Y034256D01*
X019335Y034228D01*
X019317Y034202D01*
X019295Y034178D01*
X019271Y034158D01*
X019244Y034140D01*
X019215Y034126D01*
X019185Y034115D01*
X019154Y034108D01*
X019122Y034105D01*
X019090Y034106D01*
X019058Y034111D01*
X019028Y034120D01*
X018998Y034132D01*
X018970Y034148D01*
X018945Y034168D01*
X018922Y034190D01*
X018902Y034215D01*
X018885Y034242D01*
X018872Y034271D01*
X018862Y034302D01*
X018856Y034333D01*
X018854Y034365D01*
X043807Y033615D02*
X043809Y033671D01*
X043815Y033727D01*
X043825Y033783D01*
X043838Y033837D01*
X043856Y033891D01*
X043877Y033943D01*
X043901Y033994D01*
X043930Y034043D01*
X043961Y034089D01*
X043996Y034134D01*
X044033Y034176D01*
X044074Y034215D01*
X044117Y034251D01*
X044163Y034284D01*
X044210Y034314D01*
X044260Y034340D01*
X044312Y034363D01*
X044365Y034383D01*
X044419Y034398D01*
X044474Y034410D01*
X044530Y034418D01*
X044586Y034422D01*
X044642Y034422D01*
X044698Y034418D01*
X044754Y034410D01*
X044809Y034398D01*
X044863Y034383D01*
X044916Y034363D01*
X044968Y034340D01*
X045017Y034314D01*
X045065Y034284D01*
X045111Y034251D01*
X045154Y034215D01*
X045195Y034176D01*
X045232Y034134D01*
X045267Y034089D01*
X045298Y034043D01*
X045327Y033994D01*
X045351Y033943D01*
X045372Y033891D01*
X045390Y033837D01*
X045403Y033783D01*
X045413Y033727D01*
X045419Y033671D01*
X045421Y033615D01*
X045419Y033559D01*
X045413Y033503D01*
X045403Y033447D01*
X045390Y033393D01*
X045372Y033339D01*
X045351Y033287D01*
X045327Y033236D01*
X045298Y033187D01*
X045267Y033141D01*
X045232Y033096D01*
X045195Y033054D01*
X045154Y033015D01*
X045111Y032979D01*
X045065Y032946D01*
X045018Y032916D01*
X044968Y032890D01*
X044916Y032867D01*
X044863Y032847D01*
X044809Y032832D01*
X044754Y032820D01*
X044698Y032812D01*
X044642Y032808D01*
X044586Y032808D01*
X044530Y032812D01*
X044474Y032820D01*
X044419Y032832D01*
X044365Y032847D01*
X044312Y032867D01*
X044260Y032890D01*
X044210Y032916D01*
X044163Y032946D01*
X044117Y032979D01*
X044074Y033015D01*
X044033Y033054D01*
X043996Y033096D01*
X043961Y033141D01*
X043930Y033187D01*
X043901Y033236D01*
X043877Y033287D01*
X043856Y033339D01*
X043838Y033393D01*
X043825Y033447D01*
X043815Y033503D01*
X043809Y033559D01*
X043807Y033615D01*
X043807Y011865D02*
X043809Y011921D01*
X043815Y011977D01*
X043825Y012033D01*
X043838Y012087D01*
X043856Y012141D01*
X043877Y012193D01*
X043901Y012244D01*
X043930Y012293D01*
X043961Y012339D01*
X043996Y012384D01*
X044033Y012426D01*
X044074Y012465D01*
X044117Y012501D01*
X044163Y012534D01*
X044210Y012564D01*
X044260Y012590D01*
X044312Y012613D01*
X044365Y012633D01*
X044419Y012648D01*
X044474Y012660D01*
X044530Y012668D01*
X044586Y012672D01*
X044642Y012672D01*
X044698Y012668D01*
X044754Y012660D01*
X044809Y012648D01*
X044863Y012633D01*
X044916Y012613D01*
X044968Y012590D01*
X045017Y012564D01*
X045065Y012534D01*
X045111Y012501D01*
X045154Y012465D01*
X045195Y012426D01*
X045232Y012384D01*
X045267Y012339D01*
X045298Y012293D01*
X045327Y012244D01*
X045351Y012193D01*
X045372Y012141D01*
X045390Y012087D01*
X045403Y012033D01*
X045413Y011977D01*
X045419Y011921D01*
X045421Y011865D01*
X045419Y011809D01*
X045413Y011753D01*
X045403Y011697D01*
X045390Y011643D01*
X045372Y011589D01*
X045351Y011537D01*
X045327Y011486D01*
X045298Y011437D01*
X045267Y011391D01*
X045232Y011346D01*
X045195Y011304D01*
X045154Y011265D01*
X045111Y011229D01*
X045065Y011196D01*
X045018Y011166D01*
X044968Y011140D01*
X044916Y011117D01*
X044863Y011097D01*
X044809Y011082D01*
X044754Y011070D01*
X044698Y011062D01*
X044642Y011058D01*
X044586Y011058D01*
X044530Y011062D01*
X044474Y011070D01*
X044419Y011082D01*
X044365Y011097D01*
X044312Y011117D01*
X044260Y011140D01*
X044210Y011166D01*
X044163Y011196D01*
X044117Y011229D01*
X044074Y011265D01*
X044033Y011304D01*
X043996Y011346D01*
X043961Y011391D01*
X043930Y011437D01*
X043901Y011486D01*
X043877Y011537D01*
X043856Y011589D01*
X043838Y011643D01*
X043825Y011697D01*
X043815Y011753D01*
X043809Y011809D01*
X043807Y011865D01*
X043807Y002115D02*
X043809Y002171D01*
X043815Y002227D01*
X043825Y002283D01*
X043838Y002337D01*
X043856Y002391D01*
X043877Y002443D01*
X043901Y002494D01*
X043930Y002543D01*
X043961Y002589D01*
X043996Y002634D01*
X044033Y002676D01*
X044074Y002715D01*
X044117Y002751D01*
X044163Y002784D01*
X044210Y002814D01*
X044260Y002840D01*
X044312Y002863D01*
X044365Y002883D01*
X044419Y002898D01*
X044474Y002910D01*
X044530Y002918D01*
X044586Y002922D01*
X044642Y002922D01*
X044698Y002918D01*
X044754Y002910D01*
X044809Y002898D01*
X044863Y002883D01*
X044916Y002863D01*
X044968Y002840D01*
X045017Y002814D01*
X045065Y002784D01*
X045111Y002751D01*
X045154Y002715D01*
X045195Y002676D01*
X045232Y002634D01*
X045267Y002589D01*
X045298Y002543D01*
X045327Y002494D01*
X045351Y002443D01*
X045372Y002391D01*
X045390Y002337D01*
X045403Y002283D01*
X045413Y002227D01*
X045419Y002171D01*
X045421Y002115D01*
X045419Y002059D01*
X045413Y002003D01*
X045403Y001947D01*
X045390Y001893D01*
X045372Y001839D01*
X045351Y001787D01*
X045327Y001736D01*
X045298Y001687D01*
X045267Y001641D01*
X045232Y001596D01*
X045195Y001554D01*
X045154Y001515D01*
X045111Y001479D01*
X045065Y001446D01*
X045018Y001416D01*
X044968Y001390D01*
X044916Y001367D01*
X044863Y001347D01*
X044809Y001332D01*
X044754Y001320D01*
X044698Y001312D01*
X044642Y001308D01*
X044586Y001308D01*
X044530Y001312D01*
X044474Y001320D01*
X044419Y001332D01*
X044365Y001347D01*
X044312Y001367D01*
X044260Y001390D01*
X044210Y001416D01*
X044163Y001446D01*
X044117Y001479D01*
X044074Y001515D01*
X044033Y001554D01*
X043996Y001596D01*
X043961Y001641D01*
X043930Y001687D01*
X043901Y001736D01*
X043877Y001787D01*
X043856Y001839D01*
X043838Y001893D01*
X043825Y001947D01*
X043815Y002003D01*
X043809Y002059D01*
X043807Y002115D01*
D11*
X027364Y018115D03*
X026364Y018115D03*
X025364Y018115D03*
X025364Y019115D03*
X026364Y019115D03*
X027364Y019115D03*
D12*
X027364Y023585D02*
X027364Y024145D01*
X026364Y024145D02*
X026364Y023585D01*
X025364Y023585D02*
X025364Y024145D01*
X024364Y024145D02*
X024364Y023585D01*
X023364Y023585D02*
X023364Y024145D01*
X028364Y024145D02*
X028364Y023585D01*
X029364Y023585D02*
X029364Y024145D01*
X030364Y024145D02*
X030364Y023585D01*
X031364Y023585D02*
X031364Y024145D01*
X032364Y024145D02*
X032364Y023585D01*
X033364Y023585D02*
X033364Y024145D01*
X034364Y024145D02*
X034364Y023585D01*
X035364Y023585D02*
X035364Y024145D01*
X036364Y024145D02*
X036364Y023585D01*
X037364Y023585D02*
X037364Y024145D01*
X038364Y024145D02*
X038364Y023585D01*
X039364Y023585D02*
X039364Y024145D01*
X040364Y024145D02*
X040364Y023585D01*
X041364Y023585D02*
X041364Y024145D01*
X042364Y024145D02*
X042364Y023585D01*
X042364Y029585D02*
X042364Y030145D01*
X041364Y030145D02*
X041364Y029585D01*
X040364Y029585D02*
X040364Y030145D01*
X039364Y030145D02*
X039364Y029585D01*
X038364Y029585D02*
X038364Y030145D01*
X037364Y030145D02*
X037364Y029585D01*
X036364Y029585D02*
X036364Y030145D01*
X035364Y030145D02*
X035364Y029585D01*
X034364Y029585D02*
X034364Y030145D01*
X033364Y030145D02*
X033364Y029585D01*
X032364Y029585D02*
X032364Y030145D01*
X031364Y030145D02*
X031364Y029585D01*
X030364Y029585D02*
X030364Y030145D01*
X029364Y030145D02*
X029364Y029585D01*
X028364Y029585D02*
X028364Y030145D01*
X027364Y030145D02*
X027364Y029585D01*
X026364Y029585D02*
X026364Y030145D01*
X025364Y030145D02*
X025364Y029585D01*
X024364Y029585D02*
X024364Y030145D01*
X023364Y030145D02*
X023364Y029585D01*
X015114Y027175D02*
X015114Y026615D01*
X014114Y026615D02*
X014114Y027175D01*
X013114Y027175D02*
X013114Y026615D01*
X012114Y026615D02*
X012114Y027175D01*
X012114Y023615D02*
X012114Y023055D01*
X013114Y023055D02*
X013114Y023615D01*
X014114Y023615D02*
X014114Y023055D01*
X015114Y023055D02*
X015114Y023615D01*
X014144Y017865D02*
X013584Y017865D01*
X013584Y016865D02*
X014144Y016865D01*
X014144Y015865D02*
X013584Y015865D01*
X013584Y014865D02*
X014144Y014865D01*
X014144Y013865D02*
X013584Y013865D01*
X013584Y012865D02*
X014144Y012865D01*
X014144Y011865D02*
X013584Y011865D01*
X013584Y010865D02*
X014144Y010865D01*
X016584Y010865D02*
X017144Y010865D01*
X017144Y011865D02*
X016584Y011865D01*
X016584Y012865D02*
X017144Y012865D01*
X017144Y013865D02*
X016584Y013865D01*
X016584Y014865D02*
X017144Y014865D01*
X017144Y015865D02*
X016584Y015865D01*
X016584Y016865D02*
X017144Y016865D01*
X017144Y017865D02*
X016584Y017865D01*
X010394Y009365D02*
X009834Y009365D01*
X009834Y008365D02*
X010394Y008365D01*
X010394Y007365D02*
X009834Y007365D01*
X009834Y006365D02*
X010394Y006365D01*
X010394Y005365D02*
X009834Y005365D01*
X009834Y004365D02*
X010394Y004365D01*
X010394Y003365D02*
X009834Y003365D01*
X009834Y002365D02*
X010394Y002365D01*
X007394Y002365D02*
X006834Y002365D01*
X006834Y003365D02*
X007394Y003365D01*
X007394Y004365D02*
X006834Y004365D01*
X006834Y005365D02*
X007394Y005365D01*
X007394Y006365D02*
X006834Y006365D01*
X006834Y007365D02*
X007394Y007365D01*
X007394Y008365D02*
X006834Y008365D01*
X006834Y009365D02*
X007394Y009365D01*
X035584Y010865D02*
X036144Y010865D01*
X036144Y011865D02*
X035584Y011865D01*
X035584Y012865D02*
X036144Y012865D01*
X036144Y013865D02*
X035584Y013865D01*
X035584Y014865D02*
X036144Y014865D01*
X036144Y015865D02*
X035584Y015865D01*
X035584Y016865D02*
X036144Y016865D01*
X036144Y017865D02*
X035584Y017865D01*
X038584Y017865D02*
X039144Y017865D01*
X039144Y016865D02*
X038584Y016865D01*
X038584Y015865D02*
X039144Y015865D01*
X039144Y014865D02*
X038584Y014865D01*
X038584Y013865D02*
X039144Y013865D01*
X039144Y012865D02*
X038584Y012865D01*
X038584Y011865D02*
X039144Y011865D01*
X039144Y010865D02*
X038584Y010865D01*
D13*
X037864Y009365D03*
X037864Y008365D03*
X039864Y008365D03*
X039864Y009365D03*
X041864Y009365D03*
X041864Y008365D03*
X034364Y010365D03*
X033364Y010365D03*
X032364Y010365D03*
X031364Y010365D03*
X030364Y009365D03*
X030364Y008365D03*
X028364Y008365D03*
X028364Y009365D03*
X027864Y010365D03*
X026864Y010365D03*
X025864Y010365D03*
X024864Y010365D03*
X024364Y009365D03*
X024364Y008365D03*
X026364Y008365D03*
X026364Y009365D03*
X021864Y009365D03*
X021864Y008365D03*
X019864Y008365D03*
X019864Y009365D03*
X020114Y010365D03*
X021114Y010365D03*
X019114Y010365D03*
X018114Y010365D03*
X017864Y009365D03*
X017864Y008365D03*
X013864Y008365D03*
X013864Y009365D03*
X018114Y013365D03*
X019114Y013365D03*
X020114Y013365D03*
X021114Y013365D03*
X024864Y013365D03*
X025864Y013365D03*
X026864Y013365D03*
X027864Y013365D03*
X031364Y013365D03*
X032364Y013365D03*
X033364Y013365D03*
X034364Y013365D03*
X033364Y009365D03*
X033364Y008365D03*
X031864Y021365D03*
X031864Y022365D03*
X030614Y021865D03*
X027614Y021865D03*
X019114Y028115D03*
X016114Y028115D03*
X010864Y028115D03*
X010864Y025115D03*
X023364Y031365D03*
X027364Y031365D03*
X032364Y031365D03*
X033364Y031365D03*
X037864Y022365D03*
X037864Y021365D03*
D14*
X041380Y015115D03*
X042364Y015115D03*
X043348Y015115D03*
X032848Y015115D03*
X031864Y015115D03*
X030880Y015115D03*
X021598Y015115D03*
X020614Y015115D03*
X019630Y015115D03*
X011348Y015115D03*
X010364Y015115D03*
X009380Y015115D03*
D15*
X008632Y017615D03*
X012096Y017615D03*
X018882Y017615D03*
X022346Y017615D03*
X030132Y017615D03*
X033596Y017615D03*
X040632Y017615D03*
X044096Y017615D03*
D16*
X043794Y020865D02*
X044434Y020865D01*
X044534Y021865D02*
X043894Y021865D01*
X043794Y022865D02*
X044434Y022865D01*
X044534Y023865D02*
X043894Y023865D01*
X043794Y024865D02*
X044434Y024865D01*
X044534Y025865D02*
X043894Y025865D01*
X043794Y026865D02*
X044434Y026865D01*
X044534Y027865D02*
X043894Y027865D01*
X043794Y028865D02*
X044434Y028865D01*
X044534Y029865D02*
X043894Y029865D01*
X027364Y015935D02*
X027364Y015295D01*
X026364Y015395D02*
X026364Y016035D01*
X025364Y015935D02*
X025364Y015295D01*
X044044Y005915D02*
X044684Y005915D01*
X044684Y004815D02*
X044044Y004815D01*
D17*
X040844Y006720D02*
X040844Y007430D01*
X038884Y007430D02*
X038884Y006720D01*
X034344Y006720D02*
X034344Y007430D01*
X032384Y007430D02*
X032384Y006720D01*
X027844Y006720D02*
X027844Y007430D01*
X025884Y007430D02*
X025884Y006720D01*
X021344Y006720D02*
X021344Y007430D01*
X019384Y007430D02*
X019384Y006720D01*
X014844Y006720D02*
X014844Y007430D01*
X012884Y007430D02*
X012884Y006720D01*
X012884Y002510D02*
X012884Y001800D01*
X014844Y001800D02*
X014844Y002510D01*
X019384Y002510D02*
X019384Y001800D01*
X021344Y001800D02*
X021344Y002510D01*
X025884Y002510D02*
X025884Y001800D01*
X027844Y001800D02*
X027844Y002510D01*
X032384Y002510D02*
X032384Y001800D01*
X034344Y001800D02*
X034344Y002510D01*
X038884Y002510D02*
X038884Y001800D01*
X040844Y001800D02*
X040844Y002510D01*
D18*
X007848Y022412D03*
X006864Y022412D03*
X005880Y022412D03*
X005880Y028120D03*
X007848Y028120D03*
D19*
X009266Y025365D03*
X004463Y025365D03*
D20*
X010114Y029975D02*
X010114Y030755D01*
X018114Y030755D02*
X018114Y029975D01*
D21*
X016114Y029365D03*
X015114Y030365D03*
X013114Y030365D03*
X012114Y029365D03*
X008114Y029365D03*
X007114Y030365D03*
X020114Y029365D03*
X021114Y030365D03*
D22*
X019114Y031865D03*
X017114Y031865D03*
X011114Y031865D03*
X009114Y031865D03*
D23*
X012114Y028115D03*
X015114Y028115D03*
D24*
X038963Y033467D03*
D25*
X037963Y033467D03*
X036963Y033467D03*
X035963Y033467D03*
X034963Y033467D03*
X033963Y033467D03*
X032963Y033467D03*
X031963Y033467D03*
X030963Y033467D03*
X029963Y033467D03*
X028963Y033467D03*
X027963Y033467D03*
X026963Y033467D03*
X025963Y033467D03*
X024963Y033467D03*
X023963Y033467D03*
D26*
X039364Y031865D03*
X040364Y031865D03*
X041364Y031865D03*
D27*
X035814Y021865D03*
X033914Y021865D03*
D28*
X032364Y023615D02*
X032364Y023865D01*
X032364Y023615D02*
X030614Y021865D01*
X030614Y020865D01*
X027864Y018115D01*
X027364Y018115D01*
X030864Y015365D02*
X030880Y015349D01*
X030880Y015115D01*
X030880Y014880D01*
X030364Y014365D01*
X020146Y014365D01*
X020130Y014380D01*
X020114Y014365D01*
X019614Y014865D01*
X019630Y014880D01*
X019630Y015115D01*
X019614Y015115D01*
X016864Y017865D01*
X016114Y018615D01*
X011614Y018615D01*
X009380Y016380D01*
X009380Y015115D01*
X009364Y015115D01*
X009364Y012365D01*
X015864Y012365D01*
X016364Y011865D01*
X016864Y011865D01*
X010114Y009365D02*
X009864Y009365D01*
X009364Y009865D01*
X009364Y012365D01*
X015114Y023615D02*
X019114Y028115D01*
X019114Y030865D01*
X021489Y033240D01*
X023364Y031365D01*
X023984Y030745D01*
X031744Y030745D01*
X032364Y031365D01*
X033364Y030365D01*
X033364Y029865D01*
X037864Y033467D02*
X037864Y034115D01*
X022364Y034115D01*
X021489Y033240D01*
X037864Y034115D02*
X039364Y034115D01*
X040364Y034115D01*
X043614Y030865D01*
X044574Y030865D01*
X045364Y030074D01*
X045364Y020919D01*
X043059Y018615D01*
X038864Y018615D01*
X038864Y017865D01*
X038864Y018615D02*
X035364Y018615D01*
X034614Y017865D01*
X034614Y017115D01*
X033364Y015865D01*
X031364Y015865D01*
X030864Y015365D01*
X038864Y011865D02*
X041364Y011865D01*
X041364Y015099D01*
X041380Y015115D01*
X041364Y015130D01*
X041364Y016865D01*
X043114Y018615D01*
X043059Y018615D01*
X041364Y011865D02*
X042364Y010865D01*
X042364Y006365D01*
X043864Y004865D01*
X044414Y004865D01*
X041364Y031865D02*
X041364Y032115D01*
X039364Y034115D01*
D29*
X037963Y033467D02*
X037864Y033467D01*
X038364Y032615D02*
X038864Y032115D01*
X038864Y031615D01*
X040364Y030115D01*
X040364Y029865D01*
X039364Y029865D02*
X039364Y030365D01*
X038614Y031115D01*
X038614Y031865D01*
X038114Y032365D01*
X028065Y032365D01*
X026963Y033467D01*
X027963Y033467D02*
X028815Y032615D01*
X038364Y032615D01*
X037864Y032115D02*
X038364Y031615D01*
X038364Y029865D01*
X039864Y031615D02*
X041364Y030115D01*
X041364Y029865D01*
X042614Y028865D02*
X043614Y029865D01*
X044214Y029865D01*
X044114Y028865D02*
X043114Y028865D01*
X042864Y028615D01*
X030114Y028615D01*
X029364Y029365D01*
X029364Y029865D01*
X028364Y029865D02*
X028364Y029365D01*
X029364Y028365D01*
X042864Y028365D01*
X043364Y027865D01*
X044214Y027865D01*
X044114Y026865D02*
X043864Y026865D01*
X042614Y028115D01*
X028614Y028115D01*
X027364Y029365D01*
X027364Y029865D01*
X027364Y031365D02*
X027065Y031365D01*
X024963Y033467D01*
X025864Y033369D02*
X025864Y033365D01*
X027114Y032115D01*
X037864Y032115D01*
X039364Y032865D02*
X039864Y032365D01*
X039864Y031615D01*
X039364Y032865D02*
X029565Y032865D01*
X028963Y033467D01*
X025963Y033467D02*
X025864Y033369D01*
X023364Y029865D02*
X025364Y027865D01*
X041364Y027865D01*
X041864Y027365D01*
X042614Y028865D02*
X030864Y028865D01*
X030364Y029365D01*
X030364Y029865D01*
X034114Y027365D02*
X034364Y027115D01*
X034114Y027365D02*
X022364Y027365D01*
X018114Y023115D01*
X020614Y022365D02*
X023864Y025615D01*
X038114Y025615D01*
X038364Y025865D01*
X039364Y025865D02*
X037614Y027615D01*
X021864Y027615D01*
X020114Y029365D01*
X016114Y029365D02*
X016114Y028115D01*
X015114Y028115D02*
X014114Y027115D01*
X014114Y026615D01*
X014114Y026115D01*
X013114Y025115D01*
X010864Y025115D01*
X013114Y026615D02*
X013114Y027115D01*
X012114Y028115D01*
X013114Y029115D01*
X013114Y030365D01*
X010864Y028115D02*
X009364Y028115D01*
X008114Y029365D01*
X005880Y028120D02*
X005864Y028105D01*
X005864Y023865D01*
X005114Y023115D01*
X005114Y022115D01*
X005614Y021615D01*
X023614Y021615D01*
X025364Y023365D01*
X025364Y023865D01*
X025864Y023365D02*
X025864Y024365D01*
X026864Y025365D01*
X043364Y025365D01*
X043864Y025865D01*
X044214Y025865D01*
X043364Y025115D02*
X043614Y024865D01*
X044114Y024865D01*
X043364Y025115D02*
X027864Y025115D01*
X026364Y023865D01*
X025864Y023365D02*
X026364Y022865D01*
X026864Y022865D01*
X027364Y023365D01*
X027364Y023865D01*
X028364Y023865D02*
X025864Y021365D01*
X025864Y018615D01*
X026364Y018115D01*
X026864Y018615D02*
X027864Y018615D01*
X029864Y020615D01*
X029864Y023365D01*
X030364Y023865D01*
X029364Y023865D02*
X029364Y021115D01*
X027364Y019115D01*
X026864Y018615D02*
X026364Y019115D01*
X025364Y019115D02*
X024614Y018365D01*
X024614Y016365D01*
X025364Y015615D01*
X026364Y015715D02*
X026364Y015865D01*
X031364Y020865D01*
X033864Y020865D01*
X034864Y021865D01*
X034864Y024365D01*
X035364Y024865D01*
X036864Y024865D01*
X037364Y024365D01*
X037364Y023865D01*
X036364Y023865D02*
X036364Y021615D01*
X035364Y020615D01*
X031614Y020615D01*
X027364Y016365D01*
X027364Y015615D01*
X026864Y013365D02*
X027864Y012365D01*
X034614Y012365D01*
X035114Y012865D01*
X035114Y013306D01*
X035673Y013865D01*
X035864Y013865D01*
X035864Y012865D02*
X035114Y012115D01*
X027114Y012115D01*
X025864Y013365D01*
X024864Y013365D02*
X026364Y011865D01*
X035864Y011865D01*
X035114Y011365D02*
X036864Y011365D01*
X038364Y012865D01*
X038864Y012865D01*
X039364Y012865D01*
X039864Y013365D01*
X039864Y016365D01*
X038864Y016865D02*
X038364Y016865D01*
X037614Y016115D01*
X037614Y015115D01*
X036864Y014365D01*
X035864Y014865D02*
X035364Y014865D01*
X034864Y014365D01*
X034864Y013115D01*
X034364Y012615D01*
X028614Y012615D01*
X027864Y013365D01*
X027864Y010365D02*
X028364Y009865D01*
X029864Y009865D01*
X030364Y009365D01*
X031364Y010365D02*
X032364Y009365D01*
X033364Y009365D01*
X033614Y009865D02*
X032864Y009865D01*
X032364Y010365D01*
X033364Y010365D02*
X033614Y010365D01*
X034114Y009865D01*
X039364Y009865D01*
X039864Y009365D01*
X041114Y010115D02*
X041864Y009365D01*
X041114Y010115D02*
X034614Y010115D01*
X034364Y010365D01*
X033614Y009865D02*
X034114Y009365D01*
X037864Y009365D01*
X035114Y011365D02*
X034864Y011615D01*
X018614Y011615D01*
X017364Y012865D01*
X016864Y012865D01*
X016364Y013365D02*
X013864Y015865D01*
X013864Y016865D02*
X016364Y014365D01*
X018114Y014365D01*
X019114Y013365D01*
X019864Y013365D02*
X020114Y013365D01*
X019864Y013365D02*
X017864Y015365D01*
X016364Y015365D01*
X013864Y017865D01*
X016864Y016865D02*
X019864Y013865D01*
X020614Y013865D01*
X021114Y013365D01*
X018114Y013365D02*
X016364Y013365D01*
X018114Y010365D02*
X017614Y009865D01*
X014364Y009865D01*
X013864Y009365D01*
X010364Y007365D02*
X012114Y005615D01*
X033344Y005615D01*
X034344Y006615D01*
X034344Y007075D01*
X039594Y005365D02*
X040844Y006615D01*
X040844Y007075D01*
X040844Y006615D02*
X040844Y002155D01*
X044364Y004815D02*
X044414Y004865D01*
X039594Y005365D02*
X011864Y005365D01*
X010864Y006365D01*
X010114Y006365D01*
X010114Y005365D02*
X011364Y005365D01*
X011614Y005115D01*
X018844Y005115D01*
X021344Y002615D01*
X021344Y002155D01*
X027094Y005865D02*
X027844Y006615D01*
X027844Y007075D01*
X027094Y005865D02*
X012614Y005865D01*
X010114Y008365D01*
X010114Y007365D02*
X010364Y007365D01*
X008114Y006115D02*
X009364Y004865D01*
X014344Y004865D01*
X014844Y004365D01*
X014844Y002155D01*
X008114Y006115D02*
X008114Y008865D01*
X007614Y009365D01*
X007114Y009365D01*
X006114Y007865D02*
X006614Y007365D01*
X007114Y007365D01*
X006114Y007865D02*
X006114Y018115D01*
X008614Y020615D01*
X008146Y022115D02*
X022114Y022115D01*
X023364Y023365D01*
X023364Y023865D01*
X024364Y023865D02*
X024364Y023365D01*
X022864Y021865D01*
X006364Y021865D01*
X005864Y022365D01*
X005864Y022396D01*
X005880Y022412D01*
X007848Y022412D02*
X008146Y022115D01*
X013114Y023115D02*
X013864Y022365D01*
X020614Y022365D01*
X027614Y021865D02*
X028864Y023115D01*
X028864Y024365D01*
X029364Y024865D01*
X030864Y024865D01*
X031364Y024365D01*
X031364Y023865D01*
X033914Y021915D02*
X033914Y021865D01*
X033414Y021365D01*
X031864Y021365D01*
X033914Y021915D02*
X034364Y022365D01*
X034364Y023865D01*
X035364Y023865D02*
X035364Y022365D01*
X035814Y021915D01*
X035814Y021865D01*
X040364Y023365D02*
X040364Y023865D01*
X040364Y023365D02*
X042864Y020865D01*
X044114Y020865D01*
X044214Y021865D02*
X042864Y021865D01*
X041364Y023365D01*
X041364Y023865D01*
X042364Y023865D02*
X042364Y023365D01*
X042864Y022865D01*
X044114Y022865D01*
X036864Y017365D02*
X036364Y017865D01*
X035864Y017865D01*
X036864Y017365D02*
X036864Y015865D01*
X036364Y015365D01*
X035364Y015365D01*
X033364Y013365D01*
X032364Y013365D02*
X035864Y016865D01*
X027614Y009615D02*
X026864Y010365D01*
X025864Y010365D02*
X025864Y009865D01*
X026364Y009365D01*
X027614Y009615D02*
X028114Y009615D01*
X028364Y009365D01*
X024864Y009865D02*
X024864Y010365D01*
X024864Y009865D02*
X024364Y009365D01*
X021864Y009365D02*
X021114Y010115D01*
X021114Y010365D01*
X020114Y010365D02*
X020114Y009615D01*
X019864Y009365D01*
X019114Y010365D02*
X018614Y009865D01*
X018364Y009865D01*
X017864Y009365D01*
X013114Y023115D02*
X013114Y023615D01*
D30*
X018114Y023115D03*
X008614Y020615D03*
X034364Y027115D03*
X038364Y025865D03*
X039364Y025865D03*
X041864Y027365D03*
X039864Y016365D03*
X036864Y014365D03*
M02*
