<?xml version="1.0" encoding="UTF-8" standalone="no"?>
<!-- Created with Inkscape (http://www.inkscape.org/) -->

<svg
   xmlns:dc="http://purl.org/dc/elements/1.1/"
   xmlns:cc="http://creativecommons.org/ns#"
   xmlns:rdf="http://www.w3.org/1999/02/22-rdf-syntax-ns#"
   xmlns:svg="http://www.w3.org/2000/svg"
   xmlns="http://www.w3.org/2000/svg"
   xmlns:sodipodi="http://sodipodi.sourceforge.net/DTD/sodipodi-0.dtd"
   xmlns:inkscape="http://www.inkscape.org/namespaces/inkscape"
   width="744.09448819"
   height="1052.3622047"
   id="svg2"
   version="1.1"
   inkscape:version="0.47 r22583"
   sodipodi:docname="shruthi_polychain.svg"
   inkscape:export-filename="/Users/olivier/shruthi-top.png"
   inkscape:export-xdpi="151.37976"
   inkscape:export-ydpi="151.37976">
  <defs
     id="defs4">
    <inkscape:perspective
       sodipodi:type="inkscape:persp3d"
       inkscape:vp_x="0 : 526.18109 : 1"
       inkscape:vp_y="0 : 1000 : 0"
       inkscape:vp_z="744.09448 : 526.18109 : 1"
       inkscape:persp3d-origin="372.04724 : 350.78739 : 1"
       id="perspective10" />
    <inkscape:perspective
       id="perspective3043"
       inkscape:persp3d-origin="0.5 : 0.33333333 : 1"
       inkscape:vp_z="1 : 0.5 : 1"
       inkscape:vp_y="0 : 1000 : 0"
       inkscape:vp_x="0 : 0.5 : 1"
       sodipodi:type="inkscape:persp3d" />
    <inkscape:perspective
       id="perspective3071"
       inkscape:persp3d-origin="0.5 : 0.33333333 : 1"
       inkscape:vp_z="1 : 0.5 : 1"
       inkscape:vp_y="0 : 1000 : 0"
       inkscape:vp_x="0 : 0.5 : 1"
       sodipodi:type="inkscape:persp3d" />
    <inkscape:perspective
       id="perspective3909"
       inkscape:persp3d-origin="0.5 : 0.33333333 : 1"
       inkscape:vp_z="1 : 0.5 : 1"
       inkscape:vp_y="0 : 1000 : 0"
       inkscape:vp_x="0 : 0.5 : 1"
       sodipodi:type="inkscape:persp3d" />
    <inkscape:perspective
       id="perspective3923"
       inkscape:persp3d-origin="0.5 : 0.33333333 : 1"
       inkscape:vp_z="1 : 0.5 : 1"
       inkscape:vp_y="0 : 1000 : 0"
       inkscape:vp_x="0 : 0.5 : 1"
       sodipodi:type="inkscape:persp3d" />
    <inkscape:perspective
       id="perspective3937"
       inkscape:persp3d-origin="0.5 : 0.33333333 : 1"
       inkscape:vp_z="1 : 0.5 : 1"
       inkscape:vp_y="0 : 1000 : 0"
       inkscape:vp_x="0 : 0.5 : 1"
       sodipodi:type="inkscape:persp3d" />
    <inkscape:perspective
       id="perspective3999"
       inkscape:persp3d-origin="0.5 : 0.33333333 : 1"
       inkscape:vp_z="1 : 0.5 : 1"
       inkscape:vp_y="0 : 1000 : 0"
       inkscape:vp_x="0 : 0.5 : 1"
       sodipodi:type="inkscape:persp3d" />
  </defs>
  <sodipodi:namedview
     id="base"
     pagecolor="#ffffff"
     bordercolor="#666666"
     borderopacity="1.0"
     inkscape:pageopacity="0.0"
     inkscape:pageshadow="2"
     inkscape:zoom="1"
     inkscape:cx="252.32162"
     inkscape:cy="963.98617"
     inkscape:document-units="mm"
     inkscape:current-layer="layer1"
     showgrid="false"
     inkscape:snap-global="true"
     inkscape:snap-nodes="true"
     inkscape:snap-bbox="false"
     inkscape:window-width="1852"
     inkscape:window-height="1156"
     inkscape:window-x="68"
     inkscape:window-y="0"
     inkscape:window-maximized="0"
     inkscape:snap-grids="true">
    <inkscape:grid
       type="xygrid"
       id="grid2816"
       empspacing="5"
       visible="true"
       enabled="true"
       snapvisiblegridlinesonly="true" />
  </sodipodi:namedview>
  <metadata
     id="metadata7">
    <rdf:RDF>
      <cc:Work
         rdf:about="">
        <dc:format>image/svg+xml</dc:format>
        <dc:type
           rdf:resource="http://purl.org/dc/dcmitype/StillImage" />
        <dc:title></dc:title>
      </cc:Work>
    </rdf:RDF>
  </metadata>
  <g
     inkscape:groupmode="layer"
     id="layer2"
     inkscape:label="Background"
     style="display:inline" />
  <g
     inkscape:label="Layer 1"
     inkscape:groupmode="layer"
     id="layer1"
     style="display:inline">
    <rect
       style="fill:#dbd4cd;fill-opacity:1;stroke:#000000;stroke-width:0.5945946;stroke-opacity:1"
       id="rect3079"
       width="240.81081"
       height="175.40541"
       x="18.797297"
       y="22.159479" />
    <path
       sodipodi:type="arc"
       style="fill:#ffa614;fill-opacity:1;stroke:#000000;stroke-opacity:1"
       id="path3949"
       sodipodi:cx="60"
       sodipodi:cy="247.36218"
       sodipodi:rx="5"
       sodipodi:ry="5"
       d="m 65,247.36218 a 5,5 0 1 1 -10,0 5,5 0 1 1 10,0 z"
       transform="matrix(0.59459459,0,0,0.59459459,9.8783784,11.241425)" />
    <path
       transform="matrix(0.59459459,0,0,0.59459459,26.527027,11.83602)"
       d="m 65,247.36218 a 5,5 0 1 1 -10,0 5,5 0 1 1 10,0 z"
       sodipodi:ry="5"
       sodipodi:rx="5"
       sodipodi:cy="247.36218"
       sodipodi:cx="60"
       id="path4238"
       style="fill:#ffa614;fill-opacity:1;stroke:#000000;stroke-opacity:1"
       sodipodi:type="arc" />
    <path
       sodipodi:type="arc"
       style="fill:#ffa614;fill-opacity:1;stroke:#000000;stroke-opacity:1"
       id="path4240"
       sodipodi:cx="60"
       sodipodi:cy="247.36218"
       sodipodi:rx="5"
       sodipodi:ry="5"
       d="m 65,247.36218 a 5,5 0 1 1 -10,0 5,5 0 1 1 10,0 z"
       transform="matrix(0.59459459,0,0,0.59459459,46.743243,11.83602)" />
    <path
       transform="matrix(0.59459459,0,0,0.59459459,66.959459,11.83602)"
       d="m 65,247.36218 a 5,5 0 1 1 -10,0 5,5 0 1 1 10,0 z"
       sodipodi:ry="5"
       sodipodi:rx="5"
       sodipodi:cy="247.36218"
       sodipodi:cx="60"
       id="path4242"
       style="fill:#ffa614;fill-opacity:1;stroke:#000000;stroke-opacity:1"
       sodipodi:type="arc" />
    <path
       sodipodi:type="arc"
       style="fill:#ffa614;fill-opacity:1;stroke:#000000;stroke-opacity:1"
       id="path4244"
       sodipodi:cx="60"
       sodipodi:cy="247.36218"
       sodipodi:rx="5"
       sodipodi:ry="5"
       d="m 65,247.36218 a 5,5 0 1 1 -10,0 5,5 0 1 1 10,0 z"
       transform="matrix(0.59459459,0,0,0.59459459,82.418919,11.83602)" />
    <path
       transform="matrix(0.59459459,0,0,0.59459459,103.82432,11.83602)"
       d="m 65,247.36218 a 5,5 0 1 1 -10,0 5,5 0 1 1 10,0 z"
       sodipodi:ry="5"
       sodipodi:rx="5"
       sodipodi:cy="247.36218"
       sodipodi:cx="60"
       id="path4246"
       style="fill:#ffa614;fill-opacity:1;stroke:#000000;stroke-opacity:1"
       sodipodi:type="arc" />
    <path
       sodipodi:type="arc"
       style="fill:#91ff14;fill-opacity:1;stroke:#000000;stroke-opacity:1"
       id="path4248"
       sodipodi:cx="60"
       sodipodi:cy="247.36218"
       sodipodi:rx="5"
       sodipodi:ry="5"
       d="m 65,247.36218 a 5,5 0 1 1 -10,0 5,5 0 1 1 10,0 z"
       transform="matrix(0.59459459,0,0,0.59459459,131.17568,11.83602)" />
    <path
       transform="matrix(0.59459459,0,0,0.59459459,159.71622,11.83602)"
       d="m 65,247.36218 a 5,5 0 1 1 -10,0 5,5 0 1 1 10,0 z"
       sodipodi:ry="5"
       sodipodi:rx="5"
       sodipodi:cy="247.36218"
       sodipodi:cx="60"
       id="path4250"
       style="fill:#91ff14;fill-opacity:1;stroke:#000000;stroke-opacity:1"
       sodipodi:type="arc" />
    <rect
       style="fill:#000000;fill-opacity:1;stroke:#000000;stroke-width:0.5945946;stroke-opacity:1"
       id="rect4252"
       width="23.783783"
       height="7.927928"
       x="41.986488"
       y="174.97029" />
    <rect
       y="174.97029"
       x="69.337837"
       height="7.927928"
       width="23.783783"
       id="rect4254"
       style="fill:#000000;fill-opacity:1;stroke:#000000;stroke-width:0.5945946;stroke-opacity:1" />
    <rect
       style="fill:#000000;fill-opacity:1;stroke:#000000;stroke-width:0.5945946;stroke-opacity:1"
       id="rect4256"
       width="23.783783"
       height="7.927928"
       x="97.87838"
       y="174.97029" />
    <rect
       y="174.97029"
       x="126.41892"
       height="7.927928"
       width="23.783783"
       id="rect4258"
       style="fill:#000000;fill-opacity:1;stroke:#000000;stroke-width:0.5945946;stroke-opacity:1" />
    <rect
       style="fill:#000000;fill-opacity:1;stroke:#000000;stroke-width:0.5945946;stroke-opacity:1"
       id="rect4260"
       width="23.783783"
       height="7.927928"
       x="154.95946"
       y="174.97029" />
    <rect
       y="174.97029"
       x="183.5"
       height="7.927928"
       width="23.783783"
       id="rect4262"
       style="fill:#fe0000;fill-opacity:1;stroke:#000000;stroke-width:0.5945946;stroke-opacity:1" />
    <rect
       style="fill:none;stroke:#000000;stroke-width:0.5945946;stroke-opacity:1"
       id="rect4266"
       width="142.7027"
       height="53.513512"
       x="55.067566"
       y="34.051373" />
    <path
       sodipodi:type="star"
       style="fill:none;stroke:#000000;stroke-width:0.99921262;stroke-miterlimit:4;stroke-opacity:1;stroke-dasharray:none"
       id="path4274"
       sodipodi:sides="18"
       sodipodi:cx="365"
       sodipodi:cy="97.362183"
       sodipodi:r1="14.142136"
       sodipodi:r2="12.727922"
       sodipodi:arg1="0.78539816"
       sodipodi:arg2="0.95993109"
       inkscape:flatsided="false"
       inkscape:rounded="0.5"
       inkscape:randomized="0"
       d="m 375,107.36218 c -0.96626,0.96626 -1.5802,-0.35768 -2.69956,0.42611 -1.11937,0.78378 -0.0852,1.81352 -1.32372,2.39102 -1.23846,0.5775 -1.36256,-0.87657 -2.68249,-0.5229 -1.31993,0.35368 -0.70037,1.675 -2.06166,1.79409 -1.36129,0.1191 -0.98059,-1.28973 -2.34188,-1.40883 -1.36129,-0.1191 -1.23101,1.33444 -2.55094,0.98077 -1.31993,-0.35368 -0.48034,-1.54734 -1.7188,-2.12484 -1.23847,-0.57751 -1.61318,0.83293 -2.73255,0.0491 -1.11936,-0.78379 0.0779,-1.6183 -0.8884,-2.58456 -0.96626,-0.96625 -1.80077,0.23096 -2.58456,-0.8884 -0.78379,-1.11937 0.62665,-1.49408 0.0491,-2.73254 -0.5775,-1.23847 -1.77116,-0.39887 -2.12483,-1.7188 -0.35368,-1.319934 1.09986,-1.189653 0.98076,-2.550946 -0.1191,-1.361293 -1.52793,-0.980587 -1.40883,-2.34188 0.1191,-1.361292 1.44042,-0.74173 1.79409,-2.06166 0.35368,-1.319931 -1.1004,-1.444033 -0.5229,-2.682496 0.57751,-1.238463 1.60724,-0.204347 2.39103,-1.323712 0.78378,-1.119365 -0.54016,-1.733307 0.4261,-2.699563 0.96626,-0.966257 1.5802,0.357684 2.69956,-0.426104 1.11937,-0.783788 0.0852,-1.813519 1.32372,-2.391024 1.23846,-0.577505 1.36256,0.876573 2.68249,0.522899 1.31993,-0.353675 0.70037,-1.674994 2.06166,-1.794092 1.36129,-0.119098 0.98059,1.289734 2.34188,1.408832 1.36129,0.119097 1.23101,-1.33444 2.55094,-0.980765 1.31993,0.353674 0.48034,1.547334 1.7188,2.124838 1.23847,0.577505 1.61318,-0.832932 2.73255,-0.04914 1.11936,0.783788 -0.0779,1.618303 0.8884,2.584559 0.96626,0.966257 1.80077,-0.23096 2.58456,0.888405 0.78379,1.119365 -0.62665,1.49408 -0.0491,2.732543 0.5775,1.238463 1.77116,0.398868 2.12483,1.718799 0.35368,1.31993 -1.09986,1.189649 -0.98076,2.550942 0.1191,1.361293 1.52793,0.980587 1.40883,2.34188 -0.1191,1.361293 -1.44042,0.74173 -1.79409,2.061659 -0.35368,1.31993 1.1004,1.44403 0.5229,2.6825 -0.57751,1.23846 -1.60724,0.20434 -2.39103,1.32371 -0.78378,1.11936 0.54016,1.73331 -0.4261,2.69956 z"
       transform="matrix(0.6943065,0,0,0.6943065,-28.894837,-0.84511953)" />
    <path
       transform="matrix(0.6943065,0,0,0.6943065,-208.98661,50.089682)"
       d="m 375,107.36218 c -0.96626,0.96626 -1.5802,-0.35768 -2.69956,0.42611 -1.11937,0.78378 -0.0852,1.81352 -1.32372,2.39102 -1.23846,0.5775 -1.36256,-0.87657 -2.68249,-0.5229 -1.31993,0.35368 -0.70037,1.675 -2.06166,1.79409 -1.36129,0.1191 -0.98059,-1.28973 -2.34188,-1.40883 -1.36129,-0.1191 -1.23101,1.33444 -2.55094,0.98077 -1.31993,-0.35368 -0.48034,-1.54734 -1.7188,-2.12484 -1.23847,-0.57751 -1.61318,0.83293 -2.73255,0.0491 -1.11936,-0.78379 0.0779,-1.6183 -0.8884,-2.58456 -0.96626,-0.96625 -1.80077,0.23096 -2.58456,-0.8884 -0.78379,-1.11937 0.62665,-1.49408 0.0491,-2.73254 -0.5775,-1.23847 -1.77116,-0.39887 -2.12483,-1.7188 -0.35368,-1.319934 1.09986,-1.189653 0.98076,-2.550946 -0.1191,-1.361293 -1.52793,-0.980587 -1.40883,-2.34188 0.1191,-1.361292 1.44042,-0.74173 1.79409,-2.06166 0.35368,-1.319931 -1.1004,-1.444033 -0.5229,-2.682496 0.57751,-1.238463 1.60724,-0.204347 2.39103,-1.323712 0.78378,-1.119365 -0.54016,-1.733307 0.4261,-2.699563 0.96626,-0.966257 1.5802,0.357684 2.69956,-0.426104 1.11937,-0.783788 0.0852,-1.813519 1.32372,-2.391024 1.23846,-0.577505 1.36256,0.876573 2.68249,0.522899 1.31993,-0.353675 0.70037,-1.674994 2.06166,-1.794092 1.36129,-0.119098 0.98059,1.289734 2.34188,1.408832 1.36129,0.119097 1.23101,-1.33444 2.55094,-0.980765 1.31993,0.353674 0.48034,1.547334 1.7188,2.124838 1.23847,0.577505 1.61318,-0.832932 2.73255,-0.04914 1.11936,0.783788 -0.0779,1.618303 0.8884,2.584559 0.96626,0.966257 1.80077,-0.23096 2.58456,0.888405 0.78379,1.119365 -0.62665,1.49408 -0.0491,2.732543 0.5775,1.238463 1.77116,0.398868 2.12483,1.718799 0.35368,1.31993 -1.09986,1.189649 -0.98076,2.550942 0.1191,1.361293 1.52793,0.980587 1.40883,2.34188 -0.1191,1.361293 -1.44042,0.74173 -1.79409,2.061659 -0.35368,1.31993 1.1004,1.44403 0.5229,2.6825 -0.57751,1.23846 -1.60724,0.20434 -2.39103,1.32371 -0.78378,1.11936 0.54016,1.73331 -0.4261,2.69956 z"
       inkscape:randomized="0"
       inkscape:rounded="0.5"
       inkscape:flatsided="false"
       sodipodi:arg2="0.95993109"
       sodipodi:arg1="0.78539816"
       sodipodi:r2="12.727922"
       sodipodi:r1="14.142136"
       sodipodi:cy="97.362183"
       sodipodi:cx="365"
       sodipodi:sides="18"
       id="path4323"
       style="fill:none;stroke:#000000;stroke-width:0.99921262;stroke-miterlimit:4;stroke-opacity:1;stroke-dasharray:none"
       sodipodi:type="star" />
    <path
       sodipodi:type="star"
       style="fill:none;stroke:#000000;stroke-width:0.99921262;stroke-miterlimit:4;stroke-opacity:1;stroke-dasharray:none"
       id="path4339"
       sodipodi:sides="18"
       sodipodi:cx="365"
       sodipodi:cy="97.362183"
       sodipodi:r1="14.142136"
       sodipodi:r2="12.727922"
       sodipodi:arg1="0.78539816"
       sodipodi:arg2="0.95993109"
       inkscape:flatsided="false"
       inkscape:rounded="0.5"
       inkscape:randomized="0"
       d="m 375,107.36218 c -0.96626,0.96626 -1.5802,-0.35768 -2.69956,0.42611 -1.11937,0.78378 -0.0852,1.81352 -1.32372,2.39102 -1.23846,0.5775 -1.36256,-0.87657 -2.68249,-0.5229 -1.31993,0.35368 -0.70037,1.675 -2.06166,1.79409 -1.36129,0.1191 -0.98059,-1.28973 -2.34188,-1.40883 -1.36129,-0.1191 -1.23101,1.33444 -2.55094,0.98077 -1.31993,-0.35368 -0.48034,-1.54734 -1.7188,-2.12484 -1.23847,-0.57751 -1.61318,0.83293 -2.73255,0.0491 -1.11936,-0.78379 0.0779,-1.6183 -0.8884,-2.58456 -0.96626,-0.96625 -1.80077,0.23096 -2.58456,-0.8884 -0.78379,-1.11937 0.62665,-1.49408 0.0491,-2.73254 -0.5775,-1.23847 -1.77116,-0.39887 -2.12483,-1.7188 -0.35368,-1.319934 1.09986,-1.189653 0.98076,-2.550946 -0.1191,-1.361293 -1.52793,-0.980587 -1.40883,-2.34188 0.1191,-1.361292 1.44042,-0.74173 1.79409,-2.06166 0.35368,-1.319931 -1.1004,-1.444033 -0.5229,-2.682496 0.57751,-1.238463 1.60724,-0.204347 2.39103,-1.323712 0.78378,-1.119365 -0.54016,-1.733307 0.4261,-2.699563 0.96626,-0.966257 1.5802,0.357684 2.69956,-0.426104 1.11937,-0.783788 0.0852,-1.813519 1.32372,-2.391024 1.23846,-0.577505 1.36256,0.876573 2.68249,0.522899 1.31993,-0.353675 0.70037,-1.674994 2.06166,-1.794092 1.36129,-0.119098 0.98059,1.289734 2.34188,1.408832 1.36129,0.119097 1.23101,-1.33444 2.55094,-0.980765 1.31993,0.353674 0.48034,1.547334 1.7188,2.124838 1.23847,0.577505 1.61318,-0.832932 2.73255,-0.04914 1.11936,0.783788 -0.0779,1.618303 0.8884,2.584559 0.96626,0.966257 1.80077,-0.23096 2.58456,0.888405 0.78379,1.119365 -0.62665,1.49408 -0.0491,2.732543 0.5775,1.238463 1.77116,0.398868 2.12483,1.718799 0.35368,1.31993 -1.09986,1.189649 -0.98076,2.550942 0.1191,1.361293 1.52793,0.980587 1.40883,2.34188 -0.1191,1.361293 -1.44042,0.74173 -1.79409,2.061659 -0.35368,1.31993 1.1004,1.44403 0.5229,2.6825 -0.57751,1.23846 -1.60724,0.20434 -2.39103,1.32371 -0.78378,1.11936 0.54016,1.73331 -0.4261,2.69956 z"
       transform="matrix(0.6943065,0,0,0.6943065,-156.66229,50.089682)" />
    <path
       transform="matrix(0.6943065,0,0,0.6943065,-103.14877,50.089682)"
       d="m 375,107.36218 c -0.96626,0.96626 -1.5802,-0.35768 -2.69956,0.42611 -1.11937,0.78378 -0.0852,1.81352 -1.32372,2.39102 -1.23846,0.5775 -1.36256,-0.87657 -2.68249,-0.5229 -1.31993,0.35368 -0.70037,1.675 -2.06166,1.79409 -1.36129,0.1191 -0.98059,-1.28973 -2.34188,-1.40883 -1.36129,-0.1191 -1.23101,1.33444 -2.55094,0.98077 -1.31993,-0.35368 -0.48034,-1.54734 -1.7188,-2.12484 -1.23847,-0.57751 -1.61318,0.83293 -2.73255,0.0491 -1.11936,-0.78379 0.0779,-1.6183 -0.8884,-2.58456 -0.96626,-0.96625 -1.80077,0.23096 -2.58456,-0.8884 -0.78379,-1.11937 0.62665,-1.49408 0.0491,-2.73254 -0.5775,-1.23847 -1.77116,-0.39887 -2.12483,-1.7188 -0.35368,-1.319934 1.09986,-1.189653 0.98076,-2.550946 -0.1191,-1.361293 -1.52793,-0.980587 -1.40883,-2.34188 0.1191,-1.361292 1.44042,-0.74173 1.79409,-2.06166 0.35368,-1.319931 -1.1004,-1.444033 -0.5229,-2.682496 0.57751,-1.238463 1.60724,-0.204347 2.39103,-1.323712 0.78378,-1.119365 -0.54016,-1.733307 0.4261,-2.699563 0.96626,-0.966257 1.5802,0.357684 2.69956,-0.426104 1.11937,-0.783788 0.0852,-1.813519 1.32372,-2.391024 1.23846,-0.577505 1.36256,0.876573 2.68249,0.522899 1.31993,-0.353675 0.70037,-1.674994 2.06166,-1.794092 1.36129,-0.119098 0.98059,1.289734 2.34188,1.408832 1.36129,0.119097 1.23101,-1.33444 2.55094,-0.980765 1.31993,0.353674 0.48034,1.547334 1.7188,2.124838 1.23847,0.577505 1.61318,-0.832932 2.73255,-0.04914 1.11936,0.783788 -0.0779,1.618303 0.8884,2.584559 0.96626,0.966257 1.80077,-0.23096 2.58456,0.888405 0.78379,1.119365 -0.62665,1.49408 -0.0491,2.732543 0.5775,1.238463 1.77116,0.398868 2.12483,1.718799 0.35368,1.31993 -1.09986,1.189649 -0.98076,2.550942 0.1191,1.361293 1.52793,0.980587 1.40883,2.34188 -0.1191,1.361293 -1.44042,0.74173 -1.79409,2.061659 -0.35368,1.31993 1.1004,1.44403 0.5229,2.6825 -0.57751,1.23846 -1.60724,0.20434 -2.39103,1.32371 -0.78378,1.11936 0.54016,1.73331 -0.4261,2.69956 z"
       inkscape:randomized="0"
       inkscape:rounded="0.5"
       inkscape:flatsided="false"
       sodipodi:arg2="0.95993109"
       sodipodi:arg1="0.78539816"
       sodipodi:r2="12.727922"
       sodipodi:r1="14.142136"
       sodipodi:cy="97.362183"
       sodipodi:cx="365"
       sodipodi:sides="18"
       id="path4349"
       style="fill:none;stroke:#000000;stroke-width:0.99921262;stroke-miterlimit:4;stroke-opacity:1;stroke-dasharray:none"
       sodipodi:type="star" />
    <path
       sodipodi:type="star"
       style="fill:none;stroke:#000000;stroke-width:0.99921262;stroke-miterlimit:4;stroke-opacity:1;stroke-dasharray:none"
       id="path4359"
       sodipodi:sides="18"
       sodipodi:cx="365"
       sodipodi:cy="97.362183"
       sodipodi:r1="14.142136"
       sodipodi:r2="12.727922"
       sodipodi:arg1="0.78539816"
       sodipodi:arg2="0.95993109"
       inkscape:flatsided="false"
       inkscape:rounded="0.5"
       inkscape:randomized="0"
       d="m 375,107.36218 c -0.96626,0.96626 -1.5802,-0.35768 -2.69956,0.42611 -1.11937,0.78378 -0.0852,1.81352 -1.32372,2.39102 -1.23846,0.5775 -1.36256,-0.87657 -2.68249,-0.5229 -1.31993,0.35368 -0.70037,1.675 -2.06166,1.79409 -1.36129,0.1191 -0.98059,-1.28973 -2.34188,-1.40883 -1.36129,-0.1191 -1.23101,1.33444 -2.55094,0.98077 -1.31993,-0.35368 -0.48034,-1.54734 -1.7188,-2.12484 -1.23847,-0.57751 -1.61318,0.83293 -2.73255,0.0491 -1.11936,-0.78379 0.0779,-1.6183 -0.8884,-2.58456 -0.96626,-0.96625 -1.80077,0.23096 -2.58456,-0.8884 -0.78379,-1.11937 0.62665,-1.49408 0.0491,-2.73254 -0.5775,-1.23847 -1.77116,-0.39887 -2.12483,-1.7188 -0.35368,-1.319934 1.09986,-1.189653 0.98076,-2.550946 -0.1191,-1.361293 -1.52793,-0.980587 -1.40883,-2.34188 0.1191,-1.361292 1.44042,-0.74173 1.79409,-2.06166 0.35368,-1.319931 -1.1004,-1.444033 -0.5229,-2.682496 0.57751,-1.238463 1.60724,-0.204347 2.39103,-1.323712 0.78378,-1.119365 -0.54016,-1.733307 0.4261,-2.699563 0.96626,-0.966257 1.5802,0.357684 2.69956,-0.426104 1.11937,-0.783788 0.0852,-1.813519 1.32372,-2.391024 1.23846,-0.577505 1.36256,0.876573 2.68249,0.522899 1.31993,-0.353675 0.70037,-1.674994 2.06166,-1.794092 1.36129,-0.119098 0.98059,1.289734 2.34188,1.408832 1.36129,0.119097 1.23101,-1.33444 2.55094,-0.980765 1.31993,0.353674 0.48034,1.547334 1.7188,2.124838 1.23847,0.577505 1.61318,-0.832932 2.73255,-0.04914 1.11936,0.783788 -0.0779,1.618303 0.8884,2.584559 0.96626,0.966257 1.80077,-0.23096 2.58456,0.888405 0.78379,1.119365 -0.62665,1.49408 -0.0491,2.732543 0.5775,1.238463 1.77116,0.398868 2.12483,1.718799 0.35368,1.31993 -1.09986,1.189649 -0.98076,2.550942 0.1191,1.361293 1.52793,0.980587 1.40883,2.34188 -0.1191,1.361293 -1.44042,0.74173 -1.79409,2.061659 -0.35368,1.31993 1.1004,1.44403 0.5229,2.6825 -0.57751,1.23846 -1.60724,0.20434 -2.39103,1.32371 -0.78378,1.11936 0.54016,1.73331 -0.4261,2.69956 z"
       transform="matrix(0.6943065,0,0,0.6943065,-47.256882,50.089682)" />
    <rect
       style="fill:#000000;fill-opacity:1;stroke:#000000;stroke-width:0.5945946;stroke-opacity:1"
       id="rect4366"
       width="130.81081"
       height="35.675674"
       x="61.013512"
       y="42.970291" />
    <text
       xml:space="preserve"
       style="font-size:12.59668827px;font-style:normal;font-weight:normal;fill:#ff0000;fill-opacity:1;stroke:none;font-family:Bitstream Vera Sans"
       x="65.770271"
       y="56.561501"
       id="text4368"><tspan
         sodipodi:role="line"
         id="tspan4372"
         style="font-size:12.59668827px;font-style:normal;font-variant:normal;font-weight:normal;font-stretch:normal;text-align:start;line-height:108.00000429%;writing-mode:lr-tb;text-anchor:start;fill:#ff0000;fill-opacity:1;font-family:Andale Mono;-inkscape-font-specification:Andale Mono"
         x="65.770271"
         y="56.561501">midi</tspan><tspan
         sodipodi:role="line"
         id="tspan4374"
         style="font-size:12.59668827px;font-style:normal;font-variant:normal;font-weight:normal;font-stretch:normal;text-align:start;line-height:108.00000429%;writing-mode:lr-tb;text-anchor:start;fill:#ff0000;fill-opacity:1;font-family:Andale Mono;-inkscape-font-specification:Andale Mono"
         x="65.770271"
         y="70.165924">midi out     3&gt;2</tspan></text>
    <path
       sodipodi:type="arc"
       style="fill:none;stroke:#000000;stroke-opacity:1;display:inline"
       id="path4268"
       sodipodi:cx="365"
       sodipodi:cy="97.362183"
       sodipodi:rx="20"
       sodipodi:ry="20"
       d="m 385,97.362183 a 20,20 0 1 1 -40,0 20,20 0 1 1 40,0 z"
       transform="matrix(0.74324324,0,0,0.74324324,-46.756757,-5.6097101)" />
    <path
       transform="matrix(0.36800872,0,0,0.36800872,90.203845,30.923942)"
       d="m 385,97.362183 a 20,20 0 1 1 -40,0 20,20 0 1 1 40,0 z"
       sodipodi:ry="20"
       sodipodi:rx="20"
       sodipodi:cy="97.362183"
       sodipodi:cx="365"
       id="path4276"
       style="fill:#2b2b2b;fill-opacity:1;stroke:#000000;stroke-opacity:1;display:inline"
       sodipodi:type="arc" />
    <path
       transform="matrix(0.74324324,0,0,0.74324324,-226.84853,45.325091)"
       d="m 385,97.362183 a 20,20 0 1 1 -40,0 20,20 0 1 1 40,0 z"
       sodipodi:ry="20"
       sodipodi:rx="20"
       sodipodi:cy="97.362183"
       sodipodi:cx="365"
       id="path4319"
       style="fill:none;stroke:#000000;stroke-opacity:1;display:inline"
       sodipodi:type="arc" />
    <path
       sodipodi:type="arc"
       style="fill:none;stroke:#000000;stroke-opacity:1;display:inline"
       id="path4321"
       sodipodi:cx="365"
       sodipodi:cy="97.362183"
       sodipodi:rx="20"
       sodipodi:ry="20"
       d="m 385,97.362183 a 20,20 0 1 1 -40,0 20,20 0 1 1 40,0 z"
       transform="matrix(0.36800872,0,0,0.36800872,-89.887935,81.858738)" />
    <rect
       style="fill:#000000;fill-opacity:1;stroke:#000000;stroke-width:0.50200361;stroke-miterlimit:4;stroke-opacity:1;stroke-dasharray:none;display:inline"
       id="rect4327"
       width="8.7555656"
       height="2.7948256"
       x="34.169106"
       y="116.35642" />
    <path
       sodipodi:type="arc"
       style="fill:#000000;fill-opacity:1;stroke:none;display:inline"
       id="path4329"
       sodipodi:cx="382.51749"
       sodipodi:cy="179.98456"
       sodipodi:rx="4.1958041"
       sodipodi:ry="4.1958041"
       d="m 386.71329,179.98456 a 4.1958041,4.1958041 0 1 1 -8.39161,0 4.1958041,4.1958041 0 1 1 8.39161,0 z"
       transform="matrix(0.59459459,0,0,0.59459459,-183.10893,10.632045)" />
    <path
       sodipodi:type="arc"
       style="fill:none;stroke:#000000;stroke-opacity:1;display:inline"
       id="path4331"
       sodipodi:cx="365"
       sodipodi:cy="97.362183"
       sodipodi:rx="20"
       sodipodi:ry="20"
       d="m 385,97.362183 a 20,20 0 1 1 -40,0 20,20 0 1 1 40,0 z"
       transform="matrix(0.74324324,0,0,0.74324324,-174.52421,45.325091)" />
    <path
       transform="matrix(0.36800872,0,0,0.36800872,-37.563611,81.858738)"
       d="m 385,97.362183 a 20,20 0 1 1 -40,0 20,20 0 1 1 40,0 z"
       sodipodi:ry="20"
       sodipodi:rx="20"
       sodipodi:cy="97.362183"
       sodipodi:cx="365"
       id="path4333"
       style="fill:none;stroke:#000000;stroke-opacity:1;display:inline"
       sodipodi:type="arc" />
    <rect
       y="116.35642"
       x="86.493423"
       height="2.7948256"
       width="8.7555656"
       id="rect4335"
       style="fill:#000000;fill-opacity:1;stroke:#000000;stroke-width:0.50200361;stroke-miterlimit:4;stroke-opacity:1;stroke-dasharray:none;display:inline" />
    <path
       transform="matrix(0.59459459,0,0,0.59459459,-130.7846,10.632045)"
       d="m 386.71329,179.98456 a 4.1958041,4.1958041 0 1 1 -8.39161,0 4.1958041,4.1958041 0 1 1 8.39161,0 z"
       sodipodi:ry="4.1958041"
       sodipodi:rx="4.1958041"
       sodipodi:cy="179.98456"
       sodipodi:cx="382.51749"
       id="path4337"
       style="fill:#000000;fill-opacity:1;stroke:none;display:inline"
       sodipodi:type="arc" />
    <path
       transform="matrix(0.74324324,0,0,0.74324324,-121.01069,45.325091)"
       d="m 385,97.362183 a 20,20 0 1 1 -40,0 20,20 0 1 1 40,0 z"
       sodipodi:ry="20"
       sodipodi:rx="20"
       sodipodi:cy="97.362183"
       sodipodi:cx="365"
       id="path4341"
       style="fill:none;stroke:#000000;stroke-opacity:1;display:inline"
       sodipodi:type="arc" />
    <path
       sodipodi:type="arc"
       style="fill:none;stroke:#000000;stroke-opacity:1;display:inline"
       id="path4343"
       sodipodi:cx="365"
       sodipodi:cy="97.362183"
       sodipodi:rx="20"
       sodipodi:ry="20"
       d="m 385,97.362183 a 20,20 0 1 1 -40,0 20,20 0 1 1 40,0 z"
       transform="matrix(0.36800872,0,0,0.36800872,15.949903,81.858738)" />
    <rect
       style="fill:#000000;fill-opacity:1;stroke:#000000;stroke-width:0.50200361;stroke-miterlimit:4;stroke-opacity:1;stroke-dasharray:none;display:inline"
       id="rect4345"
       width="8.7555656"
       height="2.7948256"
       x="140.00693"
       y="116.35642" />
    <path
       sodipodi:type="arc"
       style="fill:#000000;fill-opacity:1;stroke:none;display:inline"
       id="path4347"
       sodipodi:cx="382.51749"
       sodipodi:cy="179.98456"
       sodipodi:rx="4.1958041"
       sodipodi:ry="4.1958041"
       d="m 386.71329,179.98456 a 4.1958041,4.1958041 0 1 1 -8.39161,0 4.1958041,4.1958041 0 1 1 8.39161,0 z"
       transform="matrix(0.59459459,0,0,0.59459459,-77.27109,10.632045)" />
    <path
       sodipodi:type="arc"
       style="fill:none;stroke:#000000;stroke-opacity:1;display:inline"
       id="path4351"
       sodipodi:cx="365"
       sodipodi:cy="97.362183"
       sodipodi:rx="20"
       sodipodi:ry="20"
       d="m 385,97.362183 a 20,20 0 1 1 -40,0 20,20 0 1 1 40,0 z"
       transform="matrix(0.74324324,0,0,0.74324324,-65.118801,45.325091)" />
    <path
       transform="matrix(0.36800872,0,0,0.36800872,71.841795,81.858738)"
       d="m 385,97.362183 a 20,20 0 1 1 -40,0 20,20 0 1 1 40,0 z"
       sodipodi:ry="20"
       sodipodi:rx="20"
       sodipodi:cy="97.362183"
       sodipodi:cx="365"
       id="path4353"
       style="fill:none;stroke:#000000;stroke-opacity:1;display:inline"
       sodipodi:type="arc" />
    <rect
       y="116.35642"
       x="195.89882"
       height="2.7948256"
       width="8.7555656"
       id="rect4355"
       style="fill:#000000;fill-opacity:1;stroke:#000000;stroke-width:0.50200361;stroke-miterlimit:4;stroke-opacity:1;stroke-dasharray:none;display:inline" />
    <path
       transform="matrix(0.59459459,0,0,0.59459459,-21.379198,10.632045)"
       d="m 386.71329,179.98456 a 4.1958041,4.1958041 0 1 1 -8.39161,0 4.1958041,4.1958041 0 1 1 8.39161,0 z"
       sodipodi:ry="4.1958041"
       sodipodi:rx="4.1958041"
       sodipodi:cy="179.98456"
       sodipodi:cx="382.51749"
       id="path4357"
       style="fill:#000000;fill-opacity:1;stroke:none;display:inline"
       sodipodi:type="arc" />
    <rect
       y="22.159479"
       x="284.7973"
       height="175.40541"
       width="240.81081"
       id="rect7251"
       style="fill:#dbd4cd;fill-opacity:1;stroke:#000000;stroke-width:0.5945946;stroke-opacity:1" />
    <path
       transform="matrix(0.59459459,0,0,0.59459459,275.87838,11.241425)"
       d="m 65,247.36218 a 5,5 0 1 1 -10,0 5,5 0 1 1 10,0 z"
       sodipodi:ry="5"
       sodipodi:rx="5"
       sodipodi:cy="247.36218"
       sodipodi:cx="60"
       id="path7253"
       style="fill:#ffa614;fill-opacity:1;stroke:#000000;stroke-opacity:1"
       sodipodi:type="arc" />
    <path
       sodipodi:type="arc"
       style="fill:#ffa614;fill-opacity:1;stroke:#000000;stroke-opacity:1"
       id="path7255"
       sodipodi:cx="60"
       sodipodi:cy="247.36218"
       sodipodi:rx="5"
       sodipodi:ry="5"
       d="m 65,247.36218 a 5,5 0 1 1 -10,0 5,5 0 1 1 10,0 z"
       transform="matrix(0.59459459,0,0,0.59459459,292.52703,11.83602)" />
    <path
       transform="matrix(0.59459459,0,0,0.59459459,312.74324,11.83602)"
       d="m 65,247.36218 a 5,5 0 1 1 -10,0 5,5 0 1 1 10,0 z"
       sodipodi:ry="5"
       sodipodi:rx="5"
       sodipodi:cy="247.36218"
       sodipodi:cx="60"
       id="path7257"
       style="fill:#ffa614;fill-opacity:1;stroke:#000000;stroke-opacity:1"
       sodipodi:type="arc" />
    <path
       sodipodi:type="arc"
       style="fill:#ffa614;fill-opacity:1;stroke:#000000;stroke-opacity:1"
       id="path7259"
       sodipodi:cx="60"
       sodipodi:cy="247.36218"
       sodipodi:rx="5"
       sodipodi:ry="5"
       d="m 65,247.36218 a 5,5 0 1 1 -10,0 5,5 0 1 1 10,0 z"
       transform="matrix(0.59459459,0,0,0.59459459,332.95946,11.83602)" />
    <path
       transform="matrix(0.59459459,0,0,0.59459459,348.41892,11.83602)"
       d="m 65,247.36218 a 5,5 0 1 1 -10,0 5,5 0 1 1 10,0 z"
       sodipodi:ry="5"
       sodipodi:rx="5"
       sodipodi:cy="247.36218"
       sodipodi:cx="60"
       id="path7261"
       style="fill:#ffa614;fill-opacity:1;stroke:#000000;stroke-opacity:1"
       sodipodi:type="arc" />
    <path
       sodipodi:type="arc"
       style="fill:#ffa614;fill-opacity:1;stroke:#000000;stroke-opacity:1"
       id="path7263"
       sodipodi:cx="60"
       sodipodi:cy="247.36218"
       sodipodi:rx="5"
       sodipodi:ry="5"
       d="m 65,247.36218 a 5,5 0 1 1 -10,0 5,5 0 1 1 10,0 z"
       transform="matrix(0.59459459,0,0,0.59459459,369.82432,11.83602)" />
    <path
       transform="matrix(0.59459459,0,0,0.59459459,397.17568,11.83602)"
       d="m 65,247.36218 a 5,5 0 1 1 -10,0 5,5 0 1 1 10,0 z"
       sodipodi:ry="5"
       sodipodi:rx="5"
       sodipodi:cy="247.36218"
       sodipodi:cx="60"
       id="path7265"
       style="fill:#91ff14;fill-opacity:1;stroke:#000000;stroke-opacity:1"
       sodipodi:type="arc" />
    <path
       sodipodi:type="arc"
       style="fill:#91ff14;fill-opacity:1;stroke:#000000;stroke-opacity:1"
       id="path7267"
       sodipodi:cx="60"
       sodipodi:cy="247.36218"
       sodipodi:rx="5"
       sodipodi:ry="5"
       d="m 65,247.36218 a 5,5 0 1 1 -10,0 5,5 0 1 1 10,0 z"
       transform="matrix(0.59459459,0,0,0.59459459,425.71622,11.83602)" />
    <rect
       y="174.97029"
       x="307.98648"
       height="7.927928"
       width="23.783783"
       id="rect7269"
       style="fill:#000000;fill-opacity:1;stroke:#000000;stroke-width:0.5945946;stroke-opacity:1" />
    <rect
       style="fill:#000000;fill-opacity:1;stroke:#000000;stroke-width:0.5945946;stroke-opacity:1"
       id="rect7271"
       width="23.783783"
       height="7.927928"
       x="335.33783"
       y="174.97029" />
    <rect
       y="174.97029"
       x="363.87839"
       height="7.927928"
       width="23.783783"
       id="rect7273"
       style="fill:#000000;fill-opacity:1;stroke:#000000;stroke-width:0.5945946;stroke-opacity:1" />
    <rect
       style="fill:#000000;fill-opacity:1;stroke:#000000;stroke-width:0.5945946;stroke-opacity:1"
       id="rect7275"
       width="23.783783"
       height="7.927928"
       x="392.41891"
       y="174.97029" />
    <rect
       y="174.97029"
       x="420.95947"
       height="7.927928"
       width="23.783783"
       id="rect7277"
       style="fill:#000000;fill-opacity:1;stroke:#000000;stroke-width:0.5945946;stroke-opacity:1" />
    <rect
       style="fill:#fe0000;fill-opacity:1;stroke:#000000;stroke-width:0.5945946;stroke-opacity:1"
       id="rect7279"
       width="23.783783"
       height="7.927928"
       x="449.5"
       y="174.97029" />
    <rect
       y="34.051373"
       x="321.06757"
       height="53.513512"
       width="142.7027"
       id="rect7281"
       style="fill:none;stroke:#000000;stroke-width:0.5945946;stroke-opacity:1" />
    <path
       transform="matrix(0.6943065,0,0,0.6943065,237.10516,-0.84511953)"
       d="m 375,107.36218 c -0.96626,0.96626 -1.5802,-0.35768 -2.69956,0.42611 -1.11937,0.78378 -0.0852,1.81352 -1.32372,2.39102 -1.23846,0.5775 -1.36256,-0.87657 -2.68249,-0.5229 -1.31993,0.35368 -0.70037,1.675 -2.06166,1.79409 -1.36129,0.1191 -0.98059,-1.28973 -2.34188,-1.40883 -1.36129,-0.1191 -1.23101,1.33444 -2.55094,0.98077 -1.31993,-0.35368 -0.48034,-1.54734 -1.7188,-2.12484 -1.23847,-0.57751 -1.61318,0.83293 -2.73255,0.0491 -1.11936,-0.78379 0.0779,-1.6183 -0.8884,-2.58456 -0.96626,-0.96625 -1.80077,0.23096 -2.58456,-0.8884 -0.78379,-1.11937 0.62665,-1.49408 0.0491,-2.73254 -0.5775,-1.23847 -1.77116,-0.39887 -2.12483,-1.7188 -0.35368,-1.319934 1.09986,-1.189653 0.98076,-2.550946 -0.1191,-1.361293 -1.52793,-0.980587 -1.40883,-2.34188 0.1191,-1.361292 1.44042,-0.74173 1.79409,-2.06166 0.35368,-1.319931 -1.1004,-1.444033 -0.5229,-2.682496 0.57751,-1.238463 1.60724,-0.204347 2.39103,-1.323712 0.78378,-1.119365 -0.54016,-1.733307 0.4261,-2.699563 0.96626,-0.966257 1.5802,0.357684 2.69956,-0.426104 1.11937,-0.783788 0.0852,-1.813519 1.32372,-2.391024 1.23846,-0.577505 1.36256,0.876573 2.68249,0.522899 1.31993,-0.353675 0.70037,-1.674994 2.06166,-1.794092 1.36129,-0.119098 0.98059,1.289734 2.34188,1.408832 1.36129,0.119097 1.23101,-1.33444 2.55094,-0.980765 1.31993,0.353674 0.48034,1.547334 1.7188,2.124838 1.23847,0.577505 1.61318,-0.832932 2.73255,-0.04914 1.11936,0.783788 -0.0779,1.618303 0.8884,2.584559 0.96626,0.966257 1.80077,-0.23096 2.58456,0.888405 0.78379,1.119365 -0.62665,1.49408 -0.0491,2.732543 0.5775,1.238463 1.77116,0.398868 2.12483,1.718799 0.35368,1.31993 -1.09986,1.189649 -0.98076,2.550942 0.1191,1.361293 1.52793,0.980587 1.40883,2.34188 -0.1191,1.361293 -1.44042,0.74173 -1.79409,2.061659 -0.35368,1.31993 1.1004,1.44403 0.5229,2.6825 -0.57751,1.23846 -1.60724,0.20434 -2.39103,1.32371 -0.78378,1.11936 0.54016,1.73331 -0.4261,2.69956 z"
       inkscape:randomized="0"
       inkscape:rounded="0.5"
       inkscape:flatsided="false"
       sodipodi:arg2="0.95993109"
       sodipodi:arg1="0.78539816"
       sodipodi:r2="12.727922"
       sodipodi:r1="14.142136"
       sodipodi:cy="97.362183"
       sodipodi:cx="365"
       sodipodi:sides="18"
       id="path7283"
       style="fill:none;stroke:#000000;stroke-width:0.99921262;stroke-miterlimit:4;stroke-opacity:1;stroke-dasharray:none"
       sodipodi:type="star" />
    <path
       sodipodi:type="star"
       style="fill:none;stroke:#000000;stroke-width:0.99921262;stroke-miterlimit:4;stroke-opacity:1;stroke-dasharray:none"
       id="path7285"
       sodipodi:sides="18"
       sodipodi:cx="365"
       sodipodi:cy="97.362183"
       sodipodi:r1="14.142136"
       sodipodi:r2="12.727922"
       sodipodi:arg1="0.78539816"
       sodipodi:arg2="0.95993109"
       inkscape:flatsided="false"
       inkscape:rounded="0.5"
       inkscape:randomized="0"
       d="m 375,107.36218 c -0.96626,0.96626 -1.5802,-0.35768 -2.69956,0.42611 -1.11937,0.78378 -0.0852,1.81352 -1.32372,2.39102 -1.23846,0.5775 -1.36256,-0.87657 -2.68249,-0.5229 -1.31993,0.35368 -0.70037,1.675 -2.06166,1.79409 -1.36129,0.1191 -0.98059,-1.28973 -2.34188,-1.40883 -1.36129,-0.1191 -1.23101,1.33444 -2.55094,0.98077 -1.31993,-0.35368 -0.48034,-1.54734 -1.7188,-2.12484 -1.23847,-0.57751 -1.61318,0.83293 -2.73255,0.0491 -1.11936,-0.78379 0.0779,-1.6183 -0.8884,-2.58456 -0.96626,-0.96625 -1.80077,0.23096 -2.58456,-0.8884 -0.78379,-1.11937 0.62665,-1.49408 0.0491,-2.73254 -0.5775,-1.23847 -1.77116,-0.39887 -2.12483,-1.7188 -0.35368,-1.319934 1.09986,-1.189653 0.98076,-2.550946 -0.1191,-1.361293 -1.52793,-0.980587 -1.40883,-2.34188 0.1191,-1.361292 1.44042,-0.74173 1.79409,-2.06166 0.35368,-1.319931 -1.1004,-1.444033 -0.5229,-2.682496 0.57751,-1.238463 1.60724,-0.204347 2.39103,-1.323712 0.78378,-1.119365 -0.54016,-1.733307 0.4261,-2.699563 0.96626,-0.966257 1.5802,0.357684 2.69956,-0.426104 1.11937,-0.783788 0.0852,-1.813519 1.32372,-2.391024 1.23846,-0.577505 1.36256,0.876573 2.68249,0.522899 1.31993,-0.353675 0.70037,-1.674994 2.06166,-1.794092 1.36129,-0.119098 0.98059,1.289734 2.34188,1.408832 1.36129,0.119097 1.23101,-1.33444 2.55094,-0.980765 1.31993,0.353674 0.48034,1.547334 1.7188,2.124838 1.23847,0.577505 1.61318,-0.832932 2.73255,-0.04914 1.11936,0.783788 -0.0779,1.618303 0.8884,2.584559 0.96626,0.966257 1.80077,-0.23096 2.58456,0.888405 0.78379,1.119365 -0.62665,1.49408 -0.0491,2.732543 0.5775,1.238463 1.77116,0.398868 2.12483,1.718799 0.35368,1.31993 -1.09986,1.189649 -0.98076,2.550942 0.1191,1.361293 1.52793,0.980587 1.40883,2.34188 -0.1191,1.361293 -1.44042,0.74173 -1.79409,2.061659 -0.35368,1.31993 1.1004,1.44403 0.5229,2.6825 -0.57751,1.23846 -1.60724,0.20434 -2.39103,1.32371 -0.78378,1.11936 0.54016,1.73331 -0.4261,2.69956 z"
       transform="matrix(0.6943065,0,0,0.6943065,57.01339,50.089682)" />
    <path
       transform="matrix(0.6943065,0,0,0.6943065,109.33771,50.089682)"
       d="m 375,107.36218 c -0.96626,0.96626 -1.5802,-0.35768 -2.69956,0.42611 -1.11937,0.78378 -0.0852,1.81352 -1.32372,2.39102 -1.23846,0.5775 -1.36256,-0.87657 -2.68249,-0.5229 -1.31993,0.35368 -0.70037,1.675 -2.06166,1.79409 -1.36129,0.1191 -0.98059,-1.28973 -2.34188,-1.40883 -1.36129,-0.1191 -1.23101,1.33444 -2.55094,0.98077 -1.31993,-0.35368 -0.48034,-1.54734 -1.7188,-2.12484 -1.23847,-0.57751 -1.61318,0.83293 -2.73255,0.0491 -1.11936,-0.78379 0.0779,-1.6183 -0.8884,-2.58456 -0.96626,-0.96625 -1.80077,0.23096 -2.58456,-0.8884 -0.78379,-1.11937 0.62665,-1.49408 0.0491,-2.73254 -0.5775,-1.23847 -1.77116,-0.39887 -2.12483,-1.7188 -0.35368,-1.319934 1.09986,-1.189653 0.98076,-2.550946 -0.1191,-1.361293 -1.52793,-0.980587 -1.40883,-2.34188 0.1191,-1.361292 1.44042,-0.74173 1.79409,-2.06166 0.35368,-1.319931 -1.1004,-1.444033 -0.5229,-2.682496 0.57751,-1.238463 1.60724,-0.204347 2.39103,-1.323712 0.78378,-1.119365 -0.54016,-1.733307 0.4261,-2.699563 0.96626,-0.966257 1.5802,0.357684 2.69956,-0.426104 1.11937,-0.783788 0.0852,-1.813519 1.32372,-2.391024 1.23846,-0.577505 1.36256,0.876573 2.68249,0.522899 1.31993,-0.353675 0.70037,-1.674994 2.06166,-1.794092 1.36129,-0.119098 0.98059,1.289734 2.34188,1.408832 1.36129,0.119097 1.23101,-1.33444 2.55094,-0.980765 1.31993,0.353674 0.48034,1.547334 1.7188,2.124838 1.23847,0.577505 1.61318,-0.832932 2.73255,-0.04914 1.11936,0.783788 -0.0779,1.618303 0.8884,2.584559 0.96626,0.966257 1.80077,-0.23096 2.58456,0.888405 0.78379,1.119365 -0.62665,1.49408 -0.0491,2.732543 0.5775,1.238463 1.77116,0.398868 2.12483,1.718799 0.35368,1.31993 -1.09986,1.189649 -0.98076,2.550942 0.1191,1.361293 1.52793,0.980587 1.40883,2.34188 -0.1191,1.361293 -1.44042,0.74173 -1.79409,2.061659 -0.35368,1.31993 1.1004,1.44403 0.5229,2.6825 -0.57751,1.23846 -1.60724,0.20434 -2.39103,1.32371 -0.78378,1.11936 0.54016,1.73331 -0.4261,2.69956 z"
       inkscape:randomized="0"
       inkscape:rounded="0.5"
       inkscape:flatsided="false"
       sodipodi:arg2="0.95993109"
       sodipodi:arg1="0.78539816"
       sodipodi:r2="12.727922"
       sodipodi:r1="14.142136"
       sodipodi:cy="97.362183"
       sodipodi:cx="365"
       sodipodi:sides="18"
       id="path7287"
       style="fill:none;stroke:#000000;stroke-width:0.99921262;stroke-miterlimit:4;stroke-opacity:1;stroke-dasharray:none"
       sodipodi:type="star" />
    <path
       sodipodi:type="star"
       style="fill:none;stroke:#000000;stroke-width:0.99921262;stroke-miterlimit:4;stroke-opacity:1;stroke-dasharray:none"
       id="path7289"
       sodipodi:sides="18"
       sodipodi:cx="365"
       sodipodi:cy="97.362183"
       sodipodi:r1="14.142136"
       sodipodi:r2="12.727922"
       sodipodi:arg1="0.78539816"
       sodipodi:arg2="0.95993109"
       inkscape:flatsided="false"
       inkscape:rounded="0.5"
       inkscape:randomized="0"
       d="m 375,107.36218 c -0.96626,0.96626 -1.5802,-0.35768 -2.69956,0.42611 -1.11937,0.78378 -0.0852,1.81352 -1.32372,2.39102 -1.23846,0.5775 -1.36256,-0.87657 -2.68249,-0.5229 -1.31993,0.35368 -0.70037,1.675 -2.06166,1.79409 -1.36129,0.1191 -0.98059,-1.28973 -2.34188,-1.40883 -1.36129,-0.1191 -1.23101,1.33444 -2.55094,0.98077 -1.31993,-0.35368 -0.48034,-1.54734 -1.7188,-2.12484 -1.23847,-0.57751 -1.61318,0.83293 -2.73255,0.0491 -1.11936,-0.78379 0.0779,-1.6183 -0.8884,-2.58456 -0.96626,-0.96625 -1.80077,0.23096 -2.58456,-0.8884 -0.78379,-1.11937 0.62665,-1.49408 0.0491,-2.73254 -0.5775,-1.23847 -1.77116,-0.39887 -2.12483,-1.7188 -0.35368,-1.319934 1.09986,-1.189653 0.98076,-2.550946 -0.1191,-1.361293 -1.52793,-0.980587 -1.40883,-2.34188 0.1191,-1.361292 1.44042,-0.74173 1.79409,-2.06166 0.35368,-1.319931 -1.1004,-1.444033 -0.5229,-2.682496 0.57751,-1.238463 1.60724,-0.204347 2.39103,-1.323712 0.78378,-1.119365 -0.54016,-1.733307 0.4261,-2.699563 0.96626,-0.966257 1.5802,0.357684 2.69956,-0.426104 1.11937,-0.783788 0.0852,-1.813519 1.32372,-2.391024 1.23846,-0.577505 1.36256,0.876573 2.68249,0.522899 1.31993,-0.353675 0.70037,-1.674994 2.06166,-1.794092 1.36129,-0.119098 0.98059,1.289734 2.34188,1.408832 1.36129,0.119097 1.23101,-1.33444 2.55094,-0.980765 1.31993,0.353674 0.48034,1.547334 1.7188,2.124838 1.23847,0.577505 1.61318,-0.832932 2.73255,-0.04914 1.11936,0.783788 -0.0779,1.618303 0.8884,2.584559 0.96626,0.966257 1.80077,-0.23096 2.58456,0.888405 0.78379,1.119365 -0.62665,1.49408 -0.0491,2.732543 0.5775,1.238463 1.77116,0.398868 2.12483,1.718799 0.35368,1.31993 -1.09986,1.189649 -0.98076,2.550942 0.1191,1.361293 1.52793,0.980587 1.40883,2.34188 -0.1191,1.361293 -1.44042,0.74173 -1.79409,2.061659 -0.35368,1.31993 1.1004,1.44403 0.5229,2.6825 -0.57751,1.23846 -1.60724,0.20434 -2.39103,1.32371 -0.78378,1.11936 0.54016,1.73331 -0.4261,2.69956 z"
       transform="matrix(0.6943065,0,0,0.6943065,162.85123,50.089682)" />
    <path
       transform="matrix(0.6943065,0,0,0.6943065,218.74312,50.089682)"
       d="m 375,107.36218 c -0.96626,0.96626 -1.5802,-0.35768 -2.69956,0.42611 -1.11937,0.78378 -0.0852,1.81352 -1.32372,2.39102 -1.23846,0.5775 -1.36256,-0.87657 -2.68249,-0.5229 -1.31993,0.35368 -0.70037,1.675 -2.06166,1.79409 -1.36129,0.1191 -0.98059,-1.28973 -2.34188,-1.40883 -1.36129,-0.1191 -1.23101,1.33444 -2.55094,0.98077 -1.31993,-0.35368 -0.48034,-1.54734 -1.7188,-2.12484 -1.23847,-0.57751 -1.61318,0.83293 -2.73255,0.0491 -1.11936,-0.78379 0.0779,-1.6183 -0.8884,-2.58456 -0.96626,-0.96625 -1.80077,0.23096 -2.58456,-0.8884 -0.78379,-1.11937 0.62665,-1.49408 0.0491,-2.73254 -0.5775,-1.23847 -1.77116,-0.39887 -2.12483,-1.7188 -0.35368,-1.319934 1.09986,-1.189653 0.98076,-2.550946 -0.1191,-1.361293 -1.52793,-0.980587 -1.40883,-2.34188 0.1191,-1.361292 1.44042,-0.74173 1.79409,-2.06166 0.35368,-1.319931 -1.1004,-1.444033 -0.5229,-2.682496 0.57751,-1.238463 1.60724,-0.204347 2.39103,-1.323712 0.78378,-1.119365 -0.54016,-1.733307 0.4261,-2.699563 0.96626,-0.966257 1.5802,0.357684 2.69956,-0.426104 1.11937,-0.783788 0.0852,-1.813519 1.32372,-2.391024 1.23846,-0.577505 1.36256,0.876573 2.68249,0.522899 1.31993,-0.353675 0.70037,-1.674994 2.06166,-1.794092 1.36129,-0.119098 0.98059,1.289734 2.34188,1.408832 1.36129,0.119097 1.23101,-1.33444 2.55094,-0.980765 1.31993,0.353674 0.48034,1.547334 1.7188,2.124838 1.23847,0.577505 1.61318,-0.832932 2.73255,-0.04914 1.11936,0.783788 -0.0779,1.618303 0.8884,2.584559 0.96626,0.966257 1.80077,-0.23096 2.58456,0.888405 0.78379,1.119365 -0.62665,1.49408 -0.0491,2.732543 0.5775,1.238463 1.77116,0.398868 2.12483,1.718799 0.35368,1.31993 -1.09986,1.189649 -0.98076,2.550942 0.1191,1.361293 1.52793,0.980587 1.40883,2.34188 -0.1191,1.361293 -1.44042,0.74173 -1.79409,2.061659 -0.35368,1.31993 1.1004,1.44403 0.5229,2.6825 -0.57751,1.23846 -1.60724,0.20434 -2.39103,1.32371 -0.78378,1.11936 0.54016,1.73331 -0.4261,2.69956 z"
       inkscape:randomized="0"
       inkscape:rounded="0.5"
       inkscape:flatsided="false"
       sodipodi:arg2="0.95993109"
       sodipodi:arg1="0.78539816"
       sodipodi:r2="12.727922"
       sodipodi:r1="14.142136"
       sodipodi:cy="97.362183"
       sodipodi:cx="365"
       sodipodi:sides="18"
       id="path7291"
       style="fill:none;stroke:#000000;stroke-width:0.99921262;stroke-miterlimit:4;stroke-opacity:1;stroke-dasharray:none"
       sodipodi:type="star" />
    <rect
       y="42.970291"
       x="327.01352"
       height="35.675674"
       width="130.81081"
       id="rect7293"
       style="fill:#000000;fill-opacity:1;stroke:#000000;stroke-width:0.5945946;stroke-opacity:1" />
    <text
       id="text7295"
       y="56.561501"
       x="331.77026"
       style="font-size:12.59668827px;font-style:normal;font-weight:normal;fill:#ff0000;fill-opacity:1;stroke:none;font-family:Bitstream Vera Sans"
       xml:space="preserve"><tspan
         y="56.561501"
         x="331.77026"
         style="font-size:12.59668827px;font-style:normal;font-variant:normal;font-weight:normal;font-stretch:normal;text-align:start;line-height:108.00000429%;writing-mode:lr-tb;text-anchor:start;fill:#ff0000;fill-opacity:1;font-family:Andale Mono;-inkscape-font-specification:Andale Mono"
         id="tspan7297"
         sodipodi:role="line">midi</tspan><tspan
         y="70.165924"
         x="331.77026"
         style="font-size:12.59668827px;font-style:normal;font-variant:normal;font-weight:normal;font-stretch:normal;text-align:start;line-height:108.00000429%;writing-mode:lr-tb;text-anchor:start;fill:#ff0000;fill-opacity:1;font-family:Andale Mono;-inkscape-font-specification:Andale Mono"
         id="tspan7299"
         sodipodi:role="line">midi out     2&gt;1</tspan></text>
    <path
       transform="matrix(0.74324324,0,0,0.74324324,219.24324,-5.6097101)"
       d="m 385,97.362183 a 20,20 0 1 1 -40,0 20,20 0 1 1 40,0 z"
       sodipodi:ry="20"
       sodipodi:rx="20"
       sodipodi:cy="97.362183"
       sodipodi:cx="365"
       id="path7301"
       style="fill:none;stroke:#000000;stroke-opacity:1;display:inline"
       sodipodi:type="arc" />
    <path
       sodipodi:type="arc"
       style="fill:#2b2b2b;fill-opacity:1;stroke:#000000;stroke-opacity:1;display:inline"
       id="path7303"
       sodipodi:cx="365"
       sodipodi:cy="97.362183"
       sodipodi:rx="20"
       sodipodi:ry="20"
       d="m 385,97.362183 a 20,20 0 1 1 -40,0 20,20 0 1 1 40,0 z"
       transform="matrix(0.36800872,0,0,0.36800872,356.20385,30.923942)" />
    <path
       sodipodi:type="arc"
       style="fill:none;stroke:#000000;stroke-opacity:1;display:inline"
       id="path7305"
       sodipodi:cx="365"
       sodipodi:cy="97.362183"
       sodipodi:rx="20"
       sodipodi:ry="20"
       d="m 385,97.362183 a 20,20 0 1 1 -40,0 20,20 0 1 1 40,0 z"
       transform="matrix(0.74324324,0,0,0.74324324,39.15147,45.325091)" />
    <path
       transform="matrix(0.36800872,0,0,0.36800872,176.11207,81.858738)"
       d="m 385,97.362183 a 20,20 0 1 1 -40,0 20,20 0 1 1 40,0 z"
       sodipodi:ry="20"
       sodipodi:rx="20"
       sodipodi:cy="97.362183"
       sodipodi:cx="365"
       id="path7307"
       style="fill:none;stroke:#000000;stroke-opacity:1;display:inline"
       sodipodi:type="arc" />
    <rect
       y="116.35642"
       x="300.16913"
       height="2.7948256"
       width="8.7555656"
       id="rect7309"
       style="fill:#000000;fill-opacity:1;stroke:#000000;stroke-width:0.50200361;stroke-miterlimit:4;stroke-opacity:1;stroke-dasharray:none;display:inline" />
    <path
       transform="matrix(0.59459459,0,0,0.59459459,82.89107,10.632045)"
       d="m 386.71329,179.98456 a 4.1958041,4.1958041 0 1 1 -8.39161,0 4.1958041,4.1958041 0 1 1 8.39161,0 z"
       sodipodi:ry="4.1958041"
       sodipodi:rx="4.1958041"
       sodipodi:cy="179.98456"
       sodipodi:cx="382.51749"
       id="path7311"
       style="fill:#000000;fill-opacity:1;stroke:none;display:inline"
       sodipodi:type="arc" />
    <path
       transform="matrix(0.74324324,0,0,0.74324324,91.47579,45.325091)"
       d="m 385,97.362183 a 20,20 0 1 1 -40,0 20,20 0 1 1 40,0 z"
       sodipodi:ry="20"
       sodipodi:rx="20"
       sodipodi:cy="97.362183"
       sodipodi:cx="365"
       id="path7313"
       style="fill:none;stroke:#000000;stroke-opacity:1;display:inline"
       sodipodi:type="arc" />
    <path
       sodipodi:type="arc"
       style="fill:none;stroke:#000000;stroke-opacity:1;display:inline"
       id="path7315"
       sodipodi:cx="365"
       sodipodi:cy="97.362183"
       sodipodi:rx="20"
       sodipodi:ry="20"
       d="m 385,97.362183 a 20,20 0 1 1 -40,0 20,20 0 1 1 40,0 z"
       transform="matrix(0.36800872,0,0,0.36800872,228.43639,81.858738)" />
    <rect
       style="fill:#000000;fill-opacity:1;stroke:#000000;stroke-width:0.50200361;stroke-miterlimit:4;stroke-opacity:1;stroke-dasharray:none;display:inline"
       id="rect7317"
       width="8.7555656"
       height="2.7948256"
       x="352.49341"
       y="116.35642" />
    <path
       sodipodi:type="arc"
       style="fill:#000000;fill-opacity:1;stroke:none;display:inline"
       id="path7319"
       sodipodi:cx="382.51749"
       sodipodi:cy="179.98456"
       sodipodi:rx="4.1958041"
       sodipodi:ry="4.1958041"
       d="m 386.71329,179.98456 a 4.1958041,4.1958041 0 1 1 -8.39161,0 4.1958041,4.1958041 0 1 1 8.39161,0 z"
       transform="matrix(0.59459459,0,0,0.59459459,135.2154,10.632045)" />
    <path
       sodipodi:type="arc"
       style="fill:none;stroke:#000000;stroke-opacity:1;display:inline"
       id="path7321"
       sodipodi:cx="365"
       sodipodi:cy="97.362183"
       sodipodi:rx="20"
       sodipodi:ry="20"
       d="m 385,97.362183 a 20,20 0 1 1 -40,0 20,20 0 1 1 40,0 z"
       transform="matrix(0.74324324,0,0,0.74324324,144.98931,45.325091)" />
    <path
       transform="matrix(0.36800872,0,0,0.36800872,281.9499,81.858738)"
       d="m 385,97.362183 a 20,20 0 1 1 -40,0 20,20 0 1 1 40,0 z"
       sodipodi:ry="20"
       sodipodi:rx="20"
       sodipodi:cy="97.362183"
       sodipodi:cx="365"
       id="path7323"
       style="fill:none;stroke:#000000;stroke-opacity:1;display:inline"
       sodipodi:type="arc" />
    <rect
       y="116.35642"
       x="406.00693"
       height="2.7948256"
       width="8.7555656"
       id="rect7325"
       style="fill:#000000;fill-opacity:1;stroke:#000000;stroke-width:0.50200361;stroke-miterlimit:4;stroke-opacity:1;stroke-dasharray:none;display:inline" />
    <path
       transform="matrix(0.59459459,0,0,0.59459459,188.72891,10.632045)"
       d="m 386.71329,179.98456 a 4.1958041,4.1958041 0 1 1 -8.39161,0 4.1958041,4.1958041 0 1 1 8.39161,0 z"
       sodipodi:ry="4.1958041"
       sodipodi:rx="4.1958041"
       sodipodi:cy="179.98456"
       sodipodi:cx="382.51749"
       id="path7327"
       style="fill:#000000;fill-opacity:1;stroke:none;display:inline"
       sodipodi:type="arc" />
    <path
       transform="matrix(0.74324324,0,0,0.74324324,200.8812,45.325091)"
       d="m 385,97.362183 a 20,20 0 1 1 -40,0 20,20 0 1 1 40,0 z"
       sodipodi:ry="20"
       sodipodi:rx="20"
       sodipodi:cy="97.362183"
       sodipodi:cx="365"
       id="path7329"
       style="fill:none;stroke:#000000;stroke-opacity:1;display:inline"
       sodipodi:type="arc" />
    <path
       sodipodi:type="arc"
       style="fill:none;stroke:#000000;stroke-opacity:1;display:inline"
       id="path7331"
       sodipodi:cx="365"
       sodipodi:cy="97.362183"
       sodipodi:rx="20"
       sodipodi:ry="20"
       d="m 385,97.362183 a 20,20 0 1 1 -40,0 20,20 0 1 1 40,0 z"
       transform="matrix(0.36800872,0,0,0.36800872,337.8418,81.858738)" />
    <rect
       style="fill:#000000;fill-opacity:1;stroke:#000000;stroke-width:0.50200361;stroke-miterlimit:4;stroke-opacity:1;stroke-dasharray:none;display:inline"
       id="rect7333"
       width="8.7555656"
       height="2.7948256"
       x="461.8988"
       y="116.35642" />
    <path
       sodipodi:type="arc"
       style="fill:#000000;fill-opacity:1;stroke:none;display:inline"
       id="path7335"
       sodipodi:cx="382.51749"
       sodipodi:cy="179.98456"
       sodipodi:rx="4.1958041"
       sodipodi:ry="4.1958041"
       d="m 386.71329,179.98456 a 4.1958041,4.1958041 0 1 1 -8.39161,0 4.1958041,4.1958041 0 1 1 8.39161,0 z"
       transform="matrix(0.59459459,0,0,0.59459459,244.6208,10.632045)" />
    <rect
       y="22.159479"
       x="550.7973"
       height="175.40541"
       width="240.81081"
       id="rect7337"
       style="fill:#dbd4cd;fill-opacity:1;stroke:#000000;stroke-width:0.5945946;stroke-opacity:1" />
    <path
       transform="matrix(0.59459459,0,0,0.59459459,541.87838,11.241425)"
       d="m 65,247.36218 a 5,5 0 1 1 -10,0 5,5 0 1 1 10,0 z"
       sodipodi:ry="5"
       sodipodi:rx="5"
       sodipodi:cy="247.36218"
       sodipodi:cx="60"
       id="path7339"
       style="fill:#ffa614;fill-opacity:1;stroke:#000000;stroke-opacity:1"
       sodipodi:type="arc" />
    <path
       sodipodi:type="arc"
       style="fill:#ffa614;fill-opacity:1;stroke:#000000;stroke-opacity:1"
       id="path7341"
       sodipodi:cx="60"
       sodipodi:cy="247.36218"
       sodipodi:rx="5"
       sodipodi:ry="5"
       d="m 65,247.36218 a 5,5 0 1 1 -10,0 5,5 0 1 1 10,0 z"
       transform="matrix(0.59459459,0,0,0.59459459,558.52703,11.83602)" />
    <path
       transform="matrix(0.59459459,0,0,0.59459459,578.74324,11.83602)"
       d="m 65,247.36218 a 5,5 0 1 1 -10,0 5,5 0 1 1 10,0 z"
       sodipodi:ry="5"
       sodipodi:rx="5"
       sodipodi:cy="247.36218"
       sodipodi:cx="60"
       id="path7343"
       style="fill:#ffa614;fill-opacity:1;stroke:#000000;stroke-opacity:1"
       sodipodi:type="arc" />
    <path
       sodipodi:type="arc"
       style="fill:#ffa614;fill-opacity:1;stroke:#000000;stroke-opacity:1"
       id="path7345"
       sodipodi:cx="60"
       sodipodi:cy="247.36218"
       sodipodi:rx="5"
       sodipodi:ry="5"
       d="m 65,247.36218 a 5,5 0 1 1 -10,0 5,5 0 1 1 10,0 z"
       transform="matrix(0.59459459,0,0,0.59459459,598.95946,11.83602)" />
    <path
       transform="matrix(0.59459459,0,0,0.59459459,614.41892,11.83602)"
       d="m 65,247.36218 a 5,5 0 1 1 -10,0 5,5 0 1 1 10,0 z"
       sodipodi:ry="5"
       sodipodi:rx="5"
       sodipodi:cy="247.36218"
       sodipodi:cx="60"
       id="path7347"
       style="fill:#ffa614;fill-opacity:1;stroke:#000000;stroke-opacity:1"
       sodipodi:type="arc" />
    <path
       sodipodi:type="arc"
       style="fill:#ffa614;fill-opacity:1;stroke:#000000;stroke-opacity:1"
       id="path7349"
       sodipodi:cx="60"
       sodipodi:cy="247.36218"
       sodipodi:rx="5"
       sodipodi:ry="5"
       d="m 65,247.36218 a 5,5 0 1 1 -10,0 5,5 0 1 1 10,0 z"
       transform="matrix(0.59459459,0,0,0.59459459,635.82432,11.83602)" />
    <path
       transform="matrix(0.59459459,0,0,0.59459459,663.17568,11.83602)"
       d="m 65,247.36218 a 5,5 0 1 1 -10,0 5,5 0 1 1 10,0 z"
       sodipodi:ry="5"
       sodipodi:rx="5"
       sodipodi:cy="247.36218"
       sodipodi:cx="60"
       id="path7351"
       style="fill:#91ff14;fill-opacity:1;stroke:#000000;stroke-opacity:1"
       sodipodi:type="arc" />
    <path
       sodipodi:type="arc"
       style="fill:#91ff14;fill-opacity:1;stroke:#000000;stroke-opacity:1"
       id="path7353"
       sodipodi:cx="60"
       sodipodi:cy="247.36218"
       sodipodi:rx="5"
       sodipodi:ry="5"
       d="m 65,247.36218 a 5,5 0 1 1 -10,0 5,5 0 1 1 10,0 z"
       transform="matrix(0.59459459,0,0,0.59459459,691.71622,11.83602)" />
    <rect
       y="174.97029"
       x="573.98645"
       height="7.927928"
       width="23.783783"
       id="rect7355"
       style="fill:#000000;fill-opacity:1;stroke:#000000;stroke-width:0.5945946;stroke-opacity:1" />
    <rect
       style="fill:#000000;fill-opacity:1;stroke:#000000;stroke-width:0.5945946;stroke-opacity:1"
       id="rect7357"
       width="23.783783"
       height="7.927928"
       x="601.33783"
       y="174.97029" />
    <rect
       y="174.97029"
       x="629.87842"
       height="7.927928"
       width="23.783783"
       id="rect7359"
       style="fill:#000000;fill-opacity:1;stroke:#000000;stroke-width:0.5945946;stroke-opacity:1" />
    <rect
       style="fill:#000000;fill-opacity:1;stroke:#000000;stroke-width:0.5945946;stroke-opacity:1"
       id="rect7361"
       width="23.783783"
       height="7.927928"
       x="658.41895"
       y="174.97029" />
    <rect
       y="174.97029"
       x="686.95947"
       height="7.927928"
       width="23.783783"
       id="rect7363"
       style="fill:#000000;fill-opacity:1;stroke:#000000;stroke-width:0.5945946;stroke-opacity:1" />
    <rect
       style="fill:#fe0000;fill-opacity:1;stroke:#000000;stroke-width:0.5945946;stroke-opacity:1"
       id="rect7365"
       width="23.783783"
       height="7.927928"
       x="715.5"
       y="174.97029" />
    <rect
       y="34.051373"
       x="587.06757"
       height="53.513512"
       width="142.7027"
       id="rect7367"
       style="fill:none;stroke:#000000;stroke-width:0.5945946;stroke-opacity:1" />
    <path
       transform="matrix(0.6943065,0,0,0.6943065,503.10516,-0.84511953)"
       d="m 375,107.36218 c -0.96626,0.96626 -1.5802,-0.35768 -2.69956,0.42611 -1.11937,0.78378 -0.0852,1.81352 -1.32372,2.39102 -1.23846,0.5775 -1.36256,-0.87657 -2.68249,-0.5229 -1.31993,0.35368 -0.70037,1.675 -2.06166,1.79409 -1.36129,0.1191 -0.98059,-1.28973 -2.34188,-1.40883 -1.36129,-0.1191 -1.23101,1.33444 -2.55094,0.98077 -1.31993,-0.35368 -0.48034,-1.54734 -1.7188,-2.12484 -1.23847,-0.57751 -1.61318,0.83293 -2.73255,0.0491 -1.11936,-0.78379 0.0779,-1.6183 -0.8884,-2.58456 -0.96626,-0.96625 -1.80077,0.23096 -2.58456,-0.8884 -0.78379,-1.11937 0.62665,-1.49408 0.0491,-2.73254 -0.5775,-1.23847 -1.77116,-0.39887 -2.12483,-1.7188 -0.35368,-1.319934 1.09986,-1.189653 0.98076,-2.550946 -0.1191,-1.361293 -1.52793,-0.980587 -1.40883,-2.34188 0.1191,-1.361292 1.44042,-0.74173 1.79409,-2.06166 0.35368,-1.319931 -1.1004,-1.444033 -0.5229,-2.682496 0.57751,-1.238463 1.60724,-0.204347 2.39103,-1.323712 0.78378,-1.119365 -0.54016,-1.733307 0.4261,-2.699563 0.96626,-0.966257 1.5802,0.357684 2.69956,-0.426104 1.11937,-0.783788 0.0852,-1.813519 1.32372,-2.391024 1.23846,-0.577505 1.36256,0.876573 2.68249,0.522899 1.31993,-0.353675 0.70037,-1.674994 2.06166,-1.794092 1.36129,-0.119098 0.98059,1.289734 2.34188,1.408832 1.36129,0.119097 1.23101,-1.33444 2.55094,-0.980765 1.31993,0.353674 0.48034,1.547334 1.7188,2.124838 1.23847,0.577505 1.61318,-0.832932 2.73255,-0.04914 1.11936,0.783788 -0.0779,1.618303 0.8884,2.584559 0.96626,0.966257 1.80077,-0.23096 2.58456,0.888405 0.78379,1.119365 -0.62665,1.49408 -0.0491,2.732543 0.5775,1.238463 1.77116,0.398868 2.12483,1.718799 0.35368,1.31993 -1.09986,1.189649 -0.98076,2.550942 0.1191,1.361293 1.52793,0.980587 1.40883,2.34188 -0.1191,1.361293 -1.44042,0.74173 -1.79409,2.061659 -0.35368,1.31993 1.1004,1.44403 0.5229,2.6825 -0.57751,1.23846 -1.60724,0.20434 -2.39103,1.32371 -0.78378,1.11936 0.54016,1.73331 -0.4261,2.69956 z"
       inkscape:randomized="0"
       inkscape:rounded="0.5"
       inkscape:flatsided="false"
       sodipodi:arg2="0.95993109"
       sodipodi:arg1="0.78539816"
       sodipodi:r2="12.727922"
       sodipodi:r1="14.142136"
       sodipodi:cy="97.362183"
       sodipodi:cx="365"
       sodipodi:sides="18"
       id="path7369"
       style="fill:none;stroke:#000000;stroke-width:0.99921262;stroke-miterlimit:4;stroke-opacity:1;stroke-dasharray:none"
       sodipodi:type="star" />
    <path
       sodipodi:type="star"
       style="fill:none;stroke:#000000;stroke-width:0.99921262;stroke-miterlimit:4;stroke-opacity:1;stroke-dasharray:none"
       id="path7371"
       sodipodi:sides="18"
       sodipodi:cx="365"
       sodipodi:cy="97.362183"
       sodipodi:r1="14.142136"
       sodipodi:r2="12.727922"
       sodipodi:arg1="0.78539816"
       sodipodi:arg2="0.95993109"
       inkscape:flatsided="false"
       inkscape:rounded="0.5"
       inkscape:randomized="0"
       d="m 375,107.36218 c -0.96626,0.96626 -1.5802,-0.35768 -2.69956,0.42611 -1.11937,0.78378 -0.0852,1.81352 -1.32372,2.39102 -1.23846,0.5775 -1.36256,-0.87657 -2.68249,-0.5229 -1.31993,0.35368 -0.70037,1.675 -2.06166,1.79409 -1.36129,0.1191 -0.98059,-1.28973 -2.34188,-1.40883 -1.36129,-0.1191 -1.23101,1.33444 -2.55094,0.98077 -1.31993,-0.35368 -0.48034,-1.54734 -1.7188,-2.12484 -1.23847,-0.57751 -1.61318,0.83293 -2.73255,0.0491 -1.11936,-0.78379 0.0779,-1.6183 -0.8884,-2.58456 -0.96626,-0.96625 -1.80077,0.23096 -2.58456,-0.8884 -0.78379,-1.11937 0.62665,-1.49408 0.0491,-2.73254 -0.5775,-1.23847 -1.77116,-0.39887 -2.12483,-1.7188 -0.35368,-1.319934 1.09986,-1.189653 0.98076,-2.550946 -0.1191,-1.361293 -1.52793,-0.980587 -1.40883,-2.34188 0.1191,-1.361292 1.44042,-0.74173 1.79409,-2.06166 0.35368,-1.319931 -1.1004,-1.444033 -0.5229,-2.682496 0.57751,-1.238463 1.60724,-0.204347 2.39103,-1.323712 0.78378,-1.119365 -0.54016,-1.733307 0.4261,-2.699563 0.96626,-0.966257 1.5802,0.357684 2.69956,-0.426104 1.11937,-0.783788 0.0852,-1.813519 1.32372,-2.391024 1.23846,-0.577505 1.36256,0.876573 2.68249,0.522899 1.31993,-0.353675 0.70037,-1.674994 2.06166,-1.794092 1.36129,-0.119098 0.98059,1.289734 2.34188,1.408832 1.36129,0.119097 1.23101,-1.33444 2.55094,-0.980765 1.31993,0.353674 0.48034,1.547334 1.7188,2.124838 1.23847,0.577505 1.61318,-0.832932 2.73255,-0.04914 1.11936,0.783788 -0.0779,1.618303 0.8884,2.584559 0.96626,0.966257 1.80077,-0.23096 2.58456,0.888405 0.78379,1.119365 -0.62665,1.49408 -0.0491,2.732543 0.5775,1.238463 1.77116,0.398868 2.12483,1.718799 0.35368,1.31993 -1.09986,1.189649 -0.98076,2.550942 0.1191,1.361293 1.52793,0.980587 1.40883,2.34188 -0.1191,1.361293 -1.44042,0.74173 -1.79409,2.061659 -0.35368,1.31993 1.1004,1.44403 0.5229,2.6825 -0.57751,1.23846 -1.60724,0.20434 -2.39103,1.32371 -0.78378,1.11936 0.54016,1.73331 -0.4261,2.69956 z"
       transform="matrix(0.6943065,0,0,0.6943065,323.01339,50.089682)" />
    <path
       transform="matrix(0.6943065,0,0,0.6943065,375.33771,50.089682)"
       d="m 375,107.36218 c -0.96626,0.96626 -1.5802,-0.35768 -2.69956,0.42611 -1.11937,0.78378 -0.0852,1.81352 -1.32372,2.39102 -1.23846,0.5775 -1.36256,-0.87657 -2.68249,-0.5229 -1.31993,0.35368 -0.70037,1.675 -2.06166,1.79409 -1.36129,0.1191 -0.98059,-1.28973 -2.34188,-1.40883 -1.36129,-0.1191 -1.23101,1.33444 -2.55094,0.98077 -1.31993,-0.35368 -0.48034,-1.54734 -1.7188,-2.12484 -1.23847,-0.57751 -1.61318,0.83293 -2.73255,0.0491 -1.11936,-0.78379 0.0779,-1.6183 -0.8884,-2.58456 -0.96626,-0.96625 -1.80077,0.23096 -2.58456,-0.8884 -0.78379,-1.11937 0.62665,-1.49408 0.0491,-2.73254 -0.5775,-1.23847 -1.77116,-0.39887 -2.12483,-1.7188 -0.35368,-1.319934 1.09986,-1.189653 0.98076,-2.550946 -0.1191,-1.361293 -1.52793,-0.980587 -1.40883,-2.34188 0.1191,-1.361292 1.44042,-0.74173 1.79409,-2.06166 0.35368,-1.319931 -1.1004,-1.444033 -0.5229,-2.682496 0.57751,-1.238463 1.60724,-0.204347 2.39103,-1.323712 0.78378,-1.119365 -0.54016,-1.733307 0.4261,-2.699563 0.96626,-0.966257 1.5802,0.357684 2.69956,-0.426104 1.11937,-0.783788 0.0852,-1.813519 1.32372,-2.391024 1.23846,-0.577505 1.36256,0.876573 2.68249,0.522899 1.31993,-0.353675 0.70037,-1.674994 2.06166,-1.794092 1.36129,-0.119098 0.98059,1.289734 2.34188,1.408832 1.36129,0.119097 1.23101,-1.33444 2.55094,-0.980765 1.31993,0.353674 0.48034,1.547334 1.7188,2.124838 1.23847,0.577505 1.61318,-0.832932 2.73255,-0.04914 1.11936,0.783788 -0.0779,1.618303 0.8884,2.584559 0.96626,0.966257 1.80077,-0.23096 2.58456,0.888405 0.78379,1.119365 -0.62665,1.49408 -0.0491,2.732543 0.5775,1.238463 1.77116,0.398868 2.12483,1.718799 0.35368,1.31993 -1.09986,1.189649 -0.98076,2.550942 0.1191,1.361293 1.52793,0.980587 1.40883,2.34188 -0.1191,1.361293 -1.44042,0.74173 -1.79409,2.061659 -0.35368,1.31993 1.1004,1.44403 0.5229,2.6825 -0.57751,1.23846 -1.60724,0.20434 -2.39103,1.32371 -0.78378,1.11936 0.54016,1.73331 -0.4261,2.69956 z"
       inkscape:randomized="0"
       inkscape:rounded="0.5"
       inkscape:flatsided="false"
       sodipodi:arg2="0.95993109"
       sodipodi:arg1="0.78539816"
       sodipodi:r2="12.727922"
       sodipodi:r1="14.142136"
       sodipodi:cy="97.362183"
       sodipodi:cx="365"
       sodipodi:sides="18"
       id="path7373"
       style="fill:none;stroke:#000000;stroke-width:0.99921262;stroke-miterlimit:4;stroke-opacity:1;stroke-dasharray:none"
       sodipodi:type="star" />
    <path
       sodipodi:type="star"
       style="fill:none;stroke:#000000;stroke-width:0.99921262;stroke-miterlimit:4;stroke-opacity:1;stroke-dasharray:none"
       id="path7375"
       sodipodi:sides="18"
       sodipodi:cx="365"
       sodipodi:cy="97.362183"
       sodipodi:r1="14.142136"
       sodipodi:r2="12.727922"
       sodipodi:arg1="0.78539816"
       sodipodi:arg2="0.95993109"
       inkscape:flatsided="false"
       inkscape:rounded="0.5"
       inkscape:randomized="0"
       d="m 375,107.36218 c -0.96626,0.96626 -1.5802,-0.35768 -2.69956,0.42611 -1.11937,0.78378 -0.0852,1.81352 -1.32372,2.39102 -1.23846,0.5775 -1.36256,-0.87657 -2.68249,-0.5229 -1.31993,0.35368 -0.70037,1.675 -2.06166,1.79409 -1.36129,0.1191 -0.98059,-1.28973 -2.34188,-1.40883 -1.36129,-0.1191 -1.23101,1.33444 -2.55094,0.98077 -1.31993,-0.35368 -0.48034,-1.54734 -1.7188,-2.12484 -1.23847,-0.57751 -1.61318,0.83293 -2.73255,0.0491 -1.11936,-0.78379 0.0779,-1.6183 -0.8884,-2.58456 -0.96626,-0.96625 -1.80077,0.23096 -2.58456,-0.8884 -0.78379,-1.11937 0.62665,-1.49408 0.0491,-2.73254 -0.5775,-1.23847 -1.77116,-0.39887 -2.12483,-1.7188 -0.35368,-1.319934 1.09986,-1.189653 0.98076,-2.550946 -0.1191,-1.361293 -1.52793,-0.980587 -1.40883,-2.34188 0.1191,-1.361292 1.44042,-0.74173 1.79409,-2.06166 0.35368,-1.319931 -1.1004,-1.444033 -0.5229,-2.682496 0.57751,-1.238463 1.60724,-0.204347 2.39103,-1.323712 0.78378,-1.119365 -0.54016,-1.733307 0.4261,-2.699563 0.96626,-0.966257 1.5802,0.357684 2.69956,-0.426104 1.11937,-0.783788 0.0852,-1.813519 1.32372,-2.391024 1.23846,-0.577505 1.36256,0.876573 2.68249,0.522899 1.31993,-0.353675 0.70037,-1.674994 2.06166,-1.794092 1.36129,-0.119098 0.98059,1.289734 2.34188,1.408832 1.36129,0.119097 1.23101,-1.33444 2.55094,-0.980765 1.31993,0.353674 0.48034,1.547334 1.7188,2.124838 1.23847,0.577505 1.61318,-0.832932 2.73255,-0.04914 1.11936,0.783788 -0.0779,1.618303 0.8884,2.584559 0.96626,0.966257 1.80077,-0.23096 2.58456,0.888405 0.78379,1.119365 -0.62665,1.49408 -0.0491,2.732543 0.5775,1.238463 1.77116,0.398868 2.12483,1.718799 0.35368,1.31993 -1.09986,1.189649 -0.98076,2.550942 0.1191,1.361293 1.52793,0.980587 1.40883,2.34188 -0.1191,1.361293 -1.44042,0.74173 -1.79409,2.061659 -0.35368,1.31993 1.1004,1.44403 0.5229,2.6825 -0.57751,1.23846 -1.60724,0.20434 -2.39103,1.32371 -0.78378,1.11936 0.54016,1.73331 -0.4261,2.69956 z"
       transform="matrix(0.6943065,0,0,0.6943065,428.85123,50.089682)" />
    <path
       transform="matrix(0.6943065,0,0,0.6943065,484.74312,50.089682)"
       d="m 375,107.36218 c -0.96626,0.96626 -1.5802,-0.35768 -2.69956,0.42611 -1.11937,0.78378 -0.0852,1.81352 -1.32372,2.39102 -1.23846,0.5775 -1.36256,-0.87657 -2.68249,-0.5229 -1.31993,0.35368 -0.70037,1.675 -2.06166,1.79409 -1.36129,0.1191 -0.98059,-1.28973 -2.34188,-1.40883 -1.36129,-0.1191 -1.23101,1.33444 -2.55094,0.98077 -1.31993,-0.35368 -0.48034,-1.54734 -1.7188,-2.12484 -1.23847,-0.57751 -1.61318,0.83293 -2.73255,0.0491 -1.11936,-0.78379 0.0779,-1.6183 -0.8884,-2.58456 -0.96626,-0.96625 -1.80077,0.23096 -2.58456,-0.8884 -0.78379,-1.11937 0.62665,-1.49408 0.0491,-2.73254 -0.5775,-1.23847 -1.77116,-0.39887 -2.12483,-1.7188 -0.35368,-1.319934 1.09986,-1.189653 0.98076,-2.550946 -0.1191,-1.361293 -1.52793,-0.980587 -1.40883,-2.34188 0.1191,-1.361292 1.44042,-0.74173 1.79409,-2.06166 0.35368,-1.319931 -1.1004,-1.444033 -0.5229,-2.682496 0.57751,-1.238463 1.60724,-0.204347 2.39103,-1.323712 0.78378,-1.119365 -0.54016,-1.733307 0.4261,-2.699563 0.96626,-0.966257 1.5802,0.357684 2.69956,-0.426104 1.11937,-0.783788 0.0852,-1.813519 1.32372,-2.391024 1.23846,-0.577505 1.36256,0.876573 2.68249,0.522899 1.31993,-0.353675 0.70037,-1.674994 2.06166,-1.794092 1.36129,-0.119098 0.98059,1.289734 2.34188,1.408832 1.36129,0.119097 1.23101,-1.33444 2.55094,-0.980765 1.31993,0.353674 0.48034,1.547334 1.7188,2.124838 1.23847,0.577505 1.61318,-0.832932 2.73255,-0.04914 1.11936,0.783788 -0.0779,1.618303 0.8884,2.584559 0.96626,0.966257 1.80077,-0.23096 2.58456,0.888405 0.78379,1.119365 -0.62665,1.49408 -0.0491,2.732543 0.5775,1.238463 1.77116,0.398868 2.12483,1.718799 0.35368,1.31993 -1.09986,1.189649 -0.98076,2.550942 0.1191,1.361293 1.52793,0.980587 1.40883,2.34188 -0.1191,1.361293 -1.44042,0.74173 -1.79409,2.061659 -0.35368,1.31993 1.1004,1.44403 0.5229,2.6825 -0.57751,1.23846 -1.60724,0.20434 -2.39103,1.32371 -0.78378,1.11936 0.54016,1.73331 -0.4261,2.69956 z"
       inkscape:randomized="0"
       inkscape:rounded="0.5"
       inkscape:flatsided="false"
       sodipodi:arg2="0.95993109"
       sodipodi:arg1="0.78539816"
       sodipodi:r2="12.727922"
       sodipodi:r1="14.142136"
       sodipodi:cy="97.362183"
       sodipodi:cx="365"
       sodipodi:sides="18"
       id="path7377"
       style="fill:none;stroke:#000000;stroke-width:0.99921262;stroke-miterlimit:4;stroke-opacity:1;stroke-dasharray:none"
       sodipodi:type="star" />
    <rect
       y="42.970291"
       x="593.01355"
       height="35.675674"
       width="130.81081"
       id="rect7379"
       style="fill:#000000;fill-opacity:1;stroke:#000000;stroke-width:0.5945946;stroke-opacity:1" />
    <text
       id="text7381"
       y="56.561501"
       x="597.77026"
       style="font-size:12.59668827px;font-style:normal;font-weight:normal;fill:#ff0000;fill-opacity:1;stroke:none;font-family:Bitstream Vera Sans"
       xml:space="preserve"><tspan
         y="56.561501"
         x="597.77026"
         style="font-size:12.59668827px;font-style:normal;font-variant:normal;font-weight:normal;font-stretch:normal;text-align:start;line-height:108.00000429%;writing-mode:lr-tb;text-anchor:start;fill:#ff0000;fill-opacity:1;font-family:Andale Mono;-inkscape-font-specification:Andale Mono"
         id="tspan7383"
         sodipodi:role="line">midi</tspan><tspan
         y="70.165924"
         x="597.77026"
         style="font-size:12.59668827px;font-style:normal;font-variant:normal;font-weight:normal;font-stretch:normal;text-align:start;line-height:108.00000429%;writing-mode:lr-tb;text-anchor:start;fill:#ff0000;fill-opacity:1;font-family:Andale Mono;-inkscape-font-specification:Andale Mono"
         id="tspan7385"
         sodipodi:role="line">midi out     1&gt;|</tspan></text>
    <path
       transform="matrix(0.74324324,0,0,0.74324324,485.24324,-5.6097101)"
       d="m 385,97.362183 a 20,20 0 1 1 -40,0 20,20 0 1 1 40,0 z"
       sodipodi:ry="20"
       sodipodi:rx="20"
       sodipodi:cy="97.362183"
       sodipodi:cx="365"
       id="path7387"
       style="fill:none;stroke:#000000;stroke-opacity:1;display:inline"
       sodipodi:type="arc" />
    <path
       sodipodi:type="arc"
       style="fill:#2b2b2b;fill-opacity:1;stroke:#000000;stroke-opacity:1;display:inline"
       id="path7389"
       sodipodi:cx="365"
       sodipodi:cy="97.362183"
       sodipodi:rx="20"
       sodipodi:ry="20"
       d="m 385,97.362183 a 20,20 0 1 1 -40,0 20,20 0 1 1 40,0 z"
       transform="matrix(0.36800872,0,0,0.36800872,622.20385,30.923942)" />
    <path
       sodipodi:type="arc"
       style="fill:none;stroke:#000000;stroke-opacity:1;display:inline"
       id="path7391"
       sodipodi:cx="365"
       sodipodi:cy="97.362183"
       sodipodi:rx="20"
       sodipodi:ry="20"
       d="m 385,97.362183 a 20,20 0 1 1 -40,0 20,20 0 1 1 40,0 z"
       transform="matrix(0.74324324,0,0,0.74324324,305.15147,45.325091)" />
    <path
       transform="matrix(0.36800872,0,0,0.36800872,442.11207,81.858738)"
       d="m 385,97.362183 a 20,20 0 1 1 -40,0 20,20 0 1 1 40,0 z"
       sodipodi:ry="20"
       sodipodi:rx="20"
       sodipodi:cy="97.362183"
       sodipodi:cx="365"
       id="path7393"
       style="fill:none;stroke:#000000;stroke-opacity:1;display:inline"
       sodipodi:type="arc" />
    <rect
       y="116.35642"
       x="566.16913"
       height="2.7948256"
       width="8.7555656"
       id="rect7395"
       style="fill:#000000;fill-opacity:1;stroke:#000000;stroke-width:0.50200361;stroke-miterlimit:4;stroke-opacity:1;stroke-dasharray:none;display:inline" />
    <path
       transform="matrix(0.59459459,0,0,0.59459459,348.89107,10.632045)"
       d="m 386.71329,179.98456 a 4.1958041,4.1958041 0 1 1 -8.39161,0 4.1958041,4.1958041 0 1 1 8.39161,0 z"
       sodipodi:ry="4.1958041"
       sodipodi:rx="4.1958041"
       sodipodi:cy="179.98456"
       sodipodi:cx="382.51749"
       id="path7397"
       style="fill:#000000;fill-opacity:1;stroke:none;display:inline"
       sodipodi:type="arc" />
    <path
       transform="matrix(0.74324324,0,0,0.74324324,357.47579,45.325091)"
       d="m 385,97.362183 a 20,20 0 1 1 -40,0 20,20 0 1 1 40,0 z"
       sodipodi:ry="20"
       sodipodi:rx="20"
       sodipodi:cy="97.362183"
       sodipodi:cx="365"
       id="path7399"
       style="fill:none;stroke:#000000;stroke-opacity:1;display:inline"
       sodipodi:type="arc" />
    <path
       sodipodi:type="arc"
       style="fill:none;stroke:#000000;stroke-opacity:1;display:inline"
       id="path7401"
       sodipodi:cx="365"
       sodipodi:cy="97.362183"
       sodipodi:rx="20"
       sodipodi:ry="20"
       d="m 385,97.362183 a 20,20 0 1 1 -40,0 20,20 0 1 1 40,0 z"
       transform="matrix(0.36800872,0,0,0.36800872,494.43639,81.858738)" />
    <rect
       style="fill:#000000;fill-opacity:1;stroke:#000000;stroke-width:0.50200361;stroke-miterlimit:4;stroke-opacity:1;stroke-dasharray:none;display:inline"
       id="rect7403"
       width="8.7555656"
       height="2.7948256"
       x="618.49341"
       y="116.35642" />
    <path
       sodipodi:type="arc"
       style="fill:#000000;fill-opacity:1;stroke:none;display:inline"
       id="path7405"
       sodipodi:cx="382.51749"
       sodipodi:cy="179.98456"
       sodipodi:rx="4.1958041"
       sodipodi:ry="4.1958041"
       d="m 386.71329,179.98456 a 4.1958041,4.1958041 0 1 1 -8.39161,0 4.1958041,4.1958041 0 1 1 8.39161,0 z"
       transform="matrix(0.59459459,0,0,0.59459459,401.2154,10.632045)" />
    <path
       sodipodi:type="arc"
       style="fill:none;stroke:#000000;stroke-opacity:1;display:inline"
       id="path7407"
       sodipodi:cx="365"
       sodipodi:cy="97.362183"
       sodipodi:rx="20"
       sodipodi:ry="20"
       d="m 385,97.362183 a 20,20 0 1 1 -40,0 20,20 0 1 1 40,0 z"
       transform="matrix(0.74324324,0,0,0.74324324,410.98931,45.325091)" />
    <path
       transform="matrix(0.36800872,0,0,0.36800872,547.9499,81.858738)"
       d="m 385,97.362183 a 20,20 0 1 1 -40,0 20,20 0 1 1 40,0 z"
       sodipodi:ry="20"
       sodipodi:rx="20"
       sodipodi:cy="97.362183"
       sodipodi:cx="365"
       id="path7409"
       style="fill:none;stroke:#000000;stroke-opacity:1;display:inline"
       sodipodi:type="arc" />
    <rect
       y="116.35642"
       x="672.00696"
       height="2.7948256"
       width="8.7555656"
       id="rect7411"
       style="fill:#000000;fill-opacity:1;stroke:#000000;stroke-width:0.50200361;stroke-miterlimit:4;stroke-opacity:1;stroke-dasharray:none;display:inline" />
    <path
       transform="matrix(0.59459459,0,0,0.59459459,454.72891,10.632045)"
       d="m 386.71329,179.98456 a 4.1958041,4.1958041 0 1 1 -8.39161,0 4.1958041,4.1958041 0 1 1 8.39161,0 z"
       sodipodi:ry="4.1958041"
       sodipodi:rx="4.1958041"
       sodipodi:cy="179.98456"
       sodipodi:cx="382.51749"
       id="path7413"
       style="fill:#000000;fill-opacity:1;stroke:none;display:inline"
       sodipodi:type="arc" />
    <path
       transform="matrix(0.74324324,0,0,0.74324324,466.8812,45.325091)"
       d="m 385,97.362183 a 20,20 0 1 1 -40,0 20,20 0 1 1 40,0 z"
       sodipodi:ry="20"
       sodipodi:rx="20"
       sodipodi:cy="97.362183"
       sodipodi:cx="365"
       id="path7415"
       style="fill:none;stroke:#000000;stroke-opacity:1;display:inline"
       sodipodi:type="arc" />
    <path
       sodipodi:type="arc"
       style="fill:none;stroke:#000000;stroke-opacity:1;display:inline"
       id="path7417"
       sodipodi:cx="365"
       sodipodi:cy="97.362183"
       sodipodi:rx="20"
       sodipodi:ry="20"
       d="m 385,97.362183 a 20,20 0 1 1 -40,0 20,20 0 1 1 40,0 z"
       transform="matrix(0.36800872,0,0,0.36800872,603.8418,81.858738)" />
    <rect
       style="fill:#000000;fill-opacity:1;stroke:#000000;stroke-width:0.50200361;stroke-miterlimit:4;stroke-opacity:1;stroke-dasharray:none;display:inline"
       id="rect7419"
       width="8.7555656"
       height="2.7948256"
       x="727.8988"
       y="116.35642" />
    <path
       sodipodi:type="arc"
       style="fill:#000000;fill-opacity:1;stroke:none;display:inline"
       id="path7421"
       sodipodi:cx="382.51749"
       sodipodi:cy="179.98456"
       sodipodi:rx="4.1958041"
       sodipodi:ry="4.1958041"
       d="m 386.71329,179.98456 a 4.1958041,4.1958041 0 1 1 -8.39161,0 4.1958041,4.1958041 0 1 1 8.39161,0 z"
       transform="matrix(0.59459459,0,0,0.59459459,510.6208,10.632045)" />
    <path
       style="fill:none;stroke:#000000;stroke-width:3.61812449;stroke-linecap:butt;stroke-linejoin:round;stroke-miterlimit:4;stroke-opacity:1;stroke-dasharray:none"
       d="m 181,22.362183 0,-55 285,0 0,55"
       id="path7423" />
    <path
       id="path7937"
       d="m 437,22.362183 0,-40 285,0 0,40"
       style="fill:none;stroke:#000000;stroke-width:3.61812449;stroke-linecap:butt;stroke-linejoin:round;stroke-miterlimit:4;stroke-opacity:1;stroke-dasharray:none"
       sodipodi:nodetypes="cccc" />
    <text
       xml:space="preserve"
       style="font-size:40px;font-style:normal;font-weight:normal;fill:#000000;fill-opacity:1;stroke:none;font-family:Bitstream Vera Sans"
       x="143"
       y="18.862183"
       id="text7939"><tspan
         sodipodi:role="line"
         id="tspan7941"
         x="143"
         y="18.862183"
         style="font-size:20px">out</tspan></text>
    <text
       id="text7943"
       y="18.862183"
       x="399"
       style="font-size:40px;font-style:normal;font-weight:normal;fill:#000000;fill-opacity:1;stroke:none;font-family:Bitstream Vera Sans"
       xml:space="preserve"><tspan
         style="font-size:20px"
         y="18.862183"
         x="399"
         id="tspan7945"
         sodipodi:role="line">out</tspan></text>
    <text
       xml:space="preserve"
       style="font-size:40px;font-style:normal;font-weight:normal;fill:#000000;fill-opacity:1;stroke:none;font-family:Bitstream Vera Sans"
       x="471"
       y="18.862183"
       id="text7947"><tspan
         sodipodi:role="line"
         id="tspan7949"
         x="471"
         y="18.862183"
         style="font-size:20px">in</tspan></text>
    <text
       id="text7955"
       y="18.862183"
       x="727"
       style="font-size:40px;font-style:normal;font-weight:normal;fill:#000000;fill-opacity:1;stroke:none;font-family:Bitstream Vera Sans"
       xml:space="preserve"><tspan
         style="font-size:20px"
         y="18.862183"
         x="727"
         id="tspan7957"
         sodipodi:role="line">in</tspan></text>
    <path
       style="fill:none;stroke:#000000;stroke-width:3.61771654;stroke-linecap:butt;stroke-linejoin:miter;stroke-opacity:1;stroke-miterlimit:4;stroke-dasharray:none"
       d="m 200,22.362183 0,-85 -55,0"
       id="path7959" />
    <text
       id="text7961"
       y="18.862183"
       x="205"
       style="font-size:40px;font-style:normal;font-weight:normal;fill:#000000;fill-opacity:1;stroke:none;font-family:Bitstream Vera Sans"
       xml:space="preserve"><tspan
         style="font-size:20px"
         y="18.862183"
         x="205"
         id="tspan7963"
         sodipodi:role="line">in</tspan></text>
    <text
       xml:space="preserve"
       style="font-size:40px;font-style:normal;font-weight:normal;fill:#000000;fill-opacity:1;stroke:none;font-family:Bitstream Vera Sans"
       x="7"
       y="-57.137817"
       id="text7965"><tspan
         sodipodi:role="line"
         id="tspan7967"
         x="7"
         y="-57.137817"
         style="font-size:16px">master keyboard</tspan></text>
  </g>
</svg>
